<svg xmlns:cc="http://creativecommons.org/ns#" xmlns:dc="http://purl.org/dc/elements/1.1/" xmlns:inkscape="http://www.inkscape.org/namespaces/inkscape" xmlns:rdf="http://www.w3.org/1999/02/22-rdf-syntax-ns#" xmlns:sodipodi="http://sodipodi.sourceforge.net/DTD/sodipodi-0.dtd" xmlns:svg="http://www.w3.org/2000/svg" xmlns="http://www.w3.org/2000/svg" xmlns:xlink="http://www.w3.org/1999/xlink" x="0px" y="0px" viewBox="0 0 100 100" style="enable-background:new 0 0 100 100;" xml:space="preserve"><g>	<path d="M50,5.6c-1.3,0-2.5,0.5-3.7,1.2c-1.3,0.7-2.6,1.6-3.9,2.5c-2.6,1.8-5.4,3.7-6.2,4c-0.9,0.3-4.2,0.6-7.3,0.9  c-1.6,0.1-3.2,0.3-4.6,0.6c-1.4,0.3-2.6,0.6-3.6,1.4c-1,0.8-1.5,2-2,3.3c-0.5,1.3-1,2.9-1.4,4.4c-0.8,3.1-1.7,6.3-2.2,7.1  c-0.5,0.8-2.8,3.2-5,5.4c-1.1,1.1-2.2,2.3-3.1,3.4C6.1,41,5.3,42,5.1,43.3c-0.2,1.3,0.1,2.5,0.6,3.9c0.5,1.4,1.1,2.8,1.7,4.2  c1.3,2.9,2.7,5.9,2.9,6.8c0.2,0.9-0.1,4.2-0.4,7.4c-0.1,1.6-0.2,3.2-0.2,4.6c0,1.4,0.1,2.7,0.8,3.8c0.7,1.1,1.7,1.8,2.9,2.6  c1.2,0.7,2.6,1.5,4.1,2.1c2.9,1.4,5.9,2.8,6.6,3.4c0.7,0.6,2.6,3.3,4.5,5.9c0.9,1.3,1.9,2.6,2.8,3.6c0.9,1.1,1.8,2,3,2.4  c1.2,0.5,2.5,0.3,3.9,0.1c1.4-0.2,3-0.6,4.5-1c3.1-0.8,6.3-1.7,7.2-1.7c0.9,0,4.2,0.9,7.2,1.7c1.5,0.4,3.1,0.8,4.5,1  c1.4,0.2,2.6,0.3,3.9-0.1c1.2-0.5,2.1-1.4,3.1-2.4c0.9-1.1,1.9-2.3,2.8-3.6c1.8-2.6,3.8-5.3,4.5-5.9c0.7-0.6,3.7-2,6.6-3.4  c1.4-0.7,2.9-1.4,4.1-2.1c1.2-0.7,2.3-1.4,2.9-2.6c0.7-1.1,0.7-2.4,0.8-3.8c0-1.4-0.1-3-0.2-4.6c-0.3-3.2-0.5-6.5-0.4-7.4  c0.2-0.9,1.6-3.9,2.9-6.8c0.7-1.4,1.3-2.9,1.7-4.3c0.5-1.4,0.8-2.5,0.6-3.8c-0.2-1.3-1-2.3-1.8-3.4c-0.9-1.1-2-2.2-3.1-3.4  c-2.2-2.3-4.6-4.6-5-5.4c-0.5-0.8-1.3-4-2.2-7.1c-0.4-1.5-0.9-3.1-1.4-4.4c-0.5-1.3-1-2.5-2.1-3.3c-1-0.8-2.2-1.1-3.6-1.4  c-1.4-0.3-3-0.5-4.6-0.6c-3.2-0.3-6.5-0.6-7.3-0.9c-0.9-0.3-3.6-2.2-6.2-4c-1.3-0.9-2.6-1.8-3.9-2.5C52.5,6.2,51.3,5.6,50,5.6  L50,5.6z M50,8.7c0.2,0,1.1,0.3,2.2,0.9c1.1,0.6,2.3,1.4,3.6,2.3c2.5,1.8,4.9,3.6,6.9,4.4c2,0.7,5,0.8,8.1,1.1  c1.5,0.1,3,0.3,4.2,0.6c1.2,0.2,2.1,0.7,2.3,0.8c0.2,0.1,0.7,0.9,1.1,2.1c0.4,1.1,0.9,2.6,1.3,4.1c0.8,3,1.4,6,2.5,7.8  c1.1,1.9,3.3,3.8,5.5,6c1.1,1.1,2.1,2.2,2.9,3.1c0.8,1,1.2,1.8,1.2,2c0,0.2-0.1,1.2-0.5,2.3c-0.4,1.2-1,2.5-1.6,3.9  c-1.3,2.8-2.7,5.5-3.1,7.6c-0.4,2.1,0.1,5.1,0.3,8.2c0.1,1.5,0.2,3,0.2,4.3c0,1.2-0.3,2.2-0.4,2.3C86.7,72.7,86,73.3,85,74  c-1,0.6-2.4,1.3-3.8,2c-2.8,1.3-5.6,2.4-7.3,3.8c-1.6,1.4-3.2,4-5,6.5c-0.9,1.3-1.8,2.5-2.6,3.4c-0.8,0.9-1.6,1.5-1.8,1.6  c-0.2,0.1-1.2,0.1-2.4,0C61,91,59.5,90.6,58,90.2c-3-0.8-5.9-1.8-8-1.8c-2.2,0-5,1-8,1.8c-1.5,0.4-3,0.7-4.2,0.9  c-1.2,0.2-2.2,0.1-2.4,0.1c-0.2-0.1-1-0.7-1.8-1.6c-0.8-0.9-1.7-2.1-2.6-3.4c-1.8-2.5-3.4-5.1-5-6.5c-1.6-1.4-4.5-2.5-7.2-3.8  c-1.4-0.7-2.7-1.3-3.8-2c-1-0.6-1.7-1.3-1.8-1.5c-0.1-0.2-0.3-1.1-0.4-2.3c0-1.2,0.1-2.7,0.2-4.3c0.2-3.1,0.7-6.1,0.3-8.2  c-0.4-2.1-1.8-4.8-3.1-7.6c-0.6-1.4-1.3-2.8-1.6-3.9c-0.4-1.2-0.5-2.1-0.4-2.3c0-0.2,0.5-1.1,1.2-2c0.8-1,1.8-2.1,2.9-3.2  c2.2-2.2,4.4-4.2,5.5-6c1.1-1.9,1.7-4.8,2.5-7.8c0.4-1.5,0.9-2.9,1.3-4.1c0.4-1.1,1-2,1.1-2.1c0.2-0.1,1.1-0.5,2.3-0.8  c1.2-0.2,2.7-0.4,4.2-0.6c3.1-0.3,6.1-0.3,8.1-1.1c2-0.7,4.4-2.6,6.9-4.4c1.3-0.9,2.5-1.7,3.6-2.3C48.9,9,49.8,8.7,50,8.7L50,8.7z   M50,20.1c-16.5,0-29.9,13.4-29.9,29.9c0,16.5,13.4,29.9,29.9,29.9c16.5,0,29.9-13.4,29.9-29.9C79.9,33.5,66.5,20.1,50,20.1z   M50,23.3c14.8,0,26.7,12,26.7,26.7c0,14.8-12,26.7-26.7,26.7c-14.8,0-26.8-12-26.8-26.7S35.2,23.3,50,23.3z M64.4,37.1  c-1.5,0-3,0.6-4.1,1.7l-12.8,13l-5.8-5.9c-2.2-2.3-6-2.3-8.2,0c-2.3,2.2-2.3,6-0.1,8.2l9.9,10.1c2.3,2.3,6,2.3,8.3,0l17-17.2  c2.2-2.3,2.2-6-0.1-8.2c-1.1-1.1-2.5-1.6-4-1.6C64.4,37.1,64.4,37.1,64.4,37.1L64.4,37.1C64.4,37.1,64.4,37.1,64.4,37.1L64.4,37.1z   M64.4,40.2L64.4,40.2c0.7,0,1.4,0.3,1.9,0.8c1.1,1.1,1.1,2.8,0,3.8L49.4,62c-1.1,1.1-2.8,1.1-3.9,0l-9.9-10.1  c-1.1-1.1-1.1-2.8,0-3.8c0,0,0,0,0,0c1.1-1.1,2.8-1.1,3.8,0l6.9,7c0.6,0.6,1.6,0.6,2.2,0c0,0,0,0,0,0L62.5,41  C63,40.5,63.7,40.2,64.4,40.2L64.4,40.2z"></path>	<path d="M63.8,94.9c-0.7,0-1.4-0.1-2.1-0.2c-1.6-0.2-3.4-0.7-4.5-1l-0.4-0.1c-2.8-0.7-5.9-1.5-6.7-1.5c0,0,0,0,0,0  c-0.8,0-3.9,0.8-6.7,1.5l-0.4,0.1c-1.8,0.5-3.3,0.8-4.5,1c-1.5,0.2-2.8,0.4-4.1-0.1C32.9,94.1,32,93.1,31,92c-1-1.2-2-2.5-2.8-3.7  L27.9,88c-1.7-2.4-3.6-5-4.2-5.5c-0.6-0.5-3.4-1.8-5.8-3l-0.6-0.3c-1.2-0.6-2.8-1.3-4.1-2.2c-1.3-0.8-2.4-1.5-3.1-2.8  c-0.7-1.2-0.8-2.6-0.8-4.1c0-1.5,0.1-3.2,0.2-4.6l0-0.3c0.2-2.9,0.5-6.2,0.4-7c-0.1-0.8-1.5-3.7-2.7-6.3L7,51.6  c-0.6-1.3-1.3-2.9-1.8-4.3c-0.5-1.4-0.9-2.7-0.6-4.1c0.2-1.4,1-2.5,2-3.7c0.9-1.2,2-2.3,3.1-3.4l0.3-0.3c2-2,4.3-4.4,4.7-5.1  c0.4-0.7,1.3-3.9,2-6.7l0.1-0.3c0.4-1.4,0.8-3,1.4-4.4c0.5-1.4,1.1-2.6,2.2-3.5c1.1-0.9,2.5-1.3,3.9-1.5c1.5-0.3,3.2-0.5,4.6-0.6  l0.6-0.1c2.7-0.3,5.8-0.6,6.6-0.8c0.8-0.3,3.6-2.2,6.1-3.9c1.2-0.8,2.6-1.8,3.9-2.5c1.2-0.7,2.5-1.3,3.9-1.3c0,0,0,0,0,0  c1.4,0,2.6,0.6,3.9,1.3c1.4,0.7,2.8,1.7,3.9,2.5l0.4,0.3c2.3,1.6,5,3.4,5.7,3.7c0.7,0.3,3.9,0.6,6.7,0.8l0.5,0  c1.4,0.1,3.1,0.3,4.6,0.6c1.4,0.3,2.7,0.6,3.8,1.5c1.1,0.9,1.7,2.2,2.2,3.5c0.5,1.4,1,3,1.4,4.4l0,0.1c0.8,2.9,1.7,6.1,2.1,6.8  c0.4,0.7,2.8,3.1,4.9,5.2l0.1,0.1c1.1,1.1,2.2,2.3,3.1,3.4c0.9,1.1,1.7,2.2,2,3.7c0.2,1.4-0.1,2.7-0.6,4.1c-0.5,1.5-1.2,3-1.8,4.3  c-1.3,2.8-2.7,5.9-2.8,6.7c-0.1,0.8,0.1,4.1,0.4,7l0,0.2c0.1,1.3,0.2,3.1,0.2,4.6c0,1.5-0.1,2.8-0.8,4.1c-0.7,1.3-1.8,2-3.1,2.8  c-1.4,0.8-3,1.6-4.1,2.2L82,79.5c-2.4,1.2-5.2,2.5-5.8,3c-0.6,0.5-2.4,3-4,5.2l-0.4,0.6C71,89.5,70,90.9,69,92  c-0.9,1.1-1.9,2.1-3.3,2.6C65.1,94.8,64.4,94.9,63.8,94.9z M50,91.1c0.9,0,3.8,0.8,6.9,1.6l0.4,0.1c1.2,0.3,2.9,0.7,4.4,1  c1.4,0.2,2.5,0.3,3.6-0.1c1.1-0.4,2-1.3,2.9-2.3c1-1.1,1.9-2.4,2.8-3.6l0.4-0.6c1.8-2.5,3.4-4.8,4.1-5.4c0.7-0.6,3.3-1.8,6-3.1  l0.7-0.3c1.1-0.5,2.7-1.3,4-2.1c1.1-0.7,2.1-1.4,2.8-2.4c0.6-1,0.7-2.2,0.7-3.6c0-1.5-0.1-3.2-0.2-4.5l0-0.2  c-0.3-3.3-0.5-6.3-0.3-7.3c0.2-0.9,1.2-3.3,2.9-6.9c0.6-1.3,1.3-2.8,1.7-4.2c0.4-1.3,0.8-2.4,0.6-3.6c-0.2-1.2-0.9-2.2-1.7-3.2  c-0.9-1.1-2-2.3-3.1-3.3l-0.1-0.1c-2.3-2.4-4.5-4.6-5-5.4c-0.5-0.8-1.3-3.9-2.2-7.1l0-0.1c-0.4-1.4-0.8-3-1.4-4.3  c-0.5-1.2-1-2.3-1.9-3.1c-0.9-0.8-2-1-3.4-1.3c-1.4-0.3-3.1-0.5-4.5-0.6l-0.5,0c-3.1-0.3-6.1-0.6-7-0.9c-0.9-0.3-3.3-2-6-3.8  l-0.4-0.3C56.2,9,54.8,8,53.5,7.3c-1.2-0.6-2.2-1.2-3.5-1.2l0,0c0,0,0,0,0,0c-1.2,0-2.3,0.5-3.5,1.2c-1.3,0.7-2.7,1.6-3.8,2.4  c-3.3,2.3-5.5,3.8-6.3,4.1c-0.9,0.3-3.8,0.6-6.8,0.9l-0.6,0.1c-1.4,0.1-3.1,0.3-4.5,0.6c-1.3,0.3-2.5,0.5-3.4,1.3  c-0.9,0.8-1.4,1.8-1.9,3.1c-0.5,1.4-1,3-1.4,4.3l-0.1,0.3c-0.9,3.1-1.7,6.1-2.1,6.9c-0.5,0.8-2.6,3-4.9,5.3l-0.3,0.3  c-1.1,1.1-2.2,2.2-3.1,3.3c-0.9,1.1-1.6,2-1.8,3.2c-0.2,1.2,0.1,2.3,0.6,3.6c0.5,1.4,1.1,2.9,1.7,4.2L8,51.6  c1.3,2.9,2.6,5.7,2.8,6.6c0.2,0.9-0.1,4-0.3,7.2l0,0.3c-0.1,1.4-0.2,3.1-0.2,4.5c0,1.3,0.1,2.5,0.7,3.6c0.6,1,1.6,1.7,2.7,2.4  c1.3,0.8,2.8,1.5,4,2.1l0.6,0.3c2.8,1.3,5.4,2.5,6.1,3.1c0.7,0.6,2.5,3.1,4.4,5.7l0.2,0.3c0.8,1.2,1.8,2.5,2.8,3.6  c0.9,1,1.7,1.9,2.8,2.3c1.1,0.4,2.3,0.3,3.7,0.1c1.2-0.2,2.6-0.5,4.4-1l0.4-0.1C46.2,91.8,49.1,91.1,50,91.1  C50,91.1,50,91.1,50,91.1z M63.7,91.8c-0.5,0-1,0-1.6-0.1c-1.3-0.2-3-0.6-4.2-0.9c-0.7-0.2-1.4-0.4-2.1-0.6  C53.6,89.5,51.6,89,50,89c0,0,0,0,0,0c-1.6,0-3.6,0.6-5.7,1.2c-0.7,0.2-1.4,0.4-2.1,0.6c-1.7,0.5-3.2,0.8-4.2,0.9  c-1.2,0.2-2.3,0.2-2.6,0c-0.4-0.1-1.2-0.8-2-1.7c-0.8-1-1.8-2.2-2.6-3.4c-0.4-0.6-0.8-1.1-1.2-1.7c-1.3-1.9-2.5-3.7-3.7-4.7  c-1.2-1-3.2-1.9-5.3-2.9c-0.6-0.3-1.3-0.6-1.9-0.9c-1.3-0.6-2.7-1.3-3.8-2c-1-0.6-1.8-1.3-2-1.7c-0.2-0.3-0.4-1.4-0.4-2.6  c0-1.3,0.1-2.9,0.2-4.3c0.1-0.7,0.1-1.3,0.2-2c0.2-2.3,0.4-4.5,0.1-6.1c-0.3-1.6-1.2-3.5-2.2-5.6c-0.3-0.6-0.6-1.2-0.9-1.9  c-0.6-1.4-1.3-2.8-1.7-4c-0.4-1.1-0.5-2.2-0.5-2.6c0.1-0.3,0.5-1.3,1.3-2.3c0.8-1,1.9-2.2,2.9-3.2c0.5-0.5,1-1,1.5-1.5  c1.6-1.6,3.1-3.1,3.9-4.5c0.8-1.4,1.3-3.4,1.9-5.6c0.2-0.7,0.4-1.4,0.5-2.1c0.5-1.7,0.9-3.1,1.3-4.1c0.4-1.1,1-2.1,1.3-2.3  c0.3-0.2,1.4-0.6,2.5-0.9c1.1-0.2,2.4-0.4,4.3-0.6c0.7-0.1,1.5-0.1,2.2-0.2c2.2-0.2,4.3-0.3,5.8-0.9c1.5-0.5,3.2-1.8,5.1-3.1  c0.6-0.4,1.1-0.8,1.7-1.2c1-0.7,2.4-1.7,3.7-2.3c1-0.6,2.1-0.9,2.5-0.9l0,0l0,0c0.4,0,1.4,0.4,2.5,0.9c0.9,0.5,2.1,1.2,3.6,2.3  c0.6,0.4,1.2,0.8,1.7,1.2c1.8,1.3,3.6,2.6,5.1,3.1c1.5,0.5,3.6,0.7,5.8,0.9c0.7,0.1,1.5,0.1,2.2,0.2c1.8,0.2,3.2,0.4,4.3,0.6  c1.2,0.2,2.2,0.7,2.5,0.9c0.3,0.2,0.9,1.2,1.3,2.3c0.5,1.2,0.9,2.7,1.3,4.1c0.2,0.7,0.4,1.3,0.5,2c0.6,2.2,1.1,4.3,1.9,5.7  c0.8,1.4,2.3,2.9,3.9,4.5c0.5,0.5,1,1,1.5,1.5c1.2,1.2,2.2,2.3,2.9,3.2c0.8,1,1.3,1.9,1.3,2.3c0.1,0.4-0.1,1.5-0.5,2.6  c-0.3,1-0.9,2.3-1.6,4c-0.3,0.6-0.6,1.3-0.9,1.9c-1,2-1.9,4-2.2,5.5c-0.3,1.6-0.1,3.7,0.2,6c0.1,0.7,0.1,1.4,0.2,2.1  c0.2,1.9,0.2,3.3,0.2,4.3c0,1.2-0.2,2.3-0.4,2.6c-0.2,0.3-1,1.1-2,1.7c-1.1,0.7-2.6,1.4-3.8,2c-0.7,0.3-1.3,0.6-2,0.9  c-2,0.9-4,1.8-5.2,2.8c-1.2,1-2.4,2.8-3.7,4.6c-0.4,0.6-0.8,1.2-1.2,1.7c-0.8,1.2-1.8,2.5-2.6,3.4c-0.8,0.9-1.7,1.6-2,1.7  C64.5,91.7,64.2,91.8,63.7,91.8z M50,88C50,88,50,88,50,88c1.7,0,3.8,0.6,6.1,1.2c0.7,0.2,1.4,0.4,2,0.6c1.2,0.3,2.8,0.7,4.1,0.9  c1.2,0.2,2,0.1,2.1,0.1c0.1-0.1,0.8-0.6,1.6-1.4c0.8-0.9,1.8-2.2,2.6-3.4c0.4-0.6,0.8-1.2,1.2-1.7c1.3-1.9,2.6-3.7,3.9-4.8  c1.3-1.1,3.3-2,5.4-3c0.6-0.3,1.3-0.6,1.9-0.9c1.2-0.6,2.7-1.3,3.7-2c1-0.6,1.6-1.2,1.7-1.3c0-0.1,0.3-0.9,0.3-2.1  c0-1,0-2.4-0.2-4.2c-0.1-0.7-0.1-1.4-0.2-2.1c-0.2-2.3-0.4-4.5-0.1-6.2c0.3-1.7,1.3-3.7,2.3-5.8c0.3-0.6,0.6-1.3,0.9-1.9  c0.7-1.6,1.3-2.9,1.6-3.9c0.4-1.1,0.5-2,0.4-2.1c0-0.1-0.4-0.9-1.1-1.8c-0.7-0.9-1.7-1.9-2.9-3.1c-0.5-0.5-1-1-1.5-1.5  c-1.7-1.6-3.2-3.2-4.1-4.7c-0.9-1.5-1.4-3.7-2-5.9c-0.2-0.7-0.3-1.3-0.5-2c-0.4-1.4-0.8-2.9-1.3-4c-0.4-1.1-0.9-1.8-1-1.9  c-0.1-0.1-0.9-0.4-2-0.7c-1-0.2-2.4-0.4-4.2-0.6c-0.7-0.1-1.5-0.1-2.2-0.2c-2.3-0.2-4.5-0.3-6.1-0.9c-1.6-0.6-3.4-1.9-5.3-3.2  c-0.6-0.4-1.1-0.8-1.7-1.2C54,11.2,52.9,10.5,52,10c-1-0.6-1.8-0.8-2-0.8c-0.2,0-1,0.3-2,0.8c-1.2,0.6-2.6,1.6-3.6,2.3  c-0.6,0.4-1.2,0.8-1.7,1.2c-1.9,1.4-3.7,2.6-5.3,3.2c-1.6,0.6-3.8,0.7-6.1,0.9c-0.7,0.1-1.4,0.1-2.2,0.2c-1.8,0.2-3.2,0.4-4.2,0.6  C23.9,18.6,23.1,19,23,19c-0.1,0.1-0.6,0.8-1,1.9c-0.4,1-0.8,2.4-1.3,4c-0.2,0.7-0.4,1.4-0.5,2c-0.6,2.3-1.1,4.4-2,5.9  c-0.9,1.5-2.4,3-4.1,4.7c-0.5,0.5-1,1-1.5,1.5c-1,1-2.1,2.1-2.9,3.1C9,43,8.7,43.8,8.6,43.9c0,0.1,0.1,1,0.4,2.1  c0.4,1.2,1,2.6,1.6,3.9c0.3,0.6,0.6,1.2,0.9,1.8c1,2.1,2,4.1,2.3,5.8c0.3,1.7,0.1,4-0.1,6.3c-0.1,0.7-0.1,1.3-0.2,2  c-0.1,1.4-0.2,2.9-0.2,4.2c0,1.2,0.2,2,0.3,2.1c0.1,0.1,0.7,0.7,1.7,1.3c1.1,0.7,2.5,1.3,3.7,1.9c0.6,0.3,1.3,0.6,1.9,0.9  c2.1,1,4.2,1.9,5.5,3c1.3,1.1,2.6,3,3.9,4.9c0.4,0.6,0.8,1.1,1.2,1.7c0.8,1.2,1.7,2.4,2.6,3.3c0.8,0.9,1.5,1.4,1.6,1.4  c0.1,0,0.9,0.1,2.1-0.1c1.1-0.2,2.4-0.5,4.1-0.9c0.7-0.2,1.4-0.4,2.1-0.6C46.2,88.5,48.3,88,50,88z M50,80.4  c-16.7,0-30.4-13.6-30.4-30.4c0-16.7,13.6-30.4,30.4-30.4c16.7,0,30.4,13.6,30.4,30.4C80.4,66.7,66.7,80.4,50,80.4z M50,20.6  c-16.2,0-29.4,13.2-29.4,29.4c0,16.2,13.2,29.4,29.4,29.4c16.2,0,29.4-13.2,29.4-29.4C79.4,33.8,66.2,20.6,50,20.6z M50,77.2  C35,77.2,22.8,65,22.8,50C22.8,35,35,22.8,50,22.8C65,22.8,77.3,35,77.3,50C77.3,65,65,77.2,50,77.2z M50,23.8  c-14.5,0-26.3,11.8-26.3,26.2c0,14.5,11.8,26.2,26.3,26.2c14.5,0,26.3-11.8,26.3-26.2C76.3,35.5,64.5,23.8,50,23.8z M47.5,66.4  c-1.7,0-3.3-0.7-4.5-1.9L33,54.4c-2.4-2.5-2.4-6.5,0.1-8.9c2.5-2.5,6.5-2.4,8.9,0.1l5.4,5.5l12.4-12.6c0.9-0.9,2-1.5,3.2-1.8  L62,35.8l1.9,0.6v-0.2l0.7,0.4c1.6,0,3.1,0.7,4.2,1.8c2.5,2.4,2.5,6.5,0.1,8.9L52,64.5C50.8,65.7,49.2,66.4,47.5,66.4z M37.5,44.7  c-1.4,0-2.7,0.5-3.7,1.5c-2.1,2.1-2.1,5.4-0.1,7.5l9.9,10.1c1,1,2.3,1.6,3.8,1.6s2.8-0.6,3.8-1.6l17-17.2c2.1-2.1,2-5.5-0.1-7.5  c-1-0.9-2.3-1.5-3.7-1.5l-0.2,0c-1.4,0-2.6,0.6-3.6,1.6L47.5,52.5l-6.2-6.2C40.3,45.2,38.9,44.7,37.5,44.7z M47.5,63.3  c-0.9,0-1.7-0.3-2.3-1l-9.9-10.1C34,51,34,49,35.3,47.7l0.2-0.1c1.3-1.1,3.2-1.1,4.4,0.2l6.9,7c0.4,0.4,1.1,0.4,1.5,0l13.9-14.1  c0.6-0.6,1.4-0.9,2.3-1v0c0.9,0,1.7,0.3,2.3,0.9c0.6,0.6,1,1.4,1,2.3c0,0.9-0.3,1.7-0.9,2.3l-17,17.2C49.1,63,48.3,63.3,47.5,63.3z   M35.8,48.6c-0.8,0.9-0.7,2.2,0.1,3l9.9,10.1c0.9,0.9,2.3,0.9,3.2,0l17-17.2c0.9-0.9,0.9-2.3,0-3.1c-0.4-0.4-1-0.7-1.6-0.6l0,0l0,0  c-0.6,0-1.1,0.2-1.5,0.7L48.9,55.4c-0.8,0.8-2.1,0.8-2.9,0l-6.9-7c-0.9-0.9-2.2-0.9-3.1,0L35.8,48.6z"></path></g></svg>