<svg xmlns="http://www.w3.org/2000/svg" xmlns:xlink="http://www.w3.org/1999/xlink" x="0px" y="0px" viewBox="0 0 42 22" style="enable-background:new 0 0 42 22;" xml:space="preserve"><g>	<g>		<g>			<path d="M31.2,15.5c-0.2,0-0.3-0.1-0.4-0.2c-0.2-0.2-0.1-0.5,0.1-0.7l4.8-3.6l-4.8-3.6c-0.2-0.2-0.3-0.5-0.1-0.7    c0.2-0.2,0.5-0.3,0.7-0.1l5.3,4c0.1,0.1,0.2,0.2,0.2,0.4c0,0.2-0.1,0.3-0.2,0.4l-5.3,4C31.4,15.4,31.3,15.5,31.2,15.5z"></path>		</g>		<g>			<path d="M36.6,11.5H5.4c-0.3,0-0.5-0.2-0.5-0.5s0.2-0.5,0.5-0.5h31.2c0.3,0,0.5,0.2,0.5,0.5S36.9,11.5,36.6,11.5z"></path>		</g>	</g></g></svg>