<svg xmlns="http://www.w3.org/2000/svg" xmlns:xlink="http://www.w3.org/1999/xlink" x="0px" y="0px" viewBox="0 0 100 100" style="enable-background:new 0 0 100 100;" xml:space="preserve"><path d="M75.6,16c-6.4-4.9-14.1-7.8-22.2-8.4c-2.3-0.2-4.7-0.2-7,0c-0.7,0.1-1.5,0.1-2.2,0.2c-10.1,1.4-19.3,6.3-26.1,13.9 C11.4,29.5,7.6,39.3,7.5,49.4c-0.1,10.2,3.4,20,9.9,27.8c6.5,7.8,15.6,13,25.7,14.7c0.4,0.1,0.8,0.1,1.2,0.2 c9.3,1.3,18.8-0.6,27-5.3c8.2-4.7,14.5-11.9,18.1-20.6c3.6-8.7,4.2-18.3,1.7-27.4C88.5,29.7,83.1,21.7,75.6,16 M18.1,56.6 c-0.9-4.3-0.9-8.6-0.1-12.9c0.8-4.3,2.5-8.3,5-11.9c2.4-3.6,5.6-6.7,9.2-9.1c3.6-2.4,7.7-4,12-4.8c0.3-0.1,0.7-0.1,1-0.2 c-0.3,1.2-0.6,2.4-1,3.6c-2.5,7.2-6.1,14-10.8,20C29.1,47.2,24,52.4,18.1,56.6z M45.1,82.2c-0.3,0-0.6-0.1-0.9-0.2 c-5.2-0.9-10-3.1-14.2-6.3c-4.1-3.2-7.4-7.4-9.6-12.2c7.2-4.9,13.5-11,18.6-17.9c1.9-2.5,3.6-5.1,5.2-7.7c3.9-6.3,6.7-13.2,8.3-20.4 c6.2,0.5,12.1,2.7,17.1,6.5c5,3.7,8.8,8.8,10.9,14.7c-9.2,5.1-17.1,12.2-23.3,20.7C52,66.2,47.9,74,45.1,82.2 M76,69.6 c-2.8,3.7-6.3,6.8-10.4,9c-4.1,2.2-8.6,3.5-13.2,3.9c2.5-6.8,6-13.2,10.4-18.9c5.2-7.2,11.9-13.3,19.4-17.9 C83.4,54.2,81.2,62.8,76,69.6"></path></svg>