<svg xmlns="http://www.w3.org/2000/svg" xmlns:xlink="http://www.w3.org/1999/xlink" x="0px" y="0px" viewBox="0 0 110 110" style="enable-background:new 0 0 110 110;" xml:space="preserve"><g>	<g>		<path d="M37.6,41.5c2-1.1,2.7-3.2,1.9-5.3c3.2-1.3,7.6-3,9.2-3.9c1.3-0.7,2-1.8,2.8-3c1.1-1.7,2.4-3.9,6.3-5l0.2-0.1v0   c7.8-2.3,14.6-1.6,19.9,1.2c5.3,2.8,9.1,7.7,11,13.8l0,0.1h0c4.2,14-7.2,34-14.5,46.8l-0.4,0.6l-0.3-0.1   c-4.3-1.8-8.8-3.8-12.9-6.2h0c-1.6-0.9-2.7-1.8-3.3-2.9c-0.5-1.1-0.5-2.6,0.2-5c0.8-2.6,0.8-5.7-0.1-8.6c-0.8-2.7-2.3-5.1-4.6-6.9   l-1.7-1.4l-0.1,2.2c-0.1,1.4-0.6,2.3-1.2,2.9c-0.7,0.6-1.7,0.9-2.7,1.1l-0.8,0.1c-2.3,0.4-3,0.5-5.5,2.1c-0.4,0-1.2,0-1.9-0.2   c-1.1-0.3-2-0.2-2.8,0.8c-0.6,0.7-1,1.8-1.3,3.5c-0.3,1.4-0.2,2.6,0.1,3.6c0.3,1.1,1,2,1.9,2.8c1.7,1.3,2.5,2.1,2.6,2.9   c0.1,1-0.4,2.6-1.4,5.3c-0.2,0.6,0.1,1.3,0.7,1.5c0.6,0.2,1.3-0.1,1.5-0.7c1.1-3.1,1.7-4.8,1.5-6.4c-0.2-1.7-1.3-2.8-3.5-4.5   c-0.6-0.4-0.9-0.9-1.1-1.6v0c-0.2-0.7-0.2-1.5,0-2.5c0.2-1.3,0.5-2.1,0.8-2.4c0.1-0.1,0.2-0.1,0.3-0.1c1.4,0.4,3,0.3,3.1,0.3   l0.3,0l0.2-0.1c2.4-1.5,2.9-1.6,4.9-1.9l0.8-0.1c1.4-0.2,2.7-0.7,3.8-1.7c0.7-0.6,1.2-1.3,1.6-2.3c1.1,1.3,1.9,2.8,2.3,4.4   c0.7,2.5,0.7,5.1,0.1,7.3c-0.9,3-0.9,5.1-0.1,6.7c0.8,1.6,2.2,2.7,4.2,3.9l0,0c4.3,2.5,8.8,4.5,13.1,6.4l2.2,0.9l1.4-2.4   C84,74,95.7,53.5,91.2,38.6l0,0l0-0.2c-2-6.7-6.3-12.1-12.1-15.2c-5.8-3.1-13.2-3.9-21.6-1.4l0,0L57.2,22c-4.7,1.4-6.3,3.9-7.6,6   c-0.6,1-1.2,1.8-1.9,2.2c-3.6,1.9-7.6,3.4-11.5,4.8c-1.4,0.5-2.2,2-1.9,3.4c1.7,7.7,6.1,16,14.8,16.5c0.6,0,1.2-0.5,1.2-1.1   c0-0.6-0.5-1.2-1.1-1.2C42.6,52.2,39.2,46.1,37.6,41.5L37.6,41.5z M45.2,66.5c0.7,0,1.3,0.6,1.3,1.3c0,0.7-0.6,1.3-1.3,1.3   c-0.7,0-1.3-0.6-1.3-1.3C43.9,67.1,44.5,66.5,45.2,66.5z M54.8,30.4c-0.3,0.4-0.2,0.9,0.2,1.2c0.4,0.3,0.9,0.2,1.2-0.2   c0.3-0.4,0.6-0.6,1-0.7h0c0.4-0.1,0.8,0,1.2,0.2c0.4,0.2,0.7,0.6,0.8,1c0.1,0.4,0.1,0.8-0.1,1.2c-0.2,0.4,0,1,0.4,1.2   c0.4,0.2,1,0,1.2-0.4c0.4-0.8,0.4-1.7,0.2-2.5c-0.2-0.8-0.8-1.5-1.6-2c-0.8-0.5-1.7-0.6-2.5-0.4C56.1,29.2,55.3,29.7,54.8,30.4   L54.8,30.4z M70.1,30.3c-0.4-0.5-1.1-0.6-1.6-0.2c-0.5,0.4-0.6,1.1-0.2,1.6c4,5.3,0.1,10.6-3.6,15.5c-2,2.7-3.9,5.2-4.7,7.9   c-1.6,4.8-0.4,8.8,2.1,11.2c1.2,1.1,2.7,1.9,4.3,2.3c1.6,0.4,3.4,0.4,5.3-0.1c5-1.3,10.3-6,13.1-15.6l0,0c0.4-1.7,0.6-3.4,0.6-5.1   c0-1.8-0.3-3.5-0.7-4.9c-0.2-0.6-0.8-1-1.4-0.8c-0.6,0.2-1,0.8-0.8,1.4c0.4,1.3,0.6,2.7,0.6,4.3c0,1.4-0.2,3-0.5,4.5h0   c-2.5,8.6-7.1,12.9-11.5,14c-1.5,0.4-2.9,0.4-4.2,0.1c-1.3-0.3-2.4-0.9-3.2-1.7c-1.9-1.9-2.7-5-1.5-8.8c0.7-2.3,2.5-4.7,4.4-7.2   C70.7,43,75.1,37,70.1,30.3L70.1,30.3z M35.5,81.7c0.5,0.3,1.3,0.2,1.6-0.4c0.3-0.5,0.2-1.3-0.4-1.6c-8.4-5.1-13.3-11.3-15.4-17.2   c-1-2.9-1.4-5.8-1.2-8.6c0.2-2.7,1.1-5.2,2.3-7.3c1.8-3,4.6-5.3,8-6.5c0.6-0.2,0.9-0.9,0.7-1.5c-0.2-0.6-0.9-0.9-1.5-0.7   c-4,1.4-7.2,4-9.2,7.5c-1.5,2.4-2.4,5.3-2.7,8.3c-0.3,3,0.1,6.2,1.3,9.5C21.4,69.6,26.6,76.2,35.5,81.7L35.5,81.7z"></path>		<path d="M6.7,83.5c0.9,0,0.9-1.3,0-1.3H3.8v-1.4h2.4c0.9,0,0.9-1.3,0-1.3H3.8v-1.4h2.8c0.9,0,0.9-1.2,0-1.2H3.1   c-0.3,0-0.6,0.2-0.6,0.6v5.4c0,0.3,0.3,0.6,0.6,0.6H6.7z M106.2,83c0,0.7,1.3,0.7,1.3,0v-5.4c0-0.7-0.4-0.9-0.8-0.7l-1.3,0.5   c-0.9,0.3-0.4,1.4,0.4,1.2l0.6-0.2L106.2,83L106.2,83z M99.5,82.5c-0.4,0.4-0.2,1,0.4,1h3.7c0.8,0,0.7-1.2,0-1.2h-1.1   c-0.4,0-0.9,0.1-1.4,0.1c0.7-0.4,1.2-0.7,1.9-1.3c1.8-1.8,0.9-4.1-1.4-4.1c-0.8,0-1.7,0.3-2.1,1.2c-0.4,0.9,0.6,1.3,1,0.7   c0.2-0.4,0.7-0.6,1.1-0.6c1.3,0,1.3,1.4,0.4,2.1C101.1,81,100.3,81.5,99.5,82.5L99.5,82.5z M95.8,76.6c-3.9,0-3.9,6.9,0,6.9   C99.5,83.6,99.5,76.6,95.8,76.6z M95.8,77.9c2,0,2,4.4,0,4.4C93.6,82.3,93.6,77.9,95.8,77.9z M87.4,82.5c-0.4,0.4-0.2,1,0.4,1h3.7   c0.8,0,0.7-1.2,0-1.2h-1.1c-0.4,0-0.9,0.1-1.4,0.1c0.7-0.4,1.2-0.7,1.9-1.3c1.8-1.8,0.9-4.1-1.4-4.1c-0.8,0-1.7,0.3-2.1,1.2   c-0.4,0.9,0.6,1.3,1,0.7c0.2-0.4,0.7-0.6,1.1-0.6c1.3,0,1.3,1.4,0.4,2.1C89,81,88.2,81.5,87.4,82.5L87.4,82.5z M20.4,82.8   c0,0.9,1.4,0.9,1.4,0v-0.2c0-0.9-1.4-0.9-1.4,0V82.8z M16.2,82.9c0,0.9,1.3,0.8,1.3,0V78h1.6c0.9,0,0.9-1.2,0-1.2h-4.5   c-0.8,0-0.8,1.2,0,1.2h1.7L16.2,82.9L16.2,82.9z M12.1,81.6c-0.1,1.4-2.2,1-2.9,0.4c-0.3-0.3-0.6-0.2-0.9,0.1   c-0.2,0.3-0.2,0.7,0.1,0.9c1.3,1.1,4.8,1,4.9-1.4c0.1-2.5-4.1-1.6-3.8-3.2c0.2-1,1.8-0.8,2.5-0.3c0.6,0.4,1.3-0.4,0.6-0.9   c-1.3-1-4.1-0.7-4.3,1.2C8,81,12,80.2,12.1,81.6L12.1,81.6z"></path>	</g></g></svg>