<svg xmlns="http://www.w3.org/2000/svg" xmlns:xlink="http://www.w3.org/1999/xlink" x="0px" y="0px" viewBox="0 0 110 110" style="enable-background:new 0 0 110 110;" xml:space="preserve"><style type="text/css">	.brand5-01{fill:#1D256B;}</style><g>	<g>		<path class="brand5-01" d="M54.9,78.8c1.5,0,2.7,1.2,2.7,2.7c0,1.5-1.2,2.7-2.7,2.7s-2.7-1.2-2.7-2.7c0-0.6,0.2-1.2,0.6-1.7   c0,0.1,0,0.1,0,0.2c0,0.6,0.5,1.1,1.1,1.1c0.6,0,1-0.5,1-1.1c0-0.5-0.4-1-1-1C54.1,78.8,54.5,78.8,54.9,78.8z M70.3,31.6v-5.1   c0-4.2-1.7-8-4.5-10.8c-2.8-2.8-6.6-4.5-10.8-4.5s-8,1.7-10.8,4.5c-2.8,2.8-4.5,6.6-4.5,10.8v5.1H70.3L70.3,31.6z M32.7,31.6v-5.1   c0-6.1,2.5-11.7,6.5-15.7c4-4,9.6-6.5,15.7-6.5c6.1,0,11.7,2.5,15.7,6.5c4,4,6.5,9.6,6.5,15.7v5.1h8.6c2.8,0,5,2,5.4,4.7l8.6,63   c0.2,1.7-0.2,3.3-1.4,4.6c-1.1,1.3-2.6,2-4.3,2H63.9c-1.4-2.7-2.6-5.8-3.6-9.5c-5.7-0.3-10.5-2-14.3-5.2c3,1.7,7.5,2.5,13.6,2.3   c7.3-2.7,13.2-5.1,17.8-7.3c2.8-1.3,4.2-2.8,4.1-4.2c-0.2-1.1-3.3-3.3-9.3-6.5c-1.1-5.5-3.3-10.5-6.7-14.8c0.7-1,1.7-2.7,3-5.4   c1.1-2.8,1.2-4.9,0.3-6.3c-2.3-1.8-8,0-17.2,5.3c-4.1,1.1-7.5,2.8-10,5c-4.1,3.7-5.8,8.3-5.1,13.7c0.2,2.4,0.8,5.4,1.9,8.8   c-2-2.4-3.5-5-4.4-7.7c-11.5,5.7-13.7,20-14.6,31.8h-3.8c-1.7,0-3.2-0.7-4.3-2c-1.1-1.3-1.6-2.9-1.4-4.6l8.6-63   c0.4-2.7,2.7-4.7,5.4-4.7H32.7L32.7,31.6z M36.2,41.1c1.9,0,3.5,1.6,3.5,3.5c0,1.9-1.6,3.5-3.5,3.5c-1.9,0-3.5-1.6-3.5-3.5   C32.7,42.7,34.3,41.1,36.2,41.1z M73.8,41.1c1.9,0,3.5,1.6,3.5,3.5c0,1.9-1.6,3.5-3.5,3.5c-1.9,0-3.5-1.6-3.5-3.5   C70.3,42.7,71.9,41.1,73.8,41.1z M48.9,65.4c1.5,0,2.7,1.2,2.7,2.7c0,0.7-0.3,1.4-0.8,1.9c0,0,0-0.1,0-0.1c0-0.6-0.5-1-1-1   s-1,0.5-1,1c0,0.4,0.2,0.8,0.6,0.9c-0.2,0-0.3,0-0.5,0c-1.5,0-2.7-1.2-2.7-2.7S47.4,65.4,48.9,65.4L48.9,65.4z"></path>	</g></g></svg>