<svg xmlns="http://www.w3.org/2000/svg" xmlns:xlink="http://www.w3.org/1999/xlink" x="0px" y="0px" viewBox="0 0 110 110" style="enable-background:new 0 0 110 110;" xml:space="preserve"><style type="text/css">	.brand3-01{fill:#F2AF60;}	.brand3-02{fill:#D2CABB;}	.brand3-03{fill:#FBDE82;}	.brand3-04{fill:#8B5E3C;}</style><g>	<g>		<g>			<path class="brand3-01" d="M83.9,56.8c-3.3-4.6-8.4-11-19.2-11c-4.8,0-8.6,1.8-11.5,4.3c9.3,6.2,14.1,14.7,14.1,25.1c0,0.4,0,0.8,0,1.1    c2,1.1,10,1.7,14.1-0.1C87.7,73.5,91.3,67.4,83.9,56.8L83.9,56.8z M78.8,65.5c-0.3,0.6-0.9,0.9-1.5,0.9c-0.3,0-0.6-0.1-0.9-0.2    c-0.8-0.5-1.1-1.6-0.6-2.4c0.9-1.6,2.7-2.6,4.5-2.6s3.6,1,4.5,2.6c0.5,0.8,0.2,1.9-0.6,2.4c-0.8,0.5-1.9,0.2-2.4-0.6    c-0.3-0.5-0.9-0.9-1.5-0.9S79.1,65,78.8,65.5z"></path>			<path class="brand3-02" d="M38.2,75c0-4.6,1.9-12.8,6.1-19.7c0.9-1.5,1.9-3,3.2-4.4c-0.9-0.5-1.9-0.9-2.9-1.4c-7.2-3.2-14.5-4.5-17.9-5    v6c0,0.5-0.2,1-0.6,1.4c0,0-3.2,2.6-5.5,5.8c-2.1,4.4-3.1,9.5,0.1,13.5c2.9,3.7,11.4,5.4,17.6,4.7C38.2,75.6,38.2,75.3,38.2,75z     M25.6,71.2c-1.4,0-2.6-1.1-2.6-2.6s1.1-2.6,2.6-2.6s2.6,1.1,2.6,2.6S27.1,71.2,25.6,71.2z"></path>			<path class="brand3-01" d="M52.4,88.8c5.7,0,11.4-4.2,11.4-13.5s-4.4-17.1-13.2-22.6c-1.3,1.5-2.4,3-3.3,4.5    c-3.8,6.3-5.6,13.7-5.6,17.9C41.7,83.1,47.3,88.8,52.4,88.8z"></path>			<path class="brand3-03" d="M19.6,36.7v16.7c1.4-1.6,2.8-2.9,3.6-3.6v-7.2c0-0.5,0.2-1,0.6-1.3c0.4-0.3,0.8-0.5,1.3-0.5    c0.4,0,10.6,0.9,20.9,5.4c1.4,0.6,2.8,1.3,4,2c3.6-3.3,8.4-5.9,14.7-5.9c13.1,0,19,8.2,22.5,13.1c0.5,0.7,1,1.4,1.4,1.9    c0.6,0.7,1.2,1.4,1.8,1.9V36.7L55,16.6L19.6,36.7z"></path>			<path class="brand3-04" d="M106.6,41.9L93,34.1l-37.1-21c-0.5-0.3-1.2-0.3-1.7,0L3.4,41.9c-0.8,0.5-1.1,1.5-0.7,2.4    c0.3,0.6,0.9,0.9,1.5,0.9c0.3,0,0.6-0.1,0.9-0.2l11-6.2v19.7c-0.2,0.5-0.5,1-0.6,1.5c-1.4,3.8-3.2,6.1-4.8,8.1    c-0.6,0.7-1.1,1.4-1.6,2.1c-1.1,1.7-1.6,3.7-1.2,5.6c0.8,4.8,3.7,9.5,8.3,12.7v6.9c0,1,0.8,1.7,1.7,1.7c1,0,1.7-0.8,1.7-1.7v-4.9    c2.6,1.2,5.6,1.9,8.8,1.9c0.4,0,0.7,0,1.1,0c1,0,1.7-0.9,1.7-1.8c0-1-0.9-1.7-1.8-1.7c-9.9,0.5-16.9-6.5-18.1-13.6    c-0.2-1.1,0.1-2.2,0.7-3.1c0.4-0.6,0.9-1.2,1.4-1.9c1.7-2.1,3.7-4.7,5.3-9.1c0.2-0.5,0.4-1,0.6-1.4c0,0,0,0,0,0    c2.1-4,6.6-7.7,6.7-7.8c0.4-0.3,0.6-0.8,0.6-1.4v-6c3.4,0.5,10.7,1.8,17.9,5c1,0.4,2,0.9,2.9,1.4c-1.2,1.5-2.3,3-3.2,4.4    c-4.2,6.9-6.1,15-6.1,19.7c0,4.6,1.5,8.9,4.3,12.2c2.7,3.2,6.3,5.1,9.9,5.1c7.2,0,14.9-5.3,14.9-17c0-10.4-4.9-18.9-14.1-25.1    c3-2.5,6.8-4.3,11.5-4.3c11.3,0,16.4,7,19.7,11.6c0.6,0.8,1.1,1.5,1.5,2.1c1.9,2.3,3.6,3.8,5.2,4.8c0,0,0,0,0.1,0    c1.3,0.9,2.5,1.4,3.5,1.9c2.6,1.2,3.6,1.8,4.1,5c0.9,6.5-4.3,11.6-9.9,12.7c-5.9,1.2-10.6-1.8-10.6-1.8c-0.8-0.5-1.9-0.3-2.4,0.5    c-0.5,0.8-0.3,1.9,0.5,2.4c0.2,0.1,4.1,2.6,9.7,2.6c1.1,0,2.3-0.1,3.5-0.3c0.3-0.1,0.5-0.1,0.8-0.2v8.2c0,1,0.8,1.7,1.7,1.7    c1,0,1.7-0.8,1.7-1.7v-9.5c5.3-2.7,9.3-8.3,8.3-15.1c-0.7-5.1-3.3-6.4-6-7.7c-0.7-0.4-1.5-0.7-2.3-1.2V38.7l11,6.2    c0.8,0.5,1.9,0.2,2.4-0.7C107.7,43.4,107.5,42.3,106.6,41.9L106.6,41.9z M63.8,75.2c0,9.4-5.7,13.5-11.4,13.5    c-5,0-10.6-5.7-10.6-13.8c0-4.2,1.7-11.5,5.6-17.9c0.9-1.5,2-3,3.3-4.5C59.3,58.2,63.8,65.7,63.8,75.2z M90.4,59.2    c-0.6-0.6-1.2-1.2-1.8-1.9c-0.4-0.5-0.9-1.1-1.4-1.9c-3.5-4.9-9.4-13.1-22.5-13.1c-6.2,0-11.1,2.6-14.7,5.9c-1.3-0.7-2.6-1.4-4-2    c-10.3-4.6-20.4-5.4-20.9-5.4c-0.5,0-1,0.1-1.3,0.5s-0.6,0.8-0.6,1.3v7.2c-0.8,0.7-2.2,2-3.6,3.6V36.7L55,16.6l35.4,20.1    L90.4,59.2L90.4,59.2z M23.1,68.7c0,1.4,1.1,2.6,2.6,2.6c1.4,0,2.6-1.1,2.6-2.6c0-1.4-1.1-2.6-2.6-2.6    C24.2,66.1,23.1,67.2,23.1,68.7z M76.4,66.1c0.3,0.2,0.6,0.2,0.9,0.2c0.6,0,1.2-0.3,1.5-0.9c0.3-0.5,0.9-0.9,1.5-0.9    s1.2,0.3,1.5,0.9c0.5,0.8,1.6,1.1,2.4,0.6c0.8-0.5,1.1-1.6,0.6-2.4c-0.9-1.6-2.7-2.6-4.5-2.6s-3.6,1-4.5,2.6    C75.3,64.6,75.6,65.7,76.4,66.1z"></path>		</g>	</g></g></svg>