<svg xmlns="http://www.w3.org/2000/svg" xmlns:xlink="http://www.w3.org/1999/xlink" x="0px" y="0px" viewBox="0 0 45.1 45.7" style="enable-background:new 0 0 45.1 45.7;" xml:space="preserve"><g>	<path d="M10.8,44.4l-0.7-0.6C9.7,43.3-0.1,33.9,0,26.9C0.1,21,4.9,16.2,10.8,16.2S21.6,21,21.6,27c0,7.4-9.7,16.4-10.1,16.8  L10.8,44.4L10.8,44.4z M10.8,18.8c-4.5,0-8.3,3.8-8.3,8.3c0,2.4,1.5,5.5,4.4,9.3c1.5,2,3.1,3.7,3.9,4.5c2.1-2,8.3-8.7,8.3-13.9  C19.1,22.5,15.3,18.8,10.8,18.8L10.8,18.8z M10.8,32.8C7.6,32.8,5,30.2,5,27s2.6-5.8,5.8-5.8s5.8,2.6,5.8,5.8  C16.6,30.2,14,32.8,10.8,32.8z M10.8,23.6c-1.8,0-3.4,1.5-3.4,3.4s1.5,3.4,3.4,3.4c1.8,0,3.4-1.5,3.4-3.4S12.6,23.6,10.8,23.6z"></path>	<path d="M38.9,45.7h-22v-1.9h22c1.7,0,3.1-1.4,3.1-3.1s-1.4-3.1-3.1-3.1h-11v-1.9h11c2.8,0,5,2.3,5,5S41.6,45.7,38.9,45.7z"></path>	<path d="M28,37.6c-2.8,0-5-2.3-5-5c0-2.8,2.3-5,5-5h2.5v1.9H28c-1.7,0-3.1,1.4-3.1,3.1s1.4,3.1,3.1,3.1C28,35.7,28,37.6,28,37.6z"></path>	<path d="M34.3,28.1l-0.7-0.6c-0.4-0.4-10.2-9.8-10.1-16.8C23.6,4.8,28.4,0,34.3,0s10.8,4.8,10.8,10.8c0,7.4-9.7,16.4-10.1,16.8  L34.3,28.1L34.3,28.1z M34.3,2.5c-4.5,0-8.3,3.8-8.3,8.3c0,2.3,1.5,5.5,4.4,9.3c1.5,2,3.1,3.7,3.9,4.5c2.1-2,8.3-8.6,8.3-13.9  C42.6,6.3,38.8,2.5,34.3,2.5L34.3,2.5z M34.3,16.5c-3.2,0-5.8-2.6-5.8-5.8s2.6-5.8,5.8-5.8s5.8,2.6,5.8,5.8S37.5,16.5,34.3,16.5z   M34.3,7.5c-1.8,0-3.3,1.5-3.3,3.3c0,1.8,1.5,3.3,3.3,3.3c1.8,0,3.3-1.5,3.3-3.3C37.6,8.9,36.1,7.5,34.3,7.5z"></path></g></svg>