<svg xmlns="http://www.w3.org/2000/svg" xmlns:xlink="http://www.w3.org/1999/xlink" x="0px" y="0px" viewBox="0 0 100 100" style="enable-background:new 0 0 100 100;" xml:space="preserve"><g>	<g>		<path d="M56.8,55.5c-14.5,0-26.2-11-26.2-24.5c0-2.6,0.4-5.1,1.3-7.5c0-0.9,0-1.9,0-2.9c0.1-7.2,0.7-14.2,4.7-17   c0.9-0.6,2-0.6,2.9,0l8.8,6.1c2.8-0.9,5.7-1.4,8.6-1.4c2.8,0,5.5,0.4,8.1,1.2l8.6-5.9c0.9-0.6,2-0.6,2.9,0c3.2,2.3,4.6,7.4,4.7,17   c0,0.4,0,0.8,0,1.3c1.3,2.9,1.9,6,1.9,9.1C83,44.5,71.3,55.5,56.8,55.5z M38.5,8.9c-1,2-1.5,6-1.6,11.7c0,1.1,0,2.2,0,3.2   c0,0.3-0.1,0.6-0.2,0.9c-0.7,2-1.1,4.1-1.1,6.2c0,10.8,9.5,19.5,21.2,19.5C68.5,50.5,78,41.8,78,31c0-2.6-0.6-5.2-1.7-7.6   c-0.2-0.3-0.2-0.7-0.2-1c0-0.6,0-1.2,0-1.7c-0.1-6.8-0.9-10.1-1.6-11.7l-7.8,5.3c-0.7,0.5-1.5,0.6-2.3,0.3c-2.5-0.9-5-1.3-7.6-1.3   c-2.8,0-5.5,0.5-8.1,1.5c-0.8,0.3-1.6,0.2-2.3-0.3L38.5,8.9z"></path>	</g>	<g>		<path d="M63.5,33.9c-0.6,0-1.1-0.1-1.6-0.3c-0.8-0.3-1.4-0.9-1.9-1.6c-0.5-0.7-0.7-1.5-0.7-2.4c0-1.1,0.4-2.2,1.2-3   c0.8-0.8,1.9-1.2,3-1.2c0,0,0,0,0,0c0.8,0,1.7,0.2,2.4,0.7c0.7,0.5,1.2,1.1,1.6,1.9c0.3,0.8,0.4,1.6,0.2,2.5   c-0.2,0.8-0.6,1.6-1.2,2.2c-0.6,0.6-1.3,1-2.2,1.2C64.1,33.9,63.8,33.9,63.5,33.9z M63.5,28.9l0,1.5c0.2,0,0.4-0.1,0.5-0.2   c0.1-0.1,0.2-0.3,0.2-0.5c0-0.2,0-0.3-0.1-0.4C64.1,29.1,64,29,63.8,29C63.7,28.9,63.6,28.9,63.5,28.9z M63.5,28.9   c0,0-0.1,0-0.1,0c-0.1,0-0.3,0.1-0.4,0.2c-0.1,0.1-0.2,0.2-0.2,0.4c0,0.1,0,0.3,0,0.4c0.1,0.1,0.2,0.3,0.3,0.3   c0.1,0.1,0.3,0.1,0.4,0.1V28.9z M50.1,33.9c-0.6,0-1.1-0.1-1.6-0.3c-0.8-0.3-1.4-0.9-1.9-1.6c-0.5-0.7-0.7-1.5-0.7-2.4   c0-1.1,0.4-2.2,1.2-3c1.4-1.4,3.7-1.6,5.4-0.5c0.7,0.5,1.2,1.1,1.6,1.9c0.3,0.8,0.4,1.6,0.2,2.5c-0.2,0.8-0.6,1.6-1.2,2.2   c-0.6,0.6-1.3,1-2.2,1.2C50.7,33.9,50.4,33.9,50.1,33.9z M50.1,28.9c0,0-0.1,0-0.1,0c-0.1,0-0.3,0.1-0.4,0.2   c-0.1,0.1-0.2,0.2-0.2,0.4c0,0.1,0,0.3,0,0.4c0.1,0.1,0.2,0.3,0.3,0.3c0.3,0.2,0.7,0.2,0.9-0.1c0.1-0.1,0.2-0.3,0.2-0.5   c0-0.1,0-0.3-0.1-0.4c-0.1-0.1-0.2-0.2-0.3-0.3C50.3,28.9,50.2,28.9,50.1,28.9z"></path>	</g>	<g>		<path d="M56.9,42.7c-0.9,0-1.7-0.4-2.1-1.2l-2.6-4.1c-0.5-0.8-0.5-1.7-0.1-2.5c0.4-0.8,1.3-1.3,2.2-1.3h4.9c0.9,0,1.7,0.5,2.2,1.3   c0.4,0.8,0.4,1.7,0,2.5l-2.4,4.1C58.6,42.2,57.8,42.6,56.9,42.7C56.9,42.7,56.9,42.7,56.9,42.7z"></path>	</g>	<g>		<path d="M70.7,38.9c-1.2,0-2.3-0.9-2.5-2.1c-0.2-1.4,0.7-2.6,2.1-2.9L87.8,31c1.4-0.2,2.6,0.7,2.9,2.1S90,35.7,88.6,36l-17.5,2.9   C71,38.9,70.8,38.9,70.7,38.9z"></path>	</g>	<g>		<path d="M70.7,43.1c-1.3,0-2.5-1.1-2.5-2.4c0-1.4,1-2.5,2.4-2.6l15.7-0.5c1.4,0,2.5,1,2.6,2.4c0,1.4-1,2.5-2.4,2.6L70.7,43.1   C70.8,43.1,70.7,43.1,70.7,43.1z"></path>	</g>	<g>		<path d="M42.9,38.9c-0.1,0-0.3,0-0.4,0L25,36c-1.4-0.2-2.3-1.5-2.1-2.9c0.2-1.4,1.5-2.3,2.9-2.1l17.5,2.9c1.4,0.2,2.3,1.5,2.1,2.9   C45.2,38,44.1,38.9,42.9,38.9z"></path>	</g>	<g>		<path d="M42.9,43.1C42.9,43.1,42.9,43.1,42.9,43.1l-15.8-0.5c-1.4,0-2.5-1.2-2.4-2.6c0-1.4,1.2-2.5,2.6-2.4L43,38.1   c1.4,0,2.5,1.2,2.4,2.6C45.4,42,44.3,43.1,42.9,43.1z"></path>	</g>	<g>		<path d="M60.2,46.5c-1.2,0-2.4-0.4-3.4-1.1c-1.1,0.8-2.4,1.1-3.8,1c-1.5-0.1-2.9-0.8-3.9-1.9c-1-1.1-1.6-2.5-1.6-4   c0-1.4,1.1-2.5,2.5-2.5c0,0,0,0,0,0c1.4,0,2.5,1.1,2.5,2.5c0,0.2,0.1,0.4,0.2,0.6c0.2,0.2,0.4,0.3,0.6,0.3c0.2,0,0.4-0.1,0.6-0.2   c0.2-0.1,0.3-0.3,0.3-0.6c0.2-1.2,1.2-2.2,2.5-2.2c0,0,0,0,0,0c1.2,0,2.3,0.9,2.5,2.2c0,0.2,0.1,0.4,0.3,0.6   c0.2,0.1,0.4,0.2,0.6,0.2c0.2,0,0.4-0.1,0.6-0.3c0.2-0.2,0.2-0.4,0.2-0.6c0-1.4,1.1-2.5,2.5-2.5c0,0,0,0,0,0   c1.4,0,2.5,1.1,2.5,2.5c0,1.5-0.6,2.9-1.6,4c-1,1.1-2.4,1.8-3.9,1.9C60.4,46.5,60.3,46.5,60.2,46.5z"></path>	</g>	<g>		<path d="M25.5,96.9c-2.6,0-5.2-0.7-7.5-1.9c-2.4-1.3-4.4-3.1-5.9-5.4C9.1,84.6,8.4,78,10.4,72c1.8-5.6,5.5-9.7,10.4-11.8   c3.4-1.4,6.4-2.3,9.1-3.1c6.3-1.8,9.2-2.6,10.4-8.7c0.3-1.4,1.6-2.2,2.9-1.9c1.4,0.3,2.2,1.6,1.9,2.9c-1.8,9-7.2,10.5-14,12.5   c-2.5,0.7-5.4,1.5-8.5,2.9c-3.5,1.5-6.2,4.6-7.5,8.7c-1.5,4.6-1,9.8,1.2,13.5c1,1.5,2.4,2.8,4,3.6c1.6,0.9,3.4,1.4,5.3,1.3h44.4   c5.5,0,9.7-3.4,9.7-7.8s-4.2-7.8-9.7-7.8H67c0,1.5,0.4,3.1,1.4,5.1c0.6,1.3,0,2.7-1.2,3.3c-1.3,0.6-2.7,0-3.3-1.2   c-3.2-6.9-1.6-11,0-15c0.4-1.1,0.9-2.1,1.3-3.1c2.2-5.2,3.4-7.8,0-11.9c-0.2-0.3-0.3-0.5-0.4-0.7c0,0,0-0.1-0.1-0.1   c-0.6-0.8-0.7-2-0.1-2.9c0.8-1.2,2.3-1.5,3.5-0.7c0.6,0.4,1,1,1.2,1.6c5,6.4,2.8,11.4,0.5,16.8c-0.4,0.9-0.8,1.9-1.2,3   c-0.1,0.3-0.2,0.6-0.4,0.9h2c8.2,0,14.7,5.6,14.7,12.8s-6.4,12.8-14.7,12.8H25.7C25.6,96.9,25.6,96.9,25.5,96.9z M65.2,53.2   C65.2,53.2,65.2,53.2,65.2,53.2C65.2,53.2,65.2,53.2,65.2,53.2z M65.2,53.2L65.2,53.2L65.2,53.2z M69,50.3   C69,50.3,69,50.3,69,50.3C69,50.3,69,50.3,69,50.3z"></path>	</g></g></svg>