<svg xmlns="http://www.w3.org/2000/svg" width="57" height="52" viewBox="0 0 57 52" fill="none"><g clip-path="url(#clip0_309_199)"><path d="M17.7271 17.7273H5.90891C3.30891 17.7273 1.18164 19.8546 1.18164 22.4546V39C1.18164 41.6 3.30891 43.7273 5.90891 43.7273H27.1816L34.2725 50.8182V31.9091" stroke="currentcolor" stroke-width="2" stroke-linecap="round" stroke-linejoin="round"></path><path d="M50.8177 27.1819H29.545L22.4541 34.2728V5.90916C22.4541 3.30916 24.5814 1.18188 27.1814 1.18188H50.8177C53.4177 1.18188 55.545 3.30916 55.545 5.90916V22.4546C55.545 25.0546 53.4177 27.1819 50.8177 27.1819Z" stroke="currentcolor" stroke-width="2" stroke-linecap="round" stroke-linejoin="round"></path><path d="M31.9094 14.182C32.5621 14.182 33.0912 13.6529 33.0912 13.0002C33.0912 12.3475 32.5621 11.8184 31.9094 11.8184C31.2567 11.8184 30.7275 12.3475 30.7275 13.0002C30.7275 13.6529 31.2567 14.182 31.9094 14.182Z" fill="currentcolor"></path><path d="M39.0002 14.182C39.6529 14.182 40.182 13.6529 40.182 13.0002C40.182 12.3475 39.6529 11.8184 39.0002 11.8184C38.3475 11.8184 37.8184 12.3475 37.8184 13.0002C37.8184 13.6529 38.3475 14.182 39.0002 14.182Z" fill="currentcolor"></path><path d="M46.091 14.182C46.7437 14.182 47.2728 13.6529 47.2728 13.0002C47.2728 12.3475 46.7437 11.8184 46.091 11.8184C45.4383 11.8184 44.9092 12.3475 44.9092 13.0002C44.9092 13.6529 45.4383 14.182 46.091 14.182Z" fill="currentcolor"></path></g><defs><clipPath id="clip0_309_199"><rect width="56.7273" height="52" fill="white"></rect></clipPath></defs></svg>