<svg xmlns="http://www.w3.org/2000/svg" xmlns:xlink="http://www.w3.org/1999/xlink" x="0px" y="0px" viewBox="0 0 53 50" style="enable-background:new 0 0 53 50;" xml:space="preserve"><g>	<g>		<path d="M30.3,46.1c-0.5,0-0.9-0.2-1.3-0.5c-0.4-0.4-0.7-0.9-0.7-1.5c0-1.8,0.9-3.5,2.3-4.5c1.3-1,2.5-2.2,3.4-3.5   c0.6-0.9,1.5-1.3,2.6-1.3c1,0,2,0.5,2.6,1.3c0.9,1.4,2.1,2.5,3.4,3.5c1.4,1.1,2.3,2.8,2.3,4.5c0,0.6-0.2,1.1-0.7,1.5   c-0.4,0.4-1,0.5-1.5,0.5l-3.8-0.5c-1.5-0.2-3-0.2-4.5,0l-3.8,0.5C30.4,46.1,30.3,46.1,30.3,46.1z M36.6,44.2   c0.8,0,1.6,0.1,2.4,0.2l3.8,0.5c0.2,0,0.4,0,0.6-0.2c0.2-0.1,0.3-0.4,0.3-0.6c0-1.4-0.7-2.8-1.8-3.6c-1.4-1.1-2.7-2.3-3.7-3.8   c-0.4-0.5-1-0.8-1.6-0.8s-1.2,0.3-1.6,0.8c-1,1.5-2.3,2.7-3.7,3.8c-1.1,0.8-1.8,2.2-1.8,3.6c0,0.2,0.1,0.4,0.3,0.6   c0.2,0.1,0.4,0.2,0.6,0.2l3.8-0.5C35,44.3,35.8,44.2,36.6,44.2L36.6,44.2z"></path>		<path d="M40.1,33.6c-0.4,0-0.8-0.1-1.1-0.2c-1.7-0.8-2.2-3.1-1.3-5.2c1-2.1,3.1-3.2,4.8-2.5c1.7,0.8,2.2,3.1,1.3,5.2   C43,32.5,41.5,33.6,40.1,33.6L40.1,33.6z M41.4,26.6c-0.9,0-2,0.8-2.6,2c-0.7,1.5-0.4,3.2,0.7,3.7c1.1,0.5,2.5-0.4,3.2-1.9   c0.7-1.5,0.4-3.2-0.7-3.7C41.8,26.6,41.6,26.6,41.4,26.6L41.4,26.6z"></path>		<path d="M45.4,38.4c-0.3,0-0.7-0.1-1-0.2c-1.4-0.7-1.9-2.7-1.1-4.5c0.8-1.8,2.7-2.8,4.1-2.1c1.4,0.7,1.9,2.7,1.1,4.5   C47.9,37.5,46.6,38.4,45.4,38.4L45.4,38.4z M46.5,32.5c-0.8,0-1.6,0.7-2.1,1.7c-0.6,1.2-0.3,2.6,0.5,3c0.8,0.4,2-0.3,2.6-1.6   c0.6-1.2,0.3-2.6-0.5-3C46.8,32.6,46.6,32.5,46.5,32.5L46.5,32.5z"></path>		<path d="M33.1,33.6c-0.5,0-1.1-0.1-1.6-0.4c-0.9-0.5-1.6-1.3-2-2.3c-0.5-1-0.6-2.1-0.4-3c0.2-1,0.8-1.8,1.6-2.2   c1.7-0.8,3.8,0.4,4.8,2.5c1,2.1,0.4,4.5-1.3,5.2C33.9,33.5,33.5,33.6,33.1,33.6L33.1,33.6z M31.8,26.6c-0.2,0-0.4,0-0.6,0.1   c-0.5,0.2-0.8,0.7-1,1.4c-0.2,0.7,0,1.5,0.3,2.3s0.9,1.4,1.5,1.7c0.6,0.3,1.2,0.4,1.7,0.2c1-0.5,1.4-2.2,0.7-3.7   C33.8,27.4,32.8,26.6,31.8,26.6z"></path>		<path d="M27.8,38.4c-1.2,0-2.5-0.9-3.2-2.3c-0.8-1.8-0.3-3.9,1.1-4.5c1.4-0.7,3.3,0.3,4.1,2.1c0.8,1.8,0.3,3.9-1.1,4.5   C28.5,38.4,28.2,38.4,27.8,38.4L27.8,38.4z M25.8,35.6c0.6,1.2,1.7,1.9,2.6,1.6c0.8-0.4,1.1-1.7,0.5-3c-0.6-1.2-1.7-1.9-2.6-1.6   C25.4,33,25.2,34.4,25.8,35.6L25.8,35.6z"></path>		<path d="M15,46.3c-0.3,0-0.6-0.3-0.6-0.6V19.6c0-1.5,1.2-2.7,2.7-2.7h17.4c1.5,0,2.7,1.2,2.7,2.7v3.5c0,0.3-0.3,0.6-0.6,0.6   c-0.3,0-0.6-0.3-0.6-0.6v-3.5c0-0.8-0.7-1.5-1.5-1.5H17.1c-0.8,0-1.5,0.7-1.5,1.5v26.1C15.6,46,15.3,46.3,15,46.3L15,46.3z"></path>		<path d="M32.5,18.1c-0.3,0-0.6-0.3-0.6-0.6v-3.1c0-0.8-0.7-1.5-1.5-1.5h-9.3c-0.8,0-1.5,0.7-1.5,1.5v3.1c0,0.3-0.3,0.6-0.6,0.6   c-0.3,0-0.6-0.3-0.6-0.6v-3.1c0-1.5,1.2-2.7,2.7-2.7h9.3c1.5,0,2.7,1.2,2.7,2.7v3.1C33.1,17.9,32.9,18.1,32.5,18.1z"></path>		<path d="M23.8,23.6h-5.1c-0.3,0-0.6-0.3-0.6-0.6c0-0.3,0.3-0.6,0.6-0.6h5.1c0.3,0,0.6,0.3,0.6,0.6C24.4,23.4,24.2,23.6,23.8,23.6z   "></path>		<path d="M32.9,23.6h-5.1c-0.3,0-0.6-0.3-0.6-0.6c0-0.3,0.3-0.6,0.6-0.6h5.1c0.3,0,0.6,0.3,0.6,0.6C33.4,23.4,33.2,23.6,32.9,23.6z   "></path>		<path d="M23.8,29h-5.1c-0.3,0-0.6-0.3-0.6-0.6s0.3-0.6,0.6-0.6h5.1c0.3,0,0.6,0.3,0.6,0.6S24.2,29,23.8,29z"></path>		<path d="M21.1,34.5h-2.4c-0.3,0-0.6-0.3-0.6-0.6c0-0.3,0.3-0.6,0.6-0.6h2.4c0.3,0,0.6,0.3,0.6,0.6C21.7,34.2,21.5,34.5,21.1,34.5z   "></path>		<path d="M23.8,39.9h-5.1c-0.3,0-0.6-0.3-0.6-0.6c0-0.3,0.3-0.6,0.6-0.6h5.1c0.3,0,0.6,0.3,0.6,0.6C24.4,39.6,24.2,39.9,23.8,39.9z   "></path>		<path d="M12,31.8H7.6c-0.3,0-0.6-0.3-0.6-0.6c0-0.3,0.3-0.6,0.6-0.6H12c0.3,0,0.6,0.3,0.6,0.6C12.5,31.5,12.3,31.8,12,31.8z"></path>		<path d="M12,35.6H7.6C7.2,35.6,7,35.3,7,35s0.3-0.6,0.6-0.6H12c0.3,0,0.6,0.3,0.6,0.6S12.3,35.6,12,35.6z"></path>		<path d="M12,39.4H7.6c-0.3,0-0.6-0.3-0.6-0.6c0-0.3,0.3-0.6,0.6-0.6H12c0.3,0,0.6,0.3,0.6,0.6C12.5,39.1,12.3,39.4,12,39.4z"></path>		<path d="M12,43.2H7.6c-0.3,0-0.6-0.3-0.6-0.6C7,42.3,7.2,42,7.6,42H12c0.3,0,0.6,0.3,0.6,0.6C12.5,42.9,12.3,43.2,12,43.2z"></path>		<path d="M4.5,46.3c-0.3,0-0.6-0.3-0.6-0.6V28.8c0-2.3,1.9-4.2,4.2-4.2H15c0.3,0,0.6,0.3,0.6,0.6c0,0.3-0.3,0.6-0.6,0.6H8.1   c-1.6,0-3,1.3-3,3v16.8C5.1,46,4.9,46.3,4.5,46.3z"></path>		<path d="M25.8,12.9c-0.3,0-0.6-0.3-0.6-0.6v-8c0-0.3,0.3-0.6,0.6-0.6c0.3,0,0.6,0.3,0.6,0.6v8C26.4,12.7,26.1,12.9,25.8,12.9z"></path>	</g></g></svg>