<svg xmlns="http://www.w3.org/2000/svg" xmlns:xlink="http://www.w3.org/1999/xlink" x="0px" y="0px" viewBox="0 0 100 100" style="enable-background:new 0 0 100 100;" xml:space="preserve"><g>	<path d="M88.2,97.2c-2.3,0-4.4-0.9-6.1-2.4c-1.7-1.6-2.8-3.7-3.1-6.1H59.1c-0.2,1.5-0.7,2.9-1.5,4.2c-0.8,1.3-1.9,2.3-3.1,3  s-2.6,1.2-4.1,1.3c-1.4,0.1-2.9-0.2-4.2-0.8c-1.3-0.6-2.5-1.5-3.4-2.7s-1.6-2.5-1.9-4c-0.3-1.5-0.4-3,0-4.5s1-2.8,1.9-4  c-0.9-1.2-1.5-2.5-1.9-4s-0.3-3,0-4.5s1-2.8,1.9-4s2.1-2.1,3.4-2.7c1.3-0.6,2.8-0.9,4.2-0.8s2.8,0.5,4.1,1.3s2.3,1.8,3.1,3  c0.8,1.3,1.3,2.7,1.5,4.2H79c0.2-1.5,0.7-2.9,1.5-4.2c0.8-1.3,1.9-2.3,3.1-3c1.3-0.7,2.6-1.2,4.1-1.3c1.4-0.1,2.9,0.2,4.2,0.8  c1.3,0.6,2.5,1.5,3.4,2.7s1.6,2.5,1.9,4s0.4,3,0,4.5c-0.3,1.5-1,2.8-1.9,4c1.1,1.4,1.8,3.2,2,5s-0.1,3.7-0.8,5.4  c-0.8,1.7-1.9,3.1-3.4,4.1C91.7,96.7,90,97.2,88.2,97.2 M57.4,85.1h23.2c0.2,0,0.5,0.1,0.7,0.1c0.2,0.1,0.4,0.2,0.6,0.4  c0.2,0.2,0.3,0.4,0.4,0.6s0.1,0.5,0.1,0.7V87c0,0.1,0,0.2,0,0.3c0,1,0.3,2.1,0.7,3c0.5,0.9,1.2,1.7,2,2.2c0.8,0.6,1.8,0.9,2.8,1  s2-0.1,2.9-0.6c0.9-0.4,1.7-1.1,2.3-2c0.6-0.8,1-1.8,1.1-2.9c0.1-1,0-2.1-0.4-3.1s-1-1.8-1.7-2.5c-0.2-0.2-0.3-0.4-0.5-0.6  c-0.1-0.2-0.2-0.5-0.2-0.8s0.1-0.5,0.2-0.8c0.1-0.2,0.3-0.4,0.5-0.6c0.8-0.7,1.4-1.5,1.7-2.5c0.4-1,0.5-2,0.4-3.1  c-0.1-1-0.5-2-1.1-2.9c-0.6-0.8-1.4-1.5-2.3-2c-0.9-0.4-1.9-0.6-2.9-0.6c-1,0.1-2,0.4-2.8,1s-1.5,1.3-2,2.2c-0.5,0.9-0.7,1.9-0.7,3  c0,0.1,0,0.2,0,0.3v0.1c0,0.2,0,0.5-0.1,0.7s-0.2,0.4-0.4,0.6c-0.2,0.2-0.3,0.3-0.6,0.4c-0.2,0.1-0.4,0.1-0.7,0.1H57.4  c-0.2,0-0.5-0.1-0.7-0.1c-0.2-0.1-0.4-0.2-0.6-0.4c-0.2-0.2-0.3-0.4-0.4-0.6c-0.1-0.2-0.1-0.5-0.1-0.7v-0.2c0-0.1,0-0.2,0-0.2  c0-1-0.3-2.1-0.7-3c-0.5-0.9-1.2-1.7-2-2.2c-0.8-0.6-1.8-0.9-2.8-1s-2,0.1-2.9,0.6c-0.9,0.4-1.7,1.1-2.3,2c-0.6,0.8-1,1.8-1.1,2.9  c-0.1,1,0,2.1,0.4,3.1s1,1.8,1.7,2.5c0.2,0.2,0.3,0.4,0.5,0.6c0.1,0.2,0.2,0.5,0.2,0.8s-0.1,0.5-0.2,0.8s-0.3,0.4-0.5,0.6  c-0.8,0.7-1.4,1.5-1.7,2.5c-0.4,1-0.5,2-0.4,3.1c0.1,1,0.5,2,1.1,2.9c0.6,0.8,1.4,1.5,2.3,2c0.9,0.4,1.9,0.6,2.9,0.6  c1-0.1,2-0.4,2.8-1s1.5-1.3,2-2.2c0.5-0.9,0.7-1.9,0.7-3c0-0.1,0-0.2,0-0.2v-0.2c0-0.2,0-0.5,0.1-0.7s0.2-0.4,0.4-0.6  s0.3-0.3,0.6-0.4C57,85.2,57.2,85.1,57.4,85.1"></path>	<path d="M17.7,47.7h-3.4v47.6h3.4V47.7z"></path>	<path d="M81.3,47.7h-3.4v17h3.4V47.7z"></path>	<path d="M91.5,51.1c-0.4,0-0.7-0.1-1-0.3L47.8,17.9L5.2,50.8c-0.3,0.2-0.6,0.3-0.9,0.3s-0.6,0-0.9-0.2s-0.5-0.4-0.7-0.7  s-0.2-0.6-0.2-1L3,37.9c0-0.3,0.1-0.5,0.2-0.8c0.1-0.2,0.3-0.4,0.5-0.6L46.8,3.2c0.3-0.2,0.6-0.3,1-0.3s0.7,0.1,1,0.3L92,36.5  c0.2,0.2,0.4,0.4,0.5,0.6c0.1,0.2,0.2,0.5,0.2,0.8l0.4,11.4c0,0.2,0,0.5-0.1,0.7s-0.2,0.4-0.4,0.6c-0.2,0.2-0.3,0.3-0.6,0.4  C91.9,51.1,91.7,51.1,91.5,51.1z M47.8,13.9c0.4,0,0.7,0.1,1,0.3l40.8,31.5l-0.3-6.8L47.8,6.8L6.3,38.9L6,45.7l40.8-31.5  C47.1,14,47.5,13.9,47.8,13.9z"></path>	<path d="M38.4,97h-9.7c-0.2,0-0.4,0-0.7-0.1c-0.2-0.1-0.4-0.2-0.6-0.4c-0.2-0.2-0.3-0.4-0.4-0.6s-0.1-0.4-0.1-0.7V64.6  c0-3.7,1.4-7.2,3.9-9.8s5.8-4.1,9.3-4.1h15.2c3.5,0,6.8,1.5,9.3,4.1s3.9,6.1,3.9,9.8v6.3h-3.4v-6.3c0-2.7-1-5.3-2.9-7.3  c-1.8-1.9-4.3-3-6.9-3h-15c-2.6,0-5.1,1.1-6.9,3c-1.8,1.9-2.9,4.5-2.9,7.3v28.9h8L38.4,97L38.4,97z"></path></g></svg>