<svg xmlns="http://www.w3.org/2000/svg" xmlns:xlink="http://www.w3.org/1999/xlink" x="0px" y="0px" viewBox="0 0 50 50" style="enable-background:new 0 0 50 50;" xml:space="preserve"><g>	<g>		<path d="M46,7.8c-2.4-2.6-5.7-4.1-9.3-4.1c-4,0-7.6,1.9-10.3,5.4c-0.6,0.7-1,1.4-1.4,2.1c-0.4-0.7-0.9-1.4-1.4-2.1   c-2.8-3.5-6.3-5.4-10.3-5.4C9.7,3.7,6.4,5.1,4,7.8c-2.3,2.5-3.5,5.9-3.5,9.5c0,4.1,1.8,8.1,5.6,12.4c3.4,3.9,8.1,7.9,13.6,12.5   c1.4,1.2,2.8,2.4,4.3,3.6c0.3,0.3,0.7,0.4,1,0.4c0.4,0,0.7-0.1,1-0.4c1.5-1.3,2.9-2.5,4.3-3.6c5.5-4.7,10.2-8.7,13.6-12.5   c3.8-4.4,5.6-8.3,5.6-12.4C49.5,13.7,48.3,10.3,46,7.8z M41.5,27.6c-3.2,3.7-7.9,7.6-13.3,12.2c-1.1,0.9-2.1,1.8-3.3,2.8   c-1.1-0.9-2.2-1.9-3.3-2.8c-5.4-4.6-10.1-8.5-13.3-12.2c-3.3-3.8-4.8-7-4.8-10.3c0-5.9,4.1-10.4,9.6-10.4c3,0,5.6,1.4,7.7,4.1   c1.7,2.1,2.5,4.4,2.5,4.4c0.2,0.6,0.8,1.1,1.5,1.1c0,0,0,0,0,0c0.7,0,1.3-0.4,1.5-1.1c0,0,0.8-2.2,2.5-4.4   c2.1-2.7,4.8-4.1,7.7-4.1c5.5,0,9.6,4.5,9.6,10.4C46.3,20.6,44.8,23.8,41.5,27.6z"></path>	</g></g></svg>