<svg xmlns="http://www.w3.org/2000/svg" xmlns:xlink="http://www.w3.org/1999/xlink" x="0px" y="0px" viewBox="0 0 42 22" style="enable-background:new 0 0 42 22;" xml:space="preserve"><g>	<path d="M8.4,4.6c0.2,0,0.4,0.1,0.5,0.3c0.2,0.3,0.1,0.7-0.1,1L2.8,11l5.9,5.1c0.2,0.3,0.4,0.7,0.1,1c-0.2,0.3-0.6,0.4-0.9,0.1  l-6.5-5.7c-0.1-0.1-0.2-0.3-0.2-0.6c0-0.3,0.1-0.4,0.2-0.6L8,4.7C8.1,4.7,8.2,4.6,8.4,4.6z"></path>	<path d="M8.3,4c0.5,0,0.8,0.3,1,0.5C9.7,5,9.7,5.7,9.2,6.3L3.8,11l5.4,4.7c0.6,0.6,0.6,1.4,0.2,1.9c-0.5,0.6-1.3,0.7-1.8,0.1  l-6.5-5.6c-0.2-0.2-0.5-0.5-0.5-1c0-0.5,0.2-0.8,0.4-1l6.7-5.9l0.1,0C8,4,8.2,4,8.3,4z M8.4,16.8C8.4,16.8,8.4,16.8,8.4,16.8  c0,0,0-0.1-0.1-0.2L1.9,11l6.4-5.6c0,0,0-0.1,0-0.2c0,0-0.1,0-0.1,0l-6.4,5.6c0,0.1,0,0.1,0,0.1c0,0.1,0,0.1,0.1,0.2L8.4,16.8z"></path></g><g>	<g>		<path d="M2.3,10.3L40,10.3c0.4,0,0.6,0.3,0.6,0.7c0,0.4-0.2,0.7-0.6,0.7L2.3,11.8c-0.4,0-0.6-0.3-0.6-0.7   C1.7,10.6,2,10.3,2.3,10.3z"></path>		<path d="M2.3,9.7L40,9.6c0.7,0,1.2,0.6,1.2,1.3c0,0.8-0.5,1.3-1.2,1.3L2.3,12.4c-0.7,0-1.2-0.6-1.2-1.3C1.1,10.3,1.6,9.7,2.3,9.7z    M2.4,11.2L40,11.1l0-0.2L2.3,10.9L2.4,11.2z"></path>	</g></g></svg>