<svg xmlns="http://www.w3.org/2000/svg" width="33" height="52" viewBox="0 0 33 52" fill="none"><g clip-path="url(#clip0_309_206)"><path d="M7.58301 30.7666V35.7499C7.58301 38.1332 9.53301 40.0832 11.9163 40.0832H20.583C22.9664 40.0832 24.9164 38.1332 24.9164 35.7499V30.7666C24.9164 29.5532 25.4364 28.3832 26.3464 27.5816C29.813 24.5049 31.8497 19.8466 31.3514 14.7332C30.6797 7.73492 25.003 1.97158 18.0264 1.19158C8.83968 0.151582 1.08301 7.27992 1.08301 16.2499C1.08301 20.7782 3.05468 24.8299 6.19634 27.6032C7.10634 28.4049 7.58301 29.5749 7.58301 30.7666Z" stroke="currentcolor" stroke-width="2" stroke-linecap="round" stroke-linejoin="round"></path><path d="M17.03 50.9166H15.47C13.4117 50.9166 11.635 49.4649 11.2233 47.4282L9.75 40.0833H22.75L21.2767 47.4282C20.865 49.4432 19.0883 50.9166 17.03 50.9166Z" stroke="currentcolor" stroke-width="2" stroke-linecap="round" stroke-linejoin="round"></path><path d="M16.25 22.75V40.0833" stroke="currentcolor" stroke-width="2" stroke-linecap="round" stroke-linejoin="round"></path><path d="M22.75 16.25L16.25 22.75" stroke="currentcolor" stroke-width="2" stroke-linecap="round" stroke-linejoin="round"></path><path d="M9.75 16.25L16.25 22.75" stroke="currentcolor" stroke-width="2" stroke-linecap="round" stroke-linejoin="round"></path></g><defs><clipPath id="clip0_309_206"><rect width="32.5" height="52" fill="white"></rect></clipPath></defs></svg>