<svg xmlns="http://www.w3.org/2000/svg" xmlns:xlink="http://www.w3.org/1999/xlink" x="0px" y="0px" viewBox="0 0 50 50" style="enable-background:new 0 0 50 50;" xml:space="preserve"><g>	<path d="M41.4,19.6c0-4.3-1.7-8.4-4.8-11.4c-3.1-3-7.2-4.7-11.6-4.7c-4.3,0-8.5,1.7-11.6,4.7c-3.1,3-4.8,7.1-4.8,11.4  c0,6.6,5.4,15.2,16.4,25.5C36,34.8,41.4,26.2,41.4,19.6z M25,50C11.7,38.1,5,28,5,19.6c0-5.2,2.1-10.2,5.9-13.9S19.7,0,25,0  s10.4,2.1,14.1,5.8c3.8,3.7,5.9,8.7,5.9,13.9C45,28,38.3,38.1,25,50z"></path>	<path d="M25,25.8c1.5,0,2.9-0.6,3.9-1.6s1.6-2.4,1.6-3.9s-0.6-2.9-1.6-3.9s-2.4-1.6-3.9-1.6s-2.9,0.6-3.9,1.6s-1.6,2.4-1.6,3.9  s0.6,2.9,1.6,3.9S23.5,25.8,25,25.8z M25,29.4c-2.4,0-4.8-1-6.5-2.7c-1.7-1.7-2.7-4.1-2.7-6.5s1-4.8,2.7-6.5  c1.7-1.7,4.1-2.7,6.5-2.7s4.8,1,6.5,2.7c1.7,1.7,2.7,4.1,2.7,6.5s-1,4.8-2.7,6.5C29.8,28.5,27.4,29.4,25,29.4z"></path></g></svg>