<svg xmlns="http://www.w3.org/2000/svg" xmlns:xlink="http://www.w3.org/1999/xlink" x="0px" y="0px" viewBox="0 0 50 50" style="enable-background:new 0 0 50 50;" xml:space="preserve"><g>	<g>		<path d="M42,43H8c-3.1,0-5.5-2.5-5.5-5.6V12.6C2.5,9.5,5,7,8,7H42c3.1,0,5.5,2.5,5.5,5.6v24.8C47.5,40.5,45,43,42,43z M8,10   c-1.4,0-2.5,1.2-2.5,2.6v24.8C5.5,38.8,6.6,40,8,40H42c1.4,0,2.5-1.2,2.5-2.6V12.6c0-1.4-1.1-2.6-2.5-2.6H8z"></path>	</g>	<g>		<path d="M25,28c-0.3,0-0.7-0.1-0.9-0.3l-15-12c-0.6-0.5-0.8-1.5-0.2-2.1c0.5-0.6,1.5-0.8,2.1-0.2L25,24.6l14.1-11.3   c0.6-0.5,1.6-0.4,2.1,0.2c0.5,0.6,0.4,1.6-0.2,2.1l-15,12C25.7,27.9,25.3,28,25,28z"></path>	</g></g></svg>