<svg xmlns="http://www.w3.org/2000/svg" xmlns:xlink="http://www.w3.org/1999/xlink" x="0px" y="0px" viewBox="0 0 50 50" style="enable-background:new 0 0 50 50;" xml:space="preserve"><g>	<g>		<path d="M37,27.8c-0.1,0-0.1,0-0.2,0l-2.5-0.3c-1-0.1-1.9-0.1-2.9,0l-2.5,0.3c-0.4,0.1-0.9-0.1-1.2-0.4c-0.3-0.3-0.5-0.7-0.5-1.1   c0-1.2,0.6-2.4,1.6-3.2c0.8-0.6,1.6-1.4,2.2-2.2c0.4-0.6,1.1-1,1.9-1s1.5,0.4,1.9,1c0.6,0.9,1.3,1.6,2.2,2.2   c1,0.7,1.6,1.9,1.6,3.2c0,0.4-0.2,0.9-0.5,1.1C37.7,27.6,37.4,27.8,37,27.8L37,27.8z M32.9,21.1c-0.3,0-0.7,0.2-0.9,0.5   c-0.7,1-1.5,1.8-2.5,2.5c-0.7,0.5-1.1,1.3-1.1,2.2c0,0.1,0.1,0.2,0.1,0.2c0,0,0.1,0.1,0.2,0.1l2.5-0.3c1.1-0.1,2.2-0.1,3.2,0   l2.5,0.3c0.1,0,0.2,0,0.2-0.1c0,0,0.1-0.1,0.1-0.2c0-0.8-0.4-1.7-1.1-2.2c-1-0.7-1.8-1.6-2.5-2.5C33.5,21.3,33.2,21.1,32.9,21.1z"></path>		<path d="M35.4,19.6c-0.3,0-0.6-0.1-0.8-0.2c-0.6-0.3-1-0.9-1.2-1.6c-0.1-0.7-0.1-1.4,0.3-2.1c0.3-0.7,0.8-1.3,1.4-1.6   c0.7-0.4,1.4-0.4,2-0.1c0.6,0.3,1,0.9,1.2,1.6c0.1,0.7,0.1,1.4-0.3,2.1c-0.3,0.7-0.8,1.3-1.4,1.6C36.1,19.5,35.7,19.6,35.4,19.6   L35.4,19.6z M36.2,15c-0.2,0-0.4,0.1-0.6,0.2c-0.4,0.2-0.7,0.6-0.9,1c-0.2,0.5-0.3,0.9-0.2,1.4c0,0.2,0.2,0.6,0.5,0.7   c0.3,0.2,0.7,0,0.9-0.1c0.4-0.2,0.7-0.6,0.9-1c0.2-0.5,0.3-0.9,0.2-1.4c0-0.2-0.2-0.6-0.5-0.7C36.4,15,36.3,15,36.2,15L36.2,15z"></path>		<path d="M30.4,19.6c-1,0-2.1-0.7-2.6-1.9c-0.7-1.5-0.3-3.2,0.9-3.7c0.6-0.3,1.3-0.2,2,0.1c0.6,0.3,1.1,0.9,1.4,1.6   c0.3,0.7,0.4,1.5,0.3,2.1c-0.2,0.7-0.6,1.3-1.2,1.6C30.9,19.5,30.7,19.6,30.4,19.6L30.4,19.6z M28.9,17.2c0.4,0.9,1.2,1.4,1.8,1.1   c0.3-0.2,0.5-0.5,0.5-0.7c0.1-0.4,0-0.9-0.2-1.4c-0.2-0.5-0.5-0.8-0.9-1c-0.2-0.1-0.5-0.2-0.9-0.1C28.7,15.3,28.5,16.3,28.9,17.2z   "></path>		<path d="M39.1,22.8c-0.3,0-0.5-0.1-0.7-0.2c-1.1-0.5-1.5-1.9-0.8-3.3c0.3-0.6,0.7-1.1,1.3-1.4c0.6-0.3,1.2-0.4,1.8-0.1   c0.5,0.2,0.9,0.8,1.1,1.4c0.1,0.6,0,1.3-0.2,1.9c-0.3,0.6-0.7,1.1-1.3,1.4C39.8,22.7,39.4,22.8,39.1,22.8L39.1,22.8z M39.8,18.9   c-0.2,0-0.3,0.1-0.4,0.1c-0.3,0.2-0.6,0.5-0.7,0.8c-0.3,0.7-0.2,1.4,0.2,1.6c0.2,0.1,0.5,0,0.6-0.1c0.3-0.2,0.6-0.5,0.7-0.8   c0.2-0.4,0.2-0.8,0.1-1.1c0-0.2-0.1-0.4-0.4-0.5C39.9,18.9,39.9,18.9,39.8,18.9L39.8,18.9z"></path>		<path d="M26.6,22.8c-0.9,0-1.8-0.6-2.3-1.7c-0.6-1.3-0.2-2.8,0.8-3.3c1.1-0.5,2.4,0.2,3,1.5c0.3,0.6,0.4,1.3,0.2,1.9   c-0.1,0.6-0.5,1.2-1.1,1.4C27.1,22.7,26.9,22.8,26.6,22.8L26.6,22.8z M25.5,20.6c0.3,0.7,1,1.1,1.4,0.9c0.2-0.1,0.3-0.4,0.4-0.5   c0.1-0.3,0-0.7-0.1-1.1c-0.3-0.7-1-1.1-1.4-0.9C25.3,19.1,25.2,19.8,25.5,20.6z"></path>		<path d="M3.1,42.2c-0.1,0-0.2,0-0.2,0c-0.3-0.1-0.5-0.5-0.3-0.8l4-9.8c0.8-2.1,2.4-3.8,4.3-4.9l4-2.4l3.8-1.8   c0.3-0.1,0.7,0,0.8,0.3c0.1,0.3,0,0.7-0.3,0.8l-3.7,1.7l-4,2.3c-1.7,1-3,2.5-3.8,4.3l-4,9.8C3.6,42,3.3,42.2,3.1,42.2L3.1,42.2z"></path>		<path d="M16.4,47.5c-0.1,0-0.2,0-0.2,0c-0.3-0.1-0.5-0.5-0.3-0.8l0.9-2.2c0.1-0.2,0.2-0.3,0.4-0.4l0.5-0.1c0,0,0.1,0,0.1,0   c1.6,0,1.9-0.1,2.7-0.9c0.2-0.3,0.6-0.3,0.9,0c0.3,0.2,0.3,0.6,0,0.9c-1.1,1.2-1.9,1.3-3.5,1.3l-0.1,0L17,47.2   C16.9,47.4,16.6,47.5,16.4,47.5L16.4,47.5z"></path>		<path d="M13.4,41.1c-0.3,0-0.6,0-0.9-0.1l-1-0.2c-0.3-0.1-0.6-0.4-0.5-0.7c0.1-0.3,0.4-0.6,0.7-0.5l1,0.2c1,0.2,2.1,0,2.9-0.6   c1.2-0.7,1.9-1.8,2.1-3.2c0.1-0.6,0.4-1.1,0.9-1.5l2.7-1.9c1.2-0.9,1.5-2.5,0.7-3.8c-0.2-0.3-0.6-0.4-1-0.2L11.2,34   c-0.3,0.2-0.7,0.1-0.8-0.2c-0.2-0.3-0.1-0.7,0.2-0.8l9.8-5.4c0.9-0.5,2.1-0.2,2.6,0.7c1.2,1.8,0.7,4.2-1,5.5l-2.7,1.9   c-0.2,0.2-0.3,0.4-0.4,0.6c-0.2,1.7-1.2,3.2-2.7,4.1C15.4,40.8,14.4,41.1,13.4,41.1L13.4,41.1z"></path>		<path d="M42.7,44.7H23.1c-2.6,0-4.8-2.1-4.8-4.8v-4.8c0-0.3,0.3-0.6,0.6-0.6c0.3,0,0.6,0.3,0.6,0.6v4.8c0,1.9,1.6,3.5,3.5,3.5   h19.6c1.9,0,3.5-1.6,3.5-3.5V13c0-1.9-1.6-3.5-3.5-3.5h-2.1c-0.3,0-0.6-0.3-0.6-0.6c0-0.3,0.3-0.6,0.6-0.6h2.1   c2.6,0,4.8,2.1,4.8,4.8v26.9C47.5,42.5,45.3,44.7,42.7,44.7z"></path>		<path d="M18.9,29.7c-0.3,0-0.6-0.3-0.6-0.6V13c0-2.6,2.1-4.8,4.8-4.8h2.1c0.3,0,0.6,0.3,0.6,0.6c0,0.3-0.3,0.6-0.6,0.6h-2.1   c-1.9,0-3.5,1.6-3.5,3.5v16C19.5,29.4,19.2,29.7,18.9,29.7L18.9,29.7z"></path>		<path d="M39.7,12.2H26.1c-0.9,0-1.6-0.7-1.6-1.6V7.6c0-0.9,0.7-1.6,1.6-1.6h2.6c0.3-2,2-3.6,4.1-3.6C35,2.5,36.7,4,37,6h2.6   c0.9,0.1,1.6,0.8,1.6,1.6v3.1C41.2,11.5,40.5,12.2,39.7,12.2z M26.1,7.3c-0.2,0-0.3,0.1-0.3,0.3v3.1c0,0.2,0.1,0.3,0.3,0.3h13.6   c0.2,0,0.3-0.1,0.3-0.3V7.6c0-0.2-0.2-0.3-0.4-0.3l-3.2,0c-0.3,0-0.6-0.3-0.6-0.6c0-1.6-1.3-2.9-2.9-2.9c-1.6,0-2.9,1.3-2.9,2.9   c0,0.3-0.3,0.6-0.6,0.6L26.1,7.3L26.1,7.3z"></path>		<path d="M43.1,31.4H26.3c-0.3,0-0.6-0.3-0.6-0.6c0-0.3,0.3-0.6,0.6-0.6h16.7c0.3,0,0.6,0.3,0.6,0.6C43.7,31.1,43.4,31.4,43.1,31.4   z"></path>		<path d="M43.1,35.4H38c-0.3,0-0.6-0.3-0.6-0.6c0-0.3,0.3-0.6,0.6-0.6h5.1c0.3,0,0.6,0.3,0.6,0.6C43.7,35.1,43.4,35.4,43.1,35.4z"></path>		<path d="M34.4,35.4h-9.9c-0.3,0-0.6-0.3-0.6-0.6c0-0.3,0.3-0.6,0.6-0.6h9.9c0.3,0,0.6,0.3,0.6,0.6C35,35.1,34.7,35.4,34.4,35.4z"></path>		<path d="M43.1,39.4H30.6c-0.3,0-0.6-0.3-0.6-0.6c0-0.3,0.3-0.6,0.6-0.6h12.5c0.3,0,0.6,0.3,0.6,0.6C43.7,39.2,43.4,39.4,43.1,39.4   z"></path>		<path d="M26.2,39.4h-3.6c-0.3,0-0.6-0.3-0.6-0.6c0-0.3,0.3-0.6,0.6-0.6h3.6c0.3,0,0.6,0.3,0.6,0.6C26.9,39.2,26.6,39.4,26.2,39.4z   "></path>	</g></g></svg>