<svg xmlns="http://www.w3.org/2000/svg" xmlns:xlink="http://www.w3.org/1999/xlink" x="0px" y="0px" viewBox="0 0 50 50" style="enable-background:new 0 0 50 50;" xml:space="preserve"><g>	<g>		<path d="M4.7,34.8c-0.2,0-0.3-0.1-0.5-0.2c-0.2-0.2-0.2-0.6,0.1-0.8c4.5-3.7,6.8-7.3,7.4-11.1c0-0.3,0.4-0.5,0.7-0.5   c0.3,0,0.5,0.3,0.5,0.7c-0.6,4.2-3.1,7.9-7.8,11.9C5,34.7,4.8,34.8,4.7,34.8z"></path>		<path d="M37,30.8h-4.6c-0.3,0-0.6-0.3-0.6-0.6c0-0.3,0.3-0.6,0.6-0.6H37c2.5,0,4.9-1,6.7-2.8c1.8-1.8,2.7-4.2,2.7-6.7   c0-2.1-1.8-3.7-3.9-3.7h-3.3c-1.2,0-2.3-0.8-2.7-1.9l-0.9-2.6c-0.8-2.1-2.2-3.9-4-5.2c-1.8-1.2-3.8-1.8-5.9-1.8H23   c-0.9,0-1.7,0.1-2.5,0.4l-0.1,0c-2.2,0.7-4,2.4-4.9,4.6c-0.3,0.7-0.4,1.4-0.5,2.1l-0.2,2c0,0.3-0.3,0.6-0.6,0.5   c-0.3,0-0.6-0.3-0.5-0.6l0.2-2c0.1-0.8,0.3-1.7,0.6-2.5c1-2.5,3-4.4,5.6-5.3l0.1,0C21,3.9,22,3.8,23,3.8h2.6c2.3,0,4.6,0.7,6.6,2   c2.1,1.4,3.6,3.4,4.5,5.8l0.9,2.6c0.2,0.7,0.9,1.1,1.6,1.1h3.3c2.8,0,5,2.2,5.1,4.9c0.1,2.8-1,5.5-3,7.6   C42.5,29.7,39.8,30.8,37,30.8L37,30.8z"></path>		<path d="M32.4,30.8C32.4,30.8,32.4,30.8,32.4,30.8c-0.4,0-0.6-0.3-0.6-0.6c0-0.2,0-0.4,0-0.6c0-1.1-0.4-2.1-1-3   c-2.2-3-4.1-6.2-5.6-9.6c-0.5-1.2-0.8-2.5-0.8-3.8v-1.9c0-0.3,0.3-0.6,0.6-0.6c0.3,0,0.6,0.3,0.6,0.6v1.9c0,1.1,0.2,2.2,0.7,3.3   c1.5,3.3,3.3,6.5,5.5,9.4c0.8,1.1,1.2,2.4,1.2,3.7c0,0.2,0,0.5,0,0.7C33,30.5,32.7,30.8,32.4,30.8z"></path>		<path d="M24.9,38.9c-0.5,0-1.1-0.1-1.6-0.2c-2.1-0.5-3.8-1.9-4.7-3.9c-0.9-2-1.3-4.2-1.2-6.4c0-0.3,0.3-0.6,0.6-0.6   c0.3,0,0.6,0.3,0.6,0.6c-0.1,2,0.3,4,1.1,5.8c0.7,1.6,2.2,2.8,3.9,3.2c1.7,0.4,3.4,0,4.7-1c0.3-0.3,0.7-0.6,1-0.9   c0.2-0.2,0.6-0.2,0.8,0c0.2,0.2,0.2,0.6,0,0.8c-0.3,0.4-0.7,0.7-1.1,1C27.8,38.4,26.4,38.9,24.9,38.9L24.9,38.9z"></path>		<path d="M18.7,21.2C18.7,21.2,18.7,21.2,18.7,21.2c-0.4,0-0.6-0.3-0.6-0.6l0.8-8.5c0-0.3,0.3-0.6,0.6-0.5c0.3,0,0.6,0.3,0.5,0.6   l-0.8,8.5C19.3,20.9,19,21.2,18.7,21.2z"></path>		<path d="M45.2,20.9c-2.1,0-3.7-1.8-3.7-4c0-0.4,0-0.8,0.2-1.2c0.1-0.3,0.4-0.5,0.7-0.4c0.3,0.1,0.5,0.4,0.4,0.7   c-0.1,0.3-0.1,0.5-0.1,0.8c0,1.6,1.2,2.8,2.6,2.8c0.5,0,0.9-0.1,1.2-0.3c0.3-0.2,0.6-0.1,0.8,0.1c0.2,0.3,0.1,0.6-0.1,0.8   C46.5,20.7,46,20.9,45.2,20.9L45.2,20.9z"></path>		<path d="M37.6,35.4c-4.5,0-10.8-2.7-16.8-7.6c-4.2-3.4-7.6-7.3-9.5-11c-2-3.9-2.2-7.1-0.6-9.1C11,7.3,11.5,6.9,12,6.6   c0.3-0.2,0.6-0.1,0.8,0.2c0.2,0.3,0.1,0.6-0.2,0.8c-0.4,0.2-0.7,0.5-1,0.8c-1.3,1.6-1,4.4,0.7,7.8c1.9,3.6,5.1,7.3,9.2,10.6   c8.2,6.6,17.4,9.2,20.1,5.8c0.3-0.3,0.5-0.7,0.6-1.2c0.1-0.3,0.4-0.5,0.7-0.4c0.3,0.1,0.5,0.4,0.4,0.7c-0.2,0.6-0.5,1.1-0.8,1.6   C41.5,34.7,39.8,35.4,37.6,35.4L37.6,35.4z"></path>		<path d="M21.7,46.2c-3,0-7.5-1.9-11.5-5.2c-5.4-4.3-8.6-9.8-7.5-12.6c0.1-0.2,0.2-0.5,0.3-0.7c0.2-0.6,0.5-1.1,0.6-1.7l6-14.8   c0.1-0.3,0.5-0.4,0.8-0.3c0.3,0.1,0.4,0.5,0.3,0.8l-6,14.7c-0.2,0.6-0.4,1.2-0.7,1.8c-0.1,0.2-0.2,0.5-0.3,0.7   c-0.9,2.3,2.3,7.4,7.1,11.3c4.8,3.9,10.5,5.9,12.6,4.5c0.2-0.1,0.4-0.3,0.6-0.4c0.5-0.4,1.1-0.7,1.7-1.1l13.1-9   c0.3-0.2,0.6-0.1,0.8,0.2c0.2,0.3,0.1,0.6-0.2,0.8l-13.1,9c-0.6,0.3-1.1,0.7-1.6,1c-0.2,0.1-0.4,0.3-0.6,0.4   C23.5,46,22.7,46.2,21.7,46.2L21.7,46.2z"></path>	</g></g></svg>