<svg xmlns="http://www.w3.org/2000/svg" xmlns:xlink="http://www.w3.org/1999/xlink" x="0px" y="0px" viewBox="0 0 100 75" style="enable-background:new 0 0 100 75;" xml:space="preserve"><g>	<g>		<path d="M40.8,72.5H8.1c-1.4,0-2.6-1.1-2.6-2.5V43.5c0-10.6,2.3-19.2,6.7-25.3c4.1-5.7,11.1-10.9,20.7-15.4h0   c1.2-0.6,2.7-0.1,3.3,1.1l5.9,11c0.3,0.6,0.4,1.3,0.2,2c-0.2,0.7-0.7,1.2-1.3,1.5c-5.4,2.7-9.3,5.5-11.5,8.2   c-1.9,2.3-3.2,5-3.8,7.9c-0.2,0.7,0,1.5,0.5,2.1c0.5,0.6,1.2,1,2,1h12.6c1.4,0,2.6,1.1,2.6,2.5V70C43.4,71.4,42.2,72.5,40.8,72.5z    M34,3.8c-0.2,0-0.4,0-0.5,0.1l0,0c-9.4,4.4-16.2,9.4-20.2,15C9,24.8,6.8,33.1,6.8,43.5V70c0,0.7,0.6,1.2,1.2,1.2h32.7   c0.7,0,1.2-0.6,1.2-1.2V40c0-0.7-0.6-1.2-1.2-1.2H28.2c-1.2,0-2.3-0.5-3-1.4c-0.7-0.9-1-2.1-0.8-3.2c0.7-3.1,2-6,4.1-8.5   c2.4-2.9,6.3-5.7,11.9-8.5c0.3-0.2,0.5-0.4,0.6-0.7c0.1-0.3,0.1-0.7-0.1-1l-5.9-11C34.9,4,34.4,3.8,34,3.8z"></path>	</g>	<g>		<path d="M91.9,72.5H59.1c-1.3,0-2.4-1.1-2.4-2.4V43.5c0-10.6,2.3-19.2,6.7-25.3C67.5,12.4,74.4,7.2,84,2.7h0   c1.2-0.6,2.7-0.1,3.3,1.1l5.9,11c0.3,0.6,0.4,1.3,0.2,2c-0.2,0.7-0.7,1.2-1.3,1.5c-5.4,2.7-9.3,5.5-11.5,8.2   c-1.9,2.3-3.2,5-3.8,7.9c-0.2,0.7,0,1.5,0.5,2.1c0.5,0.6,1.2,1,2,1h12.6c1.4,0,2.6,1.1,2.6,2.5V70C94.5,71.4,93.3,72.5,91.9,72.5z    M85.1,3.8c-0.2,0-0.4,0-0.5,0.1v0c-9.4,4.4-16.2,9.4-20.2,15c-4.3,5.9-6.5,14.2-6.5,24.6v26.6c0,0.6,0.5,1.1,1.1,1.1h32.8   c0.7,0,1.2-0.6,1.2-1.2V40c0-0.7-0.6-1.2-1.2-1.2H79.3c-1.2,0-2.3-0.5-3-1.4c-0.7-0.9-1-2.1-0.8-3.2c0.7-3.1,2-6,4.1-8.5   c2.4-2.9,6.3-5.7,11.9-8.5c0.3-0.2,0.5-0.4,0.6-0.7c0.1-0.3,0.1-0.7-0.1-1l-5.9-11C86,4,85.5,3.8,85.1,3.8z"></path>	</g></g></svg>