<svg xmlns="http://www.w3.org/2000/svg" width="33" height="32" viewBox="0 0 33 32" fill="none"><g clip-path="url(#clip0_173_3002)"><path d="M28.1862 23.5104C28.1622 23.4904 28.1342 23.4724 28.1122 23.4604L22.9145 20.4706L22.8565 20.4406C22.8345 20.4286 22.8125 20.4166 22.7885 20.4066C20.9407 19.5427 19.6747 21.2066 18.7448 22.4305C18.5668 22.6685 18.3428 22.9645 18.1748 23.1324C17.9628 23.3444 17.7868 23.4764 17.6429 23.5324C17.6049 23.5464 17.5609 23.5564 17.4909 23.5224C15.347 22.4265 13.5671 21.1146 12.0492 19.5087C10.7973 18.1868 9.70736 16.6628 8.62542 14.715C8.50543 14.305 9.08739 13.839 9.80335 13.3211C10.0393 13.1511 10.2493 12.9971 10.4353 12.8391C11.1353 12.3291 11.5912 11.8112 11.8312 11.2532C12.1672 10.4672 12.0592 9.70328 11.5152 8.98533L8.20145 3.38168C8.02946 3.0697 7.71548 2.86771 7.3635 2.84171C5.44962 2.67172 3.83172 3.1077 2.5558 4.13563C1.28388 5.14957 0.449934 6.70747 0.137954 8.63735C-0.330017 11.5632 0.401937 14.883 2.25582 18.2368C4.1197 21.6045 7.07552 24.9643 10.3713 27.4542C11.1493 28.0321 11.9232 28.5161 12.6712 28.9841L12.9392 29.1541C14.783 30.294 16.3169 31.0319 17.7689 31.4819C18.9028 31.8299 20.0027 32.0019 21.1006 32.0019C21.6166 32.0019 22.1346 31.9639 22.6525 31.8879C23.9585 31.6939 24.9724 31.4179 25.8403 31.018C27.0283 30.482 27.9302 29.682 28.5222 28.6421C29.0401 27.7322 29.3361 26.7202 29.3361 25.8623C29.3281 24.8363 28.9302 24.0244 28.1862 23.5124V23.5104ZM27.8282 28.2441C27.3143 29.1461 26.5563 29.814 25.5084 30.288C24.7084 30.656 23.7645 30.912 22.5346 31.0939C21.0146 31.3179 19.5727 31.1979 18.0028 30.716C16.6189 30.288 15.143 29.574 13.3651 28.4761L13.0951 28.3041C12.3612 27.8461 11.6012 27.3702 10.8513 26.8142C7.64548 24.3924 4.76766 21.1246 2.95578 17.8508C1.18989 14.655 0.489932 11.5132 0.927904 8.76534C1.20789 7.03345 1.94184 5.64954 3.05377 4.75759C4.00371 3.99164 5.18564 3.60366 6.57555 3.60366C6.80954 3.60366 7.04952 3.61366 7.29551 3.63566C7.3795 3.64166 7.4575 3.69166 7.50349 3.77565L10.8373 9.4113L10.8653 9.4513C11.2453 9.94327 11.3173 10.4132 11.0953 10.9352C10.9153 11.3532 10.5313 11.7792 9.95334 12.1971L9.92734 12.2171C9.76335 12.3571 9.56136 12.5051 9.33538 12.6691C8.55543 13.2351 7.48749 14.011 7.89547 15.0409L8.11145 14.959L7.91147 15.0689C9.0334 17.0928 10.1653 18.6767 11.4712 20.0566C13.0531 21.7305 14.903 23.0964 17.1369 24.2364C17.4009 24.3644 17.6789 24.3784 17.9348 24.2764C18.1848 24.1804 18.4428 23.9984 18.7428 23.6964C18.9048 23.5344 19.0988 23.2984 19.3927 22.9045C20.4447 21.5205 21.2806 20.5826 22.4706 21.1406C22.4926 21.1526 22.5146 21.1646 22.5386 21.1766L27.7062 24.1484C27.7202 24.1584 27.7322 24.1684 27.7402 24.1724C28.2662 24.5344 28.5362 25.1043 28.5422 25.8663C28.5422 26.5862 28.2842 27.4542 27.8322 28.2461L27.8282 28.2441Z" fill="currentcolor"></path><path d="M23.1927 1.89382C19.1229 -0.128057 15.2372 -0.00206481 15.0752 0.00393481C14.8552 0.0119343 14.6832 0.197923 14.6912 0.417909C14.6992 0.637895 14.8852 0.811884 15.1052 0.801885C15.1432 0.801885 18.9749 0.681892 22.8647 2.62377C28.0504 5.21361 30.8842 10.0573 31.2901 17.0249C31.3022 17.2369 31.4781 17.4008 31.6881 17.4008C31.6961 17.4008 31.7041 17.4008 31.7121 17.4008C31.9321 17.3888 32.1001 17.1989 32.0881 16.9789C31.5601 7.90344 26.9584 3.7657 23.1927 1.89582V1.89382Z" fill="currentcolor"></path><path d="M15.7031 5.00157C15.7291 5.00157 18.4329 4.91758 21.1708 6.28949C24.8125 8.11138 26.8024 11.5212 27.0884 16.4249C27.1004 16.6368 27.2764 16.8008 27.4864 16.8008C27.4944 16.8008 27.5024 16.8008 27.5104 16.8008C27.7304 16.7888 27.8983 16.5988 27.8863 16.3789C27.5084 9.87127 24.2046 6.90345 21.4987 5.55954C18.5789 4.10963 15.7891 4.19762 15.6711 4.20362C15.4511 4.21162 15.2791 4.39761 15.2871 4.6176C15.2951 4.83758 15.4831 5.01357 15.7011 5.00157H15.7031Z" fill="currentcolor"></path><path d="M14.8892 8.61755C14.8972 8.83754 15.0792 9.00353 15.3032 9.00153C15.6011 8.98753 22.6247 8.83154 23.0887 16.825C23.1007 17.037 23.2767 17.201 23.4866 17.201C23.4946 17.201 23.5026 17.201 23.5106 17.201C23.7306 17.189 23.8986 16.999 23.8866 16.779C23.3767 7.99359 15.3532 8.20158 15.2732 8.20358C15.0532 8.21158 14.8812 8.39756 14.8892 8.61755Z" fill="currentcolor"></path></g><defs><clipPath id="clip0_173_3002"><rect width="32.088" height="32" fill="white"></rect></clipPath></defs></svg>