<svg xmlns="http://www.w3.org/2000/svg" xmlns:xlink="http://www.w3.org/1999/xlink" x="0px" y="0px" viewBox="0 0 21 21" style="enable-background:new 0 0 21 21;" xml:space="preserve"><path d="M18.6,6.4c0-0.4-0.4-0.7-0.8-0.7h-2.5V4.8c0-1.1-0.4-2.1-1.2-2.8c-0.8-0.8-1.8-1.2-2.8-1.2c0,0,0,0,0,0H9.7 c-2.2,0-4,1.8-4,4v0.9H3.2C2.8,5.7,2.5,6,2.4,6.4l-0.8,13c0,0.2,0.1,0.4,0.2,0.6s0.3,0.2,0.6,0.2h16.2c0.2,0,0.4-0.1,0.6-0.2 c0.1-0.2,0.2-0.4,0.2-0.6L18.6,6.4z M7.2,4.8c0-1.4,1.1-2.5,2.5-2.5h1.6c0,0,0,0,0,0c0.7,0,1.3,0.3,1.8,0.7c0.5,0.5,0.7,1.1,0.7,1.8 v0.9H7.2V4.8z M3.2,18.7L3.9,7.2h1.8v0.9c0,0.4,0.3,0.8,0.8,0.8s0.8-0.3,0.8-0.8V7.2h6.6v0.9c0,0.4,0.3,0.8,0.8,0.8s0.8-0.3,0.8-0.8 V7.2h1.8l0.7,11.5H3.2z"></path></svg>