<svg xmlns="http://www.w3.org/2000/svg" xmlns:xlink="http://www.w3.org/1999/xlink" x="0px" y="0px" viewBox="0 0 50 50" style="enable-background:new 0 0 50 50;" xml:space="preserve"><path d="M44.4,40l1.2,1.2L44.4,40L44.4,40z M15.3,34.9l1.2-1.2L15.3,34.9L15.3,34.9z M5.8,10.1L4.6,8.8L5.8,10.1L5.8,10.1z  M33.4,32.9l1.1-1.1L32,29.4l-1,1.1L33.4,32.9z M38,31.4l4.4,2.4l1.6-3.1l-4.4-2.4L38,31.4z M43.2,38.7L39.9,42l2.4,2.5l3.3-3.3 L43.2,38.7z M37.9,43.1c-3.3,0.3-12,0-21.4-9.4l-2.4,2.5c10.2,10.3,20,10.8,24.1,10.4L37.9,43.1L37.9,43.1z M16.6,33.7 C7.6,24.6,6.2,17.1,6,13.8L2.5,14c0.2,4.1,2.1,12.5,11.6,22.2L16.6,33.7z M19.7,19.2l0.7-0.7L18,16l-0.7,0.7L19.7,19.2L19.7,19.2z  M20.9,10L18,6.1l-2.8,2.1l2.9,3.9L20.9,10z M8.2,5.2L4.6,8.8l2.4,2.5l3.6-3.7L8.2,5.2z M18.5,17.9c-1.2-1.2-1.2-1.2-1.2-1.2h0l0,0 c-0.1,0.1-0.2,0.2-0.3,0.4c-0.1,0.2-0.3,0.4-0.4,0.7c-0.3,0.8-0.4,1.7-0.2,2.5c0.3,2,1.7,4.7,5.2,8.3l2.4-2.5 c-3.3-3.3-4.1-5.3-4.2-6.3c-0.1-0.5,0-0.7,0-0.7c0,0,0,0,0,0c0,0,0,0.1-0.1,0.1l0,0c0,0,0,0,0,0L18.5,17.9L18.5,17.9z M21.6,28.6 c3.5,3.6,6.2,4.9,8.2,5.3c1,0.2,1.8,0,2.5-0.2c0.3-0.1,0.7-0.3,1-0.6c0,0,0.1-0.1,0.1-0.1l0,0l0,0l0,0c0,0,0,0-1.2-1.2 c-1.2-1.2-1.2-1.2-1.2-1.2l0,0l0,0l0,0l0,0c0,0,0.1,0,0.1-0.1c0,0,0,0,0,0c-0.1,0-0.3,0.1-0.7,0c-1-0.1-3-0.9-6.3-4.3L21.6,28.6z  M18,6c-2.4-3.2-7-3.7-9.8-0.9l2.4,2.5c1.2-1.2,3.4-1.1,4.6,0.5L18,6L18,6z M6,13.8c0-0.8,0.3-1.7,1.1-2.4L4.6,8.8 c-1.2,1.3-2.2,3-2.1,5.1L6,13.8z M39.9,42c-0.6,0.6-1.3,1-2,1.1l0.3,3.5c1.7-0.2,3.1-1,4.1-2.1L39.9,42z M20.4,18.5 c2.3-2.3,2.4-5.9,0.5-8.5l-2.8,2.1c0.9,1.3,0.8,2.9-0.2,3.9L20.4,18.5z M42.4,33.9c1.9,1,2.2,3.5,0.8,4.8l2.4,2.5 c3.1-3.1,2.1-8.3-1.6-10.4L42.4,33.9z M34.4,31.9c0.9-0.9,2.3-1.1,3.5-0.4l1.7-3.1c-2.5-1.4-5.6-1-7.6,1L34.4,31.9z"></path></svg>