<svg xmlns="http://www.w3.org/2000/svg" xmlns:xlink="http://www.w3.org/1999/xlink" x="0px" y="0px" viewBox="0 0 100 100" style="enable-background:new 0 0 100 100;" xml:space="preserve"><path d="M85.8,64.6c1.8-1.9,1.8-5-0.2-6.8c-1.9-1.8-5-1.8-6.8,0.2L85.8,64.6z M46.5,91.8c-1.8,1.9-1.8,5,0.2,6.8 c1.9,1.8,5,1.8,6.8-0.2L46.5,91.8z M46.5,98.5c1.8,1.9,4.9,2,6.8,0.2c1.9-1.8,2-4.9,0.2-6.8L46.5,98.5z M21.2,58 c-1.8-1.9-4.9-2-6.8-0.2c-1.9,1.8-2,4.9-0.2,6.8L21.2,58z M45.2,95.2c0,2.7,2.2,4.8,4.8,4.8s4.8-2.2,4.8-4.8H45.2z M54.8,4.8 C54.8,2.2,52.7,0,50,0s-4.8,2.2-4.8,4.8H54.8z M78.8,58L46.5,91.8l7,6.7l32.3-33.9L78.8,58z M53.5,91.8L21.2,58l-7,6.7l32.3,33.9 L53.5,91.8z M54.8,95.2V4.8h-9.7v90.3H54.8z"></path></svg>