<svg xmlns="http://www.w3.org/2000/svg" xmlns:xlink="http://www.w3.org/1999/xlink" x="0px" y="0px" viewBox="0 0 100 100" style="enable-background:new 0 0 100 100;" xml:space="preserve"><path d="M14.2,35.4c-1.8,1.9-1.8,5,0.2,6.8c1.9,1.8,5,1.8,6.8-0.2L14.2,35.4z M53.5,8.2c1.8-1.9,1.8-5-0.2-6.8 c-1.9-1.8-5-1.8-6.8,0.2L53.5,8.2z M53.5,1.5c-1.8-1.9-4.9-2-6.8-0.2c-1.9,1.8-2,4.9-0.2,6.8L53.5,1.5z M78.8,42 c1.8,1.9,4.9,2,6.8,0.2c1.9-1.8,2-4.9,0.2-6.8L78.8,42z M54.8,4.8C54.8,2.2,52.7,0,50,0s-4.8,2.2-4.8,4.8H54.8z M45.2,95.2 c0,2.7,2.2,4.8,4.8,4.8s4.8-2.2,4.8-4.8H45.2z M21.2,42L53.5,8.2l-7-6.7L14.2,35.4L21.2,42z M46.5,8.2L78.8,42l7-6.7L53.5,1.5 L46.5,8.2z M45.2,4.8v90.3h9.7V4.8H45.2z"></path></svg>