<svg xmlns="http://www.w3.org/2000/svg" xmlns:xlink="http://www.w3.org/1999/xlink" x="0px" y="0px" viewBox="0 0 65 65" style="enable-background:new 0 0 65 65;" xml:space="preserve"><style type="text/css">	.st0{clip-path:url(#SVGID_2_);fill:none;stroke:#163567;stroke-width:2;stroke-linecap:round;stroke-linejoin:round;}</style><g>	<defs>		<rect width="65" height="65"></rect>	</defs>	<clipPath>		<use xlink:href="#SVGID_1_" style="overflow:visible;"></use>	</clipPath>	<path class="st0" d="M9.5,44.7c0,0-8.1-2.4-8.1-5.4v-8.1c0-5.4,8.1-5.4,8.1-5.4V44.7z"></path>	<path class="st0" d="M55.5,44.7c0,0,8.1-2.4,8.1-5.4v-8.1c0-5.4-8.1-5.4-8.1-5.4V44.7z"></path>	<path class="st0" d="M58.2,44.7c0,10.8-9.4,16.1-19,16.3"></path>	<path class="st0" d="M36.6,63.6h-8.1c-1.5,0-2.7-1.2-2.7-2.7c0-1.5,1.2-2.7,2.7-2.7h8.1c1.5,0,2.7,1.2,2.7,2.7  C39.3,62.4,38.1,63.6,36.6,63.6z"></path>	<path class="st0" d="M55.5,25.7v-1.4c0-12.7-10.3-23-23-23c-12.7,0-23,10.3-23,23v1.4"></path></g></svg>