<svg xmlns="http://www.w3.org/2000/svg" xmlns:xlink="http://www.w3.org/1999/xlink" x="0px" y="0px" viewBox="0 0 100 100" style="enable-background:new 0 0 100 100;" xml:space="preserve"><g>	<g>		<path d="M30.9,18.1c1.1,0,2.1,0.9,2.1,2.1c0,1.1-0.9,2.1-2.1,2.1c-1.1,0-2.1-0.9-2.1-2.1C28.8,19.1,29.7,18.1,30.9,18.1z"></path>		<path d="M30.9,22.8c-1.4,0-2.6-1.2-2.6-2.6c0-1.4,1.2-2.6,2.6-2.6s2.6,1.2,2.6,2.6C33.5,21.7,32.3,22.8,30.9,22.8z M30.9,18.7   c-0.9,0-1.6,0.7-1.6,1.6c0,0.9,0.7,1.6,1.6,1.6s1.6-0.7,1.6-1.6C32.5,19.4,31.8,18.7,30.9,18.7z"></path>	</g>	<g>		<path d="M19.6,37c3.4,3.3,5.3,8.9,4.7,11.9c-0.4,1.5-0.5,3.1-0.2,4.7s1.4,3,3,3.7c4.2,1.7,7.7,3.6,10.3,6.2c0,0.9,0,2-0.3,3   L34,79.3c-1.6,0.6-3,1.4-4,2.6c-0.8,1.1-1.4,2.6-1.5,4.3h-8.2c0-1.4,0.9-2.5,2.1-2.6l1.8,0.9c1.5,0.8,2.6-1.5,1-2.2   c-3.9-1.9-5.3-5.3-4.9-8.1c0.4-2.8,2.7-5.2,7.4-5.2c1.7,0,1.7-2.5,0-2.4c-5.6,0-9.2,3.3-9.9,7.3c-0.4,2.6,0.4,5.5,2.4,7.8   c-1.8,0.8-3,2.5-3.3,4.6h-7c0.4-1.1,0.7-2.5,1.9-2.6c0.5,0,0.9-0.3,1-0.8c2.3-6.7,1.5-9.7,0.8-12.3c-0.6-2.5-1.1-4.6,1.5-11.4l0,0   c0.4-1,0.3-2.4-0.4-3.3s-1.9-1.5-3.3-1.7c-1.7-0.3-2.3-0.6-2.6-1c-0.3-0.3-0.5-1.1-0.9-2.5c-0.3-1.1,0.1-1.5,0.8-2   c1.5-0.9,2.3-2.3,2.8-3.6c0.5-1.4,2.1-2.6,3.7-3c0.6-0.2,1-0.8,0.8-1.5c-0.2-0.9,0-1.5,0.2-1.9l1.4,1.4c0.8,1.3,2.4,0.3,1.7-1   C19.1,38.2,19.2,37.5,19.6,37z M35.8,13.9c2.3,0,4.5,0.6,6,1.8c1.4,0.9,2.4,3.3,4,5.4l3.9,5.2c1.5,1.9,1.8,3.4,1.6,4.8   c-0.2,1.3-0.9,2.4-1.9,3.1c-0.9,0.7-2.1,1.1-2.9,1S45.1,35,44.9,34L42,22.3c-0.4-1.6-2.7-1-2.4,0.6l2.9,11.7   c0.4,1.9,2.1,3,3.7,3.1s3.2-0.4,4.7-1.6c0.5-0.4,0.9-0.8,1.4-1.4c1.1,0.5,1.9,1.3,2.8,2.3l20.3,24c4.4,5.2,4.1,13.7,2.4,19.8   c-0.2,0.8,0.4,1.6,1.3,1.6c3.7-0.3,6.9-2.6,9.5-7.2c0.2-0.4,0.5-0.6,0.9-0.6c0.4-0.1,0.9,0,1.4,0.3c0.9,0.5,1.6,1.5,0.9,2.9   c-0.8,2.2-3.6,4.7-6.7,6.2c-3.2,1.5-6.8,2-9.6,0.7c-0.4-0.2-0.8-0.1-1.3,0.1c-1.1,0.9-2.8,1.5-4.7,1.5H47.5   c0.6-2.6,2.6-4.8,5.2-5.1c0.8,0.6,1.7,1.1,2.6,1.7c1.5,0.7,2.5-1.5,1-2.2c-4.6-2.6-6.4-6.8-5.8-10.3c0.1-0.4,0.2-0.8,0.3-1.3   c0.9-2.9,3.8-5.2,8.8-5.2c1.7,0.1,1.7-2.5,0-2.4c-6,0-9.9,3.2-11.2,7.3L41,82.7c-0.5,1-0.9,2-1.5,2.6c-0.5,0.6-0.8,0.8-1.7,0.8   h-6.6c0.2-1,0.3-2.2,0.7-2.8c0.7-1,1.8-1.8,3.3-2.2c0.4-0.1,0.7-0.4,0.8-0.9L39.6,67c0.4-1.6,0.4-3,0.2-4.5   c-0.3-3.2-1.6-6.1-2.8-8.9c-1.8-4.1-3.4-8.2-2.6-14.3c0.5-3.4-2.1-6.8-5.6-7.5l-9.9-2.1c-1-0.2-1.4-1.3-1.6-2.1   c-0.2-1.1,0.2-2.4,1.1-3.1c0.1-0.1,0.7-0.4,1.4-0.7c0.7-0.3,1.5-0.6,2.3-0.9c0.8-0.3,1.7-0.7,2.4-1.1c0.9-0.6,1.6-1,1.8-1.9   c0.6-2,1.8-3.3,3.6-4.4C31.5,14.3,33.7,13.9,35.8,13.9z M35.8,11.4c-2.5,0-5.1,0.5-7.3,1.8c-1.9,1-3.6,2.7-4.4,4.9   c-0.3,0.7-0.5,1-1,1.4c-0.5,0.3-1.3,0.6-2.1,1c-0.8,0.3-1.6,0.6-2.4,1c-0.7,0.3-1.4,0.6-2,1.1c-1.7,1.4-2.2,3.6-2,5.4   c0.3,1.9,1.5,3.7,3.4,4.1l10,2.1c2.3,0.5,4,2.7,3.7,4.8c-0.9,6.7,0.9,11.5,2.8,15.7c0.7,1.8,1.5,3.4,2,5c-2.6-1.9-5.5-3.3-8.8-4.6   c-0.9-0.3-1.4-0.9-1.6-2c-0.2-1.3-0.1-2.5,0.2-3.6c1-4.4-1.4-10.4-5.4-14.4c-0.5-0.5-1.4-0.7-2.1-0.5c-1,0.3-1.5,0.8-1.6,1.8   c-0.2-0.4-0.8-0.6-1.3-0.6c-0.7,0.1-1.3,0.5-1.6,1c-0.6,0.8-0.6,2.1-0.5,3.4c-1.9,0.7-3.8,1.9-4.5,3.9c-0.4,0.9-1,1.9-1.9,2.4   C7,47,6.2,47.4,5.8,48.2c-0.3,0.7-0.3,1.8,0,2.9c0.4,1.4,0.7,2.6,1.5,3.6c0.8,0.9,2.1,1.5,4.1,1.9c1,0.2,1.7,0.5,1.8,0.8   c0.2,0.2,0.2,0.4,0,0.9c-2.7,7-2.2,10.2-1.6,12.8c0.6,2.5,1.3,4.5-0.7,10.7c-2.4,0.8-4.1,3-4.1,5.7c0,0.6,0.5,1.3,1.3,1.3h29.9   c1.6,0,2.8-0.8,3.7-1.8c0.7-0.9,1.1-2.1,1.7-3l5.1-9.5c0.4,1.7,1.1,3.2,2.4,4.7c-3.4,1.1-6.1,4.6-6.1,8.4c0,0.6,0.5,1.3,1.3,1.3   h23.7c2.1,0,4-0.7,5.5-1.8c3.6,1.3,7.5,0.7,11.1-0.8c3.7-1.7,6.8-4.3,7.9-7.4c1-2.5-0.2-4.9-2.1-6c-0.9-0.5-2-0.7-2.9-0.5   c-1,0.2-2.1,0.8-2.6,1.9c-1.9,3.4-3.9,4.8-6.2,5.4c1.4-6.4,1.6-14.3-3.1-19.9L57,35.7c-0.9-1.1-2.1-2.2-3.6-2.9   c0.1-0.3,0.2-0.7,0.3-1.1c0.3-2-0.3-4.3-2-6.6c-1.3-1.8-2.6-3.4-3.9-5.2c-1.4-1.8-2.3-4.3-4.5-6C41.2,12.1,38.5,11.5,35.8,11.4z"></path>		<path d="M69.6,89.4H45.9c-1.1,0-1.8-0.9-1.8-1.8c0-3.6,2.4-7.1,5.7-8.6c-0.7-0.9-1.3-2-1.7-3.1l-4.5,8.4c-0.2,0.3-0.3,0.6-0.5,1   c-0.3,0.7-0.7,1.5-1.2,2.1c-0.7,0.8-2.1,2-4.1,2H8c-1.1,0-1.8-0.9-1.8-1.8c0-2.8,1.6-5.1,4.2-6.1c1.8-5.6,1.3-7.6,0.7-9.9   l-0.1-0.3c-0.7-2.8-1.1-6.2,1.6-13.2c0.1-0.3,0.1-0.4,0.1-0.4l-0.1-0.2c0,0-0.4-0.3-1.4-0.5C9,56.6,7.8,56,6.9,55   c-0.7-0.9-1.1-2.1-1.4-3.2l-0.2-0.5C5,50,5,48.9,5.3,48c0.5-0.9,1.2-1.4,1.8-1.8l0.2-0.1C8,45.7,8.6,44.9,9,43.9   c0.6-1.7,2.1-3,4.4-4c-0.1-1.2,0-2.5,0.7-3.4c0.4-0.7,1.1-1.1,1.9-1.2c0.3,0,0.7,0.1,1,0.2c0.3-0.7,0.8-1.1,1.7-1.4   c0.9-0.3,1.9,0,2.6,0.7c4.3,4.2,6.6,10.4,5.6,14.9c-0.3,1.1-0.4,2.2-0.2,3.3c0.2,0.9,0.5,1.3,1.2,1.6c2.9,1.1,5.4,2.4,7.6,3.7   c-0.3-0.8-0.6-1.5-1-2.4l-0.5-1.1c-2-4.4-3.8-9.2-2.9-15.9c0.3-1.8-1.2-3.8-3.3-4.2l-10-2.1c-2-0.4-3.5-2.1-3.9-4.5   c-0.3-2.4,0.5-4.6,2.2-5.9c0.7-0.5,1.3-0.9,2.1-1.2c0.8-0.4,1.5-0.7,2.4-1.1c0.3-0.1,0.5-0.3,0.8-0.4c0.5-0.2,0.9-0.4,1.2-0.6   c0.4-0.2,0.5-0.4,0.8-1.1c0.8-2.1,2.4-4,4.6-5.2c2.7-1.5,5.6-1.8,7.6-1.8l0,0c3.3,0.1,5.9,1,7.9,2.6c1.5,1.2,2.5,2.8,3.3,4.2   c0.4,0.7,0.8,1.3,1.2,1.9c0.6,0.9,1.3,1.8,1.9,2.6c0.7,0.9,1.3,1.7,1.9,2.6c1.7,2.3,2.4,4.8,2.1,7c-0.1,0.3-0.1,0.6-0.2,0.8   c1.2,0.7,2.3,1.6,3.3,2.9l20.3,24c4.8,5.7,4.6,13.6,3.4,19.5c2.1-0.8,3.6-2.3,5-4.9c0.5-1.1,1.6-1.9,3-2.1c1-0.2,2.2,0,3.3,0.6   c2,1.1,3.5,3.8,2.3,6.6c-1.1,3-4.1,5.8-8.2,7.7c-3.9,1.7-7.9,2-11.2,0.9C73.4,88.8,71.6,89.4,69.6,89.4z M48.5,73.1l0.3,1.3   c0.4,1.7,1.2,3.2,2.3,4.5l0.5,0.6l-0.7,0.2c-3.3,1.1-5.7,4.4-5.7,7.9c0,0.3,0.3,0.7,0.7,0.7h23.7c1.8,0,3.6-0.6,5.2-1.7l0.2-0.1   l0.2,0.1c3.2,1.1,7,0.8,10.7-0.8c3.9-1.8,6.6-4.4,7.7-7.1c1-2.3-0.2-4.4-1.9-5.3c-0.9-0.5-1.8-0.6-2.6-0.5c-1,0.2-1.9,0.8-2.3,1.6   c-1.8,3.2-3.7,4.9-6.5,5.7l-0.8,0.2l0.2-0.8c1.2-5.8,1.7-13.8-3-19.5L56.6,36c-1-1.3-2.1-2.2-3.4-2.8L52.8,33l0.1-0.4   c0.1-0.3,0.2-0.7,0.3-1.1c0.3-1.9-0.4-4-1.9-6.2c-0.6-0.9-1.3-1.7-1.9-2.6c-0.7-0.9-1.3-1.7-1.9-2.6c-0.5-0.6-0.9-1.3-1.3-2   c-0.8-1.4-1.7-2.8-3.1-3.9c-1.9-1.5-4.2-2.3-7.3-2.4c-1.9,0-4.6,0.3-7,1.7c-2,1.1-3.4,2.7-4.2,4.6c-0.3,0.8-0.6,1.2-1.3,1.6   c-0.3,0.2-0.8,0.4-1.3,0.7c-0.3,0.1-0.5,0.3-0.8,0.4c-0.9,0.3-1.6,0.7-2.4,1c-0.8,0.3-1.3,0.6-1.9,1.1c-1.4,1.1-2,3-1.8,5   c0.2,1.5,1.2,3.2,3,3.6l10,2.1c2.6,0.6,4.4,3,4.1,5.4c-0.9,6.5,0.9,11.1,2.8,15.4l0.5,1.1c0.6,1.4,1.1,2.7,1.5,3.9l0.5,1.5   l-1.3-0.9c-2.4-1.7-5.2-3.2-8.7-4.5c-1-0.3-1.6-1.1-1.9-2.4c-0.2-1.3-0.1-2.6,0.2-3.8c1-4.1-1.2-9.9-5.3-13.9   c-0.4-0.4-1-0.6-1.6-0.4c-0.9,0.3-1.1,0.7-1.2,1.3l-0.2,1.8l-0.8-1.6c-0.1-0.2-0.5-0.3-0.8-0.3c-0.6,0.1-0.9,0.5-1.1,0.8   c-0.5,0.7-0.6,1.8-0.4,3.1l0,0.4l-0.4,0.1c-2.3,0.9-3.6,2-4.2,3.6c-0.4,0.9-1.1,2-2.1,2.7l-0.2,0.1c-0.6,0.4-1.1,0.7-1.4,1.3   C6,49,6.1,50,6.3,51l0.1,0.5c0.3,1.1,0.6,2.1,1.2,2.9c0.7,0.8,1.8,1.3,3.8,1.7c1.2,0.2,1.9,0.6,2.1,1.1c0.4,0.5,0.2,1,0,1.4   c-2.6,6.7-2.2,9.9-1.5,12.5l0.1,0.3c0.6,2.5,1.2,4.6-0.8,10.7l-0.1,0.2L11,82.3c-2.3,0.8-3.7,2.8-3.7,5.2c0,0.3,0.3,0.7,0.7,0.7   h29.9c1.6,0,2.7-1,3.3-1.6c0.4-0.6,0.8-1.3,1.1-1.9c0.2-0.4,0.3-0.7,0.5-1L48.5,73.1z M69.4,87H46.8l0.2-0.6c0.7-3,3-5.2,5.7-5.5   l0.2,0l0.2,0.1c0.8,0.6,1.6,1.1,2.6,1.6c0.6,0.3,0.8-0.2,0.9-0.3c0-0.1,0.3-0.7-0.3-1c-5.3-3-6.6-7.6-6.1-10.9l0.3-1.3   c1.2-3.6,4.5-5.6,9.3-5.6c0.3,0,0.5-0.1,0.6-0.3c0.1-0.2,0.1-0.6,0-0.8c-0.1-0.2-0.3-0.3-0.6-0.3c-5.3,0-9.4,2.7-10.7,6.9   l-7.7,14.4c-0.4,0.9-0.8,1.6-1.3,2.2c-0.6,0.7-1,1-2.1,1h-7.2l0.1-0.6c0-0.2,0.1-0.5,0.1-0.7c0.2-0.9,0.3-1.7,0.7-2.3   c0.8-1.2,2-2,3.6-2.4c0.3-0.1,0.4-0.2,0.5-0.5L39,66.9c0.4-1.4,0.4-2.7,0.2-4.3c-0.3-3.2-1.6-6-2.8-8.7c-1.9-4.4-3.5-8.6-2.7-14.6   c0.5-3.1-1.9-6.2-5.2-6.9l-9.9-2.1c-1.4-0.3-1.8-1.7-2-2.5c-0.3-1.4,0.3-2.8,1.3-3.7c0.1-0.1,0.4-0.3,1.4-0.8   c0.8-0.3,1.5-0.7,2.4-1c0.7-0.3,1.5-0.7,2.3-1.1c0.9-0.6,1.4-0.9,1.5-1.6c0.7-2.1,1.9-3.6,3.8-4.7c1.6-1.1,3.8-1.6,6.3-1.6   c2.5,0,4.7,0.7,6.3,1.9c0.9,0.6,1.7,1.8,2.5,3.2c0.5,0.8,1,1.6,1.5,2.3L50,26c1.4,1.8,1.9,3.5,1.7,5.2c-0.2,1.3-1,2.6-2.1,3.5   c-1.1,0.8-2.3,1.3-3.3,1.1c-1-0.1-1.6-0.4-1.9-1.7l-2.9-11.7c-0.2-0.6-0.7-0.5-0.8-0.5c-0.3,0.1-0.7,0.4-0.6,0.9L43,34.5   c0.4,1.7,1.9,2.7,3.2,2.7c1.5,0.1,3-0.4,4.3-1.5c0.5-0.4,0.9-0.8,1.3-1.3l0.3-0.3l0.4,0.2c1.3,0.6,2.1,1.4,3,2.4l20.3,24   c4.5,5.3,4.2,14,2.5,20.3c-0.1,0.2,0,0.4,0.1,0.6c0.1,0.2,0.4,0.3,0.6,0.3c3.5-0.3,6.6-2.6,9-6.9c0.3-0.7,0.9-0.9,1.3-0.9   c0.6-0.1,1.2,0,1.7,0.4c1.3,0.7,1.8,2,1.1,3.5c-0.9,2.3-3.7,4.9-6.9,6.4c-3.7,1.7-7.3,1.9-10,0.7c-0.2-0.1-0.4-0.1-0.8,0.1   C73.2,86.4,71.4,87,69.4,87z M48.2,85.9h21.2c1.8,0,3.3-0.5,4.4-1.3l0.1-0.1c0.2-0.1,1-0.5,1.7-0.1c2.4,1.1,5.7,0.8,9.2-0.7   c3-1.4,5.6-3.8,6.4-5.9c0.4-1,0.2-1.8-0.7-2.3c-0.3-0.2-0.7-0.3-1-0.3l-0.1,0c-0.2,0-0.3,0-0.5,0.3c-2.6,4.6-6,7.2-9.9,7.5   c0,0,0,0,0,0c-0.6,0-1.1-0.3-1.5-0.7c-0.3-0.4-0.4-1-0.3-1.5c1.7-6.1,1.9-14.4-2.3-19.4l-20.3-24c-0.8-0.8-1.4-1.5-2.3-2   c-0.4,0.4-0.7,0.8-1.2,1.1c-1.5,1.2-3.3,1.8-5.1,1.7c-1.7-0.1-3.6-1.4-4.1-3.5L39,23.1c-0.2-1.2,0.5-2,1.3-2.2   c0.8-0.2,1.8,0.2,2.1,1.3l2.9,11.7c0.2,0.7,0.3,0.8,1,0.9c0.7,0.1,1.7-0.3,2.5-0.9c0.9-0.7,1.5-1.7,1.7-2.8   c0.2-1.4-0.3-2.9-1.5-4.4l-3.9-5.2c-0.6-0.8-1.1-1.6-1.6-2.4c-0.8-1.2-1.5-2.4-2.3-2.9c-1.4-1.1-3.4-1.7-5.7-1.7   c-1.6,0-3.9,0.3-5.8,1.5c-1.7,1-2.8,2.3-3.3,4.1c-0.2,1-1,1.5-2,2.2c-0.9,0.5-1.7,0.9-2.5,1.2c-0.8,0.3-1.5,0.6-2.2,0.9   c-0.5,0.2-1.1,0.6-1.3,0.7c-0.8,0.6-1.2,1.6-1,2.6c0.2,0.9,0.5,1.5,1.2,1.7l9.9,2.1c3.9,0.8,6.6,4.4,6,8.1   c-0.8,5.7,0.7,9.7,2.6,14c1.2,2.8,2.5,5.7,2.9,9c0.2,1.7,0.2,3.2-0.2,4.7l-3.3,13.2c-0.1,0.7-0.6,1.2-1.2,1.3c-1.4,0.4-2.3,1-3,2   c-0.3,0.4-0.4,1.1-0.5,1.9c0,0,0,0.1,0,0.1h6c0.7,0,0.8-0.1,1.3-0.6c0.4-0.5,0.7-1.2,1.1-2l0.3-0.5L48,68.6   c1.4-4.6,5.9-7.6,11.6-7.6c0.6,0,1.2,0.2,1.5,0.8c0.3,0.6,0.3,1.3,0,1.9c-0.3,0.5-0.9,0.8-1.5,0.8c-4.2,0-7.2,1.8-8.2,4.9L51,70.6   c-0.4,2.9,0.8,7,5.6,9.8c0.4,0.2,0.8,0.6,0.9,1.1c0.1,0.4,0.1,0.9-0.1,1.3c-0.2,0.4-0.5,0.7-0.9,0.9c-0.3,0.1-0.8,0.2-1.4-0.1   c-1-0.5-1.8-1-2.5-1.6C50.6,82.2,48.9,83.8,48.2,85.9z M17.3,86.9H9.2l0.4-1.1c0.4-1.1,0.8-2.4,2.2-2.5c0.3,0,0.5-0.2,0.6-0.4   c2.2-6.4,1.5-9.3,0.9-11.9l-0.1-0.2c-0.6-2.5-1.2-4.7,1.5-11.7c0.4-0.9,0.2-2.1-0.3-2.8c-0.6-0.8-1.6-1.3-3-1.5   c-1.7-0.3-2.5-0.7-3-1.2c-0.3-0.3-0.5-0.9-0.8-2l-0.2-0.6c-0.4-1.5,0.3-2,1-2.6c1.2-0.7,2-1.8,2.6-3.3c0.6-1.5,2.2-2.9,4-3.3   c0.2-0.1,0.3-0.2,0.4-0.3c0.1-0.1,0.1-0.3,0.1-0.5c-0.2-1.1,0-1.7,0.2-2.3l0.3-0.6l1.9,1.9c0.3,0.5,0.6,0.5,0.8,0.4   c0.2-0.1,0.3-0.4,0.1-0.8l-0.1-0.2c-0.1-1.1,0.1-1.9,0.6-2.4l0.4-0.4l0.4,0.4c3.7,3.6,5.5,9.3,4.8,12.4c-0.4,1.5-0.5,3.1-0.2,4.5   c0.3,1.5,1.3,2.8,2.7,3.3c4.9,2,8.1,3.9,10.5,6.3l0.2,0.2v0.2c0,1,0,2.1-0.3,3.2l-3.2,13.1l-0.2,0.1c-1.4,0.6-2.9,1.3-3.7,2.4   c-0.8,1.1-1.3,2.5-1.4,4l0,0.5h-9.3v-0.5c0-1.6,1.1-3,2.6-3.1l0.2,0l1.9,1c0.3,0.1,0.5,0.2,0.7,0c0.2-0.1,0.4-0.4,0.4-0.7   c0-0.3-0.2-0.5-0.4-0.6c-4.5-2.2-5.6-6-5.2-8.7c0.5-3.5,3.5-5.7,7.9-5.7c0.3,0,0.5-0.1,0.6-0.3c0.1-0.2,0.1-0.6,0-0.8   c-0.1-0.2-0.3-0.3-0.6-0.3c-5.7,0-8.8,3.5-9.4,6.9c-0.4,2.5,0.5,5.3,2.3,7.4l0.4,0.5l-0.6,0.3c-1.7,0.8-2.8,2.3-3,4.2L17.3,86.9z    M10.6,85.8h5.8c0.4-1.8,1.4-3.3,3-4.2c-1.7-2.3-2.5-5.1-2.1-7.8c0.7-3.9,4.2-7.7,10.4-7.7c0.6,0,1.2,0.2,1.5,0.7   c0.3,0.5,0.4,1.3,0,1.8c-0.3,0.6-0.9,0.9-1.6,0.9c-3.9,0-6.5,1.8-6.9,4.8c-0.3,2.3,0.7,5.7,4.6,7.6c0.6,0.3,1,0.8,1,1.5   c0,0.7-0.3,1.3-0.8,1.7c-0.5,0.3-1.1,0.3-1.7,0l-1.6-0.9c-0.7,0.1-1.2,0.8-1.4,1.5h7.2c0.2-1.5,0.7-2.9,1.5-4.1   c1-1.3,2.5-2.1,3.9-2.7l3.1-12.6c0.3-0.9,0.3-1.8,0.3-2.7c-2.3-2.2-5.4-4-10-5.9c-1.7-0.6-3-2.2-3.3-4c-0.3-1.6-0.2-3.3,0.2-4.9   c0.5-2.6-1-7.6-4.1-10.9c-0.1,0.3-0.1,0.6,0,1c0.4,0.9,0.1,1.8-0.5,2.1c-0.6,0.4-1.5,0.3-2.1-0.6l-0.7-0.7c0,0.2,0,0.5,0.1,0.8   c0.1,0.4,0.1,0.9-0.2,1.3c-0.2,0.4-0.6,0.7-1,0.8c-1.5,0.4-2.9,1.6-3.3,2.7c-0.7,1.7-1.7,3-3,3.8c-0.7,0.5-0.8,0.6-0.6,1.4   l0.2,0.6c0.2,0.8,0.5,1.5,0.6,1.7c0.2,0.3,0.6,0.6,2.3,0.9c1.6,0.2,2.9,0.9,3.7,1.9c0.8,1,1,2.6,0.5,3.9   c-2.5,6.6-2.1,8.6-1.4,11.1l0.1,0.2c0.6,2.6,1.4,5.8-0.9,12.4c-0.1,0.7-0.8,1.2-1.5,1.2C11.2,84.3,11,84.9,10.6,85.8z"></path>	</g>	<g>		<path d="M14,45.8c0.8,0,1.6,0.7,1.6,1.6S14.9,49,14,49c-0.8,0-1.5-0.7-1.5-1.6C12.4,46.5,13.1,45.8,14,45.8z"></path>		<path d="M14,49.5c-1.1,0-2-0.9-2-2.1c-0.1-0.5,0.1-1,0.5-1.4c0.4-0.4,0.9-0.7,1.5-0.7c1.1,0,2.1,1,2.1,2.1   C16.1,48.6,15.1,49.5,14,49.5z M14,46.3c-0.3,0-0.5,0.1-0.7,0.3c-0.2,0.2-0.2,0.4-0.2,0.6c0,0.6,0.4,1.1,0.9,1.1c0.7,0,1-0.5,1-1   C15,46.8,14.5,46.3,14,46.3z"></path>	</g></g></svg>