
<svg  xmlns="http://www.w3.org/2000/svg" xmlns:xlink="http://www.w3.org/1999/xlink" x="0px" y="0px"
	 viewBox="0 0 50 50" style="enable-background:new 0 0 50 50;" xml:space="preserve">
<style type="text/css">
	.wdt-cus-cage1{fill:#9CDBF8;}
	.wdt-cus-cage2{fill:#231F20;}
</style>
<g>
	<path class="wdt-cus-cage1" d="M40.6,44.6v-18c0-7.6-6.1-13.7-13.7-13.7c-7.6,0-13.7,6.1-13.7,13.7v18h-1.4v3.5H42v-3.5H40.6z"/>
	<path class="wdt-cus-cage2" d="M39.2,44.4H10v-1.5h27.8c0.5,0,1-0.4,1-1v-18c0-0.1,0-0.3,0-0.4c0,0,0-0.1,0-0.1c0-0.1,0-0.1,0-0.2
		c-0.3-7.5-6.2-13.5-13.7-14V8.3c1.3-0.4,2.3-1.7,2.3-3.1c0-1.8-1.5-3.3-3.3-3.3s-3.3,1.5-3.3,3.3c0,0.5,0.4,1,1,1c0.5,0,1-0.4,1-1
		c0-0.7,0.6-1.3,1.3-1.3c0.7,0,1.3,0.6,1.3,1.3c0,0.7-0.6,1.3-1.3,1.3c-0.5,0-1,0.4-1,1v1.7C15.5,9.7,9.4,16.1,9.4,23.8v14.3
		c0,0.5,0.4,1,1,1s1-0.4,1-1V23.8c0-6.2,4.5-11.4,10.3-12.5c-1.4,2-3.1,5.5-3.4,11h-4.2c-0.5,0-1,0.4-1,1c0,0.5,0.4,1,1,1h4.2v7.3
		h-4.2c-0.5,0-1,0.4-1,1c0,0.5,0.4,1,1,1h4.2v4.6c0,0.5,0.4,1,1,1c0.5,0,1-0.4,1-1v-5.5c0,0,0,0,0,0s0,0,0,0v-8.7
		c0-7.1,2.7-10.9,3.9-12.3c1.1,1.3,3.5,4.6,3.8,10.9h-5c-0.5,0-1,0.4-1,1c0,0.5,0.4,1,1,1h5v7.3h-5c-0.5,0-1,0.4-1,1
		c0,0.5,0.4,1,1,1h5v4.6c0,0.5,0.4,1,1,1c0.5,0,1-0.4,1-1V23.8c0-0.1,0-0.3,0-0.4c0,0,0,0,0-0.1c0,0,0-0.1,0-0.1
		c-0.1-6-2-9.8-3.4-11.9c5.4,1,9.6,5.5,10.3,11h-4.1c-0.5,0-1,0.4-1,1c0,0.5,0.4,1,1,1h4.2v7.3h-4.2c-0.5,0-1,0.4-1,1
		c0,0.5,0.4,1,1,1h4.2v7.3H9c-0.5,0-1,0.4-1,1v3.5c0,0.5,0.4,1,1,1h30.3c0.5,0,1-0.4,1-1C40.2,44.8,39.8,44.4,39.2,44.4z"/>
</g>
</svg>
