<svg xmlns="http://www.w3.org/2000/svg" xmlns:xlink="http://www.w3.org/1999/xlink" x="0px" y="0px" viewBox="0 0 1918 159" style="enable-background:new 0 0 1918 159;" xml:space="preserve"><g>	<path d="M957.3,159c-131.2,0-220.6-25.8-315.1-53c-98.8-28.5-201-58-357.2-57C148.2,49.9-1.2,98.5-2.7,98.9L-3.3,97  c1.5-0.5,151.2-49.2,288.3-50c156.5-1,258.8,28.5,357.8,57C738,131.5,828,157.5,961,157c130.9-0.5,211-30.2,303.7-64.5  c66.5-24.7,142-52.6,246.1-71.4C1620.4,1.2,1725-1,1793.5,0.7c74.2,1.8,123.1,8.3,123.6,8.3l-0.3,2c-0.5-0.1-49.3-6.6-123.4-8.3  C1725.1,1,1620.6,3.2,1511.2,23c-104,18.8-176.1,45.5-245.8,71.3c-92.9,34.4-173.1,64.2-304.4,64.7C959.8,159,958.5,159,957.3,159z  "></path></g></svg>