<svg xmlns="http://www.w3.org/2000/svg" xmlns:xlink="http://www.w3.org/1999/xlink" x="0px" y="0px" viewBox="0 0 65 65" style="enable-background:new 0 0 65 65;" xml:space="preserve"><style type="text/css">	.st0{clip-path:url(#SVGID_2_);fill:none;stroke:#1D256B;stroke-width:2;stroke-linecap:round;stroke-linejoin:round;}</style><g>	<defs>		<rect width="65" height="65"></rect>	</defs>	<clipPath>		<use xlink:href="#SVGID_1_" style="overflow:visible;"></use>	</clipPath>	<path class="st0" d="M44.7,9.5h10.8"></path>	<path class="st0" d="M55.5,20.3V9.5"></path>	<path class="st0" d="M55.5,44.7v10.8"></path>	<path class="st0" d="M44.7,55.5h10.8"></path>	<path class="st0" d="M20.3,55.5H9.5"></path>	<path class="st0" d="M9.5,44.7v10.8"></path>	<path class="st0" d="M9.5,20.3V9.5"></path>	<path class="st0" d="M20.3,9.5H9.5"></path>	<path class="st0" d="M55.5,55.5L39.3,39.3"></path>	<path class="st0" d="M25.7,25.7L9.5,9.5"></path>	<path class="st0" d="M25.7,39.3L9.5,55.5"></path>	<path class="st0" d="M55.5,9.5L39.3,25.7"></path>	<path class="st0" d="M58.2,1.4H6.8c-3,0-5.4,2.4-5.4,5.4v51.5c0,3,2.4,5.4,5.4,5.4h51.5c3,0,5.4-2.4,5.4-5.4V6.8  C63.6,3.8,61.2,1.4,58.2,1.4z"></path></g></svg>