<svg xmlns="http://www.w3.org/2000/svg" width="86" height="95" viewBox="0 0 86 95" fill="none"><g clip-path="url(#food_plate)"><mask id="mask0_30_2734" style="mask-type:luminance" maskUnits="userSpaceOnUse" x="0" y="0" width="86" height="95"><path d="M85.518 0H0V94.28H85.518V0Z" fill="white"></path></mask><g mask="url(#mask0_30_2734)"><path d="M81.3998 38.3909C79.8298 32.4169 74.9248 26.4339 67.9428 21.9779C60.5745 17.3074 52.0375 14.8117 43.3138 14.7779C38.3283 14.807 33.38 15.6383 28.6588 17.2399C28.5549 16.7607 28.5407 16.2664 28.6168 15.7819C29.0038 13.2579 28.7938 6.80894 25.6728 2.98194C24.9781 2.10087 24.1016 1.37986 23.1032 0.868031C22.1047 0.356203 21.0077 0.0655751 19.8868 0.0159438C12.1468 -0.370056 11.3728 6.13994 11.1688 9.48994C10.7357 9.4856 10.3034 9.45219 9.87475 9.38994C8.51932 9.17937 7.13417 9.26915 5.81726 9.65294C4.50035 10.0367 3.28384 10.7052 2.25375 11.6109C1.40914 12.4196 0.768493 13.4171 0.384472 14.5215C0.000450492 15.626 -0.115979 16.8058 0.0447542 17.9639C0.140846 19.2378 0.529683 20.4723 1.18098 21.5713C1.83229 22.6702 2.72847 23.604 3.79975 24.2999C6.29975 25.9149 9.57575 26.1829 13.0488 25.0639C13.4003 25.0575 13.75 25.1168 14.0798 25.2389C9.64775 28.9689 6.51075 33.3999 5.46975 38.0489C5.35875 38.5439 5.21275 39.1819 5.04275 39.9289C2.99975 48.8849 1.09975 57.6579 1.09975 61.1799C1.09975 79.4319 20.0338 94.2799 43.3078 94.2799C66.5818 94.2799 85.5148 79.4319 85.5148 61.1799C85.5148 57.1799 82.2278 41.5649 81.3938 38.3909M19.1388 61.8109C19.0188 61.6949 18.9001 61.5779 18.7828 61.4599C18.8994 61.5773 19.0174 61.6936 19.1368 61.8089M18.1058 60.7539L18.1008 60.7479C18.0098 60.6479 17.9208 60.5479 17.8328 60.4479L17.7728 60.3819C17.9888 60.6253 18.2101 60.8653 18.4368 61.1019L18.3478 61.0069C18.2678 60.9219 18.1868 60.8369 18.1078 60.7519M16.4798 53.7669C16.6984 53.3709 16.9318 52.9819 17.1798 52.5999C17.3438 52.3453 17.5138 52.0936 17.6898 51.8449C17.8444 51.6263 18.0038 51.4103 18.1678 51.1969C18.2831 51.0456 18.4008 50.8956 18.5208 50.7469C18.7141 50.5076 18.9141 50.2716 19.1208 50.0389C19.5294 49.5723 19.9591 49.1206 20.4098 48.6839C20.5768 48.5219 20.7468 48.3629 20.9188 48.2049C21.2121 47.9383 21.5121 47.6746 21.8188 47.4139C22.1868 47.1073 22.5654 46.8089 22.9548 46.5189C23.0848 46.4223 23.2154 46.3266 23.3468 46.2319C24.0068 45.7586 24.6938 45.3099 25.4078 44.8859C25.6931 44.7166 25.9828 44.5499 26.2768 44.3859C26.4234 44.3053 26.5711 44.2256 26.7198 44.1469C27.0171 43.9896 27.3171 43.8369 27.6198 43.6889C28.1658 43.4223 28.7234 43.1706 29.2928 42.9339C29.4261 42.8793 29.5571 42.8256 29.6858 42.7729C30.1251 42.5956 30.5701 42.4269 31.0208 42.2669L33.1078 44.4999C33.1586 44.5545 33.2127 44.6059 33.2698 44.6539C33.2858 44.6669 34.8418 46.0539 34.6408 47.5829C33.2658 58.0679 38.2718 60.7659 41.3778 61.4409C41.5348 61.4749 41.6888 61.5059 41.8418 61.5339C46.3418 62.3629 48.8978 60.5989 50.0338 59.4459C50.7802 58.7231 51.3374 57.8278 51.6564 56.8388C51.9753 55.8499 52.0462 54.7977 51.8628 53.7749C51.5452 52.5474 51.551 51.2585 51.8798 50.0339C52.1166 50.0704 52.3505 50.1235 52.5798 50.1929C53.843 50.6004 55.1896 50.6771 56.4909 50.4157C57.7923 50.1543 59.0048 49.5636 60.0128 48.6999C61.0073 47.8378 61.7485 46.7212 62.1568 45.4699C62.8568 45.9226 63.5288 46.4003 64.1728 46.9029C64.3867 47.0703 64.5978 47.2406 64.8058 47.4139C65.1738 47.7206 65.5308 48.0356 65.8768 48.3589C65.9921 48.4669 66.1061 48.5756 66.2188 48.6849C66.7261 49.1776 67.2068 49.6876 67.6608 50.2149C68.1148 50.7423 68.5397 51.2859 68.9358 51.8459C69.1118 52.0946 69.2818 52.3463 69.4458 52.6009C69.6918 52.9829 69.9251 53.3719 70.1458 53.7679C70.2918 54.0346 70.4311 54.3013 70.5638 54.5679C70.4971 54.7013 70.4304 54.8346 70.3638 54.9679C70.2264 55.2313 70.0828 55.4916 69.9328 55.7489C69.7081 56.1349 69.4701 56.5146 69.2188 56.8879C69.0514 57.1366 68.8781 57.3823 68.6988 57.6249L68.6188 57.7309C68.4548 57.9509 68.2861 58.1683 68.1128 58.3829C67.9394 58.5976 67.7618 58.8096 67.5798 59.0189C67.5488 59.0549 67.5198 59.0929 67.4878 59.1279C67.2288 59.4219 66.9548 59.7069 66.6778 59.9889C66.5848 60.0829 66.4938 60.1779 66.3998 60.2709C66.2704 60.3989 66.1391 60.5259 66.0058 60.6519C65.6984 60.9433 65.3818 61.2279 65.0558 61.5059C64.8558 61.6759 64.6558 61.8419 64.4468 62.0059C64.3708 62.0669 64.2938 62.1269 64.2178 62.1869C64.0178 62.3419 63.8178 62.4959 63.6178 62.6459C63.4178 62.7959 63.2128 62.9459 63.0048 63.0899C62.7968 63.2339 62.6178 63.3579 62.4208 63.4899C62.2238 63.6219 62.0208 63.7499 61.8208 63.8769C61.6208 64.0039 61.4028 64.1279 61.1918 64.2529C61.0078 64.3619 60.8188 64.4669 60.6318 64.5729C60.5248 64.6339 60.4198 64.6969 60.3118 64.7559C60.1008 64.8719 59.8898 64.9889 59.6748 65.0999C59.4598 65.2109 59.2148 65.3349 58.9818 65.4479C58.7488 65.5609 58.5128 65.6729 58.2758 65.7809C58.0898 65.8659 57.8998 65.9459 57.7108 66.0279C57.3108 66.2026 56.9021 66.3693 56.4848 66.5279C56.3328 66.5869 56.1848 66.6479 56.0298 66.7049C55.8918 66.756 55.7518 66.8049 55.6128 66.8519C55.4041 66.9259 55.1948 66.9983 54.9848 67.0689C54.7748 67.1396 54.5631 67.2083 54.3498 67.2749L54.1308 67.341L53.9118 67.4069C53.6988 67.4699 53.4848 67.5299 53.2708 67.5899C53.0328 67.6566 52.7931 67.7209 52.5518 67.7829C52.4518 67.8089 52.3518 67.8349 52.2518 67.8599C52.1888 67.8749 52.1268 67.8929 52.0638 67.9079C51.4358 68.0579 50.7988 68.1899 50.1558 68.3079L49.7768 68.3749C49.1278 68.4869 48.4768 68.5879 47.8118 68.6659H47.7998C47.6331 68.6859 47.4664 68.7043 47.2998 68.7209C46.7998 68.7719 46.2908 68.812 45.7818 68.8439L45.3578 68.8689C45.0191 68.8869 44.6791 68.9013 44.3378 68.9119C43.9964 68.9226 43.6541 68.9283 43.3108 68.9289C42.9661 68.9289 42.6231 68.9233 42.2818 68.9119C41.9404 68.9006 41.5998 68.8859 41.2598 68.8679L40.8438 68.8439C40.5038 68.8219 40.1651 68.7956 39.8278 68.7649C39.4904 68.7343 39.1548 68.6989 38.8208 68.6589C38.1541 68.5796 37.4931 68.4833 36.8378 68.3699L36.4788 68.3069C36.3018 68.2749 36.1268 68.2379 35.9508 68.2069C35.6221 68.1403 35.2954 68.0713 34.9708 67.9999C34.8318 67.9689 34.6908 67.9399 34.5528 67.9059L34.4868 67.8889L34.3988 67.8659C33.8238 67.7249 33.2578 67.5659 32.6988 67.4019C32.5608 67.3609 32.4228 67.3209 32.2868 67.2779C32.1508 67.2349 32.0018 67.1849 31.8588 67.1389C31.4298 66.9999 30.9998 66.8549 30.5858 66.6999C30.4428 66.6469 30.3038 66.59 30.1628 66.535C29.9488 66.4523 29.7361 66.3676 29.5248 66.2809C29.3134 66.1943 29.1038 66.1056 28.8958 66.0149L28.5218 65.8509C28.4678 65.8269 28.4118 65.8039 28.3578 65.7789C27.9578 65.5959 27.5628 65.4039 27.1738 65.2059C27.0958 65.1659 27.0168 65.1279 26.9388 65.0879C26.7328 64.9809 26.5308 64.8689 26.3288 64.7579C26.0181 64.588 25.7121 64.4129 25.4108 64.2329C25.2108 64.115 25.0108 63.9989 24.8108 63.8779C24.3998 63.6199 23.9998 63.3519 23.6108 63.0779C23.4108 62.9369 23.2108 62.7929 23.0178 62.6479C22.8718 62.5399 22.7271 62.4303 22.5838 62.3189C22.4404 62.2076 22.2984 62.0956 22.1578 61.9829C21.9678 61.8299 21.7778 61.6759 21.5938 61.5189C21.4258 61.3756 21.2591 61.2303 21.0938 61.0829C20.9284 60.9356 20.7674 60.7866 20.6108 60.6359C20.5468 60.5749 20.4838 60.5139 20.4208 60.4529C20.3578 60.3919 20.2938 60.3309 20.2308 60.2699C20.0888 60.1286 19.9481 59.9866 19.8088 59.8439C19.6694 59.7013 19.5324 59.5566 19.3978 59.4099C19.3078 59.3126 19.2194 59.2146 19.1328 59.1159C19.1058 59.0849 19.0808 59.0539 19.0538 59.0229C18.7038 58.6229 18.3704 58.2119 18.0538 57.7899L17.9998 57.7169L17.9288 57.6239C17.6621 57.2593 17.4061 56.8879 17.1608 56.5099C16.9988 56.2579 16.8428 56.0029 16.6928 55.7449C16.4674 55.3583 16.2561 54.9649 16.0588 54.5649C16.1921 54.2983 16.3314 54.0316 16.4768 53.7649M72.4118 46.8209C72.4118 46.9543 72.4118 47.0839 72.4118 47.2099C72.4118 47.0806 72.4118 46.9509 72.4118 46.8209ZM67.4918 61.7999L67.5388 61.7539L67.5188 61.7729L67.4978 61.7929L67.4918 61.7999ZM18.5398 61.2109L18.4778 61.1479C18.5778 61.2519 18.6778 61.3553 18.7778 61.4579L18.6828 61.3579L18.5378 61.2089M26.0048 66.7039L26.0178 66.7109C26.1978 66.8043 26.3791 66.8963 26.5618 66.9869C26.1758 66.7949 25.7958 66.5949 25.4218 66.3869C25.6144 66.493 25.8088 66.5969 26.0048 66.6989M65.9558 63.1659C66.0724 63.0693 66.1878 62.9716 66.3018 62.8729C66.1864 62.9723 66.0701 63.0723 65.9528 63.1729M12.5288 21.3449C12.3782 21.3582 12.2298 21.3894 12.0868 21.4379C9.62975 22.2749 7.40675 22.1739 5.82975 21.1559C5.23416 20.7652 4.73817 20.2406 4.38137 19.624C4.02457 19.0075 3.81683 18.316 3.77475 17.6049C3.67426 17.0148 3.7175 16.4091 3.9008 15.8391C4.0841 15.2692 4.40206 14.7519 4.82775 14.3309C5.44512 13.8209 6.16316 13.4468 6.93496 13.2331C7.70676 13.0194 8.51496 12.971 9.30675 13.0909C11.8913 13.3843 14.5086 13.1461 16.9978 12.3909C17.4713 12.2387 17.865 11.9046 18.0922 11.4621C18.3194 11.0196 18.3615 10.505 18.2093 10.0314C18.057 9.5579 17.7229 9.16423 17.2804 8.93703C16.8379 8.70982 16.3233 8.66771 15.8498 8.81994C15.8398 8.81994 15.5038 8.92694 14.9638 9.05194C15.2938 5.26094 16.2298 3.58494 19.6988 3.75794C20.2962 3.78122 20.8812 3.93627 21.4117 4.21201C21.9423 4.48775 22.4053 4.87735 22.7678 5.35294C24.9158 7.98594 25.2268 13.1529 24.9118 15.2149C24.734 16.3365 24.8099 17.4836 25.1338 18.5719C25.5071 19.7979 26.1607 20.9202 27.0428 21.8499C27.1428 21.9569 27.2338 22.0429 27.2978 22.1029C27.6828 22.5259 28.1658 23.0539 28.7228 23.6579C29.5138 24.5159 30.4558 25.5289 31.4858 26.6209C34.5858 29.9019 38.4728 33.8899 41.4588 36.4979C42.5564 37.5604 43.8028 38.4575 45.1588 39.1609C45.5738 39.3175 46.0311 39.3214 46.4488 39.1719C50.0898 37.8719 53.8018 38.0069 56.3808 39.5359C56.9651 39.8338 57.478 40.2549 57.884 40.77C58.29 41.2851 58.5796 41.8822 58.7328 42.5199C58.7885 42.8692 58.7973 43.2244 58.7588 43.5759C58.665 44.4645 58.2359 45.2839 57.5588 45.8669C57.0308 46.3116 56.3976 46.6133 55.7197 46.7434C55.0418 46.8735 54.3418 46.8275 53.6868 46.6099C52.7886 46.3299 51.8515 46.1949 50.9108 46.2099H50.8998C48.5846 46.3026 46.371 47.1848 44.6268 48.7099C44.4416 48.8772 44.2917 49.0798 44.1859 49.3058C44.08 49.5318 44.0204 49.7766 44.0105 50.026C44.0006 50.2753 44.0405 50.5241 44.1281 50.7578C44.2156 50.9915 44.3489 51.2054 44.5202 51.3868C44.6915 51.5683 44.8973 51.7137 45.1255 51.8146C45.3538 51.9155 45.5998 51.9697 45.8493 51.9742C46.0989 51.9787 46.3467 51.9333 46.5785 51.8407C46.8102 51.7481 47.0211 51.6101 47.1988 51.4349C47.4279 51.2396 47.6723 51.0631 47.9298 50.9069C47.8377 52.1501 47.9348 53.3999 48.2178 54.6139C48.2567 55.0202 48.2004 55.4299 48.0534 55.8105C47.9063 56.1912 47.6726 56.5323 47.3708 56.8069C46.2758 57.9179 44.4328 58.2599 42.1788 57.7699C38.0878 56.8799 37.8448 51.9989 38.3608 48.0609C38.7888 44.7979 36.3418 42.3699 35.7908 41.8679L35.0708 41.0979L32.1588 37.9849C29.8788 35.5459 26.9508 32.4139 24.6018 29.8959C23.6108 28.8329 22.7228 27.8809 22.0308 27.1359L21.4898 26.5529C21.0831 26.1143 20.6891 25.7013 20.3078 25.3139C19.4105 24.3732 18.4272 23.5185 17.3708 22.7609C15.986 21.7124 14.2656 21.2067 12.5338 21.3389M79.0998 71.9319C78.7551 72.5986 78.3798 73.2526 77.9738 73.8939C77.7031 74.3213 77.4198 74.7429 77.1238 75.1589C76.8278 75.5749 76.5198 75.9849 76.1998 76.3889C75.8784 76.7923 75.5451 77.1893 75.1998 77.5799C75.0271 77.7753 74.8511 77.9689 74.6718 78.1609C74.3138 78.5443 73.9444 78.9209 73.5638 79.2909C73.1831 79.6609 72.7911 80.0236 72.3878 80.3789C72.1878 80.5563 71.9834 80.7319 71.7748 80.9059C70.7224 81.788 69.6206 82.6094 68.4748 83.3659C68.0081 83.6739 67.5331 83.9739 67.0498 84.2659C66.3231 84.7019 65.5758 85.1183 64.8078 85.5149C64.5518 85.6483 64.2938 85.7779 64.0338 85.9039C63.2538 86.2859 62.4538 86.6469 61.6338 86.9869C60.5438 87.4389 59.4234 87.8516 58.2728 88.2249C48.54 91.3053 38.0935 91.3053 28.3608 88.2249C27.2108 87.8529 26.0904 87.4403 24.9998 86.9869C24.1824 86.6476 23.3824 86.2866 22.5998 85.9039C22.3398 85.7766 22.0818 85.6469 21.8258 85.5149C21.0584 85.1189 20.3111 84.7026 19.5838 84.2659C19.0991 83.9753 18.6241 83.6753 18.1588 83.3659C17.0129 82.6093 15.9111 81.788 14.8588 80.9059C14.6514 80.7319 14.4471 80.5563 14.2458 80.3789C13.8458 80.0236 13.4534 79.6609 13.0688 79.2909C12.6841 78.9209 12.3148 78.5443 11.9608 78.1609C11.7821 77.9689 11.6061 77.7753 11.4328 77.5799C11.0868 77.1893 10.7534 76.7923 10.4328 76.3889C10.1121 75.9856 9.80109 75.576 9.49975 75.16C9.20309 74.7439 8.91942 74.3223 8.64875 73.8949C8.24342 73.2536 7.86809 72.5996 7.52275 71.9329C7.29275 71.4889 7.07675 71.0396 6.87475 70.5849C5.54675 67.6287 4.85708 64.4257 4.85075 61.1849C4.86696 60.4403 4.9274 59.6974 5.03175 58.9599C5.05509 58.7793 5.08009 58.5929 5.10675 58.4009C5.30675 56.9629 5.61475 55.2269 5.97075 53.3879C6.16075 52.4069 6.36475 51.3959 6.57075 50.3879C6.67075 49.8829 6.78175 49.3769 6.88875 48.8749L6.96875 48.4989C7.02209 48.2489 7.07575 48.0003 7.12975 47.7529C7.34375 46.7639 7.55575 45.7999 7.75875 44.8899C7.83475 44.5486 7.90942 44.2153 7.98275 43.8899C8.08275 43.4579 8.17375 43.0419 8.26375 42.6459L8.39475 42.0669C8.50175 41.5979 8.60075 41.1669 8.69475 40.7669L8.93275 39.7239L9.03275 39.2719L9.07975 39.0649L9.12375 38.8709C9.72948 36.4268 10.8714 34.1481 12.4668 32.1999C12.8508 31.7106 13.2604 31.2286 13.6958 30.7539C14.2418 30.1586 14.8258 29.5769 15.4478 29.0089C15.7578 28.7249 16.0768 28.4449 16.4048 28.1689C16.6628 27.9509 16.9278 27.7369 17.1968 27.5249C17.6598 27.9739 18.1698 28.4979 18.7378 29.1109L19.0298 29.4259C18.6671 29.7393 18.3141 30.0596 17.9708 30.3869C17.3848 30.9456 16.8284 31.5236 16.3018 32.1209C16.0391 32.4189 15.7841 32.7216 15.5368 33.0289C15.4128 33.1829 15.2911 33.3376 15.1718 33.4929C14.9324 33.8043 14.7014 34.1199 14.4788 34.4399C14.3674 34.5999 14.2581 34.7609 14.1508 34.9229C11.7698 38.4369 10.4853 42.5784 10.4598 46.8229C10.4599 48.3157 10.6239 49.804 10.9488 51.2609C11.0554 51.7416 11.1791 52.2176 11.3198 52.6889C11.4724 53.2029 11.6444 53.7113 11.8358 54.2139C11.9631 54.5473 12.0988 54.8806 12.2428 55.2139C12.2498 55.2329 12.2548 55.2519 12.2598 55.2709C12.2647 55.29 12.2711 55.3088 12.2788 55.3269C12.3268 55.4359 12.3788 55.5419 12.4308 55.6499L12.4898 55.7759C12.6318 56.0759 12.7838 56.3759 12.9388 56.6759C13.0328 56.8566 13.1294 57.0359 13.2288 57.2139C13.5768 57.8399 13.9538 58.4509 14.3598 59.0469C14.4364 59.1596 14.5144 59.2719 14.5938 59.3839C14.9171 59.8426 15.2571 60.2919 15.6138 60.7319L15.7688 60.9209C17.0683 62.485 18.5335 63.9037 20.1388 65.1519C21.2646 66.03 22.4479 66.8317 23.6808 67.5519C24.3054 67.9179 24.9464 68.2663 25.6038 68.5969C26.0418 68.8176 26.4861 69.0299 26.9368 69.2339C27.6134 69.5399 28.3038 69.827 29.0078 70.0949L29.1738 70.1579C29.4658 70.2679 29.7618 70.3729 30.0578 70.4759L30.3578 70.5759L30.5578 70.646L30.6278 70.6699C30.8524 70.7439 31.0778 70.8163 31.3038 70.8869C31.5298 70.9576 31.7574 71.0259 31.9868 71.0919C32.0558 71.1119 32.1258 71.13 32.1948 71.1499C32.4368 71.2166 32.6798 71.2833 32.9238 71.3499C33.0678 71.3879 33.2118 71.4259 33.3558 71.4619C33.5558 71.5129 33.7558 71.562 33.9628 71.6069C34.2208 71.6669 34.4788 71.7259 34.7388 71.7809C34.9641 71.8289 35.1898 71.8753 35.4158 71.9199C35.6728 71.9699 35.9308 72.0199 36.1888 72.0609C36.4078 72.0989 36.6248 72.1399 36.8458 72.1749C37.0668 72.21 37.2878 72.243 37.5108 72.2749C37.7338 72.3069 37.9558 72.3359 38.1798 72.3639C38.3798 72.3889 38.5798 72.4079 38.7798 72.4299C39.0798 72.4619 39.3718 72.4929 39.6698 72.5189C39.7798 72.5289 39.8908 72.5359 40.0008 72.5449L40.3058 72.5689C40.6131 72.591 40.9214 72.6096 41.2308 72.6249C41.4238 72.6339 41.6158 72.6449 41.8088 72.6519C42.2501 72.6679 42.6934 72.6769 43.1388 72.6789H43.2218H43.3048H43.3838H43.4628C43.9114 72.6789 44.3588 72.6699 44.8048 72.6519C44.9948 72.6449 45.1828 72.6349 45.3718 72.6259C45.6868 72.6099 46.0008 72.5919 46.3128 72.5689C46.5208 72.5539 46.7278 72.5389 46.9338 72.521C47.2418 72.4939 47.5478 72.4619 47.8528 72.4289C48.0438 72.4079 48.2368 72.3899 48.4268 72.3669C48.8788 72.3109 49.3281 72.2476 49.7748 72.1769C49.9818 72.145 50.1858 72.1069 50.3908 72.0709C50.6638 72.0229 50.9368 71.9709 51.2078 71.9219C51.4248 71.8799 51.6398 71.8349 51.8548 71.7899C52.1288 71.7319 52.4014 71.671 52.6728 71.6069C52.8628 71.562 53.0538 71.5189 53.2428 71.4719C53.4108 71.4299 53.5778 71.3859 53.7428 71.3419L54.0078 71.271C54.1718 71.227 54.3358 71.1819 54.4988 71.1359L54.5998 71.0999C54.7818 71.0479 54.9618 70.9919 55.1418 70.9369C55.4298 70.8483 55.7164 70.7573 56.0018 70.6639L56.2358 70.5839C56.4978 70.4959 56.7578 70.4039 57.0168 70.3099C57.1668 70.2559 57.3168 70.202 57.4648 70.146L57.5288 70.1219L57.5998 70.0999C57.8344 70.0106 58.0678 69.9193 58.2998 69.8259C58.9958 69.5453 59.6778 69.2453 60.3458 68.9259C60.7911 68.7133 61.2294 68.4929 61.6608 68.2649C61.8768 68.1509 62.0908 68.0346 62.3028 67.9159C62.9394 67.5613 63.5598 67.1889 64.1638 66.799C64.3638 66.669 64.5638 66.5356 64.7638 66.3989C65.3551 65.9989 65.9288 65.5816 66.4848 65.1469C67.0408 64.7123 67.5744 64.2633 68.0858 63.7999C68.2578 63.6446 68.4274 63.4879 68.5948 63.3299C68.9281 63.0126 69.2534 62.6889 69.5708 62.3589C70.1321 61.7716 70.6618 61.1636 71.1598 60.5349C71.3598 60.2799 71.5598 60.0239 71.7528 59.7629C72.413 58.8651 73.0101 57.9225 73.5398 56.9419C73.6988 56.6419 73.8498 56.3419 73.9958 56.0419C74.0428 55.9419 74.0908 55.8499 74.1358 55.7529L74.1848 55.6479C74.2278 55.5539 74.2738 55.4619 74.3168 55.3679L74.3418 55.3149C74.3498 55.2961 74.3565 55.2767 74.3618 55.2569C74.3678 55.2369 74.3727 55.2179 74.3798 55.1979C74.5951 54.7046 74.7921 54.2046 74.9708 53.6979C75.3887 52.5161 75.6999 51.2993 75.9008 50.0619C75.9608 49.6906 76.0104 49.3169 76.0498 48.9409C76.0844 48.6076 76.1111 48.2743 76.1298 47.9409C76.1504 47.5656 76.1611 47.1886 76.1618 46.8099C76.1595 44.1794 75.6576 41.5732 74.6828 39.1299C74.5228 38.7253 74.3504 38.3253 74.1658 37.9299C73.9811 37.5346 73.7848 37.1433 73.5768 36.7559C73.2648 36.1759 72.9268 35.6073 72.5628 35.0499C72.3208 34.6786 72.0678 34.3119 71.8038 33.9499C70.0115 31.5323 67.8457 29.4155 65.3878 27.6789C64.9991 27.4003 64.6018 27.1293 64.1958 26.8659C63.7898 26.6026 63.3761 26.3466 62.9548 26.0979C56.9798 22.6709 50.2005 20.8958 43.3128 20.9549C43.0294 20.9549 42.7471 20.9576 42.4658 20.9629C41.9031 20.9743 41.3441 20.9966 40.7888 21.0299C39.4194 21.1119 38.055 21.2625 36.7008 21.4809C36.1674 21.5669 35.6381 21.6633 35.1128 21.7699C34.5874 21.8766 34.0681 21.9929 33.5548 22.1189C33.2478 22.1939 32.9438 22.2739 32.6408 22.3559C32.0508 21.7239 31.4664 21.0929 30.8878 20.4629L31.0658 20.4069C38.8189 17.9819 47.1142 17.8908 54.9188 20.1449C55.4034 20.2829 55.8831 20.4286 56.3578 20.5819C59.3365 21.5413 62.1978 22.8328 64.8878 24.4319C65.2844 24.6686 65.6738 24.9103 66.0558 25.1569C66.6291 25.5269 67.1861 25.9076 67.7268 26.2989C68.2674 26.6903 68.7904 27.0903 69.2958 27.4989C69.4644 27.6323 69.6311 27.7696 69.7958 27.9109C70.2891 28.3263 70.7638 28.7493 71.2198 29.1799C71.3718 29.3233 71.5214 29.4676 71.6688 29.6129C71.9574 29.8963 72.2374 30.1826 72.5088 30.4719C72.6534 30.6259 72.7958 30.7806 72.9358 30.9359C73.0758 31.0913 73.2091 31.2409 73.3358 31.3849C73.5951 31.6856 73.8451 31.9883 74.0858 32.2929C74.3264 32.5976 74.5574 32.9043 74.7788 33.2129C75.2571 33.8838 75.6981 34.5805 76.0998 35.2999C76.1958 35.4706 76.2884 35.6413 76.3778 35.8119C76.5304 36.1019 76.6738 36.3926 76.8078 36.6839C76.9098 36.9059 77.0068 37.1279 77.0988 37.3499C77.3687 37.999 77.5946 38.6655 77.7748 39.3449C77.9848 40.1449 78.3158 41.5799 78.6998 43.3549C78.7511 43.5916 78.8031 43.8339 78.8558 44.0819C78.9084 44.3299 78.9621 44.5829 79.0168 44.8409L79.0988 45.2309C79.1534 45.4936 79.2088 45.7603 79.2648 46.0309C79.3208 46.3016 79.3768 46.5749 79.4328 46.8509C79.4894 47.1276 79.5461 47.4066 79.6028 47.6879C79.8857 49.0949 80.1708 50.5559 80.4358 51.9809C80.4884 52.2663 80.5408 52.5496 80.5928 52.8309C80.7468 53.6759 80.8928 54.5009 81.0258 55.2879C81.1148 55.8129 81.1978 56.3209 81.2738 56.8059C81.3308 57.1699 81.3838 57.5209 81.4328 57.8569C81.4654 58.0809 81.4961 58.2979 81.5248 58.5079C81.6248 59.2429 81.6978 59.8859 81.7378 60.4079C81.7491 60.5573 81.7578 60.6963 81.7638 60.8249C81.7698 60.9536 81.7728 61.0713 81.7728 61.1779C81.7665 64.4187 81.0768 67.6218 79.7488 70.5779C79.5488 71.0326 79.3328 71.4819 79.1008 71.9259" fill="currentcolor"></path><path d="M26.9188 74.2237C26.8658 73.9215 26.7392 73.6369 26.5501 73.3952C26.361 73.1534 26.1154 72.962 25.8348 72.8377C25.5128 72.6944 25.1935 72.5477 24.8768 72.3977C23.9278 71.9467 23.0068 71.4667 22.1298 70.9627C21.8101 70.7798 21.4437 70.6949 21.0761 70.7188C20.7086 70.7426 20.3562 70.874 20.0628 71.0967C20.0141 71.1334 19.9675 71.1727 19.9228 71.2147C19.8317 71.2996 19.7493 71.3934 19.6768 71.4947C19.6408 71.5467 19.6074 71.6004 19.5768 71.6557C19.5448 71.7117 19.5158 71.7687 19.4898 71.8267C19.3279 72.1909 19.2862 72.5973 19.3709 72.9868C19.4556 73.3763 19.6622 73.7286 19.9608 73.9927C20.0561 74.0765 20.1597 74.1506 20.2698 74.2137C20.5898 74.397 20.9148 74.5777 21.2448 74.7557C22.2338 75.2887 23.2628 75.7937 24.3158 76.2617C24.4517 76.3225 24.5944 76.3668 24.7408 76.3937C24.7888 76.4024 24.8368 76.4094 24.8848 76.4147C25.1581 76.443 25.4343 76.4108 25.6937 76.3205C25.9532 76.2301 26.1897 76.0838 26.3863 75.8919C26.583 75.7001 26.735 75.4673 26.8317 75.2101C26.9284 74.9529 26.9673 74.6776 26.9458 74.4037C26.9458 74.3437 26.9328 74.2837 26.9228 74.2247" fill="currentcolor"></path><path d="M18.5276 68.8947C18.4038 68.6082 18.2103 68.3572 17.9646 68.1647C17.7799 68.0201 17.5992 67.8751 17.4226 67.7297C16.8932 67.2944 16.3996 66.861 15.9416 66.4297C15.6422 66.149 15.3572 65.8704 15.0866 65.5937C14.8159 65.3171 14.5592 65.0447 14.3166 64.7767L14.2436 64.6957C13.8146 64.2167 13.4286 63.7517 13.0816 63.3067C12.9429 63.1287 12.8096 62.9537 12.6816 62.7817C12.6182 62.6957 12.5566 62.6107 12.4966 62.5267C12.3866 62.3737 12.2806 62.2267 12.1806 62.0747C12.1026 61.9601 12.0272 61.8474 11.9546 61.7367C11.8099 61.5154 11.6766 61.3037 11.5546 61.1017C11.4932 61.0004 11.4349 60.9004 11.3796 60.8017C11.2682 60.6097 11.1682 60.4287 11.0796 60.2587C10.9426 60.0047 10.8286 59.7767 10.7346 59.5797C10.5971 59.2996 10.4743 59.0126 10.3666 58.7197C10.2298 58.3075 9.95594 57.9546 9.59058 57.7197C9.52392 57.6785 9.45479 57.6415 9.38358 57.6087C9.2377 57.5391 9.08341 57.4887 8.92458 57.4587C8.86304 57.4475 8.80095 57.4395 8.73858 57.4347C8.61837 57.4246 8.49746 57.4263 8.37758 57.4397C8.06302 57.4754 7.76247 57.5895 7.50358 57.7717C7.35455 57.8767 7.22179 58.0031 7.10958 58.1467C7.07224 58.1941 7.03891 58.2431 7.00958 58.2937C6.98558 58.3317 6.96258 58.3707 6.94158 58.4097C6.87743 58.5286 6.82614 58.654 6.78858 58.7837C6.68416 59.144 6.69078 59.5273 6.80758 59.8837C7.22731 61.0333 7.77084 62.1338 8.42858 63.1657C8.58258 63.4177 8.74924 63.6801 8.92858 63.9527C9.29058 64.4977 9.70758 65.0797 10.1856 65.6887C10.3049 65.8407 10.4282 65.9947 10.5556 66.1507C10.8102 66.4621 11.0806 66.7787 11.3666 67.1007C11.9406 67.7447 12.5796 68.4077 13.2916 69.0787C14.0036 69.7497 14.7916 70.4297 15.6506 71.1077C15.6936 71.1417 15.7376 71.1727 15.7816 71.2017C15.8256 71.2307 15.8716 71.2577 15.9186 71.2837C16.2208 71.4468 16.562 71.5238 16.905 71.506C17.248 71.4883 17.5795 71.3765 17.8632 71.1831C18.147 70.9897 18.3721 70.7219 18.514 70.4092C18.6558 70.0964 18.709 69.7507 18.6676 69.4097C18.6461 69.2306 18.599 69.0555 18.5276 68.8897" fill="currentcolor"></path><path d="M43.3107 81.1299C41.5337 81.1299 39.8177 83.3299 39.5667 85.3409C39.2767 87.6599 41.0217 87.9629 43.3107 87.9629C45.5997 87.9629 47.3457 87.6629 47.0547 85.3409C46.8037 83.3329 45.0867 81.1299 43.3107 81.1299Z" fill="currentcolor"></path><path d="M41.454 80.4321C41.8969 80.3815 42.314 80.1974 42.65 79.9044C42.986 79.6113 43.225 79.2231 43.3354 78.7911C43.4458 78.3592 43.4223 77.9039 43.2682 77.4855C43.114 77.0672 42.8363 76.7057 42.472 76.4487C42.1077 76.1917 41.6739 76.0514 41.2281 76.0465C40.7823 76.0416 40.3455 76.1723 39.9756 76.4212C39.6057 76.6701 39.3202 77.0255 39.1569 77.4404C38.9936 77.8552 38.9601 78.3099 39.0609 78.7442C39.156 79.2845 39.461 79.7653 39.9093 80.0816C40.3577 80.3979 40.913 80.5239 41.454 80.4321Z" fill="currentcolor"></path><path d="M39.469 80.9377C39.2725 80.6449 38.9954 80.4153 38.6712 80.2764C38.347 80.1376 37.9895 80.0956 37.642 80.1554C37.2944 80.2152 36.9716 80.3744 36.7125 80.6137C36.4534 80.8529 36.2691 81.1621 36.1818 81.5038C36.0946 81.8455 36.108 82.2052 36.2207 82.5394C36.3333 82.8736 36.5403 83.168 36.8166 83.3872C37.0929 83.6064 37.4267 83.7409 37.7778 83.7745C38.1288 83.8082 38.4821 83.7395 38.795 83.5768C39.2331 83.3151 39.5499 82.8907 39.6762 82.3962C39.8024 81.9018 39.728 81.3775 39.469 80.9377Z" fill="currentcolor"></path><path d="M45.1671 80.432C45.5875 80.5803 46.0431 80.5973 46.4735 80.4808C46.9038 80.3644 47.2886 80.1199 47.5769 79.7798C47.8652 79.4397 48.0434 79.0201 48.0878 78.5765C48.1322 78.1328 48.0408 77.6862 47.8257 77.2957C47.6106 76.9052 47.2819 76.5893 46.8832 76.3898C46.4845 76.1903 46.0346 76.1166 45.5931 76.1786C45.1516 76.2405 44.7393 76.4352 44.4109 76.7367C44.0825 77.0382 43.8534 77.4324 43.7541 77.867C43.603 78.3945 43.6669 78.9603 43.9316 79.4409C44.1964 79.9215 44.6405 80.2778 45.1671 80.432Z" fill="currentcolor"></path><path d="M49.7007 79.9759C49.3573 79.7456 48.952 79.625 48.5385 79.63C48.1251 79.6351 47.7229 79.7655 47.3852 80.0041C47.0475 80.2427 46.7902 80.5783 46.6473 80.9663C46.5044 81.3543 46.4827 81.7765 46.585 82.1772C46.6873 82.5778 46.9089 82.9379 47.2203 83.2099C47.5318 83.4819 47.9185 83.653 48.3292 83.7004C48.74 83.7478 49.1555 83.6695 49.5207 83.4756C49.886 83.2818 50.1838 82.9816 50.3747 82.6148C50.6337 82.1751 50.7081 81.6508 50.5818 81.1564C50.4556 80.662 50.1388 80.2376 49.7007 79.9759Z" fill="currentcolor"></path></g></g><defs><clipPath id="food_plate"><rect width="85.518" height="94.28" fill="white"></rect></clipPath></defs></svg>