<svg xmlns="http://www.w3.org/2000/svg" width="66" height="46" viewBox="0 0 66 46" fill="none"><path d="M63.9155 20.5513C62.6969 19.2849 61.2812 18.2725 59.7509 17.4462C63.7757 15.1567 67.3741 10.5276 64.0481 6.07738C60.7114 1.61644 53.7476 0.618358 48.601 0.232005C42.1139 -0.25809 35.3974 0.0316745 28.9749 1.0691C23.2333 1.99563 16.3054 3.6269 11.8218 7.57628C8.96173 10.0983 7.99404 13.808 9.44557 16.8237C5.75761 18.0042 -2.90854 21.0306 0.983701 25.0194C2.77929 26.8581 6.66795 26.6506 9.0119 26.7973C12.5852 27.0191 16.1728 26.9333 19.7425 26.6435C26.8137 26.0675 33.7918 24.7082 40.7233 23.2414C46.3144 22.0573 52.1384 21.0092 57.3854 18.6338C57.6721 18.7626 57.9553 18.895 58.2348 19.0345C60.1057 19.9718 64.6395 22.5582 63.833 25.1982C63.2739 27.0263 60.7006 27.7417 58.6147 28.1817C58.0234 27.9778 57.4248 27.8097 56.8621 27.6487C50.8446 25.9209 44.5044 25.2519 38.2575 25.6347C31.154 26.0675 24.2332 27.7954 17.7712 30.7646C16.6638 31.2726 17.3806 32.6928 18.3268 32.8072C31.6593 34.3741 45.5796 33.6801 58.6291 30.3389C60.3135 31.0901 61.1235 32.5926 59.8584 34.2596C58.9337 35.4795 57.3711 36.0125 55.9769 36.4991C50.5793 38.3915 45.0349 39.9083 39.4402 41.0924C32.8313 42.4947 26.1292 43.3926 19.3876 43.8183C17.9899 43.9077 17.9827 46.0935 19.3876 45.9969C26.2044 45.539 32.989 44.616 39.6696 43.1887C43.1819 42.4374 46.6656 41.5503 50.1098 40.5307C53.1204 39.64 56.4249 38.8422 59.2025 37.3433C61.206 36.2594 62.9729 34.1309 62.4855 31.7054C62.3063 30.8111 61.8583 30.1386 61.2633 29.6055C62.9514 29.0332 64.6359 28.1567 65.5104 26.5863C66.7289 24.3969 65.4745 22.1682 63.9191 20.5513H63.9155ZM11.3057 11.3396C13.5313 6.90732 20.0113 5.1258 24.4447 3.96675C29.7849 2.56801 35.3186 2.06003 40.8272 1.97775C46.3036 1.89547 51.9628 2.02067 57.1739 3.89878C59.3315 4.67506 61.8403 5.88062 62.9048 8.04491C64.238 10.7565 62.1808 13.2786 60.034 14.7667C59.181 15.357 58.2814 15.8721 57.346 16.33C56.6435 16.0474 55.9267 15.7934 55.2027 15.5645C56.3066 14.3088 57.0843 12.8493 57.2994 11.1465C57.9123 6.2634 53.0272 3.71991 48.9343 3.02591C43.078 2.03498 36.7128 2.68964 31.0536 4.39603C28.0502 5.30109 25.1973 6.53528 22.4627 8.0628C22.004 8.32037 22.4054 8.97144 22.8713 8.7568C27.9642 6.40291 33.4585 4.92547 39.0567 4.47115C43.4902 4.10984 49.1744 3.87731 53.0738 6.41722C55.1131 7.74799 56.0808 10.0196 55.045 12.3449C54.597 13.3429 53.9125 14.2087 53.1061 14.9635C51.5936 14.5736 50.0704 14.2623 48.5902 13.9869C36.2433 11.6831 23.3372 12.4593 11.3523 16.2263C10.4993 14.9313 10.3129 13.3286 11.3128 11.3396H11.3057ZM40.8523 20.9019C39.4653 21.1988 38.0783 21.4921 36.6913 21.7747C36.0677 21.8713 35.4405 21.9536 34.8133 22.018C29.8064 22.5474 24.7063 22.1682 19.8536 20.8267C17.8071 20.2615 15.0868 19.3887 13.1299 17.9971C22.2513 15.2747 31.8744 14.2981 41.3648 15.1352C44.508 15.4107 47.834 15.8077 51.0453 16.5482C50.5256 16.8845 49.9916 17.1957 49.4719 17.4819C46.7624 18.9665 43.8557 20.1077 40.8559 20.9019H40.8523ZM10.3917 24.6151C9.00832 24.5615 7.62489 24.4613 6.24504 24.3146C5.28094 24.2109 1.93705 24.3003 2.72912 22.3829C3.03018 21.6531 4.49246 21.1666 5.18417 20.8661C6.65003 20.2257 8.15174 19.6534 9.66061 19.1203C10.0369 18.988 10.4168 18.8628 10.7967 18.7376C11.1516 19.0989 11.553 19.4387 12.0046 19.75C15.5097 22.1718 20.1654 23.338 24.5845 23.8603C19.8822 24.4756 15.1334 24.8047 10.3917 24.6187V24.6151ZM51.7657 18.3906C52.3606 18.0185 52.934 17.6179 53.4716 17.1886C53.8193 17.2923 54.167 17.4032 54.5074 17.5141C53.6078 17.8397 52.6903 18.1259 51.7621 18.387L51.7657 18.3906ZM22.7674 31.0114C31.6952 27.638 41.4831 26.6757 50.9127 28.3427C52.0846 28.5502 53.2674 28.7827 54.4393 29.0618C44.0278 31.1724 33.3581 31.7698 22.7674 31.0114Z" fill="currentcolor"></path></svg>