
<svg  xmlns="http://www.w3.org/2000/svg" xmlns:xlink="http://www.w3.org/1999/xlink" x="0px" y="0px"
	 viewBox="0 0 51 50" style="enable-background:new 0 0 51 50;" xml:space="preserve">
<style type="text/css">
	.wdt-cus-home01{fill:#9CDBF8;}
	.wdt-cus-home02{fill:#FFC10E;}
	.wdt-cus-home03{fill:#231F20;}
</style>
<g>
	<g>
		<g>
			<path class="wdt-cus-home01" d="M9.6,30.4l17.6-17.9L45,30.4l3-3L27.3,6.4L6.6,27.4L9.6,30.4z"/>
			<path class="wdt-cus-home02" d="M45,30.4v16.7H33.6V36.5c0-3.5-2.8-6.3-6.3-6.3S21,33,21,36.5v10.6H9.6V30.4l17.6-17.9L45,30.4z"/>
			<path class="wdt-cus-home03" d="M42.3,45.4H31c-0.5,0-0.9-0.4-0.9-0.9V33.8c0-3-2.4-5.4-5.4-5.4s-5.4,2.4-5.4,5.4v10.6
				c0,0.5-0.4,0.9-0.9,0.9H7C6.5,45.4,6,45,6,44.5V31.3c0-0.5,0.4-0.9,0.9-0.9s0.9,0.4,0.9,0.9v12.2h9.5v-9.7c0-4,3.3-7.3,7.3-7.3
				s7.3,3.3,7.3,7.3v9.7h9.5V28.1L24.6,11.2l-17,17.2c-0.2,0.2-0.4,0.3-0.7,0.3h0c-0.2,0-0.5-0.1-0.7-0.3l-3-3c-0.4-0.4-0.4-1,0-1.3
				L24,3.1c0.4-0.4,1-0.4,1.3,0L46,24.1c0.4,0.4,0.4,1,0,1.3c-0.4,0.4-1,0.4-1.3,0l-20-20.3L5.3,24.7L7,26.4L24,9.2
				c0.3-0.4,1-0.4,1.3,0L43,27.1c0.2,0.2,0.3,0.4,0.3,0.7v16.7C43.2,45,42.8,45.4,42.3,45.4z"/>
		</g>
	</g>
</g>
</svg>
