<svg xmlns="http://www.w3.org/2000/svg" xmlns:xlink="http://www.w3.org/1999/xlink" x="0px" y="0px" viewBox="0 0 50 50" style="enable-background:new 0 0 50 50;" xml:space="preserve"><g>	<g>		<path d="M22.9,33H5.3c-0.8,0-1.6-0.3-2.2-0.9c-0.6-0.6-0.9-1.4-0.9-2.2c0-0.8,0.3-1.6,0.9-2.2c0.6-0.6,1.4-0.9,2.2-0.9h17.6   c0.6,0,1,0.4,1,1s-0.4,1-1,1H5.3c-0.3,0-0.6,0.1-0.8,0.3c-0.2,0.2-0.3,0.5-0.3,0.8c0,0.3,0.1,0.6,0.3,0.8C4.7,30.9,5,31,5.3,31   h17.6c0.6,0,1,0.4,1,1S23.4,33,22.9,33z"></path>	</g>	<g>		<path d="M25,46.4H14.5C3.7,46.4,3.6,35.7,3.6,35.5V32c0-0.6,0.4-1,1-1s1,0.4,1,1v3.5c0,0.4,0.1,8.8,8.8,8.8H25c0.6,0,1,0.4,1,1   S25.6,46.4,25,46.4z"></path>	</g>	<g>		<path d="M11.6,47.8c-0.3,0-0.5-0.1-0.7-0.3c-0.4-0.4-0.4-1,0-1.4l1.4-1.4c0.4-0.4,1-0.4,1.4,0s0.4,1,0,1.4l-1.4,1.4   C12.2,47.7,11.9,47.8,11.6,47.8z"></path>	</g>	<g>		<path d="M44.7,33H44c-0.6,0-1-0.4-1-1s0.4-1,1-1h0.7c0.3,0,0.6-0.1,0.8-0.3c0.2-0.2,0.3-0.5,0.3-0.8s-0.1-0.6-0.3-0.8   c-0.2-0.2-0.5-0.3-0.8-0.3h-2.1c-0.6,0-1-0.4-1-1s0.4-1,1-1h2.1c0.8,0,1.6,0.3,2.2,0.9c0.6,0.6,0.9,1.4,0.9,2.2s-0.3,1.6-0.9,2.2   C46.3,32.7,45.5,33,44.7,33z"></path>	</g>	<g>		<path d="M35.5,46.4H25c-0.6,0-1-0.4-1-1s0.4-1,1-1h10.5c8.7,0,8.8-8.5,8.8-8.8V32c0-0.6,0.4-1,1-1s1,0.4,1,1v3.5   C46.4,35.7,46.3,46.4,35.5,46.4z"></path>	</g>	<g>		<path d="M38.4,47.8c-0.3,0-0.5-0.1-0.7-0.3l-1.4-1.4c-0.4-0.4-0.4-1,0-1.4s1-0.4,1.4,0l1.4,1.4c0.4,0.4,0.4,1,0,1.4   C38.9,47.7,38.6,47.8,38.4,47.8z"></path>	</g>	<g>		<path d="M28.5,16.2c-0.1,0-0.2,0-0.2,0c-0.7-0.2-1.3-0.5-1.8-1c-0.5-0.5-0.9-1.1-1-1.8c0-0.1,0-0.2,0-0.2c0-0.6,0.3-1.2,0.7-1.7   c0.5-0.5,1.1-0.7,1.7-0.7h1.4c0.6,0,1.3,0.3,1.7,0.7c0.5,0.5,0.7,1.1,0.7,1.7c0,0.1,0,0.2,0,0.2c-0.2,0.7-0.5,1.3-1,1.8   c-0.5,0.5-1.1,0.9-1.8,1C28.7,16.1,28.6,16.2,28.5,16.2z M27.4,12.9c0.1,0.3,0.3,0.5,0.5,0.7c0.2,0.2,0.4,0.3,0.6,0.4   c0.2-0.1,0.5-0.2,0.6-0.4c0.2-0.2,0.4-0.5,0.5-0.7c0-0.1-0.1-0.1-0.1-0.2c-0.1-0.1-0.2-0.1-0.3-0.1h-1.4c-0.1,0-0.2,0-0.3,0.1   C27.5,12.8,27.4,12.9,27.4,12.9z"></path>	</g>	<g>		<path d="M25,19c-2.5,0-4.5-1.7-4.5-3.8c0-0.6,0.4-1,1-1s1,0.4,1,1c0,1,1.2,1.8,2.5,1.8c1.4,0,2.5-0.8,2.5-1.8c0-0.6,0.4-1,1-1   s1,0.4,1,1C29.5,17.3,27.5,19,25,19z"></path>	</g>	<g>		<path d="M32,19c-2.5,0-4.5-1.7-4.5-3.8c0-0.6,0.4-1,1-1s1,0.4,1,1c0,1,1.2,1.8,2.5,1.8s2.5-0.8,2.5-1.8c0-0.6,0.4-1,1-1s1,0.4,1,1   C36.5,17.3,34.5,19,32,19z"></path>	</g>	<g>		<path d="M28.5,23.8c-1,0-2-0.4-2.7-1.1c-0.7-0.7-1.1-1.6-1.1-2.7V18c0-0.6,0.4-1,1-1c0.6,0,1,0.4,1,1v2.1c0,0.5,0.2,0.9,0.5,1.2   c0.7,0.7,1.9,0.7,2.5,0c0.3-0.3,0.5-0.8,0.5-1.3V18c0-0.6,0.4-1,1-1s1,0.4,1,1v2.1c0,1-0.4,2-1.1,2.7   C30.5,23.5,29.5,23.8,28.5,23.8z"></path>	</g>	<g>		<path d="M26.4,9.1c-0.2,0-0.5-0.1-0.7-0.3c-0.6-0.6-1.6-0.6-2.1,0c-0.4,0.4-1,0.4-1.4,0c-0.4-0.4-0.4-1,0-1.4   c1.3-1.3,3.6-1.3,4.9,0c0.4,0.4,0.4,1,0,1.4C26.9,9,26.7,9.1,26.4,9.1z"></path>	</g>	<g>		<path d="M34.1,9.1c-0.2,0-0.5-0.1-0.7-0.3c-0.6-0.6-1.6-0.6-2.1,0c-0.4,0.4-1,0.4-1.4,0c-0.4-0.4-0.4-1,0-1.4   c1.3-1.3,3.6-1.3,4.9,0c0.4,0.4,0.4,1,0,1.4C34.7,9,34.4,9.1,34.1,9.1z"></path>	</g>	<g>		<path d="M19.4,11.2c-0.2,0-0.4-0.1-0.6-0.2l-2-1.5c0,0-0.1,0-0.1-0.1c-0.4-0.3-0.6-0.7-0.8-1.2c-0.2-0.5-0.3-0.9-0.3-1.4   c0-0.5,0.1-1,0.3-1.4c0.2-0.5,0.5-0.9,0.8-1.2c1.1-1.2,2.3-2,3.4-2c0.6,0,1.2,0.3,1.7,0.7c0.5,0.5,0.7,1.1,0.7,1.7   c0,0.6-0.4,1-1,1s-1-0.4-1-1c0-0.1,0-0.2-0.1-0.3c-0.1-0.1-0.2-0.1-0.3-0.1c-0.3,0-1,0.4-1.9,1.4c-0.2,0.2-0.4,0.4-0.4,0.6   c-0.1,0.2-0.1,0.4-0.1,0.6c0,0.2,0,0.4,0.1,0.6C17.8,7.7,17.9,7.8,18,8l0.7,0.6l0.3-1.3c0.1-0.5,0.7-0.9,1.2-0.7   c0.5,0.1,0.9,0.7,0.7,1.2l-0.7,2.8c-0.1,0.3-0.3,0.6-0.6,0.7C19.6,11.2,19.5,11.2,19.4,11.2z"></path>	</g>	<g>		<path d="M37.7,11.2c-0.1,0-0.2,0-0.3-0.1c-0.3-0.1-0.6-0.4-0.6-0.7L36,7.7c-0.1-0.5,0.2-1.1,0.7-1.2c0.5-0.1,1.1,0.2,1.2,0.7   l0.3,1.3L39,8c0.1-0.1,0.3-0.3,0.3-0.5c0.1-0.2,0.1-0.4,0.1-0.6c0-0.2,0-0.4-0.1-0.6C39.2,6,39.1,5.8,39,5.6c-1-1.1-1.7-1.4-2-1.4   c-0.1,0-0.2,0-0.3,0.1c-0.1,0.1-0.1,0.2-0.1,0.3c0,0.6-0.4,1-1,1s-1-0.4-1-1c0-0.6,0.3-1.3,0.7-1.7c0.5-0.5,1.1-0.7,1.7-0.7   c1,0,2.3,0.7,3.4,2c0.3,0.3,0.6,0.7,0.8,1.1c0.2,0.5,0.3,0.9,0.3,1.4c0,0.5-0.1,1-0.3,1.4c-0.2,0.5-0.5,0.9-0.8,1.2   c0,0-0.1,0-0.1,0.1l-2,1.5C38.1,11.2,37.9,11.2,37.7,11.2z"></path>	</g>	<g>		<path d="M37.7,36.5c-1.2,0-2.3-0.5-3.2-1.3s-1.3-2-1.3-3.2v-1.4c0-0.6,0.4-1,1-1s1,0.4,1,1V32c0,0.7,0.3,1.3,0.7,1.8   c0.9,0.9,2.6,1,3.6,0c0.5-0.5,0.7-1.1,0.7-1.8c0-1.4-0.3-2-0.8-2.9c-0.1-0.3-0.3-0.5-0.5-0.9l-0.2-0.3C38,26.6,37.7,26,37,26   c-0.5,0-0.9,0.2-1.3,0.5s-0.5,0.8-0.5,1.3c0,0.6-0.4,1-1,1s-1-0.4-1-1c0-1,0.4-2,1.1-2.7C35,24.4,35.9,24,37,24   c2.1,0,2.9,1.7,3.5,3l0.2,0.3c0.1,0.3,0.3,0.5,0.4,0.8c0.6,1,1.1,2,1.1,3.9c0,1.2-0.5,2.3-1.3,3.2C40,36.1,38.9,36.5,37.7,36.5z"></path>	</g>	<g>		<path d="M26.4,36.5c-1.2,0-2.3-0.5-3.2-1.3c-0.9-0.9-1.3-2-1.3-3.2v-1.4c0-0.6,0.4-1,1-1s1,0.4,1,1V32c0,0.7,0.3,1.3,0.7,1.8   c1,0.9,2.6,1,3.6,0c0.5-0.5,0.7-1.1,0.7-1.8c0-1.4-0.3-2-0.8-2.9c-0.1-0.3-0.3-0.5-0.5-0.9l-0.2-0.3c-0.7-1.4-1-1.9-1.8-1.9   c-0.5,0-0.9,0.2-1.3,0.5c-0.3,0.3-0.5,0.8-0.5,1.3c0,0.6-0.4,1-1,1s-1-0.4-1-1c0-1,0.4-2,1.1-2.7c0.7-0.7,1.7-1.1,2.7-1.1   c2.1,0,2.9,1.7,3.5,3l0.2,0.3c0.1,0.3,0.3,0.5,0.4,0.8c0.6,1,1.1,2,1.1,3.9c0,1.2-0.5,2.3-1.3,3.2C28.7,36.1,27.6,36.5,26.4,36.5z   "></path>	</g>	<g>		<path d="M34.1,28.8h-2.8c-0.6,0-1-0.4-1-1s0.4-1,1-1h2.8c0.6,0,1,0.4,1,1S34.7,28.8,34.1,28.8z"></path>	</g>	<g>		<path d="M34.1,33h-1.4c-0.6,0-1-0.4-1-1s0.4-1,1-1h1.4c0.6,0,1,0.4,1,1S34.7,33,34.1,33z"></path>	</g>	<g>		<path d="M34.1,22.5c-0.4,0-0.8-0.2-0.9-0.6c-0.2-0.5,0-1.1,0.6-1.3c1.6-0.6,2.7-1.6,3.3-3c1.3-3-0.3-6.9-0.3-6.9   c-0.2-0.5,0-1.1,0.5-1.3c0.5-0.2,1.1,0,1.3,0.5c0.1,0.2,1.9,4.6,0.3,8.5c-0.8,1.9-2.3,3.3-4.4,4.1C34.4,22.5,34.3,22.5,34.1,22.5z   "></path>	</g>	<g>		<path d="M22.9,22.5c-0.1,0-0.2,0-0.4-0.1c-2.1-0.8-3.6-2.2-4.4-4.1c-1.6-3.8,0.2-8.3,0.3-8.5c0.2-0.5,0.8-0.8,1.3-0.5   c0.5,0.2,0.8,0.8,0.5,1.3c0,0-1.6,3.9-0.3,6.9c0.6,1.4,1.7,2.4,3.3,3c0.5,0.2,0.8,0.8,0.6,1.3C23.7,22.2,23.3,22.5,22.9,22.5z"></path>	</g>	<g>		<path d="M37,23.2C36.9,23.2,36.9,23.2,37,23.2c-0.6,0-1-0.5-1-1.1c0-0.2,0-0.4-0.1-0.6s-0.2-0.4-0.3-0.5c-0.4-0.4-0.4-1,0-1.4   c0.4-0.4,1-0.4,1.4,0c0.3,0.4,0.6,0.8,0.8,1.3c0.2,0.5,0.2,1,0.2,1.5C37.9,22.8,37.5,23.2,37,23.2z"></path>	</g>	<g>		<path d="M9.5,28.8C9.5,28.8,9.5,28.8,9.5,28.8c-0.6,0-1-0.5-1-1c0-0.1,0.1-2.5,3.3-4.3c4.5-2.6,5.7-8.4,5.7-8.5   c0.1-0.5,0.6-0.9,1.2-0.8c0.5,0.1,0.9,0.6,0.8,1.2c-0.1,0.3-1.4,6.8-6.6,9.8c-2.2,1.2-2.3,2.7-2.3,2.7C10.5,28.4,10,28.8,9.5,28.8   z"></path>	</g>	<g>		<path d="M6,28.8c-0.5,0-0.9-0.3-1-0.8c0-0.2-0.8-4.1,3.2-7.3c0.3-0.3,0.8-0.3,1.1-0.1c0.4,0.2,0.5,0.6,0.5,1   c-0.2,1.1-0.4,4.2,0.5,5.6c0.3,0.5,0.2,1.1-0.3,1.4c-0.5,0.3-1.1,0.2-1.4-0.3c-0.7-1.1-1-2.7-1-4C6.7,26.1,7,27.6,7,27.6   c0.1,0.5-0.2,1.1-0.8,1.2C6.1,28.8,6.1,28.8,6,28.8z"></path>	</g>	<g>		<path d="M6.7,18.3c-1.7,0-3.1-1.4-3.1-3.1S5,12,6.7,12s3.1,1.4,3.1,3.1S8.4,18.3,6.7,18.3z M6.7,14c-0.6,0-1.1,0.5-1.1,1.1   s0.5,1.1,1.1,1.1s1.1-0.5,1.1-1.1S7.3,14,6.7,14z"></path>	</g>	<g>		<path d="M10.9,11.2c-1.3,0-2.4-1.1-2.4-2.4c0-1.3,1.1-2.4,2.4-2.4c1.3,0,2.4,1.1,2.4,2.4C13.3,10.2,12.3,11.2,10.9,11.2z    M10.9,8.4c-0.2,0-0.4,0.2-0.4,0.4s0.2,0.4,0.4,0.4s0.4-0.2,0.4-0.4S11.2,8.4,10.9,8.4z"></path>	</g>	<g>		<path d="M35.5,5.6c-0.4,0-0.7-0.2-0.9-0.5c-0.1-0.2-0.3-0.5-0.5-0.6c-0.2-0.2-0.5-0.2-0.8-0.3l-9.8,0c-0.2,0-0.5,0.1-0.7,0.3   c-0.2,0.2-0.4,0.4-0.5,0.6c-0.3,0.5-0.9,0.7-1.3,0.4c-0.5-0.3-0.7-0.9-0.4-1.3c0.3-0.5,0.7-1,1.2-1.4c0.5-0.3,1.1-0.5,1.7-0.6   l9.9,0c0.7,0.1,1.3,0.3,1.8,0.6c0.5,0.3,0.9,0.8,1.2,1.4c0.3,0.5,0.1,1.1-0.4,1.3C35.9,5.6,35.7,5.6,35.5,5.6z"></path>	</g></g></svg>