<svg xmlns="http://www.w3.org/2000/svg" viewBox="0 0 100 100"><path d="M89.76,79.9l-7.5-41.41a4,4,0,0,0-3.94-3.29H58.53L56.92,23.7a4.16,4.16,0,0,0-4-3.8H47.05a10.06,10.06,0,1,0-20.12,0H20.4a4.16,4.16,0,0,0-4,3.82L9.27,77.06A12.69,12.69,0,0,0,12,87a8.28,8.28,0,0,0,6.2,3l24.15.25a9.71,9.71,0,0,0,1.21.09l37.14.29h.07a9.13,9.13,0,0,0,9-10.76ZM37,14.45a5.46,5.46,0,0,1,5.45,5.45H31.54A5.46,5.46,0,0,1,37,14.45Zm-18.74,71A3.79,3.79,0,0,1,15.48,84a8.17,8.17,0,0,1-1.64-6.31L21,24.51h5.94v2.83a2.31,2.31,0,0,0,2.31,2.3h0a2.3,2.3,0,0,0,2.3-2.3V24.51h10.9v2.83a2.3,2.3,0,0,0,2.3,2.3h0a2.3,2.3,0,0,0,2.31-2.3V24.51h5.33L53.87,35.2H45.75a4,4,0,0,0-3.94,3.31L34.64,79.67a9.09,9.09,0,0,0,1,5.93Zm66-1a4.48,4.48,0,0,1-3.49,1.61l-18-.14L43.6,85.76a4,4,0,0,1-.85-.09,4.5,4.5,0,0,1-3.57-5.21l7.08-40.65H77.81l7.41,40.91A4.51,4.51,0,0,1,84.23,84.44Z"></path><path d="M72.19,47.46v2.66a10.06,10.06,0,1,1-20.11.16V47.46a2.3,2.3,0,0,1,2.3-2.31h0a2.3,2.3,0,0,1,2.31,2.31v2.71A5.53,5.53,0,0,0,62,55.73a5.45,5.45,0,0,0,5.61-5.45V47.46a2.31,2.31,0,0,1,2.31-2.31h0A2.3,2.3,0,0,1,72.19,47.46Z"></path></svg>