<svg xmlns="http://www.w3.org/2000/svg" xmlns:xlink="http://www.w3.org/1999/xlink" x="0px" y="0px" viewBox="0 0 100 100" style="enable-background:new 0 0 100 100;" xml:space="preserve"><g>	<g>		<path d="M28.9,64.6c3.4-9.1,12.3-2.3,8.2,3.1c-0.9,1.2-3.1,2.6-5.4,1.9c-2.1-0.6-2.9-2.2-2.8-4.7C28.8,64.8,28.9,64.7,28.9,64.6z    M77.3,68.1c-2.6-5.4,3.9-9.7,7.4-6.7c1.8,1.5,1.7,4.3,0.2,6.2C83.1,69.9,78.3,70.6,77.3,68.1L77.3,68.1z M74.2,63.3   c-0.6,0.9-2.9,0.5-3.9,0.4c-0.4-1.8,2.3-20.3,2.5-24.4l9-0.1c4.1,0,9,6.9,11.3,9.9c1.5,2,0.8,4.4,0.5,7.1   c-0.1,1.3-0.3,6.6-1.2,7.2c-0.8,0.4-2.2,0.2-3.2,0.3c-0.6-0.4-0.3-0.1-0.6-1c-1.2-4-4.7-5.8-8.5-4.9   C77.8,58.2,74.4,60.8,74.2,63.3z M67.6,62.5c-0.1,1.4-0.6,1.2-2.5,1.2H54.3c-0.7,0-12.8,0.3-13.2-0.2c-0.3-0.3-0.2-0.3-0.2-0.8   c-1.1-6.8-11.9-6.5-14.3-0.3c-0.1,0.2-0.2,0.4-0.3,0.7c-0.1,0.4-0.1,0.3-0.2,0.6l-4.8,0c-1,0-1.2-0.4-1.2-1.4   c0.1-1.6,0.2-8.8,1.8-8.9c0.6,0,1.5,0,2.1,0c1.4,0,3,0.1,4.4-0.1c1.5-0.1,1.5-2.2,0.7-2.2C23.7,51,7,50.7,3.9,50.6   c-1.1,0.2-0.8,0.6-0.9,1.9c0.1,0.7,0.5,0.7,0.9,0.8l14.3,0c0.2,0.8-0.1,2.2-0.2,2.9L17.4,62c-0.2,2.1,0,3.2,2,4.2   c1.3,0.1,2.3,0.1,3.6,0.1l2.5,0l0.6,1.3c0.9,2.6,2.1,3.8,4.7,4.7c1.5,0.1,2,0.2,3.5,0c1.5-0.1,3.4-1.3,4.2-2   c1.2-1.1,1.6-2.3,2.4-3.9l32.7,0c0.9,2.8,1.7,4.8,4.9,5.8c4.3,1.3,8.3-1.2,10.2-5.8c1.6,0,6.8,0.5,7-3.2   c0.2-4.2,2.1-10.2,0.9-13.9c-0.6-1.9-1.4-2.4-2.5-3.6c-0.9-1.1-1.9-2.2-2.8-3.3c-6.8-7.9-5.6-5.7-18.1-6.1   c0.1-2.1,0.8-4.9,0.2-6.9c-0.2-0.7-0.6-1.9-2.2-2c-3.4-0.4-36.3-0.1-42.6-0.1c-2.2,0-4.9-0.3-6.3,0.8c-3.1,2.3-0.7,4.5-2.5,5   l-1.2,0.1c-2.2,0-7.3-0.7-5.9,2.1c0.4,0.9,1.3,0.8,2.5,0.8l20.4,0c4,0,2.6-2.7,1.2-2.9l-13.5,0c-0.2-3.1,0.7-2.9,3.4-2.9   c6.6,0,43.1-0.3,43.7,0.2c0.4,0.3,0.3,0.1,0.4,0.8C69.8,41.7,68.6,52.1,67.6,62.5L67.6,62.5z"></path>		<path d="M80.8,73c-0.8,0-1.6-0.1-2.4-0.4c-3.3-1-4.2-3.2-5-5.8l-32.3,0c-0.2,0.3-0.3,0.6-0.4,0.9c-0.5,1.1-1,2.1-1.9,2.9   c-0.8,0.8-2.8,2-4.4,2.1c-1.4,0.1-2,0.1-3.2,0l-0.4,0c-2.7-0.9-3.9-2.2-4.9-4.9l-0.5-1.1l-2.3,0c-1.2,0-2.3,0-3.6-0.1l-0.1,0   c-2.1-1.1-2.3-2.3-2.2-4.5l0.6-5.7c0-0.2,0-0.4,0.1-0.7c0.1-0.6,0.2-1.4,0.1-1.9L3.6,53.6c-0.3-0.1-0.8-0.2-0.9-1   c0-0.3,0-0.5,0-0.7c0-0.9,0.1-1.3,1.1-1.6c1.1,0,3.8,0.1,7,0.1c6.2,0.1,14.7,0.3,18.3,0.4c0.5,0,0.8,0.5,0.8,1.1   c0,0.8-0.5,1.7-1.5,1.7c-1,0.1-2.2,0.1-3.3,0.1c-0.6,0-1.2,0-1.9,0c-0.5,0-0.9,0-1.3,0c-0.4,0-1.3,0.9-1.5,8.2l0,0.4   c0,0.9,0.1,1.1,0.9,1.1l4.6,0c0-0.1,0.1-0.2,0.1-0.4l0.1-0.3c0.1-0.1,0.1-0.3,0.2-0.4c1.4-3.6,5.4-5.2,8.7-4.9   c3.3,0.3,5.6,2.3,6.1,5.2c0,0.2,0,0.3,0,0.4c0,0.2,0,0.2,0.1,0.3c0.3,0.1,2.7,0.3,12.1,0.1c0.5,0,0.8,0,0.9,0h10.7   c0.2,0,0.4,0,0.6,0c1.5,0,1.6,0,1.6-0.9l0,0c0.5-5.3,1.1-10.6,1.6-15.8c0.5-5.1,1.1-10.3,1.6-15.4l0-0.1c0-0.1,0-0.2,0-0.2   c-0.1,0-0.1-0.1-0.2-0.1c-1.4-0.3-23.3-0.2-35.2-0.2c-3.8,0-6.9,0-8.4,0l-0.5,0c-1.2,0-1.9,0-2.3,0.4c-0.3,0.3-0.4,0.9-0.4,1.9   l13.2,0c0.9,0.1,1.7,1.1,1.7,2c0,0.6-0.5,1.5-2.9,1.5c0,0,0,0,0,0l-20.4,0l-0.2,0c-1.1,0-2.1,0-2.6-1c-0.3-0.7-0.3-1.2-0.1-1.7   c0.7-1.1,3.2-1,5.1-0.9c0.4,0,0.8,0,1.1,0l1.2-0.1c0.5-0.1,0.5-0.4,0.5-1.2c0-0.9,0-2.4,1.9-3.8c1.3-0.9,3.3-0.9,5.2-0.8   c0.4,0,0.9,0,1.3,0c1.3,0,3.8,0,6.9,0c12.3-0.1,33-0.2,35.7,0.2c1.9,0.2,2.3,1.7,2.5,2.2c0.5,1.4,0.2,3.2,0,5   c-0.1,0.6-0.2,1.2-0.2,1.7c2.5,0.1,4.5,0,6,0c6-0.1,6.5-0.1,11.9,6.2l0.9,1c0.7,0.7,1.3,1.5,2,2.3c0.2,0.3,0.5,0.5,0.7,0.8   c0.7,0.8,1.3,1.4,1.8,2.9c0.8,2.5,0.2,6-0.3,9.3c-0.3,1.7-0.5,3.3-0.6,4.7c-0.2,3.6-4.5,3.5-6.6,3.5c-0.2,0-0.3,0-0.5,0   C87.2,70.7,84.2,73,80.8,73z M40.7,66.2l33.1,0l0.1,0.2c1,2.9,1.7,4.7,4.7,5.6c4,1.2,8-1,9.8-5.7l0.1-0.2l0.2,0c0.2,0,0.4,0,0.7,0   c2.1,0,5.9,0.1,6-2.9c0.1-1.4,0.3-3.1,0.6-4.8c0.5-3.3,1.1-6.7,0.3-9c-0.4-1.4-1-2-1.7-2.7c-0.2-0.2-0.5-0.5-0.7-0.8   c-0.6-0.8-1.3-1.5-2-2.3l-0.9-1c-5.3-6.1-5.6-6.1-11.5-6c-1.6,0-3.7,0.1-6.4,0l-0.3,0l0-0.3c0-0.7,0.1-1.3,0.2-2.1   c0.2-1.7,0.4-3.4,0-4.7c-0.2-0.8-0.6-1.7-1.9-1.8c-2.7-0.3-24.1-0.2-35.6-0.2c-3.1,0-5.6,0-6.9,0c-0.4,0-0.9,0-1.3,0   c-1.8-0.1-3.7-0.1-4.8,0.7c-1.6,1.2-1.6,2.4-1.6,3.3c0,0.7,0,1.5-1,1.8l-1.3,0.1c-0.3,0-0.7,0-1.1,0c-1.6-0.1-4.1-0.2-4.6,0.6   c-0.2,0.3-0.1,0.6,0.1,1.1c0.3,0.6,0.9,0.6,2.1,0.6l0.2,0l20.4,0c1.4,0,2.3-0.3,2.3-1c0-0.5-0.5-1.2-1.1-1.3l-13.8,0l0-0.3   c-0.1-1.4,0.1-2.2,0.5-2.7C24.1,30,25,30,26.3,30l0.5,0c1.5,0,4.5,0,8.3,0c26.8-0.1,35.1,0,35.5,0.3c0.1,0.1,0.2,0.1,0.2,0.2   c0.3,0.2,0.3,0.3,0.3,0.7l0,0.1c-0.5,5.2-1.1,10.3-1.6,15.4c-0.6,5.2-1.1,10.6-1.6,15.9h0C67.8,64,67.1,64,65.7,64l-0.6,0H54.3   c-0.1,0-0.4,0-0.9,0c-12.1,0.2-12.4-0.1-12.6-0.3c-0.2-0.3-0.3-0.4-0.3-0.7c0-0.1,0-0.2,0-0.3c-0.4-2.6-2.5-4.4-5.6-4.7   c-3.1-0.3-6.9,1.2-8.1,4.5c-0.1,0.2-0.1,0.3-0.2,0.4l-0.1,0.3c-0.1,0.2-0.1,0.3-0.1,0.4L26.4,64l-5,0c-1.3-0.1-1.6-0.7-1.5-1.7   l0-0.4c0.2-6.1,0.8-8.7,2.1-8.8c0.4,0,0.9,0,1.4,0c0.7,0,1.3,0,1.9,0c1.1,0,2.2,0,3.2-0.1c0.8,0,1-0.7,1-1.1   c0-0.2-0.1-0.5-0.2-0.5c-3.6-0.1-12.1-0.2-18.3-0.4c-3.3-0.1-5.9-0.1-7-0.1c-0.6,0.1-0.6,0.2-0.6,1c0,0.2,0,0.4,0,0.7   c0.1,0.3,0.2,0.4,0.5,0.5l0.1,0l14.5,0l0,0.2c0.1,0.6,0,1.6-0.1,2.4c0,0.2-0.1,0.5-0.1,0.6l-0.6,5.7c-0.2,2,0,2.9,1.8,3.9   c1.2,0.1,2.3,0.1,3.5,0.1l2.7,0l0.7,1.4c0.9,2.5,2,3.7,4.5,4.5l0.3,0c1.2,0.1,1.7,0.1,3.1,0c1.4-0.1,3.2-1.2,4-2   c0.8-0.8,1.3-1.6,1.8-2.7c0.2-0.3,0.3-0.7,0.5-1.1L40.7,66.2z M32.9,70.1c-0.4,0-0.9-0.1-1.4-0.2c-2.2-0.6-3.1-2.2-3-5l0-0.3   c1.5-3.9,3.7-4.6,4.9-4.7c1.8-0.1,3.5,0.9,4.4,2.6c0.9,1.7,0.7,3.8-0.6,5.4C36.4,69,34.8,70.1,32.9,70.1z M29.2,64.7l0,0.2   c-0.1,2.5,0.7,3.9,2.6,4.4c2.1,0.6,4.1-0.5,5.1-1.8c1.1-1.5,1.3-3.2,0.5-4.8c-0.8-1.4-2.3-2.3-3.8-2.3   C31.7,60.6,30.1,62.1,29.2,64.7z M80.3,70c-0.2,0-0.5,0-0.7,0c-1.3-0.2-2.2-0.8-2.6-1.7h0c-1.5-3.1-0.1-5.6,1.5-6.9   c2-1.6,4.6-1.6,6.3-0.1c1.8,1.5,1.9,4.5,0.3,6.6C84.1,69.1,82.1,70,80.3,70z M81.9,60.7c-1.1,0-2.2,0.4-3.1,1.1   c-1.5,1.2-2.7,3.4-1.3,6.2l0,0c0.4,1,1.4,1.3,2.1,1.4c1.8,0.2,4-0.6,5-1.9c1.5-1.9,1.4-4.5-0.2-5.8C83.7,60.9,82.8,60.7,81.9,60.7   z M72.4,64.2c-0.6,0-1.4-0.1-2.1-0.2l-0.3,0l0-0.2c-0.2-1.1,0.6-7.8,1.4-14.2c0.5-4.4,1.1-8.6,1.1-10.3l0-0.3l9.3-0.1   c4.1,0,8.7,6.2,11.2,9.5l0.3,0.4c1.3,1.8,1,3.7,0.8,5.8c-0.1,0.5-0.1,0.9-0.2,1.4c0,0.2-0.1,0.6-0.1,1c-0.3,3.7-0.6,5.9-1.3,6.4   c-0.7,0.4-1.7,0.3-2.6,0.3c-0.3,0-0.5,0-0.7,0l-0.1,0l-0.1-0.1c-0.1-0.1-0.2-0.1-0.2-0.1c-0.2-0.1-0.3-0.2-0.3-0.5   c0-0.1,0-0.3-0.1-0.6c-1.1-3.7-4.3-5.6-8.1-4.7c-2.4,0.6-5.6,3.1-5.8,5.4l0,0.1C74.1,64,73.3,64.2,72.4,64.2z M70.6,63.4   c0.9,0.1,2.8,0.4,3.3-0.2c0.3-2.8,3.9-5.3,6.2-5.9c4.1-1,7.7,1.1,8.8,5.1c0.1,0.4,0.1,0.5,0.1,0.7c0,0,0,0,0,0c0,0,0,0,0.1,0   c0,0,0.1,0.1,0.2,0.1c0.2,0,0.4,0,0.7,0c0.8,0,1.8,0.1,2.3-0.2c0.6-0.4,0.9-4.4,1-5.9c0-0.4,0.1-0.8,0.1-1c0.1-0.5,0.1-1,0.2-1.5   c0.3-2.1,0.5-3.8-0.6-5.4l-0.3-0.4c-2.3-3-6.9-9.3-10.7-9.3l-8.8,0.1c-0.1,1.9-0.6,5.9-1.1,10.1C71.3,55.4,70.5,61.9,70.6,63.4z"></path>	</g>	<g>		<path d="M74.7,50.4c4.8,0,10.4,0,15.6,0c-0.2-0.5-6.4-7.5-6.8-7.7c-1.2-0.6-6.6-0.7-7.9-0.3C75.2,43.4,74.7,49.1,74.7,50.4   L74.7,50.4z"></path>		<path d="M90.7,50.7l-0.4,0c-3.6,0-7.4,0-11,0l-4.9,0l0-0.3c0-1.4,0.5-7.1,0.9-8.1l0-0.1l0.1,0c1.4-0.5,6.9-0.4,8.2,0.3   c0.5,0.3,6.7,7.3,6.9,7.9L90.7,50.7z M84.3,50.1c1.8,0,3.7,0,5.4,0c-1.2-1.6-5.9-6.8-6.3-7.2c-1-0.5-6-0.7-7.5-0.3   c-0.3,1.2-0.8,5.8-0.8,7.5l4.3,0C80.9,50.1,82.6,50.1,84.3,50.1z"></path>	</g>	<g>		<path d="M8.9,41.9l22.9,0c1.9,0,2.3-0.7,1.8-2.5c-0.4-0.2-0.8-0.4-1.6-0.4H9.1c-1.3,0-2.3,0-2.4,1.4C6.7,41.7,7.7,41.9,8.9,41.9z"></path>		<path d="M31.8,42.2l-22.9,0c-0.8,0-1.6-0.1-2.1-0.6c-0.3-0.3-0.4-0.7-0.4-1.3c0.1-1.7,1.4-1.7,2.6-1.7h23c0.8,0,1.3,0.2,1.7,0.4   l0.1,0.1l0,0.1c0.3,1.1,0.3,1.7,0,2.2C33.5,42,32.9,42.2,31.8,42.2z M9.1,39.3c-1.4,0-2,0-2.1,1.1c0,0.4,0.1,0.7,0.2,0.8   c0.3,0.3,1,0.4,1.6,0.4l22.9,0c0.8,0,1.3-0.1,1.5-0.4c0.2-0.3,0.2-0.8,0-1.5c-0.4-0.2-0.7-0.3-1.3-0.3H9.1z"></path>	</g>	<g>		<path d="M12.3,47.7l25.6,0c2.1,0,2.6-0.7,2-2.5c-0.5-0.2-0.9-0.4-1.7-0.4H12.5c-1.5,0-2.6,0-2.6,1.4C9.8,47.5,10.9,47.7,12.3,47.7   z"></path>		<path d="M37.9,48l-25.6,0c-0.9,0-1.8-0.1-2.3-0.6c-0.3-0.3-0.4-0.7-0.4-1.2c0.1-1.7,1.5-1.7,2.9-1.7h25.6c0.9,0,1.4,0.2,1.9,0.4   l0.1,0.1l0,0.1c0.4,1,0.4,1.7,0,2.2C39.8,47.8,39.1,48,37.9,48z M12.5,45.1c-1.6,0-2.3,0-2.3,1.1c0,0.4,0.1,0.6,0.2,0.8   c0.3,0.4,1.2,0.4,1.9,0.4l25.6,0c1,0,1.6-0.2,1.8-0.5c0.2-0.3,0.2-0.8-0.1-1.5c-0.4-0.2-0.8-0.3-1.5-0.3H12.5z"></path>	</g></g></svg>