<svg xmlns="http://www.w3.org/2000/svg" viewBox="0 0 100 100"><path d="M92.67,75.7,87.86,59.93a36.14,36.14,0,1,0-68.5-16.39A26.17,26.17,0,0,0,11.53,76L7.91,86a4.24,4.24,0,0,0,5.21,5.51L24,88.24A26.19,26.19,0,0,0,56.17,80,35.85,35.85,0,0,0,71.6,76.2L87.37,81a4.43,4.43,0,0,0,1.24.18A4.25,4.25,0,0,0,92.86,77,4.12,4.12,0,0,0,92.67,75.7ZM35.07,86.06a21.68,21.68,0,0,1-3.54-.29,21.35,21.35,0,0,1-7-2.48L18.79,85l-6.3,1.86,2.16-6,1.91-5.29a21.58,21.58,0,0,1,3.2-26.3A36.22,36.22,0,0,0,50.43,79.63,21.53,21.53,0,0,1,35.07,86.06ZM76.86,73l-5.74-1.75a31.38,31.38,0,0,1-12.15,4,33.17,33.17,0,0,1-3.47.19c-.6,0-1.19,0-1.78,0A31.59,31.59,0,0,1,24,45.94c0-.69-.07-1.39-.07-2.1,0-1.06.06-2.11.16-3.15a31.53,31.53,0,1,1,61,13.89,31.1,31.1,0,0,1-2.25,4.86l1.75,5.75L88.07,76.4Z"></path><rect x="37.58" y="30.64" width="35.41" height="4.61" rx="2.3" ry="2.3" transform="translate(-0.19 0.33) rotate(-0.34)"></rect><rect x="37.69" y="41.12" width="35.41" height="4.61" rx="2.3" ry="2.3" transform="translate(-0.26 0.33) rotate(-0.34)"></rect><rect x="37.79" y="51.7" width="23.68" height="4.61" rx="2.3" ry="2.3"></rect></svg>