<svg xmlns="http://www.w3.org/2000/svg" width="124" height="131" viewBox="0 0 124 131" fill="none"><mask id="mask0_30_2748" style="mask-type:luminance" maskUnits="userSpaceOnUse" x="0" y="0" width="124" height="131"><path d="M79.3742 0.473789L0.472656 37.8271L44.1488 130.084L123.05 92.731L79.3742 0.473789Z" fill="white"></path></mask><g mask="url(#mask0_30_2748)"><path d="M50.7535 14.0474C55.3514 11.4157 61.4716 14.5414 63.207 19.2359C65.1788 24.5701 62.7662 30.3306 58.916 34.1393C56.6705 36.2491 54.1284 38.0191 51.3706 39.393C48.5957 40.8527 45.7413 42.156 42.8208 43.2967C36.8895 45.6329 30.7295 47.34 24.4418 48.39C21.3309 48.9078 18.1947 49.2604 15.0465 49.4461C13.5054 49.5369 11.9561 49.6151 10.4114 49.6024C9.15391 49.6433 7.90343 49.3998 6.75319 48.8901C6.12913 48.6012 5.58946 48.1573 5.18565 47.6006C4.78183 47.044 4.52732 46.3932 4.44638 45.7103C4.39009 45.0176 4.47221 44.3206 4.68795 43.6599C4.9037 42.9992 5.24875 42.388 5.70302 41.862C6.79556 40.705 8.10825 39.7779 9.56403 39.1352C10.7651 38.5312 11.9822 37.9602 13.2153 37.4222C18.2566 35.2256 23.5127 33.5594 28.8987 32.4504C34.2599 31.3513 39.7172 30.7887 45.1899 30.771C50.6508 30.744 56.1004 31.2707 61.4551 32.3428C66.8195 33.4068 72.0583 35.0277 77.0861 37.1794C82.5184 39.4064 87.5446 42.5172 91.9609 46.3857C96.311 50.1678 99.3889 55.1995 100.775 60.7948C101.872 65.8738 101.364 71.1683 99.321 75.9458C97.1034 81.016 93.2368 85.1875 88.3492 87.7827C83.4616 90.3779 77.8401 91.2444 72.3978 90.2415C71.0125 90.0219 69.7592 89.2926 68.8837 88.1967C68.4919 87.6025 68.2465 86.9239 68.1678 86.2165C68.089 85.5091 68.1791 84.7931 68.4306 84.1273C69.4489 81.1622 72.7141 79.7747 75.2571 78.3793C80.6597 75.4109 86.4075 72.547 92.6399 71.9909C95.2962 71.7101 97.9819 71.9729 100.533 72.7632C103.085 73.5535 105.449 74.8549 107.481 76.588C109.436 78.312 110.847 80.567 111.542 83.0785C112.17 85.5967 112.08 88.2405 111.281 90.7099C109.594 96.2398 105.261 100.281 100.432 103.176C97.7361 104.725 94.954 106.118 92.0992 107.349C91.8474 107.468 91.5585 107.483 91.2961 107.389C91.0338 107.295 90.8194 107.101 90.7002 106.849C90.581 106.597 90.5666 106.309 90.6604 106.046C90.7542 105.784 90.9483 105.569 91.2002 105.45C96.4221 103.082 102.08 100.607 105.875 96.1317C108.813 92.6677 110.705 87.9781 109.476 83.4359C108.25 78.9117 103.996 75.9456 99.6929 74.6971C94.4748 73.1823 89.0007 74.3514 84.0845 76.3666C81.4233 77.4941 78.8278 78.7706 76.3102 80.1899C75.0098 80.8447 73.7459 81.5698 72.5242 82.3619C71.4511 82.9901 70.6543 83.9998 70.2928 85.1895C69.7064 87.8626 72.9449 88.3198 74.8568 88.4885C78.6274 88.7969 82.4155 88.1626 85.88 86.6428C89.3446 85.123 92.3767 82.7654 94.7035 79.7824C97.5288 75.9853 99.1121 71.4082 99.237 66.677C99.3511 61.7187 97.839 56.8593 94.9317 52.8411C91.6214 48.4445 87.3983 44.8168 82.5528 42.2075C73.5348 37.2131 63.571 34.1622 53.3026 33.2511C43.0784 32.2469 32.7565 33.2172 22.8985 36.1091C20.4617 36.8291 18.0634 37.6734 15.7129 38.6386C14.5425 39.1189 13.3845 39.6276 12.2388 40.1648C11.0133 40.6925 9.82722 41.3073 8.68961 42.0045C8.16759 42.2953 7.70975 42.6886 7.34358 43.1608C6.97741 43.633 6.71048 44.1743 6.55883 44.7523C6.46062 45.1832 6.50731 45.6345 6.69166 46.0362C6.87601 46.4378 7.18773 46.7675 7.57849 46.974C8.57218 47.4054 9.65547 47.5902 10.736 47.5126C12.2062 47.5129 13.6805 47.447 15.1457 47.3501C27.0032 46.5947 38.5883 43.4652 49.2133 38.1472C53.9218 35.7819 58.8941 32.6785 60.9317 27.5638C61.852 25.3975 62.0498 22.9923 61.4958 20.7047C61.2075 19.6648 60.6986 18.6992 60.0037 17.8737C59.3087 17.0481 58.4441 16.382 57.4686 15.9206C56.5714 15.4485 55.5722 15.2034 54.5584 15.2069C53.5446 15.2104 52.547 15.4623 51.6531 15.9406C51.4014 16.0572 51.114 16.0702 50.8528 15.9768C50.5916 15.8835 50.3776 15.6913 50.2568 15.4416C50.1438 15.19 50.1325 14.9045 50.225 14.6447C50.3176 14.3849 50.5069 14.1709 50.7535 14.0474Z" fill="currentcolor"></path><path d="M72.9738 29.8023C75.5721 30.2002 78.1256 30.8498 80.5982 31.7421C83.0606 32.6374 85.4351 33.7582 87.6915 35.0901C89.8902 36.3823 91.9665 37.8722 93.8947 39.5414C95.8879 41.2573 97.7184 43.1536 99.3628 45.2063C100.999 47.2581 102.433 49.4629 103.645 51.7901C103.789 52.068 103.93 52.3478 104.068 52.6294C104.187 52.8812 104.202 53.1701 104.108 53.4325C104.014 53.6948 103.82 53.9092 103.568 54.0284C103.316 54.1476 103.027 54.1619 102.765 54.0682C102.503 53.9744 102.288 53.7803 102.169 53.5284C101.484 52.1301 100.716 50.774 99.8692 49.4676L100.022 49.7031C98.4889 47.3484 96.7161 45.159 94.7315 43.1702C94.1695 42.6067 93.5922 42.0598 92.9994 41.5294L93.2023 41.7101C91.1051 39.8361 88.8255 38.177 86.3976 36.7576C85.7111 36.3564 85.0138 35.9747 84.3058 35.6125L84.5448 35.734C82.1709 34.5242 79.6836 33.5511 77.1188 32.8291C76.394 32.6261 75.6638 32.4438 74.9282 32.2821L75.1901 32.3396C74.396 32.1665 73.5973 32.0181 72.7941 31.8943C72.5234 31.8643 72.2731 31.7364 72.0902 31.5346C71.9082 31.3191 71.8186 31.0406 71.8406 30.7594C71.8682 30.4837 72.0023 30.2297 72.2145 30.0515C72.4267 29.8733 72.7001 29.785 72.9764 29.8055" fill="currentcolor"></path><path d="M95.3268 89.4085C94.5135 90.2785 93.6302 91.0802 92.6858 91.8057C91.6746 92.5819 90.6041 93.2775 89.484 93.886C88.4374 94.4552 87.3479 94.9417 86.2255 95.3412C85.026 95.7728 83.7945 96.1096 82.5424 96.3487C81.2919 96.5778 80.0248 96.7049 78.7537 96.7287C78.6075 96.7315 78.4607 96.7332 78.3133 96.7336C78.0409 96.7094 77.7886 96.5804 77.6094 96.3739C77.4274 96.1584 77.3377 95.8799 77.3598 95.5987C77.3846 95.3267 77.5136 95.0748 77.7199 94.8957L77.9564 94.7428C78.1244 94.6629 78.3107 94.6294 78.496 94.6457C78.7908 94.6449 79.0832 94.6389 79.3731 94.6278L79.1016 94.6389C80.6311 94.5706 82.1494 94.3438 83.632 93.9621C84.0538 93.8539 84.4723 93.7332 84.8875 93.6001L84.6194 93.6861C86.1266 93.2042 87.5799 92.5673 88.9558 91.7859C89.3437 91.5654 89.7245 91.3339 90.0982 91.0913L89.8617 91.2442C91.0268 90.4884 92.1182 89.6248 93.1216 88.6647C93.4068 88.391 93.6843 88.1098 93.9543 87.8211C94.0577 87.7237 94.1855 87.656 94.3242 87.625C94.4521 87.5709 94.5922 87.5519 94.7299 87.5701C94.8671 87.5819 95.0006 87.6208 95.1227 87.6843C95.2449 87.7477 95.3534 87.8346 95.4419 87.94C95.5305 88.0454 95.5974 88.1671 95.6388 88.2984C95.6802 88.4297 95.6955 88.568 95.6835 88.7051L95.6259 88.967C95.5648 89.1377 95.4606 89.2897 95.3233 89.408" fill="currentcolor"></path></g></svg>