
<svg xmlns="http://www.w3.org/2000/svg" xmlns:xlink="http://www.w3.org/1999/xlink" x="0px" y="0px"
	 viewBox="0 0 100 100" style="enable-background:new 0 0 100 100;" xml:space="preserve">
<style type="text/css">
	.wdt-cus-tel-icon{fill:#FFA028;}
</style>
<g>
	<path class="wdt-cus-tel-icon" d="M29.9,69.3V9c0-1.4-0.6-2.8-1.6-3.8c-1-1-2.4-1.6-3.8-1.6H12.9c-1.4,0-2.8,0.6-3.8,1.6c-1,1-1.6,2.4-1.6,3.8
		v60.3c0,1.4,0.6,2.8,1.6,3.8c1,1,2.4,1.6,3.8,1.6h11.6c1.4,0,2.8-0.6,3.8-1.6S29.9,70.8,29.9,69.3z"/>
	<path d="M86.4,3.6H34.6C35.5,5.2,36,7.1,36,9v60.3c0,1.9-0.5,3.8-1.4,5.4h26.5v10c0,1.5-0.6,2.9-1.6,3.9c-1,1-2.5,1.6-3.9,1.6H27.3
		c-1.5,0-2.9-0.6-3.9-1.6c-1-1-1.6-2.5-1.6-3.9v-4h-6.1v4c0,3.1,1.2,6,3.4,8.2c2.2,2.2,5.1,3.4,8.2,3.4h28.2c3.1,0,6-1.2,8.2-3.4
		c2.2-2.2,3.4-5.1,3.4-8.2v-10h19.3c1.6,0,3.1-0.6,4.3-1.8c1.1-1.1,1.8-2.7,1.8-4.3v-59c0-0.8-0.2-1.6-0.5-2.3
		c-0.3-0.7-0.7-1.4-1.3-2c-0.6-0.6-1.2-1-2-1.3C88,3.7,87.2,3.6,86.4,3.6z M52.6,65c-0.7,0-1.4-0.2-1.9-0.6c-0.6-0.4-1-0.9-1.3-1.6
		c-0.3-0.6-0.3-1.3-0.2-2c0.1-0.7,0.5-1.3,0.9-1.8c0.5-0.5,1.1-0.8,1.8-0.9c0.7-0.1,1.4-0.1,2,0.2c0.6,0.3,1.2,0.7,1.5,1.3
		c0.4,0.6,0.6,1.2,0.6,1.9c0,0.9-0.4,1.8-1,2.4C54.4,64.6,53.5,65,52.6,65z M52.6,53.7c-0.7,0-1.4-0.2-1.9-0.6
		c-0.6-0.4-1-0.9-1.3-1.6c-0.3-0.6-0.3-1.3-0.2-2c0.1-0.7,0.5-1.3,0.9-1.8c0.5-0.5,1.1-0.8,1.8-0.9c0.7-0.1,1.4-0.1,2,0.2
		c0.6,0.3,1.2,0.7,1.5,1.3c0.4,0.6,0.6,1.2,0.6,1.9c0,0.9-0.4,1.8-1,2.4C54.4,53.4,53.5,53.7,52.6,53.7 M52.6,42.5
		c-0.7,0-1.4-0.2-1.9-0.6c-0.6-0.4-1-0.9-1.3-1.6c-0.3-0.6-0.3-1.3-0.2-2c0.1-0.7,0.5-1.3,0.9-1.8c0.5-0.5,1.1-0.8,1.8-0.9
		c0.7-0.1,1.4-0.1,2,0.2c0.6,0.3,1.2,0.7,1.5,1.3c0.4,0.6,0.6,1.2,0.6,1.9c0,0.9-0.4,1.8-1,2.4C54.3,42.2,53.5,42.5,52.6,42.5
		 M64.1,65c-0.7,0-1.4-0.2-1.9-0.6c-0.6-0.4-1-0.9-1.3-1.6c-0.3-0.6-0.3-1.3-0.2-2c0.1-0.7,0.5-1.3,0.9-1.8c0.5-0.5,1.1-0.8,1.8-0.9
		c0.7-0.1,1.4-0.1,2,0.2c0.6,0.3,1.2,0.7,1.5,1.3c0.4,0.6,0.6,1.2,0.6,1.9c0,0.9-0.4,1.8-1,2.4C65.9,64.6,65,65,64.1,65z M64.1,53.7
		c-0.7,0-1.4-0.2-1.9-0.6c-0.6-0.4-1-0.9-1.3-1.6c-0.3-0.6-0.3-1.3-0.2-2c0.1-0.7,0.5-1.3,0.9-1.8s1.1-0.8,1.8-0.9
		c0.7-0.1,1.4-0.1,2,0.2s1.2,0.7,1.5,1.3c0.4,0.6,0.6,1.2,0.6,1.9c0,0.9-0.4,1.8-1,2.4C65.9,53.4,65,53.7,64.1,53.7 M64.1,42.5
		c-0.7,0-1.4-0.2-1.9-0.6c-0.6-0.4-1-0.9-1.3-1.6c-0.3-0.6-0.3-1.3-0.2-2c0.1-0.7,0.5-1.3,0.9-1.8c0.5-0.5,1.1-0.8,1.8-0.9
		c0.7-0.1,1.4-0.1,2,0.2c0.6,0.3,1.2,0.7,1.5,1.3c0.4,0.6,0.6,1.2,0.6,1.9c0,0.9-0.4,1.8-1,2.4C65.9,42.2,65,42.5,64.1,42.5
		 M75.6,65c-0.7,0-1.4-0.2-1.9-0.6c-0.6-0.4-1-0.9-1.3-1.6c-0.3-0.6-0.3-1.3-0.2-2c0.1-0.7,0.5-1.3,0.9-1.8c0.5-0.5,1.1-0.8,1.8-0.9
		c0.7-0.1,1.4-0.1,2,0.2c0.6,0.3,1.2,0.7,1.5,1.3c0.4,0.6,0.6,1.2,0.6,1.9c0,0.9-0.4,1.8-1,2.4C77.4,64.6,76.5,65,75.6,65
		 M75.6,53.7c-0.7,0-1.4-0.2-1.9-0.6c-0.6-0.4-1-0.9-1.3-1.6c-0.3-0.6-0.3-1.3-0.2-2c0.1-0.7,0.5-1.3,0.9-1.8
		c0.5-0.5,1.1-0.8,1.8-0.9c0.7-0.1,1.4-0.1,2,0.2c0.6,0.3,1.2,0.7,1.5,1.3c0.4,0.6,0.6,1.2,0.6,1.9c0,0.9-0.4,1.8-1,2.4
		C77.4,53.4,76.5,53.7,75.6,53.7 M75.6,42.5c-0.7,0-1.4-0.2-1.9-0.6c-0.6-0.4-1-0.9-1.3-1.6c-0.3-0.6-0.3-1.3-0.2-2
		c0.1-0.7,0.5-1.3,0.9-1.8s1.1-0.8,1.8-0.9c0.7-0.1,1.4-0.1,2,0.2c0.6,0.3,1.2,0.7,1.5,1.3c0.4,0.6,0.6,1.2,0.6,1.9
		c0,0.9-0.4,1.8-1,2.4C77.4,42.2,76.5,42.5,75.6,42.5 M81.7,27c0,0.3-0.1,0.7-0.2,1s-0.3,0.6-0.6,0.8c-0.2,0.2-0.5,0.4-0.8,0.6
		c-0.3,0.1-0.7,0.2-1,0.2H49c-0.3,0-0.7-0.1-1-0.2c-0.3-0.1-0.6-0.3-0.8-0.6c-0.2-0.2-0.4-0.5-0.6-0.8c-0.1-0.3-0.2-0.7-0.2-1V17
		c0-0.7,0.3-1.4,0.8-1.8c0.5-0.5,1.1-0.8,1.8-0.8h30.1c0.7,0,1.3,0.3,1.8,0.8c0.5,0.5,0.8,1.1,0.8,1.8V27z"/>
</g>
</svg>
