<svg xmlns="http://www.w3.org/2000/svg" viewBox="0 0 100 100"><path d="M65.19,31.14c-.23,1.33-.49,2.65-.8,4A11.9,11.9,0,0,1,63.08,39c-.06.07-.2.08-.22,0a13.11,13.11,0,0,1,.28-3.84c.2-1.33.41-2.67.61-4,.42-2.73.51-5.61,1.27-8.28a.56.56,0,0,1,1.09.13C66.3,25.64,65.64,28.48,65.19,31.14Z"></path><path d="M74,23.44A34.61,34.61,0,0,1,72,30c-.38,1.12-.74,2.26-1.15,3.37-.28.77-.53,2-1.22,2.45a.11.11,0,0,1-.16-.05c-.35-.74.06-1.92.24-2.69.26-1.16.6-2.29.95-3.43.65-2.14,1.23-4.59,2.49-6.47C73.36,22.85,74.07,22.92,74,23.44Z"></path><path d="M76.85,16.47a6.34,6.34,0,0,1-.76,2.42,20.35,20.35,0,0,1-1.28,2.61c0,.1-.24.07-.23-.06a14,14,0,0,1,.52-2.8,5.68,5.68,0,0,1,1-2.47A.43.43,0,0,1,76.85,16.47Z"></path><path d="M84.05,28.79C82,31,79.72,33.11,77.55,35.26c-1.09,1.07-2.16,2.16-3.25,3.24a24.76,24.76,0,0,1-3.17,2.89c-.11.07-.2,0-.14-.15a20.24,20.24,0,0,1,2.77-3.52c1-1.15,2.06-2.26,3.12-3.36a69.09,69.09,0,0,1,6.66-6.26C84,27.74,84.41,28.4,84.05,28.79Z"></path><path d="M87.45,38.06A37.94,37.94,0,0,1,81,41.58c-1.13.55-2.28,1.07-3.42,1.6-.66.31-1.66,1-2.36.67a.11.11,0,0,1,0-.12c.21-.86,1.61-1.33,2.32-1.72,1.05-.58,2.1-1.17,3.16-1.73a37.42,37.42,0,0,1,6.51-3.05h0C87.66,37.07,87.84,37.77,87.45,38.06Z"></path><path d="M92.55,37a1.37,1.37,0,0,1-2.14-.28,1.43,1.43,0,0,1,.67-2.06,1,1,0,0,1,.6,0,1.39,1.39,0,0,1,.75.18A1.37,1.37,0,0,1,92.55,37Z"></path><path d="M89.26,48.74c-2.41.51-4.84.9-7.29,1.22-1.25.17-2.5.34-3.75.49a7.76,7.76,0,0,1-3.18.07A.3.3,0,0,1,75,50a8.59,8.59,0,0,1,3.4-.87l3.57-.55c2.39-.37,4.78-.66,7.19-.85h0C89.73,47.67,89.83,48.62,89.26,48.74Z"></path><path d="M97.59,47.81c-1.06,0-2.1,0-3.16,0-.71,0-1.86.15-2.44-.34a.16.16,0,0,1,0-.22c.52-.61,1.84-.53,2.58-.57A11.75,11.75,0,0,1,97.7,47C98.18,47.1,98,47.79,97.59,47.81Z"></path><path d="M44,48.41l-3,4.17a5.24,5.24,0,0,0-1,2.78l-.12,3a2.71,2.71,0,0,1-5.42-.16L34.53,55a5.73,5.73,0,0,0-.38-2.2l-1.63-4.23a2.61,2.61,0,0,1,2.12-3.53l1.16-.15A1.38,1.38,0,0,1,37.33,46a1.37,1.37,0,0,0,2.53.45l.47-.8a1.72,1.72,0,0,1,1.6-.85l.34,0A2.26,2.26,0,0,1,44,48.41Z"></path><path d="M30.91,47.89c0,.55,0,1.17-.07,1.84s-.15,1.35-.27,2.06-.28,1.45-.47,2.18a14.42,14.42,0,0,1-.72,2.1,11.91,11.91,0,0,1-1,1.91,7.56,7.56,0,0,1-1.32,1.54,5.57,5.57,0,0,1-1.66,1,5.33,5.33,0,0,1-2,.38,5.6,5.6,0,0,1-2.29-.43,5.18,5.18,0,0,1-1.65-1.12,6.33,6.33,0,0,1-1.14-1.67,11.18,11.18,0,0,1-.69-2,15.58,15.58,0,0,1-.35-2.17c-.06-.75-.09-1.46-.09-2.14a29.88,29.88,0,0,1,.16-3.14c0-.3.06-.59.1-.89A2.53,2.53,0,0,1,20,45.18a2.73,2.73,0,0,1,2.57,3.11c0,.19-.05.38-.07.57a28.44,28.44,0,0,0-.22,3.58c0,.13,0,.32,0,.57s0,.53.07.85.07.62.13,1a5.63,5.63,0,0,0,.23.9,2.71,2.71,0,0,0,.35.66.66.66,0,0,0,.5.26.74.74,0,0,0,.59-.31,2.6,2.6,0,0,0,.45-.83A7.34,7.34,0,0,0,25,54.3c.09-.45.18-.92.25-1.41s.12-1,.16-1.46.08-1,.1-1.37.05-.79.05-1.11,0-.56,0-.72c0-.59,0-1.17,0-1.75a1.7,1.7,0,0,1,1.67-1.75h1.11a2.54,2.54,0,0,1,2.58,2.45Z"></path><path d="M16.51,54.86a4,4,0,0,0-1.72-2.09l-.23-.13a.58.58,0,0,1,0-.87,3.37,3.37,0,0,0,.84-.75,3.14,3.14,0,0,0,.53-1,3.72,3.72,0,0,0,.18-1.17,4.35,4.35,0,0,0-.29-1.68A3.8,3.8,0,0,0,15,45.9,4.17,4.17,0,0,0,13.87,45a7.19,7.19,0,0,0-1.44-.62,10.07,10.07,0,0,0-1.6-.33,13.16,13.16,0,0,0-1.65-.1A12.07,12.07,0,0,0,7.73,44a13.19,13.19,0,0,0-1.5.21,15.09,15.09,0,0,0-1.48.34,2,2,0,0,0-1.36,1.91L3.41,58A2.05,2.05,0,0,0,4.8,60a14.78,14.78,0,0,0,1.5.32c.5.08,1,.14,1.51.17s1,.05,1.49.05,1,0,1.55-.05a11.63,11.63,0,0,0,1.66-.23,9.77,9.77,0,0,0,1.59-.45A5.43,5.43,0,0,0,15.46,59a3.44,3.44,0,0,0,.93-1.14,3.34,3.34,0,0,0,.35-1.6A4.34,4.34,0,0,0,16.51,54.86Zm-5.78.72a1.1,1.1,0,0,1-.41.42,1.76,1.76,0,0,1-.54.2,3.49,3.49,0,0,1-.53,0,1.84,1.84,0,0,1-.33,0,.42.42,0,0,1-.33-.41l0-1.56a.68.68,0,0,1,.65-.71,3.49,3.49,0,0,1,.53.05,1.42,1.42,0,0,1,.53.2,1.16,1.16,0,0,1,.4.42,1.22,1.22,0,0,1,.18.69A1.14,1.14,0,0,1,10.73,55.58Zm-.08-4.88a1.49,1.49,0,0,1-.62.45,2.67,2.67,0,0,1-.75.19.58.58,0,0,1-.63-.61l0-1.38a.65.65,0,0,1,.44-.61,1.76,1.76,0,0,1,.45-.07,1.6,1.6,0,0,1,.41.07,1.3,1.3,0,0,1,.44.22,1.07,1.07,0,0,1,.35.38,1,1,0,0,1,.14.54A1.22,1.22,0,0,1,10.65,50.7Z"></path><path d="M42.59,69.21v.59a1.93,1.93,0,0,1-1.85,1.88,1.9,1.9,0,0,0-1.83,1.76l-.58,7.25a2.57,2.57,0,0,1-5.14-.21l0-6.74a1.64,1.64,0,0,0-1.73-1.64,1.65,1.65,0,0,1-1.73-1.68l0-1.16a2.7,2.7,0,0,1,2.7-2.64l7.56,0A2.55,2.55,0,0,1,42.59,69.21Z"></path><path d="M29.57,68.79a2.47,2.47,0,0,1-2.35,2.31L25,71.21a.76.76,0,0,0,0,1.52h1a1.63,1.63,0,0,1,1.63,1.75v.24a1.86,1.86,0,0,1-1.79,1.72l-1.11,0a.86.86,0,0,0-.84.81.88.88,0,0,0,.87.93h2a2,2,0,0,1,2,2.09l0,.49a2.76,2.76,0,0,1-2.69,2.62l-2.27.06a5.18,5.18,0,0,1-5.29-5.3l.14-6.34A5.36,5.36,0,0,1,24,66.59H27.5A2.08,2.08,0,0,1,29.57,68.79Z"></path><path d="M17.52,79.42a3.4,3.4,0,0,1-1.32,3,9.21,9.21,0,0,1-1.72.86,11.22,11.22,0,0,1-1.89.51,10.08,10.08,0,0,1-1.84.17,7.79,7.79,0,0,1-3.12-.61A7.51,7.51,0,0,1,5.18,81.7a7.88,7.88,0,0,1-1.62-2.54A8.64,8.64,0,0,1,3,76a11.13,11.13,0,0,1,.29-2.52,11,11,0,0,1,.83-2.32,9.8,9.8,0,0,1,1.33-2,8.36,8.36,0,0,1,6.46-3c.33,0,.69,0,1.07,0a8.51,8.51,0,0,1,1.13.14,8.17,8.17,0,0,1,1.11.27,1.42,1.42,0,0,1,.9,1.51l-.14,2a1.26,1.26,0,0,1-1.46,1.06,10.43,10.43,0,0,0-1.35-.09,5.27,5.27,0,0,0-1.75.29,4.31,4.31,0,0,0-1.41.83,3.83,3.83,0,0,0-.94,1.32,4.16,4.16,0,0,0-.35,1.76,4.27,4.27,0,0,0,.16,1.19,3.16,3.16,0,0,0,.49,1,2.65,2.65,0,0,0,.82.71,2.45,2.45,0,0,0,1.16.27,4.18,4.18,0,0,0,.91-.11,2.1,2.1,0,0,0,.59-.25.53.53,0,0,0,.24-.43.63.63,0,0,0-.62-.66H11.7a1.36,1.36,0,0,1-1.34-1.41l0-.47a1.79,1.79,0,0,1,1.75-1.73l1.79,0a3.45,3.45,0,0,1,3.56,3.38Z"></path><path d="M66.18,55.33l-.94,22.83a5.82,5.82,0,0,1-11.63-.39L54,61.69a1.62,1.62,0,0,0-2.54-1.38,1.63,1.63,0,0,1-2.41-.69L47.47,56A4.94,4.94,0,0,1,49,50.05L52,47.84a8.9,8.9,0,0,1,14.2,7.49Z"></path></svg>