<svg xmlns="http://www.w3.org/2000/svg" xmlns:xlink="http://www.w3.org/1999/xlink" x="0px" y="0px" viewBox="0 0 50 50" style="enable-background:new 0 0 50 50;" xml:space="preserve"><path d="M38.3,28.1c-0.1,0-0.1,0-0.2,0l-2.8-0.3c-1.1-0.1-2.1-0.1-3.2,0l-2.8,0.3c-0.4,0.1-1-0.1-1.3-0.4c-0.3-0.3-0.6-0.8-0.6-1.2 c0-1.3,0.7-2.6,1.8-3.5c0.9-0.7,1.8-1.5,2.4-2.4c0.4-0.7,1.2-1.1,2.1-1.1c0.9,0,1.7,0.4,2.1,1.1c0.7,1,1.4,1.8,2.4,2.4 c1.1,0.8,1.8,2.1,1.8,3.5c0,0.4-0.2,1-0.6,1.2C39,27.9,38.7,28.1,38.3,28.1L38.3,28.1z M33.7,20.8c-0.3,0-0.8,0.2-1,0.6 c-0.8,1.1-1.7,2-2.8,2.8c-0.8,0.6-1.2,1.4-1.2,2.4c0,0.1,0.1,0.2,0.1,0.2s0.1,0.1,0.2,0.1l2.8-0.3c1.2-0.1,2.4-0.1,3.5,0l2.8,0.3 c0.1,0,0.2,0,0.2-0.1c0,0,0.1-0.1,0.1-0.2c0-0.9-0.4-1.9-1.2-2.4c-1.1-0.8-2-1.8-2.8-2.8C34.4,21,34.1,20.8,33.7,20.8z"></path><path d="M29.1,28.4c-0.5,0-1-0.3-1.3-0.6c-0.4-0.4-0.6-0.9-0.6-1.4c0-1.4,0.7-2.8,1.9-3.7c0.9-0.7,1.7-1.5,2.4-2.4 c0.5-0.8,1.4-1.2,2.3-1.2c0.9,0,1.8,0.5,2.3,1.2c0.6,1,1.4,1.7,2.3,2.3c1.2,0.8,1.9,2.2,1.9,3.8c0,0.5-0.2,1.2-0.7,1.4l-0.2,0.1 c-0.4,0.2-0.7,0.4-1.1,0.4H38l-2.8-0.3c-1.1-0.1-2-0.1-3.1,0l-2.7,0.3C29.3,28.4,29.2,28.4,29.1,28.4z M33.7,19.7 c-0.8,0-1.5,0.4-1.9,1c-0.7,0.9-1.6,1.8-2.5,2.5c-1,0.8-1.7,2.1-1.7,3.3c0,0.3,0.2,0.7,0.5,1c0.3,0.3,0.7,0.4,1.1,0.4l2.8-0.3 c1.1-0.1,2.1-0.1,3.3,0l2.8,0.3l0.2,0c0.3,0,0.5-0.1,0.9-0.3l0.2-0.1c0.2-0.1,0.4-0.6,0.4-1c0-1.3-0.6-2.6-1.6-3.3 c-1-0.7-1.8-1.5-2.5-2.5C35.2,20.1,34.5,19.7,33.7,19.7z M38.2,27.1l-2.8-0.3c-1.1-0.1-2.3-0.1-3.5,0l-2.7,0.3c0,0,0,0,0,0 c-0.2,0-0.4-0.1-0.4-0.2c0,0-0.2-0.2-0.2-0.4c0-1.1,0.5-2,1.3-2.6c1.1-0.8,1.9-1.6,2.7-2.7c0.3-0.4,0.8-0.7,1.2-0.7 c0.4,0,0.9,0.3,1,0.7c0.6,0.8,1.5,1.9,2.7,2.7c0.8,0.6,1.3,1.6,1.3,2.6c0,0.1-0.1,0.3-0.1,0.3C38.6,27,38.5,27.1,38.2,27.1z  M33.7,21c-0.2,0-0.6,0.2-0.8,0.4c-0.8,1.1-1.7,2-2.8,2.8c-0.7,0.5-1.1,1.3-1.1,2.2l0.1,0.1l2.7-0.3c1.2-0.1,2.5-0.1,3.6,0l2.7,0.3 l0,0c0-0.9-0.4-1.8-1.1-2.2c-1.2-0.9-2.1-1.9-2.8-2.8l0-0.1C34.2,21.2,34,21,33.7,21z"></path><path d="M36.5,19.1c-0.3,0-0.7-0.1-0.9-0.2c-0.7-0.3-1.1-1-1.3-1.8c-0.1-0.8-0.1-1.5,0.3-2.3c0.3-0.8,0.9-1.4,1.5-1.8 c0.8-0.4,1.5-0.4,2.2-0.1c0.7,0.3,1.1,1,1.3,1.8c0.1,0.8,0.1,1.5-0.3,2.3c-0.3,0.8-0.9,1.4-1.5,1.8C37.3,19,36.8,19.1,36.5,19.1 L36.5,19.1z M37.4,14c-0.2,0-0.4,0.1-0.7,0.2c-0.4,0.2-0.8,0.7-1,1.1c-0.2,0.6-0.3,1-0.2,1.5c0,0.2,0.2,0.7,0.6,0.8 c0.3,0.2,0.8,0,1-0.1c0.4-0.2,0.8-0.7,1-1.1c0.2-0.6,0.3-1,0.2-1.5c0-0.2-0.2-0.7-0.6-0.8C37.6,14,37.5,14,37.4,14L37.4,14z"></path><path d="M36.5,19.4c-0.5,0-0.9-0.2-1-0.2c-0.7-0.3-1.2-1-1.5-1.9c-0.1-0.8-0.2-1.6,0.4-2.5c0.4-0.8,1-1.5,1.7-1.9 c0.8-0.5,1.7-0.5,2.4-0.1c0.7,0.3,1.2,1,1.5,1.9c0.1,0.8,0.2,1.6-0.4,2.5c-0.4,0.8-1,1.5-1.7,1.9C37.3,19.3,36.9,19.4,36.5,19.4z  M37.4,13c-0.4,0-0.7,0.1-1.1,0.3c-0.6,0.3-1.1,0.9-1.4,1.6c-0.4,0.8-0.4,1.5-0.3,2.2c0.2,0.7,0.6,1.3,1.2,1.6 c0.2,0.1,0.5,0.2,0.8,0.2c0.3,0,0.7-0.1,1.2-0.3c0.6-0.3,1.1-0.9,1.4-1.6c0.4-0.8,0.4-1.5,0.3-2.2c-0.2-0.7-0.6-1.3-1.2-1.6 C38,13,37.7,13,37.4,13z M36.4,18c-0.2,0-0.3,0-0.4-0.1c-0.4-0.2-0.7-0.7-0.7-1c-0.1-0.6,0-1.1,0.2-1.6c0.2-0.4,0.6-1,1.1-1.2 c0.2-0.1,0.5-0.2,0.8-0.2c0.1,0,0.3,0,0.5,0.1c0.4,0.2,0.7,0.7,0.7,1c0.1,0.6,0,1.1-0.2,1.6c-0.2,0.4-0.6,1-1.1,1.2 C37,17.9,36.7,18,36.4,18z M37.4,14.3c-0.2,0-0.3,0.1-0.5,0.2c-0.3,0.2-0.6,0.5-0.9,1c-0.2,0.5-0.3,0.9-0.2,1.4 c0,0.2,0.2,0.5,0.4,0.6l0.1,0c0.2,0.1,0.5,0,0.7-0.1c0.3-0.2,0.6-0.5,0.9-1c0.2-0.5,0.3-0.9,0.2-1.4c0-0.2-0.2-0.5-0.4-0.6l-0.1-0.1 C37.5,14.3,37.5,14.3,37.4,14.3z"></path><path d="M31,19.1c-1.1,0-2.3-0.8-2.9-2.1c-0.8-1.7-0.3-3.5,1-4.1c0.7-0.3,1.4-0.2,2.2,0.1c0.7,0.3,1.2,1,1.5,1.8 c0.3,0.8,0.4,1.7,0.3,2.3c-0.2,0.8-0.7,1.4-1.3,1.8C31.5,19,31.3,19.1,31,19.1L31,19.1z M29.3,16.5c0.4,1,1.3,1.5,2,1.2 c0.3-0.2,0.6-0.6,0.6-0.8c0.1-0.4,0-1-0.2-1.5s-0.6-0.9-1-1.1c-0.2-0.1-0.6-0.2-1-0.1C29.1,14.4,28.9,15.5,29.3,16.5z"></path><path d="M31,19.4c-1.3,0-2.6-0.9-3.1-2.3c-0.5-1-0.5-2.1-0.2-3c0.3-0.7,0.7-1.2,1.3-1.4c0.7-0.3,1.5-0.3,2.4,0.1 c0.7,0.4,1.3,1,1.7,1.9c0.3,0.8,0.5,1.7,0.4,2.5c-0.3,0.9-0.8,1.6-1.5,2l-0.2,0.1C31.5,19.3,31.3,19.4,31,19.4z M30,13 c-0.3,0-0.5,0.1-0.8,0.2c-0.5,0.2-0.8,0.6-1,1.1c-0.3,0.8-0.2,1.7,0.2,2.6c0.5,1.1,1.6,1.9,2.6,1.9c0.2,0,0.4-0.1,0.6-0.1l0.2-0.1 c0.5-0.3,0.9-0.8,1.1-1.6c0.1-0.6,0-1.4-0.3-2.1c-0.3-0.7-0.8-1.3-1.4-1.6C30.8,13.1,30.4,13,30,13z M30.9,18c-0.2,0-0.3,0-0.5-0.1 c-0.5-0.2-1-0.7-1.3-1.4l0,0c-0.3-0.7-0.3-1.5-0.1-2c0.1-0.3,0.3-0.5,0.6-0.6c0.4-0.1,0.8-0.1,1.2,0.1c0.5,0.3,0.9,0.7,1.1,1.2 c0.3,0.7,0.3,1.2,0.2,1.7c0,0.3-0.3,0.7-0.7,0.9C31.3,18,31.1,18,30.9,18z M30,14.4c-0.1,0-0.2,0-0.3,0c-0.1,0-0.2,0.2-0.2,0.3 c-0.2,0.4-0.1,1.1,0.1,1.6l0,0c0.2,0.5,0.6,0.9,1,1.1c0.2,0.1,0.4,0.1,0.6,0c0.3-0.2,0.4-0.4,0.4-0.5c0.1-0.4,0-0.9-0.2-1.4 c-0.2-0.5-0.4-0.8-0.9-1C30.4,14.4,30.2,14.4,30,14.4z"></path><path d="M40.6,22.6c-0.3,0-0.6-0.1-0.8-0.2c-1.2-0.6-1.7-2.1-0.9-3.6c0.3-0.7,0.8-1.2,1.4-1.5c0.7-0.3,1.3-0.4,2-0.1 c0.6,0.2,1,0.9,1.2,1.5c0.1,0.7,0,1.4-0.2,2.1c-0.3,0.7-0.8,1.2-1.4,1.5C41.3,22.5,40.9,22.6,40.6,22.6L40.6,22.6z M41.3,18.3 c-0.2,0-0.3,0.1-0.4,0.1c-0.3,0.2-0.7,0.6-0.8,0.9c-0.3,0.8-0.2,1.5,0.2,1.8c0.2,0.1,0.6,0,0.7-0.1c0.3-0.2,0.7-0.6,0.8-0.9 c0.2-0.4,0.2-0.9,0.1-1.2C41.9,18.7,41.8,18.4,41.3,18.3C41.5,18.3,41.5,18.3,41.3,18.3L41.3,18.3z"></path><path d="M40.6,22.9c-0.4,0-0.7-0.1-0.9-0.2c-0.6-0.3-1-0.8-1.3-1.4c-0.3-0.8-0.2-1.7,0.3-2.6c0.4-0.8,0.9-1.3,1.6-1.7 c0.8-0.4,1.6-0.4,2.2-0.1c0.7,0.3,1.1,1.1,1.4,1.7c0.1,0.7,0,1.5-0.2,2.3c-0.4,0.8-0.9,1.4-1.6,1.7C41.4,22.8,40.9,22.9,40.6,22.9z  M39.6,18.2c-0.2,0.2-0.3,0.4-0.4,0.7c-0.4,0.8-0.5,1.5-0.2,2.2c0.2,0.5,0.5,0.9,1,1.1c0.2,0.1,0.4,0.2,0.7,0.2 c0.3,0,0.7-0.1,1.2-0.3c0.5-0.3,0.9-0.7,1.3-1.4c0.2-0.6,0.3-1.4,0.2-1.9c-0.2-0.6-0.6-1.2-1-1.3c-0.5-0.3-1.1-0.2-1.8,0.1 c-0.3,0.1-0.5,0.3-0.8,0.6l1.7,0c0.6,0.2,0.7,0.5,0.7,0.8c0.1,0.4,0.1,0.9-0.1,1.4c-0.1,0.3-0.4,0.7-0.9,1c-0.1,0.1-0.6,0.3-0.9,0.1 c-0.6-0.3-0.7-1.2-0.3-2.1c0.1-0.3,0.3-0.6,0.6-0.8L39.6,18.2z M41,18.7c-0.3,0.2-0.5,0.5-0.6,0.7c-0.3,0.7-0.2,1.3,0.1,1.4 c0.1,0,0.3,0,0.3-0.1c0.4-0.3,0.6-0.5,0.7-0.8c0.2-0.4,0.2-0.7,0.1-1l0-0.1c0-0.1,0-0.2-0.3-0.3c-0.1,0-0.1,0-0.2,0 C41.1,18.7,41.1,18.7,41,18.7z"></path><path d="M26.8,22.6c-1,0-2-0.7-2.5-1.9c-0.7-1.4-0.2-3.1,0.9-3.6c1.2-0.6,2.6,0.2,3.3,1.7c0.3,0.7,0.4,1.4,0.2,2.1 c-0.1,0.7-0.6,1.3-1.2,1.5C27.4,22.5,27.1,22.6,26.8,22.6L26.8,22.6z M25.6,20.2c0.3,0.8,1.1,1.2,1.5,1c0.2-0.1,0.3-0.4,0.4-0.6 c0.1-0.3,0-0.8-0.1-1.2c-0.3-0.8-1.1-1.2-1.5-1C25.4,18.6,25.3,19.3,25.6,20.2z"></path><path d="M26.8,22.9c-1.1,0-2.2-0.8-2.8-2c-0.7-1.5-0.2-3.4,1-4c1.3-0.6,2.9,0.2,3.7,1.8c0.4,0.8,0.5,1.6,0.2,2.3 c-0.1,0.8-0.6,1.4-1.3,1.7C27.4,22.8,27.1,22.9,26.8,22.9z M26,17.2c-0.2,0-0.5,0-0.7,0.2c-1,0.5-1.3,2-0.7,3.3 c0.5,1.1,1.4,1.7,2.3,1.7c0.2,0,0.4-0.1,0.5-0.1l0.1-0.1c0.6-0.2,0.9-0.8,1-1.3c0.2-0.6,0.1-1.3-0.2-1.9 C27.7,17.9,26.8,17.2,26,17.2z M26.9,21.5c-0.1,0-0.3,0-0.4-0.1c-0.5-0.2-0.9-0.6-1.1-1.1l0,0c-0.3-0.7-0.3-1.3,0-1.7 c0.1-0.2,0.3-0.4,0.5-0.4c0.2-0.1,0.5-0.1,0.8,0c0.5,0.2,0.9,0.6,1.1,1.1c0.1,0.5,0.3,1,0.1,1.4l-0.1,0.1c0,0-0.1,0.1-0.1,0.1 c-0.1,0.2-0.2,0.4-0.4,0.5C27.1,21.5,27,21.5,26.9,21.5z M25.8,20.1c0.2,0.4,0.5,0.7,0.8,0.8c0.1,0.1,0.3,0.1,0.4,0 c0.1,0,0.1-0.2,0.2-0.3c0-0.1,0.1-0.1,0.1-0.2c0.1-0.3,0-0.6-0.1-1c-0.2-0.4-0.5-0.7-0.8-0.8c-0.1-0.1-0.3-0.1-0.4,0l-0.1,0 c-0.1,0-0.2,0.1-0.2,0.2C25.7,19.1,25.6,19.5,25.8,20.1z"></path><path d="M0.9,44c-0.1,0-0.2,0-0.2,0c-0.3-0.1-0.6-0.6-0.3-0.9l4.4-10.8c0.9-2.3,2.6-4.2,4.7-5.4l4.4-2.6l4.2-2 c0.3-0.1,0.8,0,0.9,0.3c0.1,0.3,0,0.8-0.3,0.9l-4.1,1.9l-4.4,2.5C8.3,29,6.9,30.7,6,32.7L1.6,43.5C1.5,43.8,1.1,44,0.9,44L0.9,44z"></path><path d="M0.9,44.3l-0.3,0C0.4,44.2,0.1,44,0,43.7C0,43.4,0,43.2,0.1,43l4.4-10.7C5.4,30,7.1,28,9.4,26.7l4.4-2.6l4.2-2 c0.3-0.1,0.5-0.1,0.7,0c0.3,0.1,0.5,0.3,0.5,0.5c0.2,0.5,0,1.1-0.5,1.2l-4,1.9l-4.4,2.5c-1.8,1.1-3.2,2.6-4.1,4.6L1.8,43.6 C1.7,44,1.2,44.3,0.9,44.3z M0.7,43.7h0.2c0.1,0,0.3-0.1,0.4-0.4l4.4-10.8c0.9-2.1,2.4-3.8,4.3-4.9l4.4-2.5l4.1-1.9 c0.2-0.1,0.2-0.3,0.2-0.5c-0.1-0.2-0.3-0.2-0.5-0.2l-4.2,2l-4.4,2.6c-2.2,1.3-3.8,3.1-4.6,5.3L0.6,43.2c-0.1,0.1-0.1,0.2-0.1,0.3 C0.6,43.6,0.7,43.7,0.7,43.7z"></path><path d="M15.6,49.8c-0.1,0-0.2,0-0.2,0C15,49.7,14.8,49.3,15,49l1-2.4c0.1-0.2,0.2-0.3,0.4-0.4L17,46h0.1c1.8,0,2.1-0.1,3-1 c0.2-0.3,0.7-0.3,1,0c0.3,0.2,0.3,0.7,0,1c-1.2,1.3-2.1,1.4-3.9,1.4h-0.1l-0.9,2.1C16.1,49.7,15.8,49.8,15.6,49.8L15.6,49.8z"></path><path d="M15.6,50.1l-0.3,0c-0.3-0.1-0.5-0.3-0.6-0.6c-0.1-0.2-0.1-0.5,0.1-0.7l1-2.4c0.1-0.3,0.3-0.4,0.6-0.6l0.1,0l0.7-0.1 c1.7,0,2-0.1,2.8-0.9c0.1-0.2,0.3-0.3,0.6-0.3c0.3,0,0.6,0.1,0.8,0.3c0.2,0.1,0.3,0.3,0.3,0.6c0,0.3-0.1,0.6-0.3,0.8 c-1.2,1.4-2.2,1.5-4,1.5l-0.8,1.9C16.3,50,15.8,50.1,15.6,50.1z M15.4,49.6h0.2c0.2,0,0.4-0.1,0.4-0.2l0.9-2.2h0.3 c1.8,0,2.5-0.1,3.7-1.3c0.1-0.1,0.2-0.3,0.2-0.4c0-0.1-0.1-0.1-0.1-0.2c-0.2-0.2-0.3-0.2-0.4-0.2c-0.1,0-0.1,0-0.2,0.1 c-1,1-1.4,1.1-3.2,1.1H17l-0.5,0.1c-0.1,0.1-0.2,0.1-0.3,0.3l-1,2.4c-0.1,0.1-0.1,0.2-0.1,0.3C15.3,49.5,15.3,49.5,15.4,49.6z"></path><path d="M12.3,42.8c-0.3,0-0.7,0-1-0.1l-1.1-0.2c-0.3-0.1-0.7-0.4-0.6-0.8c0.1-0.3,0.4-0.7,0.8-0.6l1.1,0.2c1.1,0.2,2.3,0,3.2-0.7 c1.3-0.8,2.1-2,2.3-3.5c0.1-0.7,0.4-1.2,1-1.7l3-2.1c1.3-1,1.7-2.8,0.8-4.2c-0.2-0.3-0.7-0.4-1.1-0.2L9.8,35 c-0.3,0.2-0.8,0.1-0.9-0.2c-0.2-0.3-0.1-0.8,0.2-0.9L20,27.9c1-0.6,2.3-0.2,2.9,0.8c1.3,2,0.8,4.6-1.1,6.1l-3,2.1 c-0.2,0.2-0.3,0.4-0.4,0.7c-0.2,1.9-1.3,3.5-3,4.5C14.5,42.5,13.4,42.8,12.3,42.8L12.3,42.8z"></path><path d="M12.3,43.1c-0.3,0-0.7,0-1.1-0.1l-1.1-0.2c-0.3-0.1-0.5-0.2-0.6-0.4c-0.2-0.2-0.2-0.5-0.2-0.7c0.2-0.5,0.6-0.9,1.1-0.7 l1.1,0.2c1.1,0.2,2.2,0,3-0.6c1.3-0.7,2-1.9,2.2-3.3c0.1-0.7,0.5-1.3,1.1-1.8l3-2.1c1.2-0.9,1.5-2.5,0.7-3.8 c-0.1-0.2-0.4-0.3-0.7-0.1L10,35.2c-0.2,0.2-0.5,0.2-0.8,0.1c-0.2-0.1-0.4-0.2-0.5-0.4c-0.1-0.2-0.2-0.5-0.1-0.8 c0.1-0.2,0.3-0.4,0.5-0.5l10.8-5.9c1.1-0.6,2.6-0.2,3.2,0.9c1.4,2,0.8,4.9-1.2,6.4l-3,2.1c-0.1,0.1-0.2,0.3-0.3,0.5 c-0.2,1.9-1.4,3.6-3.1,4.7C14.4,42.8,13.3,43.1,12.3,43.1z M10.3,41.4c-0.2,0-0.3,0.2-0.4,0.4c0,0.1,0,0.2,0.1,0.2 c0.1,0.1,0.2,0.2,0.3,0.2l1.1,0.2c0.3,0.1,0.6,0.1,0.9,0.1c1,0,2-0.3,3-0.7c1.6-0.9,2.6-2.5,2.8-4.3l0-0.1c0.1-0.2,0.2-0.5,0.5-0.7 l3-2.1c1.8-1.4,2.2-3.9,1-5.7c-0.5-0.9-1.6-1.2-2.5-0.7L9.3,34.1c-0.1,0-0.2,0.1-0.2,0.2c0,0.1,0,0.2,0.1,0.3l0,0.1 c0,0.1,0.1,0.1,0.1,0.1c0.1,0,0.2,0,0.3-0.1l10.8-6c0.6-0.3,1.2-0.2,1.5,0.3c1,1.6,0.6,3.5-0.8,4.6l-3,2.1c-0.5,0.4-0.8,0.9-0.9,1.5 c-0.2,1.6-1.1,2.9-2.4,3.7c-0.9,0.7-2.2,0.9-3.4,0.7L10.3,41.4C10.3,41.4,10.3,41.4,10.3,41.4z"></path><path d="M44.5,46.8H22.9c-2.9,0-5.3-2.3-5.3-5.3v-5.3c0-0.3,0.3-0.7,0.7-0.7c0.3,0,0.7,0.3,0.7,0.7v5.3c0,2.1,1.8,3.9,3.9,3.9h21.6 c2.1,0,3.9-1.8,3.9-3.9V11.8c0-2.1-1.8-3.9-3.9-3.9h-2.3c-0.3,0-0.7-0.3-0.7-0.7s0.3-0.7,0.7-0.7h2.3c2.9,0,5.3,2.3,5.3,5.3v29.6 C49.8,44.3,47.4,46.8,44.5,46.8z"></path><path d="M44.5,47H22.9c-3.1,0-5.6-2.5-5.6-5.6v-5.3c0-0.5,0.5-0.9,0.9-0.9s0.9,0.5,0.9,0.9v5.3c0,1.9,1.6,3.6,3.6,3.6h21.6 c1.9,0,3.6-1.6,3.6-3.6V11.8c0-1.9-1.6-3.6-3.6-3.6h-2.3c-0.5,0-0.9-0.5-0.9-0.9s0.5-0.9,0.9-0.9h2.3c3.1,0,5.6,2.5,5.6,5.6v29.6 c0.1,1.4-0.5,2.7-1.5,3.7C47.5,46.4,46,47,44.5,47z M18.3,35.8c-0.2,0-0.4,0.2-0.4,0.4v5.3c0,2.8,2.2,5,5,5h21.6 c1.3,0,2.6-0.6,3.6-1.5c0.9-0.9,1.4-2.1,1.3-3.3V11.9c0-2.8-2.2-5-5-5h-2.3c-0.2,0-0.4,0.2-0.4,0.4c0,0.2,0.2,0.4,0.4,0.4h2.3 c2.2,0,4.1,1.9,4.1,4.1v29.6c0,2.2-1.9,4.1-4.1,4.1H22.8c-2.2,0-4.1-1.9-4.1-4.1v-5.3C18.7,36,18.5,35.8,18.3,35.8z"></path><path d="M18.3,30.2c-0.3,0-0.7-0.3-0.7-0.7V11.8c0-2.9,2.3-5.3,5.3-5.3h2.3c0.3,0,0.7,0.3,0.7,0.7c0,0.3-0.3,0.7-0.7,0.7h-2.3 c-2.1,0-3.9,1.8-3.9,3.9v17.6C19,29.9,18.7,30.2,18.3,30.2L18.3,30.2z"></path><path d="M18.3,30.5c-0.5,0-0.9-0.5-0.9-0.9V11.8c0-3.1,2.5-5.6,5.6-5.6h2.3c0.5,0,0.9,0.5,0.9,0.9c0,0.5-0.5,0.9-0.9,0.9h-2.3 c-1.9,0-3.6,1.6-3.6,3.6v17.6C19.2,30.1,18.8,30.5,18.3,30.5z M22.9,6.8c-2.8,0-5,2.2-5,5v17.7c0,0.2,0.2,0.4,0.4,0.4 c0.2,0,0.4-0.2,0.5-0.7l0-17.6c0-2.2,1.9-4.1,4.1-4.1h2.3c0.2,0,0.4-0.2,0.4-0.4c0-0.2-0.2-0.4-0.4-0.4H22.9z"></path><path d="M41.2,11h-15c-1,0-1.8-0.8-1.8-1.8V5.9c0-1,0.8-1.8,1.8-1.8h2.9c0.3-2.2,2.2-4,4.5-4c2.4,0.1,4.3,1.8,4.6,4h2.9 c1,0.1,1.8,0.9,1.8,1.8v3.4C42.9,10.2,42.1,11,41.2,11z M26.3,5.6c-0.2,0-0.3,0.1-0.3,0.3v3.4c0,0.2,0.1,0.3,0.3,0.3h15 c0.2,0,0.3-0.1,0.3-0.3V5.9c0-0.2-0.2-0.3-0.4-0.3h-3.5c-0.3,0-0.7-0.3-0.7-0.7c0-1.8-1.4-3.2-3.2-3.2c-1.8,0-3.2,1.4-3.2,3.2 c0,0.3-0.3,0.7-0.7,0.7L26.3,5.6L26.3,5.6z"></path><path d="M41.2,11.2h-15c-1.1,0-2-0.9-2-2V5.9c0-1.1,0.9-2,2-2h2.6c0.5-2.3,2.5-4,4.7-4c2.5,0.1,4.4,1.7,4.9,4h2.6c1.2,0.1,2,1,2,2 v3.4C43.2,10.3,42.3,11.2,41.2,11.2z M26.3,4.4c-0.8,0-1.5,0.7-1.5,1.5v3.3c0,0.8,0.7,1.5,1.5,1.5h15c0.7,0,1.4-0.6,1.4-1.4V5.9 c0-0.7-0.7-1.4-1.5-1.5l-3.1,0l0-0.2c-0.3-2.1-2.1-3.6-4.4-3.7c-2.1,0-3.9,1.6-4.2,3.7l0,0.2H26.3z M41.2,9.9h-15 c-0.4,0-0.6-0.2-0.6-0.6V5.9c0-0.4,0.2-0.6,0.6-0.6h3.6c0.2,0,0.4-0.2,0.4-0.4c0-1.9,1.6-3.5,3.5-3.5c1.9,0,3.5,1.6,3.5,3.5 c0,0.2,0.2,0.4,0.4,0.4h3.5c0.4,0,0.7,0.3,0.7,0.6v3.4C41.8,9.7,41.6,9.9,41.2,9.9z M26.3,5.8C26.2,5.8,26.2,5.8,26.3,5.8l-0.1,3.5 l0.1,0.1h15l0.1-0.1V5.9c0,0-0.1-0.1-0.2-0.1h-3.5c-0.5,0-0.9-0.5-0.9-0.9c0-1.6-1.3-2.9-2.9-2.9c-1.6,0-2.9,1.3-2.9,2.9 c0,0.5-0.5,0.9-0.9,0.9H26.3z"></path><path d="M45,32.1H26.5c-0.3,0-0.7-0.3-0.7-0.7c0-0.3,0.3-0.7,0.7-0.7h18.4c0.3,0,0.7,0.3,0.7,0.7C45.6,31.8,45.3,32.1,45,32.1z"></path><path d="M45,32.4H26.5c-0.5,0-0.9-0.5-0.9-0.9c0-0.5,0.5-0.9,0.9-0.9h18.4c0.5,0,0.9,0.4,0.9,0.9c0.1,0.2,0,0.4-0.1,0.6 C45.5,32.2,45.3,32.4,45,32.4z M26.5,31.1c-0.2,0-0.4,0.2-0.4,0.4c0,0.2,0.2,0.4,0.4,0.4H45c0.1,0,0.2-0.1,0.3-0.1 c0-0.1,0.1-0.1,0-0.2l0-0.1c0-0.2-0.2-0.4-0.4-0.4H26.5z"></path><path d="M45,36.5h-5.6c-0.3,0-0.7-0.3-0.7-0.7c0-0.3,0.3-0.7,0.7-0.7H45c0.3,0,0.7,0.3,0.7,0.7C45.6,36.2,45.3,36.5,45,36.5z"></path><path d="M45,36.8h-5.6c-0.5,0-0.9-0.5-0.9-0.9c0-0.5,0.5-0.9,0.9-0.9H45c0.5,0,0.9,0.5,0.9,0.9C45.9,36.3,45.5,36.8,45,36.8z  M39.4,35.5c-0.2,0-0.4,0.2-0.4,0.4s0.2,0.4,0.4,0.4H45c0.2,0,0.4-0.2,0.4-0.4c0-0.2-0.2-0.4-0.4-0.4H39.4z"></path><path d="M35.4,36.5H24.5c-0.3,0-0.7-0.3-0.7-0.7c0-0.3,0.3-0.7,0.7-0.7h10.9c0.3,0,0.7,0.3,0.7,0.7S35.7,36.5,35.4,36.5z"></path><path d="M35.4,36.8H24.5c-0.5,0-0.9-0.5-0.9-0.9c0-0.5,0.5-0.9,0.9-0.9h10.9c0.5,0,0.9,0.5,0.9,0.9C36.3,36.3,35.9,36.8,35.4,36.8z  M24.5,35.5c-0.2,0-0.4,0.2-0.4,0.4s0.2,0.4,0.4,0.4h10.9c0.2,0,0.4-0.2,0.4-0.4s-0.2-0.4-0.4-0.4H24.5z"></path><path d="M45,40.9H31.2c-0.3,0-0.7-0.3-0.7-0.7c0-0.3,0.3-0.7,0.7-0.7H45c0.3,0,0.7,0.3,0.7,0.7C45.6,40.7,45.3,40.9,45,40.9z"></path><path d="M45,41.2H31.2c-0.5,0-0.9-0.5-0.9-0.9c0-0.5,0.5-0.9,0.9-0.9H45c0.5,0,0.9,0.5,0.9,0.9C45.9,40.9,45.4,41.2,45,41.2z  M31.2,39.9c-0.2,0-0.4,0.2-0.4,0.4s0.2,0.4,0.4,0.4H45c0.2,0,0.4-0.1,0.4-0.4c0-0.2-0.2-0.4-0.4-0.4H31.2z"></path><path d="M26.4,40.9h-4c-0.3,0-0.7-0.3-0.7-0.7c0-0.3,0.3-0.7,0.7-0.7h4c0.3,0,0.7,0.3,0.7,0.7C27.1,40.7,26.8,40.9,26.4,40.9z"></path><path d="M26.4,41.2h-4c-0.5,0-0.9-0.5-0.9-0.9c0-0.5,0.5-0.9,0.9-0.9h4c0.5,0,0.9,0.5,0.9,0.9c0.1,0.3,0,0.5-0.1,0.6 C27,41.1,26.7,41.2,26.4,41.2z M22.4,39.9c-0.2,0-0.4,0.2-0.4,0.4c0,0.2,0.2,0.4,0.4,0.4h4c0.2,0,0.3,0,0.4-0.1c0,0,0.1-0.1,0-0.2 c0-0.2-0.2-0.5-0.4-0.5H22.4z"></path></svg>