<svg xmlns="http://www.w3.org/2000/svg" xmlns:xlink="http://www.w3.org/1999/xlink" x="0px" y="0px" viewBox="0 0 100 100" style="enable-background:new 0 0 100 100;" xml:space="preserve"><g>	<g>		<path d="M88.6,15.3l-7.1-0.4c-9.9-0.6-19.1-3.1-27.1-7.6l-3.6-2c-0.5-0.3-1-0.3-1.5,0C40,10.9,30,14.4,18.5,14.9   c0,0-7.1,0.4-7.1,0.4c-0.8,0-1.4,0.7-1.4,1.5v29.4c0,14.7,7.4,28.2,19.7,36.1l19.5,12.4c0.5,0.3,1.1,0.3,1.6,0l19.5-12.4   C82.6,74.5,90,61,90,46.3V16.8C90,16,89.4,15.4,88.6,15.3L88.6,15.3z M87,46.3c0,13.7-6.9,26.2-18.3,33.5L50,91.7   c0,0-18.7-11.9-18.7-11.9C19.9,72.5,13,59.9,13,46.3v-28l5.7-0.3c11.6-0.6,21.9-4,31.3-9.6c9.4,5.7,19.7,9,31.3,9.6   c0,0,5.7,0.3,5.7,0.3S87,46.3,87,46.3z"></path>		<path d="M50,95.3c-0.3,0-0.7-0.1-1-0.3L29.5,82.6C17.1,74.7,9.6,61.1,9.6,46.3V16.8c0-1,0.8-1.8,1.7-1.8l7.1-0.4   c10.8-0.5,20.8-3.7,30.6-9.6c0.6-0.3,1.3-0.3,1.8,0l3.6,2c8,4.5,17.1,7,27,7.6l7.1,0.4c1,0.1,1.7,0.9,1.7,1.8v29.4   c0,14.8-7.4,28.4-19.9,36.4L51,95C50.7,95.2,50.3,95.3,50,95.3z M50,5.4c-0.2,0-0.4,0-0.6,0.1c-9.9,6-20,9.2-30.9,9.7l-7.1,0.4   c-0.6,0-1.1,0.5-1.1,1.1v29.4c0,14.6,7.3,28,19.6,35.8l19.5,12.4c0.4,0.2,0.9,0.2,1.2,0L70.1,82c12.3-7.8,19.6-21.2,19.6-35.8   V16.8c0-0.6-0.5-1.1-1.1-1.1l-7.1-0.4c-10-0.6-19.2-3.1-27.3-7.7l-3.6-2C50.4,5.5,50.2,5.4,50,5.4z M50.1,92H50   c-0.1,0-0.1,0-5.5-3.4c-4.8-3-11.8-7.5-13.1-8.4l0,0l-0.2-0.2c-11.6-7.4-18.5-20-18.5-33.8V17.9l6-0.3C29.9,17,40.1,13.9,49.8,8   L50,7.9L50.2,8c9.8,5.9,20,9,31.2,9.6l6,0.3v28.3c0,13.8-6.9,26.5-18.5,33.8L50.1,92z M31.5,79.5c0.5,0.2,1.6,0.9,4.7,2.9l8.8,5.6   c2.5,1.6,4.5,2.9,5.1,3.2l18.5-11.7c11.4-7.2,18.2-19.7,18.2-33.2V18.6l-5.3-0.3C70,17.7,59.8,14.6,50,8.7   c-9.8,5.9-20.1,9-31.3,9.6l-5.3,0.3v27.7C13.3,59.8,20.1,72.3,31.5,79.5L31.5,79.5z"></path>	</g>	<g>		<path d="M65.5,74.9L50,84.7l-15.5-9.9c-9.8-6.2-15.6-16.9-15.6-28.6c0-1.9-3-2-3,0c0,12.7,6.4,24.4,17,31.1l16.3,10.4   c0.5,0.3,1.1,0.3,1.6,0l16.3-10.4C68.8,76.3,67.2,73.8,65.5,74.9L65.5,74.9z"></path>		<path d="M50,88.4c-0.3,0-0.7-0.1-1-0.3L32.7,77.7c-10.8-6.8-17.2-18.6-17.2-31.4c0-1.2,0.9-1.8,1.8-1.8c0,0,0,0,0,0   c0.9,0,1.8,0.6,1.8,1.8c0,11.6,5.8,22.2,15.5,28.3L50,84.3l15.3-9.8c1-0.6,2-0.2,2.5,0.6c0.5,0.8,0.5,1.9-0.5,2.5L51,88.1   C50.7,88.3,50.3,88.4,50,88.4z M17.3,45.1c-0.6,0-1.1,0.3-1.1,1.1c0,12.6,6.3,24.1,16.9,30.8l16.3,10.4c0.4,0.2,0.9,0.2,1.2,0   l16.3-10.4c0.6-0.4,0.6-1.1,0.3-1.6c-0.3-0.5-0.9-0.8-1.6-0.4L50,85.1l-15.7-10c-9.9-6.3-15.8-17.1-15.8-28.9   C18.5,45.5,17.9,45.1,17.3,45.1C17.3,45.1,17.3,45.1,17.3,45.1z"></path>	</g>	<g>		<path d="M51.5,12.4C50.9,12,50,11.5,49.3,12c0,0-0.8,0.4-0.8,0.4c-8.8,4.9-18.8,7.8-29.6,8.4l-1.6,0.1c-1.9,0.1-1.8,3,0.2,3   c11.8-0.4,23-3.6,32.7-8.8c9.2,5.2,19.7,8.1,30.9,8.7c0.5-0.3,0,22.5,0.2,22.5c0,0.8,0.7,1.5,1.5,1.5s1.5-0.7,1.5-1.5V22.4   c0-0.8-0.6-1.5-1.4-1.5l-1.6-0.1C70.3,20.2,60.4,17.4,51.5,12.4L51.5,12.4z"></path>		<path d="M82.7,48.1c-1,0-1.8-0.8-1.8-1.8h0c-0.1-0.6-0.1-2.3,0-6.8c0-5.2,0.1-13.8-0.1-15.3c-11.2-0.7-21.5-3.6-30.7-8.7   c-9.9,5.4-21.2,8.4-32.6,8.8c-1.2,0-1.9-0.9-1.9-1.8c0-0.9,0.5-1.9,1.7-1.9l1.6-0.1c10.8-0.6,20.7-3.4,29.5-8.3l0.8-0.4   c0.9-0.6,1.9,0,2.5,0.4l-0.1,0.3l0.2-0.3c8.8,4.9,18.7,7.7,29.5,8.3l1.6,0.1c1,0.1,1.7,0.9,1.7,1.8v23.9   C84.5,47.3,83.7,48.1,82.7,48.1z M81.5,45.9L81.5,45.9l0,0.3c0,0.6,0.5,1.1,1.1,1.1s1.1-0.5,1.1-1.1V22.4c0-0.6-0.5-1.1-1.1-1.1   l-1.6-0.1c-10.9-0.6-20.9-3.4-29.8-8.4l-0.1,0c-0.6-0.3-1.3-0.8-1.8-0.4l-0.8,0.5c-8.9,5-18.9,7.8-29.8,8.4l-1.6,0.1   c-0.8,0.1-1.1,0.6-1.1,1.2c0,0.6,0.4,1.1,1.2,1.1c11.4-0.4,22.6-3.4,32.5-8.8l0.2-0.1l0.2,0.1c9.2,5.1,19.5,8.1,30.7,8.7l0.1-0.1   l0.2,0.1c0.3,0.2,0.5,0.2,0.3,16C81.5,42.3,81.5,45.1,81.5,45.9z"></path>	</g>	<g>		<path d="M56.2,42.9c7.4-0.1,10.2-13.8,3.4-15.9C50.9,24.9,47.2,42.4,56.2,42.9z M54.3,34c0.4-1.4,1.2-2.6,2.2-3.4   c3-2.4,4.9,1.5,3.8,5.2C58.4,41.7,52.6,41.2,54.3,34z"></path>		<path d="M56.2,43.3L56.2,43.3c-2.9-0.2-4.3-1.9-4.9-3.4c-1.4-3.2-0.6-7.9,1.9-10.9c1.8-2.1,4.1-2.9,6.5-2.3   c3.1,0.9,4.6,4.2,4.1,8.3C63.2,39,60.4,43.2,56.2,43.3L56.2,43.3z M58.2,27.2c-2,0-3.5,1.2-4.4,2.3c-2.3,2.7-3.1,7.2-1.8,10.1   c0.6,1.3,1.8,2.8,4.3,2.9c3.8-0.1,6.3-3.9,6.8-7.7c0.4-2.8-0.3-6.5-3.6-7.5C59,27.2,58.6,27.2,58.2,27.2z M56.3,40.2   c-0.2,0-0.4,0-0.6-0.1c-1.4-0.4-2.7-2.3-1.7-6.3l0,0c0.4-1.5,1.3-2.8,2.3-3.6c1.5-1.2,2.7-0.8,3.2-0.5c1.4,1,1.9,3.6,1.1,6   C59.6,38.8,57.8,40.2,56.3,40.2z M54.6,34.1c-0.8,3.5,0.1,5.1,1.2,5.4c1.3,0.4,3.1-0.9,4-3.8c0.7-2.1,0.3-4.5-0.9-5.2   c-0.8-0.6-1.7-0.1-2.4,0.4C55.8,31.5,55,32.7,54.6,34.1z"></path>	</g>	<g>		<path d="M70.4,37.3c-8.2-2-12.1,13.5-4.7,15.7C73.9,55,77.8,39.5,70.4,37.3z M71,46.1c-0.4,1.4-1.2,2.6-2.2,3.4   c-3,2.4-5-1.5-3.8-5.2C66.9,38.3,72.8,38.8,71,46.1z"></path>		<path d="M67.1,53.5c-0.5,0-1-0.1-1.5-0.2c-3.9-1.2-4.8-5.8-3.7-9.8c1.1-3.9,4.2-7.7,8.6-6.6l0,0c3.9,1.2,4.8,5.8,3.7,9.8   C73.3,50.2,70.7,53.5,67.1,53.5z M69,37.5c-3.3,0-5.6,3.1-6.5,6.2c-1,3.5-0.4,7.8,3.2,8.9c4,1,6.8-2.5,7.8-6.1   c1-3.6,0.2-7.9-3.2-8.9C69.9,37.5,69.4,37.5,69,37.5z M67.1,50.6c-0.5,0-0.9-0.2-1.2-0.4c-1.4-1-1.9-3.6-1.2-6   c1.1-3.4,3.3-4.7,4.9-4.3c1.4,0.4,2.7,2.3,1.7,6.3l0,0c-0.4,1.5-1.3,2.8-2.3,3.6C68.3,50.4,67.6,50.6,67.1,50.6z M69,40.5   c-1.2,0-2.8,1.2-3.6,3.9c-0.7,2.1-0.3,4.5,0.9,5.2c0.8,0.6,1.7,0.1,2.3-0.4c0.9-0.7,1.6-1.9,2-3.2c0.8-3.3-0.1-5.1-1.2-5.4   C69.3,40.5,69.2,40.5,69,40.5z"></path>	</g>	<g>		<path d="M42.1,47.2c-1,1.6-2.2,3.5-4.3,5.4c-6.8,6.2-6.1,14.1-0.4,17.1c2.1,0.9,5.6,0.6,10.3-0.9c1.5-0.5,3.1-0.5,4.6,0   c4.1,1.2,7,2,10.3,0.9c5.7-3,6.4-10.9-0.4-17.1c-5.1-4.1-4.5-10.4-12.2-10.6C45.4,42.1,43.9,44.5,42.1,47.2z M55.4,48.8   c1.1,1.7,2.4,3.8,4.8,6c5,4.6,5,9.9,1.2,12.1c-1.4,0.6-4.4,0.2-8.2-1c-1.1-0.3-2.1-0.5-3.2-0.5c-1.1,0-2.2,0.2-3.2,0.5   c-3.8,1.2-6.8,1.6-8.2,1c-3.8-2.2-3.7-7.6,1.2-12.1c2.4-2.2,3.8-4.3,4.8-6c1.6-2.6,2.4-3.8,5.4-3.8C53,45.1,53.7,46.2,55.4,48.8z"></path>		<path d="M59.4,70.6c-2.2,0-4.4-0.6-7-1.4l-0.1,0c-1.5-0.5-3-0.5-4.4,0C43,70.7,39.4,71,37.2,70c-2.6-1.4-4.2-3.7-4.6-6.6   c-0.5-3.7,1.3-7.8,5-11.1c2.1-1.9,3.2-3.7,4.3-5.3l0,0c1.7-2.7,3.4-5.3,8.2-5.3c5.1,0.1,6.7,2.8,8.5,5.7c1,1.7,2.1,3.4,3.9,4.9   c3.6,3.3,5.4,7.4,5,11.1c-0.4,2.8-2,5.2-4.6,6.5C61.6,70.4,60.5,70.6,59.4,70.6z M50,68.1c0.8,0,1.6,0.1,2.4,0.4l0.1,0   c4.1,1.2,6.8,2,10,0.8c2.3-1.2,3.8-3.4,4.2-6c0.4-3.5-1.3-7.3-4.7-10.5c-1.9-1.5-3.1-3.4-4.1-5.1c-1.7-2.8-3.2-5.3-7.9-5.4   c-4.4,0-5.8,2.2-7.6,5l-0.3-0.2l0.3,0.2c-1,1.6-2.2,3.5-4.4,5.5c-3.5,3.2-5.2,7-4.7,10.5c0.3,2.6,1.8,4.8,4.2,6   c2,0.9,5.4,0.6,10-0.9C48.4,68.3,49.2,68.1,50,68.1z M40.4,67.6c-0.8,0-1.5-0.1-1.9-0.3c-1.7-1-2.7-2.5-2.9-4.3   c-0.3-2.7,1.2-5.8,4-8.4c2.4-2.2,3.7-4.3,4.8-6c1.6-2.6,2.5-3.9,5.7-3.9c3.2,0,4,1.3,5.7,3.9l0,0c1.1,1.7,2.4,3.8,4.8,6   c2.8,2.6,4.3,5.6,4,8.3c-0.2,1.8-1.2,3.4-2.8,4.3c-1.5,0.7-4.5,0.3-8.5-0.9c-2-0.7-4.2-0.7-6.3,0C44.2,67.2,42,67.6,40.4,67.6z    M50,45.4c-2.8,0-3.5,1.1-5.1,3.6c-1.1,1.7-2.4,3.9-4.9,6.1c-2.7,2.4-4,5.3-3.8,7.8c0.2,1.6,1.1,3,2.5,3.8c1.2,0.5,4.2,0.2,7.9-1   c2.2-0.7,4.5-0.7,6.7,0c3.7,1.2,6.7,1.6,7.9,1c1.4-0.8,2.3-2.2,2.4-3.8c0.3-2.5-1.1-5.3-3.8-7.8c-2.5-2.2-3.8-4.4-4.9-6.1   C53.5,46.5,52.8,45.4,50,45.4z"></path>	</g>	<g>		<path d="M45.4,28.2C43.9,27,42,26.5,40.4,27c-5.5,1.5-4.8,11.2-0.3,14.5c5.5,4.3,10.7-1.8,8.5-8.4C48,31.1,46.9,29.4,45.4,28.2z    M44.2,39.8c-4.5,0.6-6.5-8.7-3-10C45.7,29.2,47.8,38.6,44.2,39.8z"></path>		<path d="M43.7,43.3c-1.3,0-2.6-0.5-3.9-1.5c-2.7-2-4.2-6.4-3.6-10.1c0.5-2.6,1.9-4.4,4-5c1.7-0.5,3.7-0.1,5.4,1.3h0   c1.5,1.2,2.6,3,3.3,5.1c1.2,3.7,0.3,7.5-2.3,9.4C45.7,43,44.7,43.3,43.7,43.3z M41.7,27.2c-0.4,0-0.9,0.1-1.3,0.2   c-1.8,0.5-3.1,2.1-3.5,4.4c-0.6,3.5,0.8,7.6,3.3,9.5c2,1.6,4.2,1.8,5.9,0.6c2-1.4,3.3-4.8,2.1-8.6c-0.6-1.9-1.7-3.6-3-4.7l0,0   C44.1,27.6,42.9,27.2,41.7,27.2z M43.8,40.2c-2.3,0-3.9-2.3-4.5-4.8c-0.6-2.4-0.3-5.2,1.8-5.9c2.6-0.4,4.4,2.1,5,4.7   c0.6,2.4,0.3,5.2-1.8,5.9l-0.1,0C44.1,40.2,44,40.2,43.8,40.2z M41.7,30.2c-0.1,0-0.3,0-0.4,0c-1.5,0.5-1.8,3-1.3,5.1   c0.6,2.3,2,4.5,4.1,4.2c1.5-0.6,1.8-3,1.3-5.1C44.9,32.2,43.6,30.2,41.7,30.2z"></path>	</g>	<g>		<path d="M34.6,38.5c-1.6-1.3-3.4-1.7-5-1.2c-5.5,1.5-4.8,11.2-0.3,14.5c5.5,4.3,10.7-1.8,8.5-8.4C37.2,41.4,36.1,39.7,34.6,38.5   L34.6,38.5z M33.5,50.1c-4.5,0.6-6.5-8.7-3-10C34.9,39.5,37,48.9,33.5,50.1z"></path>		<path d="M32.9,53.6c-1.3,0-2.6-0.5-3.9-1.5c-2.7-2-4.2-6.4-3.6-10.1c0.5-2.6,1.9-4.4,4-5c1.7-0.5,3.7-0.1,5.4,1.3l0,0   c1.5,1.2,2.6,3,3.3,5.1c1.2,3.7,0.3,7.5-2.3,9.4C34.9,53.3,34,53.6,32.9,53.6z M30.9,37.5c-0.4,0-0.9,0.1-1.3,0.2   c-1.8,0.5-3.1,2.1-3.5,4.4c-0.6,3.5,0.8,7.6,3.3,9.5c2,1.6,4.2,1.8,5.9,0.6c2-1.4,3.3-4.8,2.1-8.6c-0.6-1.9-1.7-3.6-3-4.7l0,0   C33.3,37.9,32.1,37.5,30.9,37.5z M33,50.5c-2.3,0-3.9-2.3-4.4-4.8c-0.6-2.4-0.3-5.2,1.8-5.9c2.6-0.4,4.4,2.1,5,4.7   c0.6,2.4,0.3,5.2-1.8,5.9l-0.1,0C33.3,50.5,33.2,50.5,33,50.5z M30.9,40.5c-0.1,0-0.3,0-0.4,0c-1.5,0.5-1.8,3-1.3,5.1   c0.6,2.3,2,4.5,4.1,4.2c1.5-0.6,1.8-3,1.3-5.1C34.1,42.5,32.8,40.5,30.9,40.5z"></path>	</g></g></svg>