<svg xmlns="http://www.w3.org/2000/svg" xmlns:xlink="http://www.w3.org/1999/xlink" x="0px" y="0px" viewBox="0 0 42 22" style="enable-background:new 0 0 42 22;" xml:space="preserve"><g>	<g>		<path d="M10.8,15.5c-0.1,0-0.2,0-0.3-0.1l-5.3-4C5,11.3,4.9,11.2,4.9,11c0-0.2,0.1-0.3,0.2-0.4l5.3-4c0.2-0.2,0.5-0.1,0.7,0.1   c0.2,0.2,0.1,0.5-0.1,0.7L6.3,11l4.8,3.6c0.2,0.2,0.3,0.5,0.1,0.7C11.1,15.4,10.9,15.5,10.8,15.5z"></path>	</g>	<g>		<path d="M36.6,11.5H5.4c-0.3,0-0.5-0.2-0.5-0.5s0.2-0.5,0.5-0.5h31.2c0.3,0,0.5,0.2,0.5,0.5S36.9,11.5,36.6,11.5z"></path>	</g></g></svg>