<svg xmlns="http://www.w3.org/2000/svg" xmlns:xlink="http://www.w3.org/1999/xlink" x="0px" y="0px" viewBox="0 0 100 100" style="enable-background:new 0 0 100 100;" xml:space="preserve"><style type="text/css">	.wdt-bg-item01{fill:#9CDBF8;}	.wdt-bg-item02{fill:#FFFFFF;}	.wdt-bg-item03{fill:#231F20;}</style><g>	<g>		<g>			<path class="wdt-bg-item01" d="M79.8,47.4c-4.4,0-4.4,2.9-8.8,2.9s-4.4-2.9-8.8-2.9s-4.4,2.9-8.8,2.9s-4.4-2.9-8.8-2.9    c-4.4,0-4.4,2.9-8.8,2.9c-4.4,0-4.4-2.9-8.8-2.9s-4.4,2.9-8.8,2.9c-3.4,0-4.2-1.7-6.3-2.5c-0.1,0.9-0.1,1.9-0.1,2.8    c0,14.8,7.7,27.8,19.3,35.2c3.8,2.4,12.4,4.1,22.4,4.1s18.6-1.7,22.4-4.1C87.3,78.5,95,65.5,95,50.6c0-1,0-1.9-0.1-2.8    c-2.1,0.8-3,2.5-6.3,2.5C84.2,50.3,84.2,47.4,79.8,47.4z"></path>			<path class="wdt-bg-item02" d="M56,60.8c-5.1,0-9.7,2-13,5.3c-2.1-2.1-4.8-3.6-7.7-4.5c1.1,2.2,2,4.5,2.9,6.9c-0.9,2.4-1.9,4.7-2.9,6.9    c2.9-0.9,5.6-2.4,7.7-4.5c3.4,3.3,8,5.3,13,5.3c6.2,0,11.7-3,15.1-7.7C67.7,63.8,62.2,60.8,56,60.8z"></path>			<path class="wdt-bg-item03" d="M73.7,61.7c-0.7,0-1.3-0.3-1.8-0.7c-0.5-0.5-0.7-1.1-0.7-1.8c0-0.7,0.3-1.3,0.7-1.8c0.9-0.9,2.6-0.9,3.6,0    c0.5,0.5,0.7,1.1,0.7,1.8c0,0.7-0.3,1.3-0.7,1.8C75,61.4,74.3,61.7,73.7,61.7z"></path>			<path class="wdt-bg-item03" d="M68.5,54.8c-0.7,0-1.3-0.3-1.8-0.7c-0.5-0.5-0.7-1.1-0.7-1.8c0-0.7,0.3-1.3,0.7-1.8c0.9-0.9,2.6-0.9,3.6,0    c0.5,0.5,0.7,1.1,0.7,1.8c0,0.7-0.3,1.3-0.7,1.8C69.8,54.5,69.1,54.8,68.5,54.8z"></path>			<path class="wdt-bg-item03" d="M51.2,73.1c-2.5,0-4.9-0.4-7.2-1.3c-0.9-0.3-1.3-1.3-1-2.2c0.3-0.9,1.3-1.3,2.2-1c1.9,0.7,4,1.1,6,1.1    c5,0,9.7-2.2,13-6c-3.2-3.8-8-6-13-6c-4.4,0-8.7,1.7-11.8,4.8c-0.7,0.6-1.7,0.6-2.4,0c-1-0.9-2-1.7-3.2-2.4c0.4,1,0.8,2,1.2,3    c0.1,0.4,0.1,0.8,0,1.2c-0.4,1-0.8,2-1.2,3c1.1-0.7,2.2-1.5,3.2-2.4c0.7-0.7,1.7-0.6,2.4,0c0.7,0.7,0.6,1.7,0,2.4    c-2.4,2.3-5.2,4-8.4,4.9c-0.6,0.2-1.3,0-1.8-0.5c-0.4-0.5-0.5-1.2-0.2-1.8c1-2,1.9-4.1,2.7-6.2c-0.8-2.1-1.7-4.2-2.7-6.2    c-0.3-0.6-0.2-1.3,0.2-1.8c0.4-0.5,1.1-0.7,1.8-0.5c2.6,0.8,5.1,2.1,7.2,3.9c3.7-3,8.2-4.7,13-4.7c6.5,0,12.6,3.1,16.5,8.4    c0.4,0.6,0.4,1.4,0,2C63.9,70,57.7,73.1,51.2,73.1L51.2,73.1z"></path>			<path class="wdt-bg-item03" d="M48.5,86.9c-10.2,0-19.1-1.7-23.4-4.4C12.5,74.5,5,60.8,5,45.9c0-7.2,1.8-14.4,5.2-20.7    c0.4-0.8,1.5-1.1,2.3-0.7c0.8,0.4,1.1,1.5,0.7,2.3C10,32.6,8.3,39.2,8.3,45.9c0,13.7,6.9,26.4,18.6,33.8    c3.6,2.3,12.3,3.9,21.5,3.9S66.4,82,70,79.7c11.6-7.4,18.6-20.1,18.6-33.8c0-7.9-2.4-15.6-6.7-22.2C78,29,63.1,31.8,48.5,31.8    c-17.1,0-34.4-3.7-34.4-10.9c0-7.1,17.3-10.9,34.4-10.9c10.8,0,21,1.5,27.3,4c0.9,0.3,1.3,1.3,0.9,2.2c-0.3,0.9-1.3,1.3-2.2,0.9    c-5.9-2.4-15.7-3.8-26.1-3.8c-18.9,0-31,4.4-31,7.5c0,3.1,12.1,7.5,31,7.5c18.9,0,31-4.4,31-7.5c0-0.3-0.2-0.6-0.5-1    c-0.6-0.7-0.5-1.8,0.2-2.4c0.7-0.6,1.8-0.5,2.4,0.2c6.7,7.9,10.4,17.9,10.4,28.1c0,14.9-7.5,28.6-20.1,36.7    C67.6,85.2,58.6,86.9,48.5,86.9L48.5,86.9z"></path>			<path class="wdt-bg-item03" d="M83.8,47.2c-2.7,0-4.2-1-5.4-1.8c-1-0.7-1.8-1.2-3.5-1.2c-1.7,0-2.4,0.5-3.5,1.2c-1.2,0.8-2.6,1.8-5.4,1.8    c-2.7,0-4.2-1-5.4-1.8c-1-0.7-1.8-1.2-3.5-1.2c-1.7,0-2.4,0.5-3.5,1.2c-1.2,0.8-2.6,1.8-5.4,1.8c-2.7,0-4.2-1-5.4-1.8    c-1-0.7-1.8-1.2-3.5-1.2c-1.7,0-2.4,0.5-3.5,1.2c-1.2,0.8-2.6,1.8-5.4,1.8c-2.7,0-4.2-1-5.4-1.8c-1-0.7-1.8-1.2-3.5-1.2    c-1.7,0-2.4,0.5-3.5,1.2c-1.2,0.8-2.6,1.8-5.4,1.8c-0.9,0-1.7-0.8-1.7-1.7s0.8-1.7,1.7-1.7c1.7,0,2.4-0.5,3.5-1.2    c1.2-0.8,2.6-1.8,5.4-1.8s4.2,1,5.4,1.8c1,0.7,1.8,1.2,3.5,1.2s2.4-0.5,3.5-1.2c1.2-0.8,2.6-1.8,5.4-1.8c2.7,0,4.2,1,5.4,1.8    c1,0.7,1.8,1.2,3.5,1.2c1.7,0,2.4-0.5,3.5-1.2c1.2-0.8,2.6-1.8,5.4-1.8c2.7,0,4.2,1,5.4,1.8c1,0.7,1.8,1.2,3.5,1.2    s2.4-0.5,3.5-1.2c1.2-0.8,2.6-1.8,5.4-1.8c2.7,0,4.2,1,5.4,1.8c1,0.7,1.8,1.2,3.5,1.2c0.9,0,1.7,0.8,1.7,1.7    C85.5,46.5,84.7,47.2,83.8,47.2L83.8,47.2z"></path>		</g>	</g></g></svg>