<svg xmlns="http://www.w3.org/2000/svg" xmlns:xlink="http://www.w3.org/1999/xlink" x="0px" y="0px" viewBox="0 0 100 100" style="enable-background:new 0 0 100 100;" xml:space="preserve"><style type="text/css">	.wdt-bg-item2-01{fill:#9CDBF8;}	.wdt-bg-item2-02{fill:#231F20;}</style><g>	<g>		<path class="wdt-bg-item2-01" d="M47.8,73.3c12.9-2.5,24.8-9.9,32.9-21.5c9.9-14.3,11.7-31.7,6.4-47c-12.4,0.3-24.5,5-34,13.6   c-2.8,2.6-5.5,5.6-7.7,8.9C37.3,39,34.6,52.8,36.8,65.7c-6.3,1.2-12.4,3.6-17.9,7.1c6,1,12.1,2.3,18.4,3.9   C41,82,44.4,87.3,47.5,92.6C48.8,86.2,48.9,79.7,47.8,73.3z"></path>		<path class="wdt-bg-item2-02" d="M75.1,54.1C67.4,65.3,55.9,73,42.7,76c0.8,6.1,0.6,12.2-0.6,18.2c-0.2,0.7-0.7,1.3-1.5,1.4   c-0.7,0.1-1.5-0.2-1.8-0.9c-2.9-5-6.2-10.1-9.7-15.2c-5.9-1.5-11.9-2.8-17.6-3.7c-0.7-0.1-1.3-0.7-1.5-1.4   c-0.1-0.7,0.2-1.5,0.8-1.9c5.1-3.3,10.8-5.6,16.8-7c-1.8-13.4,1.4-26.8,9.1-38c1-1.4,2-2.7,3.1-4c0.6-0.8,1.8-0.9,2.5-0.2   c0.8,0.6,0.8,1.8,0.2,2.5c-1,1.2-2,2.5-2.9,3.8c-7.5,10.9-10.4,24-8.3,37c0.2,1-0.5,1.9-1.4,2.1c-4.6,0.9-8.9,2.4-13,4.4   c4.5,0.9,9.1,1.9,13.6,3.1c0.4,0.1,0.8,0.4,1,0.7c2.7,3.9,5.3,7.8,7.7,11.7c0.5-4.5,0.3-9.1-0.4-13.7c-0.2-1,0.5-1.9,1.4-2.1   c13-2.5,24.2-9.9,31.8-20.8C81,39.2,83.4,22.9,78.7,8c-11.2,0.6-21.9,4.8-30.3,12.1c3.5,5.1,7.8,9.5,13,13c3.6,2.5,7.5,4.5,11.7,6   c0.9,0.3,1.4,1.4,1.1,2.3c-0.3,0.9-1.4,1.4-2.3,1.1c-4.4-1.6-8.6-3.8-12.5-6.4c-6-4.1-10.9-9.3-14.8-15.3C44,20,44.1,19,44.8,18.4   C54.4,9.7,66.9,4.7,79.9,4.3c0.8,0,1.5,0.5,1.7,1.2C87.3,21.8,84.9,40,75.1,54.1L75.1,54.1z"></path>		<path class="wdt-bg-item2-02" d="M63.7,22.2c-0.4,0.6-1,1-1.7,1.1c-0.7,0.1-1.4,0-2-0.4c-0.6-0.4-1-1-1.1-1.7c-0.3-1.4,0.8-2.9,2.2-3.1   c0.7-0.1,1.4,0,2,0.4c0.6,0.4,1,1,1.1,1.7C64.3,20.9,64.1,21.7,63.7,22.2L63.7,22.2z"></path>		<path class="wdt-bg-item2-02" d="M53.8,59.5c-2.8,4-8.3,5-12.2,2.2c-4-2.8-5-8.3-2.2-12.2c0.6-0.8,1.7-1,2.5-0.5c0.8,0.6,1,1.7,0.5,2.5   c-1.6,2.4-1,5.6,1.3,7.2c2.4,1.6,5.6,1,7.2-1.3c0.6-0.8,1.7-1,2.5-0.5C54.1,57.5,54.3,58.6,53.8,59.5z"></path>		<path class="wdt-bg-item2-02" d="M56.9,42.6c0.6-0.8,0.4-1.9-0.5-2.5c-0.8-0.6-1.9-0.4-2.5,0.5c-1.6,2.4-4.9,2.9-7.2,1.3   c-2.4-1.6-2.9-4.9-1.3-7.2c0.6-0.8,0.4-1.9-0.5-2.5c-0.8-0.6-1.9-0.4-2.5,0.5c-2.8,4-1.8,9.5,2.2,12.2c2.3,1.6,5.2,1.9,7.7,1.1   c0.1,2.7,1.4,5.2,3.8,6.9c4,2.8,9.5,1.8,12.2-2.2c0.6-0.8,0.4-1.9-0.5-2.5c-0.8-0.6-1.9-0.4-2.5,0.5c-1.6,2.4-4.9,2.9-7.2,1.3   C55.9,48.2,55.3,45,56.9,42.6L56.9,42.6z"></path>	</g></g></svg>