<svg xmlns="http://www.w3.org/2000/svg" data-name="Layer 1" viewBox="0 0 105 56.86"><defs><style>.cls-1{fill:#2c1d30;}.cls-2{fill:#f9c880;}.cls-3{fill:#d19a5e;}.cls-4{fill:#fff;}</style></defs><title>brand logo-02</title><path class="cls-1" d="M107.58,71.93a2,2,0,0,0-1.85-1.3H90.93c0-.44,0-.89,0-1.32l9.87-2.48a2,2,0,0,0-1-3.86l-9.15,2.29c-.13-1.58-.31-3.13-.53-4.64L102,55a2,2,0,0,0-1.7-3.6L89.38,56.55a50.14,50.14,0,0,0-6.76-17.07C76.33,29.77,68.9,27.19,66.78,26.63a2,2,0,0,0-2.32,1.09,54.27,54.27,0,0,0-4.49,15,37.33,37.33,0,0,0-9.41-.18c-2.43-6.16-6.65-10.09-12.22-14.82a2,2,0,0,0-2.53,0C32.35,30.46,27.88,44,29,53.87a27.37,27.37,0,0,0-2.52,4.22L12.39,51.45a2,2,0,0,0-1.7,3.61l14.24,6.71c-.3.86-.58,1.75-.83,2.67l-11-2.63a2,2,0,1,0-.94,3.87l11,2.65c-.14.75-.26,1.51-.38,2.28H4.67A2,2,0,0,0,4,74.47a150.58,150.58,0,0,0,51.19,9,150.48,150.48,0,0,0,51.18-9,2,2,0,0,0,1.2-2.54Z" transform="translate(-2.71 -26.56)"></path><path class="cls-2" d="M37.32,32.13c4.08,3.54,7.24,6.73,9.18,11.07a34.73,34.73,0,0,0-6,1.83,28,28,0,0,0-7.7,4.68A43.09,43.09,0,0,1,37.32,32.13ZM26.24,76.56C27.5,57.34,34.9,51.68,42,48.71,48,46.23,61.89,43.8,72.17,52.29a2,2,0,0,0,2.54-3.07,29.27,29.27,0,0,0-10.83-5.63A48.26,48.26,0,0,1,67.36,31c6.15,2.45,15,10.43,18.27,27.3L74.27,63.68a2,2,0,0,0,.85,3.79,2,2,0,0,0,.85-.19L86.31,62.4c.16,1.24.3,2.51.41,3.83l-6.79,1.7a2,2,0,0,0,.48,3.93,2.12,2.12,0,0,0,.49-.06l6-1.52C87,72.1,87,74,86.94,76a147.11,147.11,0,0,1-60.7.59Z" transform="translate(-2.71 -26.56)"></path><path class="cls-3" d="M47.58,47.08A29.18,29.18,0,0,0,42,48.71c-7.13,3-14.53,8.63-15.79,27.85.87.18,1.73.34,2.6.5.78-14.47,6.28-26.14,18.74-30Z" transform="translate(-2.71 -26.56)"></path><path class="cls-4" d="M37.32,32.13c4.08,3.54,7.24,6.73,9.18,11.07a38.12,38.12,0,0,0-3.71,1,52,52,0,0,0-5.47-12.06ZM55.4,55.69c-4.07-.92-8.36,2.71-9.56,8.11S47,74.31,51,75.21s8.35-2.71,9.56-8.11S59.47,56.59,55.4,55.69ZM86.94,70.28c0,1.82,0,3.73,0,5.7-1.38.31-2.77.59-4.17.86,0-1.91,0-3.74-.05-5.49l4.23-1.06Zm-.63-7.88-4.06,1.91c.1,1,.18,2,.25,3l4.21-1.06C86.61,64.91,86.47,63.63,86.31,62.4Zm-4.57-2.25,3.89-1.83C82.31,41.45,73.51,33.47,67.36,31,70.26,33,78.78,40,81.74,60.15Z" transform="translate(-2.71 -26.56)"></path><path class="cls-1" d="M41.48,64.84c-.78,2.85-2.37,4.89-3.55,4.56s-1.5-2.89-.72-5.73,2.37-4.88,3.55-4.56S42.26,62,41.48,64.84Zm10.8-4.63C51.07,60,49.65,62.14,49.09,65s0,5.42,1.18,5.65,2.62-1.92,3.18-4.82,0-5.42-1.17-5.65Z" transform="translate(-2.71 -26.56)"></path></svg>