<svg xmlns="http://www.w3.org/2000/svg" xmlns:xlink="http://www.w3.org/1999/xlink" x="0px" y="0px" viewBox="0 0 110 110" style="enable-background:new 0 0 110 110;" xml:space="preserve"><style type="text/css">	.brand7-01{clip-path:url(#SVGID_2_);}	.brand7-02{fill:#8B5E3C;}</style><g>	<defs>		<rect id="SVGID_1_" x="10" y="9" width="90" height="92"></rect>	</defs>	<clipPath id="SVGID_2_">		<use xlink:href="#SVGID_1_" style="overflow:visible;"></use>	</clipPath>	<g class="brand7-01">		<path class="brand7-02" d="M53.1,68.8C53.1,68.8,53.2,68.8,53.1,68.8c1.1,0,1.9-0.8,1.9-1.7c0-0.6,0.4-1.2,1-1.5   c0.6-0.3,1.2-0.3,1.8,0.1c0.9,0.5,2,0.3,2.5-0.6c0.5-0.9,0.3-2-0.6-2.5c-1.6-1-3.7-1.1-5.4-0.3c-1.7,0.9-2.8,2.6-2.9,4.6   C51.3,67.9,52.1,68.7,53.1,68.8L53.1,68.8z M66.7,27.5c-1.9,0.6-3.3,2.1-3.7,4c-0.2,1,0.4,2,1.4,2.2c0.1,0,0.3,0,0.4,0   c0.8,0,1.6-0.6,1.8-1.4c0.1-0.6,0.6-1.1,1.2-1.3c0.6-0.2,1.3,0,1.7,0.4c0.7,0.7,1.9,0.6,2.6-0.1c0.7-0.7,0.6-1.9-0.1-2.6   C70.5,27.4,68.5,26.9,66.7,27.5L66.7,27.5z M44.1,73c0.5-0.9,0.3-2-0.6-2.5c-1.6-1-3.7-1.1-5.4-0.3c-1.7,0.9-2.8,2.6-2.9,4.6   c0,1,0.7,1.9,1.7,1.9c0,0,0.1,0,0.1,0c1,0,1.8-0.8,1.8-1.7c0-0.6,0.4-1.2,1-1.5c0.6-0.3,1.2-0.3,1.8,0.1   C42.4,74.1,43.6,73.9,44.1,73L44.1,73z M57.6,80.8c2.9-1,5.3-4.1,4.2-8.1c-0.3-1-1.3-1.5-2.3-1.3c-1,0.3-1.5,1.3-1.3,2.3   c0.5,1.9-0.6,3.2-1.8,3.7c-1.1,0.4-2.1,0-2.9-0.9c-0.1-0.2-0.2-0.3-0.2-0.5l0.2-0.1c0.9-0.5,1.2-1.6,0.8-2.5   c-0.5-0.9-1.6-1.2-2.5-0.8l-3.3,1.7c-0.9,0.5-1.2,1.6-0.8,2.5c0.3,0.6,1,1,1.6,1c0.2,0,0.4,0,0.6-0.1c0.1,0.2,0.2,0.4,0.3,0.5   c0.4,1.1,0.1,2.1-0.7,2.8c-0.9,0.7-2.5,1-3.6-0.3c-0.7-0.8-1.8-0.8-2.6-0.1c-0.8,0.7-0.8,1.8-0.1,2.6c1.4,1.5,3,2.1,4.7,2.1   c1.5,0,2.9-0.5,4-1.4c0.9-0.7,1.7-1.8,2-3C55.1,81.3,56.4,81.2,57.6,80.8L57.6,80.8z M98.8,35.1c-2.1-3.9-5.4-5.4-8.6-6.8   c-3.4-1.5-6.9-3.1-10-7.6c-4.3-6.1-12-10.6-19.8-11.5C55,8.5,50.2,9.8,46.6,12.7c-9.1,1.5-16.1,5.7-20.8,12.4   C15.8,33.3,10,45.4,10,58.3C10,81.9,29.1,101,52.7,101c2.7,0,5.3-0.2,7.8-0.7c0,0,0.1,0,0.1,0c19.7-3.7,34.7-21.1,34.7-41.9   c0-1.8-0.1-3.6-0.3-5.4c0.9-1.1,1.6-2.1,2.1-2.9C100.2,44.8,100.9,38.9,98.8,35.1L98.8,35.1z M52.7,97.4c-21.5,0-39-17.5-39-39   c0-8.5,2.7-16.6,7.6-23.2c-0.7,2.7-1,5-1,6.2c-0.3,4.9,0,11,2.5,15.5c-2,3.5-1,9,0.8,12.5c-0.7,2.8-1.2,7.6,1.4,13   c2.4,5.1,6.7,8.8,12.1,10.5c2.3,0.7,4.7,1.1,7.3,1.1c2.3,0,4.7-0.3,7.1-0.9c-0.1,1.5,0.2,2.8,0.9,3.9   C52.5,97.1,52.6,97.2,52.7,97.4C52.7,97.4,52.7,97.4,52.7,97.4L52.7,97.4z M53.5,88.7c-13.6,4.4-21.9-1.1-25.2-8   c-2.2-4.6-1.7-8.6-1-11.1c0.2-0.5,0.1-1.1-0.2-1.5c-1.4-2.1-2.1-5.6-1.7-7.9c0.1,0.1,0.2,0.2,0.3,0.3c3.2,2.6,7.6,3.1,13,1.5   c6.9-2,12.2-6.2,15.3-12.3c0.5-1,0.9-1.9,1.3-3c0.3-0.1,0.6-0.1,0.9,0c1.8,0.5,4.3,3.3,5.8,6.7c0.2,0.4,0.5,0.7,0.9,0.9   c3.2,1.4,5.6,3.9,7.2,7.5c0,0,0,0.1,0.1,0.1c0.4,0.8,0.7,1.7,0.9,2.6c0.7,2.3,0.7,6.8-1.6,11.5c-1.8,3.7-5.7,8.8-13.7,12   c-0.7,0.3-1.4,0.5-2.1,0.7C53.6,88.6,53.6,88.6,53.5,88.7L53.5,88.7z M60,96.7c-2.1,0-3.8-0.6-4.5-1.7c-0.6-0.9-0.4-2.1,0-3.1   c0.5-0.2,1-0.4,1.5-0.6c9.2-3.6,13.6-9.5,15.7-13.8c2.8-5.7,2.8-11,1.9-14.2c-0.1-0.2-0.1-0.4-0.2-0.6c8-0.5,13.5-3.4,17.2-6.5   c0,0.7,0.1,1.3,0.1,2C91.7,77.3,78,93.2,60,96.7L60,96.7z M93.9,48.1c-1.9,3.2-7.8,10.6-21,11c-1.8-3.6-4.5-6.4-7.9-8   c-1.7-3.4-4.6-7.2-7.9-8.1c-0.3-0.1-0.5-0.1-0.8-0.2c1.3-6.3,0.7-13.6-1.9-20.7c-0.3-1-1.4-1.4-2.3-1.1c-1,0.3-1.4,1.4-1.1,2.3   c3.2,8.9,3.2,17.8-0.2,24.5c-2.6,5.2-7.2,8.8-13.1,10.5c-4.2,1.2-7.5,0.9-9.7-0.9c-4.2-3.3-4.3-11.4-4.1-15.9   c0.2-3.7,2.4-22.1,23.8-25.3c0.4-0.1,0.7-0.2,1-0.4c3.6-3.2,8.1-3.4,11.4-3c6.6,0.8,13.6,4.8,17.2,10c3.6,5.2,7.7,7.1,11.1,8.7   c-0.9,3.1-0.5,6.3,1.2,8.7c1.4,2.1,3.7,3.4,6.3,3.8C95.4,45.4,94.7,46.8,93.9,48.1L93.9,48.1z M92.5,38.1c-0.9-1.4-1.2-3.2-0.8-5   c1.6,0.9,3,2,3.9,3.8c0.5,0.9,0.7,2.2,0.7,3.5C94.7,40.1,93.3,39.3,92.5,38.1z"></path>	</g></g></svg>