<svg xmlns="http://www.w3.org/2000/svg" xmlns:xlink="http://www.w3.org/1999/xlink" x="0px" y="0px" viewBox="0 0 110 110" style="enable-background:new 0 0 110 110;" xml:space="preserve"><style type="text/css">	.brand4-01{fill:#96D4C9;}	.brand4-02{fill:#051049;}	.brand4-03{fill:#FFFFFF;}</style><g>	<g>		<path class="brand4-01" d="M36.9,58.7c-0.4,6.2,1.8,10.2,4.3,12c1.1,0.8,2.3,1.1,3.4,1c0.4,0,0.7-0.1,1-0.3c1.8-4.1-0.4-16.8-8.6-14.5   C37,57.5,36.9,58.1,36.9,58.7L36.9,58.7z M67.5,49.1c0,1.5,0.2,2.8,0.5,4.1c1.1,4.4,3.6,7.2,6,8.1c0.8,0.3,1.6,0.4,2.2,0.2   c0.6-0.1,1.1-0.4,1.6-1c0.6-0.8,1-2.1,1-3.8C77.6,51.3,72.6,50.1,67.5,49.1L67.5,49.1z M54.2,41.5c0.9,5,5.4,6.3,10.4,7.1   c0-2.3,0.4-4.7,1.2-7.3c-2.9-0.6-6-0.7-9.1-0.3C55.8,41.2,55,41.3,54.2,41.5z M34,58.4c0.2-3.7,1.5-7,3.5-9.8   c-3.7-2.6-7.7-4.4-10.4-5.2c-0.5-0.2-0.7-0.4-0.7-0.3c-0.1,0.4,0,1.4,0.2,2.4c0.1,0.4,0.1,0.5,0.1,0.6c0.3,2.3,0.4,3.6-0.1,4.7   C26,52,25,52.6,23.2,53.6c-3.7,2.1-4.2,5.8-4.4,8.1c1.8,7.2,8.7,1.8,13.4-2C32.8,59.2,33.4,58.8,34,58.4L34,58.4z"></path>		<path class="brand4-02" d="M37.2,97c2.6,0,4.7,2.1,4.7,4.7c0,2.6-2.1,4.7-4.7,4.7s-4.7-2.1-4.7-4.7C32.6,99.1,34.7,97,37.2,97z"></path>		<path class="brand4-02" d="M80.6,20.7c0.6-0.5-0.3,1.5,0.2,2.1c0.5,0.6,2.3-0.5,1.7,0c-0.4,0.4-0.8,0.7-1.2,1.1   c-5.6,5.1-9.1,10-11.2,14.5c-0.1,0.3-0.3,0.6-0.4,0.9c5.2,1.9,9.3,5.7,11.1,11.4c1.7,5.6,1.1,9.4-0.6,11.6c-0.9,1.1-2,1.8-3.3,2   c-1.2,0.2-2.5,0.1-3.8-0.4c-3.2-1.2-6.5-4.7-7.9-10.2c-0.8-3.5-0.8-7.8,0.6-12.6c-2.9-0.6-6-0.7-9.1-0.3   c-3.9,0.5-7.7,1.8-10.9,3.8c-1.5,0.9-2.9,2-4.1,3.2c3.3,2.7,6.2,6,7.7,9.9c2.5,6.6,2,11.2,0.2,13.8c-1.2,1.7-2.8,2.6-4.6,2.8   c-1.8,0.2-3.6-0.3-5.4-1.5c-3.3-2.3-6-7.2-5.6-14.6c0.2-3.8,1.5-7.1,3.5-9.9c-3.7-2.6-7.7-4.4-10.4-5.2c-0.5-0.2-0.7-0.4-0.7-0.3   c-0.1,0.4,0,1.4,0.2,2.4c0.1,0.4,0.1,0.5,0.1,0.6c0.3,2.3,0.4,3.6-0.1,4.7C26,52,25,52.6,23.2,53.6c-4,2.2-4.3,6.3-4.4,8.5   c0,0.8-0.1,1.4-0.2,1.8c0,0.1,0,0.1-0.1,0.2c-0.3,0.6-0.7,1.2-1.1,1.7c1.7,2.3-1,2.6,0.1,3.7c2,2,4.4,2.4,7.1,2.8   c0.8,0.1,1.6,0.2,2.4,0.4c6,1.2,11.1,4.9,14.1,9.5c1.3,1.9,2.2,3.9,2.7,6c0.5,2.1,0.6,4.3,0.2,6.3c-0.6,3.2-2.5,6.2-5.9,8.5   c-0.7,0.4-1.6,0.3-2-0.4c-0.4-0.7-0.3-1.6,0.4-2c2.7-1.8,4.1-4.1,4.6-6.6c0.3-1.6,0.3-3.3-0.2-5c-0.4-1.7-1.2-3.5-2.3-5.1   c-2.6-3.9-7-7.2-12.2-8.2c-0.8-0.2-1.5-0.3-2.3-0.4c-4.3-0.7-8.3-1.3-11.1-7.1c-0.1-0.2-0.2-0.5-0.2-0.8c0.1-0.9,0.8-1.6,1.5-2.5   c0.5-0.5,1.2-1.2,1.4-1.8c0-0.2,0.1-0.6,0.1-1c0.2-2.8,0.5-7.9,5.9-10.9c1.3-0.7,2-1.1,2.2-1.5c0.2-0.4,0.1-1.3-0.1-3l-0.1-0.6   c-0.2-1.3-0.4-2.7-0.1-3.8c0.5-1.6,1.7-2.4,4.4-1.6c2.9,0.9,7.3,2.9,11.3,5.8c1.4-1.5,3.1-2.8,4.9-3.9c3.6-2.2,7.8-3.7,12.1-4.3   c3.6-0.5,7.2-0.3,10.5,0.4c0.2-0.4,0.4-0.9,0.6-1.3c2.3-4.8,6.1-10.1,12.1-15.6C79.8,21.4,80.2,21,80.6,20.7L80.6,20.7z    M68.6,42.2c-1.3,4.2-1.3,8-0.6,11.1c1.1,4.4,3.6,7.2,6,8.1c0.8,0.3,1.6,0.4,2.2,0.2c0.6-0.1,1.1-0.4,1.6-1   c1.2-1.5,1.5-4.4,0.1-8.9C76.4,46.9,72.9,43.8,68.6,42.2L68.6,42.2z M39.8,50.4c-1.7,2.4-2.7,5.2-2.9,8.3   c-0.4,6.2,1.8,10.2,4.3,12c1.1,0.8,2.3,1.1,3.4,1c1-0.1,1.9-0.6,2.5-1.5c1.3-2,1.6-5.6-0.5-11.2C45.4,55.7,42.8,52.8,39.8,50.4z"></path>		<path class="brand4-02" d="M12.2,42.8c-0.7,0.4-1.6,0.2-2-0.5c-0.4-0.7-0.2-1.6,0.5-2l39.4-22.8c0,0,0.1,0,0.1-0.1l0,0   c0.2-0.1,0.4-0.1,0.6-0.1h0.1c0.2,0,0.4,0,0.6,0.1l0,0c0,0,0.1,0,0.1,0.1L91,40.2c0.7,0.4,0.9,1.3,0.5,2c-0.4,0.7-1.3,0.9-2,0.5   L50.9,20.4L12.2,42.8z"></path>		<path class="brand4-02" d="M52.9,84.2h22c1.3,0,2.4-0.5,3.3-1.4c0.8-0.8,1.4-2,1.4-3.3v-6.3c0-0.8,0.7-1.5,1.5-1.5   c0.8,0,1.5,0.7,1.5,1.5v6.3c0,2.1-0.9,4-2.2,5.3c-1.4,1.4-3.3,2.2-5.3,2.2h-22c-0.8,0-1.5-0.7-1.5-1.5   C51.4,84.9,52.1,84.2,52.9,84.2L52.9,84.2z"></path>		<path class="brand4-02" d="M52.8,75c-0.8-0.2-1.2-1.1-1-1.8c0.2-0.8,1.1-1.2,1.8-1c3,1,6.3,0.9,9.1,0c2.8-0.9,5.1-2.6,6.6-5.1   c0.4-0.7,1.3-0.9,2-0.5c0.7,0.4,0.9,1.3,0.5,2c-1.8,3.1-4.8,5.2-8.2,6.4C60.4,76.1,56.5,76.1,52.8,75L52.8,75z"></path>		<path class="brand4-02" d="M58.9,64.7l-1.7-0.9l0,0c-0.6-0.3-0.9-1-0.9-1.7c0.1-0.7,0.5-1.3,1.2-1.5l1.2-0.4l1.2-0.4   c0.7-0.2,1.4-0.1,1.8,0.5c0.5,0.5,0.6,1.2,0.3,1.9l0,0l-0.7,1.8c-0.2,0.5-0.6,0.8-1,1C59.8,65,59.3,65,58.9,64.7L58.9,64.7z"></path>		<path class="brand4-02" d="M24,61.3c-0.1,0.4-0.5,0.8-0.9,0.7c-0.4-0.1-0.8-0.5-0.7-0.9c0.1-1.1,0.5-1.9,1.2-2.5   c0.7-0.6,1.5-0.9,2.7-0.9c0.4,0,0.8,0.3,0.8,0.8c0,0.4-0.3,0.8-0.8,0.8c-0.7,0-1.3,0.2-1.7,0.5C24.3,60.1,24,60.6,24,61.3L24,61.3   z"></path>		<path class="brand4-03" d="M37.2,99.2c1.4,0,2.5,1.1,2.5,2.5c0,1.4-1.1,2.5-2.5,2.5c-1.4,0-2.5-1.1-2.5-2.5   C34.8,100.4,35.9,99.2,37.2,99.2z"></path>		<path class="brand4-02" d="M92.9,5.6c-0.8-0.5-1.7-1-2.6-1.2c-1.2-0.2-2.4,0-3.5,0.7c-1.1,0.7-2,1.7-2.7,2.7c-2.3,3.3-3.7,8.3-4.4,12.2   c-0.1,0.5-0.1,1,0.1,1.5c0.2,0.5,0.4,0.9,0.8,1.3c0.4,0.4,0.8,0.6,1.3,0.8c0.5,0.2,1,0.2,1.5,0.1c3.7-0.6,8.1-1.9,11.4-3.7   c1.4-0.8,3-1.9,3.9-3.2c0.9-1.3,1.2-2.7,0.6-4.2c-0.4-1-1.1-1.8-1.9-2.5c-0.3-0.2-0.7-0.2-0.9,0c-0.2,0.3-0.2,0.7,0,0.9   c0.6,0.6,1.2,1.3,1.6,2.1c0.4,1.1,0.2,2.1-0.5,3.1c-0.8,1.2-2.2,2.1-3.5,2.8c-3.2,1.7-7.4,3-11,3.5c-0.3,0-0.6,0-0.9-0.1   c-0.3-0.1-0.6-0.3-0.8-0.5c-0.2-0.2-0.4-0.5-0.5-0.8c-0.1-0.3-0.1-0.6,0-0.9c0.7-3.8,2-8.5,4.2-11.7c0.6-0.9,1.4-1.8,2.3-2.3   c0.8-0.5,1.7-0.7,2.6-0.5c0.8,0.1,1.5,0.5,2.1,0.9c0.3,0.2,0.7,0.1,0.9-0.2C93.3,6.2,93.2,5.8,92.9,5.6L92.9,5.6z"></path>		<path class="brand4-02" d="M80.4,13.6c0.3-0.8,1.1-1.2,1.8-0.9c0.8,0.3,1.2,1.1,0.9,1.8c-0.3,0.9-0.6,1.9-0.8,2.8c-0.3,1-0.5,2-0.6,3   c0,0.2,0,0.4,0,0.5c0,0.2,0.1,0.3,0.3,0.4c0.1,0.1,0.3,0.2,0.4,0.3c0.2,0.1,0.3,0.1,0.5,0c1-0.1,2-0.4,3.1-0.6   c1-0.3,2.1-0.6,3.1-0.9c0.8-0.3,1.6,0.2,1.8,0.9c0.3,0.8-0.2,1.6-0.9,1.8c-1.1,0.4-2.3,0.7-3.4,1c-1.2,0.3-2.3,0.5-3.4,0.7   c-0.6,0.1-1.3,0-1.9-0.2c-0.6-0.2-1.1-0.5-1.6-1c-0.5-0.5-0.8-1-1-1.6c-0.2-0.6-0.2-1.2-0.1-1.9c0.2-1,0.4-2.1,0.7-3.2   C79.8,15.7,80.1,14.7,80.4,13.6L80.4,13.6z"></path>		<path class="brand4-02" d="M93.4,4.9c0.7,0.5,0.8,1.4,0.4,2c-0.5,0.7-1.4,0.8-2,0.4c-0.3-0.2-0.6-0.4-0.9-0.5c-0.3-0.1-0.6-0.2-0.8-0.3   c-0.8-0.1-1.3-0.9-1.2-1.7c0.1-0.8,0.9-1.3,1.7-1.2c0.5,0.1,1,0.2,1.5,0.5C92.4,4.3,92.9,4.6,93.4,4.9L93.4,4.9z M99.9,12.2   c0.3,0.7,0,1.6-0.8,1.9c-0.7,0.3-1.6,0-1.9-0.8c-0.1-0.3-0.3-0.5-0.5-0.8c-0.2-0.3-0.5-0.6-0.8-0.9c-0.6-0.5-0.6-1.5-0.1-2.1   c0.5-0.6,1.5-0.6,2.1-0.1c0.5,0.4,0.8,0.9,1.2,1.3C99.4,11.3,99.7,11.7,99.9,12.2z"></path>		<path class="brand4-02" d="M60.2,54.7c-0.1,0.4-0.6,0.7-1,0.5c-0.4-0.1-0.7-0.6-0.5-1c0.3-1,0.9-1.8,1.7-2.2c0.8-0.4,1.7-0.6,2.8-0.4   c0.4,0.1,0.7,0.5,0.7,0.9s-0.5,0.7-0.9,0.7c-0.7-0.1-1.3,0-1.7,0.2C60.8,53.7,60.4,54.1,60.2,54.7L60.2,54.7z M54.4,56.7   c0.4,0.3,0.9,0.2,1.1-0.2c0.3-0.4,0.2-0.9-0.2-1.1c-0.9-0.6-1.8-0.8-2.7-0.7c-0.9,0.1-1.7,0.6-2.5,1.4c-0.3,0.3-0.3,0.8,0,1.1   c0.3,0.3,0.8,0.3,1.1,0c0.5-0.5,1-0.8,1.5-0.9C53.3,56.2,53.9,56.4,54.4,56.7z"></path>		<path class="brand4-02" d="M55.2,67.7c-0.4-0.2-0.5-0.7-0.3-1.1c0.2-0.4,0.7-0.5,1.1-0.3c0.6,0.3,1.2,0.4,1.7,0.3   c0.3-0.1,0.6-0.2,0.9-0.4c0.2-0.2,0.4-0.5,0.5-0.8c0.1-0.5,0-1-0.3-1.7c-0.1-0.1-0.1-0.3-0.2-0.5l1.5-0.7c0.1,0.1,0.1,0.3,0.2,0.4   c0.3,0.7,0.8,1.1,1.3,1.4c0.4,0.2,0.8,0.3,1.2,0.3c0.4,0,0.7-0.1,1-0.3c0.3-0.2,0.5-0.5,0.5-0.9c0.1-0.4,0.5-0.7,1-0.6   c0.4,0.1,0.7,0.5,0.6,1c-0.2,0.8-0.6,1.4-1.2,1.9c-0.5,0.4-1.2,0.6-1.8,0.7c-0.7,0-1.4-0.1-2-0.5c-0.1,0-0.1-0.1-0.2-0.1   c-0.1,0.7-0.5,1.3-0.9,1.7c-0.5,0.4-1.1,0.7-1.7,0.8C57.1,68.4,56.1,68.2,55.2,67.7z"></path>		<path class="brand4-02" d="M100,76.8c0,0,0-0.1,0-0.1c0-1.8-1.5-3.4-3.4-3.4c-1.4,0-2.6,0.9-3.1,2c-0.5-1.1-1.7-2-3.1-2   c-1.9,0-3.4,1.6-3.4,3.4c0,0,0,0.1,0,0.1c0,0-0.2,2.2,2.2,4.5c1.1,1.1,2.3,2.1,4.3,3.8c2-1.6,3.2-2.7,4.3-3.8   C100.1,79,100,76.8,100,76.8L100,76.8z"></path>		<path class="brand4-02" d="M93.1,61C93.1,61,93.1,60.9,93.1,61c-0.7-1.2-2.2-1.6-3.4-1c-0.9,0.5-1.3,1.5-1.2,2.4   c-0.7-0.5-1.8-0.6-2.7-0.1c-1.2,0.7-1.6,2.2-0.9,3.3c0,0,0,0.1,0.1,0.1c0,0,0.7,1.4,3,2c1.1,0.3,2.2,0.5,4,0.8   c0.7-1.7,1.1-2.8,1.3-3.9C94,62.3,93.1,61,93.1,61L93.1,61z"></path>	</g></g></svg>