<svg xmlns="http://www.w3.org/2000/svg" xmlns:xlink="http://www.w3.org/1999/xlink" x="0px" y="0px" viewBox="0 0 110 110" style="enable-background:new 0 0 110 110;" xml:space="preserve"><style type="text/css">	.brand6-01{fill:#FF6600;}	.brand6-02{fill:#1D256B;}</style><g>	<path class="brand6-01" d="M103.6,61.3c0-0.3,0-0.6,0-0.9c0-0.5,0-1-0.1-1.5c0-0.5-0.1-1-0.1-1.5c0-0.5-0.1-1-0.2-1.5  c-0.1-0.5-0.1-0.9-0.2-1.4c-0.1-0.5-0.2-0.9-0.3-1.4c-0.1-0.5-0.2-0.9-0.3-1.3c-0.1-0.4-0.2-0.9-0.4-1.3c-0.1-0.2-0.1-0.4-0.2-0.6  c-0.1-0.2-0.1-0.4-0.2-0.6c-0.1-0.2-0.2-0.4-0.2-0.6c-0.1-0.2-0.2-0.4-0.2-0.6c-0.1-0.2-0.2-0.4-0.3-0.6c-0.1-0.2-0.2-0.4-0.3-0.6  c-0.1-0.2-0.2-0.4-0.3-0.5c-0.1-0.2-0.2-0.4-0.3-0.5c-0.1-0.2-0.2-0.4-0.3-0.5c-0.1-0.2-0.2-0.3-0.3-0.5s-0.2-0.3-0.4-0.5  c-0.1-0.2-0.3-0.3-0.4-0.5c-0.1-0.2-0.3-0.3-0.4-0.5c-0.1-0.2-0.3-0.3-0.4-0.5s-0.3-0.3-0.4-0.4c-0.2-0.1-0.3-0.3-0.5-0.4  c-0.2-0.1-0.3-0.3-0.5-0.4c-0.2-0.1-0.3-0.3-0.5-0.4c-0.2-0.1-0.3-0.3-0.5-0.4c-0.2-0.1-0.4-0.3-0.6-0.4c-0.2-0.1-0.4-0.2-0.6-0.4  c-0.2-0.1-0.4-0.2-0.6-0.3c-0.2-0.1-0.4-0.2-0.6-0.3c-0.2-0.1-0.4-0.2-0.7-0.3c-0.2-0.1-0.4-0.2-0.7-0.3c-0.2-0.1-0.5-0.2-0.7-0.3  c-0.2-0.1-0.5-0.2-0.7-0.3c-0.2-0.1-0.5-0.2-0.8-0.2c-0.3-0.1-0.5-0.2-0.8-0.2c-0.3-0.1-0.5-0.1-0.8-0.2c-0.3-0.1-0.6-0.1-0.9-0.2  c-0.3-0.1-0.6-0.1-0.9-0.2c-0.3-0.1-0.6-0.1-0.9-0.2c-0.3,0-0.6-0.1-0.9-0.1c-0.3,0-0.6-0.1-1-0.1c-0.3,0-0.7-0.1-1-0.1  c-0.3,0-0.7-0.1-1-0.1c-0.4,0-0.7,0-1.1-0.1c-0.4,0-0.7,0-1.1,0c-0.1,0-0.2,0-0.4,0c-0.5,1.8-0.8,3.7-0.8,5.6  c0,5.3,2.1,10.4,5.8,14.1c3.7,3.7,8.8,5.8,14.1,5.8C99.7,62.1,101.7,61.8,103.6,61.3L103.6,61.3z"></path>	<path class="brand6-01" d="M28.9,39.6c-0.2,0-0.3,0-0.5,0c-0.3,0-0.6,0-0.9,0c-0.3,0-0.6,0-0.9,0c-0.3,0-0.6,0-0.9,0.1  c-0.3,0-0.6,0.1-0.9,0.1c-0.3,0-0.6,0.1-0.9,0.1c-0.3,0-0.6,0.1-0.9,0.2c-0.3,0.1-0.6,0.1-0.9,0.2c-0.3,0.1-0.6,0.1-0.8,0.2  c-0.3,0.1-0.6,0.1-0.8,0.2c-0.3,0.1-0.5,0.2-0.8,0.3c-0.3,0.1-0.5,0.2-0.8,0.3c-0.3,0.1-0.5,0.2-0.8,0.3c-0.3,0.1-0.5,0.2-0.8,0.3  c-0.3,0.1-0.5,0.2-0.8,0.4c-0.2,0.1-0.5,0.2-0.7,0.4c-0.2,0.1-0.5,0.3-0.7,0.4c-0.2,0.1-0.4,0.2-0.6,0.2c-0.2,0-0.4,0-0.7,0  c-0.2,0-0.4-0.1-0.6-0.2L11,41.8l-2.6-1.4l0,2.7l0.1,5.7c0,0,0,0,0,0.1c0,0,0,0,0,0.1c0,0,0,0,0,0.1c0,0,0,0,0,0.1c0,0,0,0,0,0.1  c0,0,0,0,0,0.1c0,0,0,0,0,0.1c0,0,0,0,0,0.1c0,0,0,0,0,0.1c0,0,0,0,0,0.1c0,0,0,0,0,0.1c0,0,0,0,0,0.1c0,0,0,0,0,0.1c0,0,0,0,0,0.1  c0,0,0,0,0,0.1C8.2,49.9,8.1,50,8,50.2c-0.1,0.1-0.1,0.3-0.2,0.4c-0.1,0.3-0.2,0.6-0.4,0.9c-0.1,0.3-0.2,0.6-0.3,0.9  c-0.1,0.3-0.2,0.6-0.3,1c-0.1,0.3-0.1,0.7-0.2,1c-0.1,0.3-0.1,0.7-0.2,1c0,0.3-0.1,0.6-0.1,0.9c0,0.3,0,0.6,0,0.9v0c0,0,0,0,0,0v0  c0,0,0,0,0,0v0c0,0,0,0,0,0v0c0,0,0,0,0,0c0,0,0,0,0,0v0c0,0,0,0,0,0c0,0,0,0,0,0c0,0.4,0,0.8,0,1.2c0,0.4,0,0.8,0,1.2  c0,0.4,0,0.7,0.1,1.1c0,0.4,0.1,0.7,0.1,1c0,0,0,0.1,0,0.1c0.8,0.1,1.6,0.2,2.4,0.2c11,0,19.9-8.9,19.9-19.9  C29,41.3,29,40.5,28.9,39.6L28.9,39.6z"></path>	<path class="brand6-02" d="M77.9,32.7c-15,0-22.5,7.2-25.7,14.4c-3.2,7.2-2.5,14.2-2.5,14.2l0-0.1c0.1,4.2-1.9,6.9-5.7,9.1  c-3.8,2.1-9.4,3.3-15.5,3.3c-6.8,0-12.6-0.9-16.4-3.3c-3.8-2.4-5.9-6-5.6-12.8c0,0,0-0.1,0-0.1c0-2.3,0.7-5.4,1.8-7.4  c0.2-0.3,0.3-0.6,0.3-1l-0.1-5.7l0-2.7l2.6,1.4l2.3,1.2c0.6,0.3,1.3,0.3,1.9,0c3.8-2.2,8.4-3.4,13.2-3.4c4.8,0,9.4,1.2,13.2,3.4  c0.6,0.3,1.3,0.4,1.9,0l2.3-1.2l4.6-2.4c0.9-0.5,1.3-1.7,0.8-2.6c-0.5-0.9-1.7-1.3-2.6-0.8l-4.6,2.4l-1.4,0.7  c-4.2-2.2-9.1-3.4-14.2-3.4h0c-5,0-9.9,1.2-14.2,3.4l-1.4-0.7l-5.5-2.9c-0.6-0.3-1.3-0.3-1.9,0.1c-0.6,0.4-0.9,1-0.9,1.7l0.1,6  l0.1,5.2c-1.4,2.7-2.1,5.9-2.1,8.7c-0.3,7.8,2.5,13.2,7.4,16.3c4.8,3.1,11.3,3.9,18.5,3.9c6.6,0,12.8-1.2,17.4-3.8  c4.7-2.6,7.8-7,7.7-12.5c0,0,0-0.1,0-0.1c0,0-0.5-6.2,2.2-12.3c2.7-6.1,8.4-12.1,22.2-12.1c12.4,0,18.7,3.7,22.2,9.3  c3.4,5.6,4,13.7,3.3,22.5c0,0.5,0.1,1,0.5,1.4c0.3,0.4,0.8,0.6,1.3,0.7c1.1,0.1,2-0.7,2.1-1.8c0.7-9.1,0.3-17.9-3.9-24.8  C99.2,37,91.1,32.7,77.9,32.7z"></path>	<path class="brand6-02" d="M62.8,55.4c-0.5-0.2-1-0.1-1.5,0.1c-0.5,0.2-0.8,0.6-1,1.1c-2.5,7-2,12,0.8,15.1c2.8,3.1,7.2,3.6,11.4,3.1  c2.3-0.3,4.2-1.4,5.4-2.8c1.2-1.4,1.9-3.1,2.2-4.6c0.7-3.1,0.3-5.9,0.3-5.9c-0.2-1.1-1.1-1.8-2.2-1.6c-1.1,0.2-1.8,1.1-1.6,2.2  c0,0,0.3,2.2-0.2,4.5c-0.3,1.1-0.7,2.2-1.4,2.9c-0.7,0.8-1.5,1.3-3,1.5c-3.5,0.4-6.6-0.2-8.1-1.9c-1.5-1.7-2.3-4.9,0-11.2  c0.2-0.5,0.2-1-0.1-1.5C63.6,56,63.2,55.6,62.8,55.4L62.8,55.4z"></path>	<path class="brand6-02" d="M94.4,55.4c-0.5,0.2-0.9,0.5-1.1,1c-0.2,0.5-0.2,1-0.1,1.5c2.3,6.3,1.5,9.5,0,11.2c-1.5,1.7-4.6,2.3-8.1,1.9  c-1.5-0.2-2.3-0.7-3-1.5c-0.7-0.8-1.1-1.8-1.4-2.9c-0.5-2.2-0.2-4.5-0.2-4.5c0.2-1.1-0.6-2-1.6-2.2c-1.1-0.2-2,0.6-2.2,1.6  c0,0-0.4,2.8,0.3,5.9c0.3,1.5,1,3.2,2.2,4.6c1.2,1.4,3.1,2.5,5.4,2.8c4.2,0.5,8.6,0,11.4-3.1c2.8-3.1,3.3-8.1,0.8-15.1  c-0.2-0.5-0.5-0.9-1-1.1C95.4,55.3,94.8,55.3,94.4,55.4L94.4,55.4z"></path>	<path class="brand6-02" d="M32,62.4c0,0.6-0.4,1.3-1.2,1.7c-0.8,0.5-1.8,0.7-2.9,0.7c-1.1,0-2.1-0.3-2.9-0.7s-1.2-1.1-1.2-1.7  c0-1.3,1.8-2.4,4.1-2.4S32,61.1,32,62.4z"></path>	<path class="brand6-02" d="M82.4,61.9c0,1.3-1.8,2.4-4.1,2.4c-2.3,0-4.1-1.1-4.1-2.4c0-0.6,0.4-1.3,1.2-1.7c0.8-0.5,1.8-0.7,2.9-0.7  c1.1,0,2.1,0.3,2.9,0.7C81.9,60.6,82.4,61.2,82.4,61.9z"></path>	<path class="brand6-02" d="M20.1,52.9c0,0.8-0.3,1.5-0.8,2c-0.5,0.5-1.3,0.8-2,0.8c-0.8,0-1.5-0.3-2-0.8c-0.5-0.5-0.8-1.3-0.8-2  c0-0.8,0.3-1.5,0.8-2c0.5-0.5,1.3-0.8,2-0.8c0.8,0,1.5,0.3,2,0.8C19.8,51.4,20.1,52.1,20.1,52.9z"></path>	<path class="brand6-02" d="M41.6,52.9c0,0.8-0.3,1.5-0.8,2c-0.5,0.5-1.3,0.8-2,0.8c-0.8,0-1.5-0.3-2-0.8c-0.5-0.5-0.8-1.3-0.8-2  c0-0.8,0.3-1.5,0.8-2c0.5-0.5,1.3-0.8,2-0.8c0.8,0,1.5,0.3,2,0.8C41.3,51.4,41.6,52.1,41.6,52.9z"></path>	<path class="brand6-02" d="M73,52.9c0,1.6-1.3,2.9-2.8,2.9c-0.8,0-1.5-0.3-2-0.8c-0.5-0.5-0.8-1.3-0.8-2c0-0.8,0.3-1.5,0.8-2  c0.5-0.5,1.3-0.8,2-0.8C71.8,50,73,51.3,73,52.9z"></path>	<path class="brand6-02" d="M90.5,52.9c0,0.8-0.3,1.5-0.8,2c-0.5,0.5-1.3,0.8-2,0.8s-1.5-0.3-2-0.8c-0.5-0.5-0.8-1.3-0.8-2  c0-0.8,0.3-1.5,0.8-2c0.5-0.5,1.3-0.8,2-0.8c0.8,0,1.5,0.3,2,0.8C90.2,51.4,90.5,52.1,90.5,52.9z"></path></g></svg>