<svg xmlns="http://www.w3.org/2000/svg" xmlns:xlink="http://www.w3.org/1999/xlink" x="0px" y="0px" viewBox="0 0 50 50" style="enable-background:new 0 0 50 50;" xml:space="preserve"><g>	<path d="M42.5,45.6H7.5c-2.8,0-5-2.3-5-5V9.5c0-0.6,0.5-1.1,1.1-1.1h42.7c0.6,0,1.1,0.5,1.1,1.1v31.1  C47.5,43.3,45.2,45.6,42.5,45.6z M4.8,10.6v29.9c0,1.5,1.2,2.7,2.7,2.7h34.9c1.5,0,2.7-1.2,2.7-2.7V10.6H4.8z"></path></g><g>	<path d="M46.4,22.3H3.6c-0.6,0-1.1-0.5-1.1-1.1S3,20,3.6,20h42.7c0.6,0,1.1,0.5,1.1,1.1S47,22.3,46.4,22.3z"></path></g><g>	<path d="M28.9,14.5c-0.6,0-1.1-0.5-1.1-1.1V5.6c0-0.6,0.5-1.1,1.1-1.1S30,5,30,5.6v7.8C30,14,29.5,14.5,28.9,14.5z"></path></g><g>	<path d="M21.1,14.5c-0.6,0-1.1-0.5-1.1-1.1V5.6c0-0.6,0.5-1.1,1.1-1.1s1.1,0.5,1.1,1.1v7.8C22.3,14,21.7,14.5,21.1,14.5z"></path></g><g>	<path d="M36.6,14.5c-0.6,0-1.1-0.5-1.1-1.1V5.6c0-0.6,0.5-1.1,1.1-1.1c0.6,0,1.1,0.5,1.1,1.1v7.8C37.8,14,37.3,14.5,36.6,14.5z"></path></g><g>	<path d="M13.4,14.5c-0.6,0-1.1-0.5-1.1-1.1V5.6c0-0.6,0.5-1.1,1.1-1.1s1.1,0.5,1.1,1.1v7.8C14.5,14,14,14.5,13.4,14.5z"></path></g><g>	<path d="M13.4,32c-1.7,0-3.1-1.4-3.1-3.1c0-1.7,1.4-3.1,3.1-3.1s3.1,1.4,3.1,3.1C16.4,30.6,15.1,32,13.4,32z M13.4,28.1  c-0.4,0-0.8,0.4-0.8,0.8c0,0.4,0.4,0.8,0.8,0.8c0.4,0,0.8-0.4,0.8-0.8C14.1,28.4,13.8,28.1,13.4,28.1z"></path></g><g>	<path d="M13.4,39.7c-1.7,0-3.1-1.4-3.1-3.1c0-1.7,1.4-3.1,3.1-3.1s3.1,1.4,3.1,3.1C16.4,38.4,15.1,39.7,13.4,39.7z M13.4,35.9  c-0.4,0-0.8,0.4-0.8,0.8c0,0.4,0.4,0.8,0.8,0.8c0.4,0,0.8-0.4,0.8-0.8C14.1,36.2,13.8,35.9,13.4,35.9z"></path></g><g>	<path d="M21.1,32c-1.7,0-3.1-1.4-3.1-3.1c0-1.7,1.4-3.1,3.1-3.1c1.7,0,3.1,1.4,3.1,3.1C24.2,30.6,22.8,32,21.1,32z M21.1,28.1  c-0.4,0-0.8,0.4-0.8,0.8c0,0.4,0.4,0.8,0.8,0.8c0.4,0,0.8-0.4,0.8-0.8C21.9,28.4,21.6,28.1,21.1,28.1z"></path></g><g>	<path d="M21.1,39.7c-1.7,0-3.1-1.4-3.1-3.1c0-1.7,1.4-3.1,3.1-3.1c1.7,0,3.1,1.4,3.1,3.1C24.2,38.4,22.8,39.7,21.1,39.7z   M21.1,35.9c-0.4,0-0.8,0.4-0.8,0.8c0,0.4,0.4,0.8,0.8,0.8c0.4,0,0.8-0.4,0.8-0.8C21.9,36.2,21.6,35.9,21.1,35.9z"></path></g><g>	<path d="M28.9,32c-1.7,0-3.1-1.4-3.1-3.1c0-1.7,1.4-3.1,3.1-3.1c1.7,0,3.1,1.4,3.1,3.1C32,30.6,30.6,32,28.9,32z M28.9,28.1  c-0.4,0-0.8,0.4-0.8,0.8c0,0.4,0.4,0.8,0.8,0.8c0.4,0,0.8-0.4,0.8-0.8C29.7,28.4,29.3,28.1,28.9,28.1z"></path></g><g>	<path d="M28.9,39.7c-1.7,0-3.1-1.4-3.1-3.1c0-1.7,1.4-3.1,3.1-3.1c1.7,0,3.1,1.4,3.1,3.1C32,38.4,30.6,39.7,28.9,39.7z M28.9,35.9  c-0.4,0-0.8,0.4-0.8,0.8c0,0.4,0.4,0.8,0.8,0.8c0.4,0,0.8-0.4,0.8-0.8C29.7,36.2,29.3,35.9,28.9,35.9z"></path></g><g>	<path d="M36.6,32c-1.7,0-3.1-1.4-3.1-3.1c0-1.7,1.4-3.1,3.1-3.1c1.7,0,3.1,1.4,3.1,3.1C39.7,30.6,38.4,32,36.6,32z M36.6,28.1  c-0.4,0-0.8,0.4-0.8,0.8c0,0.4,0.4,0.8,0.8,0.8c0.4,0,0.8-0.4,0.8-0.8C37.4,28.4,37.1,28.1,36.6,28.1z"></path></g><g>	<path d="M36.6,39.7c-1.7,0-3.1-1.4-3.1-3.1c0-1.7,1.4-3.1,3.1-3.1c1.7,0,3.1,1.4,3.1,3.1C39.7,38.4,38.4,39.7,36.6,39.7z   M36.6,35.9c-0.4,0-0.8,0.4-0.8,0.8c0,0.4,0.4,0.8,0.8,0.8c0.4,0,0.8-0.4,0.8-0.8C37.4,36.2,37.1,35.9,36.6,35.9z"></path></g></svg>