<svg xmlns="http://www.w3.org/2000/svg" width="26" height="25" viewBox="0 0 26 25" fill="none"><g clip-path="url(#clip0_154_287)"><path d="M16.0464 24.5099C15.7839 24.4761 15.522 24.4376 15.259 24.4099C13.5232 24.2251 11.8994 23.6887 10.3812 22.8803C6.71237 20.9274 3.88685 18.1608 1.92997 14.5858C1.20838 13.2677 0.719037 11.8638 0.524274 10.3825C0.106022 7.20346 1.09152 4.47116 3.43695 2.20621C3.90194 1.75716 4.40541 1.31046 4.97119 0.997957C6.36813 0.22702 8.06646 0.493071 9.21409 1.59434C9.79936 2.156 10.3734 2.7294 10.9314 3.31593C12.5986 5.06942 12.0119 7.767 9.75943 8.7458C9.44976 8.88047 9.14398 9.02311 8.8309 9.14933C8.00997 9.48061 7.50408 10.5101 7.7451 11.4232C7.95155 12.2049 8.36493 12.8783 8.87764 13.4967C9.97464 14.8199 11.1885 16.0291 12.6862 16.9389C13.2812 17.3002 13.922 17.5677 14.6509 17.5011C15.3691 17.4354 15.95 17.1276 16.3064 16.5068C16.4899 16.1877 16.6341 15.8461 16.7835 15.5101C17.7505 13.3372 20.6423 12.752 22.4297 14.3732C22.9897 14.8814 23.5364 15.4036 24.0896 15.9184C24.742 16.526 25.1403 17.2533 25.2221 18.1322C25.227 18.1829 25.2596 18.2317 25.2796 18.2809V18.6554C25.2591 18.7126 25.2255 18.7689 25.2202 18.8276C25.171 19.3827 24.9981 19.903 24.6607 20.3502C24.3622 20.7458 24.0258 21.1193 23.6713 21.4698C22.0217 23.0999 20.0556 24.1415 17.6824 24.4085C17.4277 24.4372 17.1745 24.4756 16.9208 24.5094H16.0464V24.5099ZM16.4597 22.6621C16.4636 22.6827 16.4675 22.7034 16.4709 22.7245C17.1312 22.6278 17.8026 22.5757 18.4492 22.4261C20.2566 22.007 21.6711 20.9855 22.8626 19.6464C23.5803 18.8398 23.5369 17.9346 22.7447 17.1914C22.2281 16.7071 21.7101 16.2243 21.191 15.7429C20.3044 14.9199 18.98 15.1789 18.4936 16.2661C18.3368 16.6166 18.1644 16.9605 18.0008 17.3082C17.3936 18.5967 15.4855 19.6055 13.7711 19.2752C12.9652 19.1199 12.2193 18.8309 11.5439 18.3917C9.64939 17.1604 8.06451 15.6232 6.79709 13.7918C6.30483 13.081 5.98152 12.2978 5.84227 11.4396C5.58713 9.87053 6.56435 8.1832 7.80791 7.62248C8.19597 7.44745 8.58209 7.26915 8.9721 7.09929C10.0847 6.61646 10.35 5.3641 9.51257 4.50541C8.98573 3.96534 8.4516 3.43183 7.91162 2.90395C7.23238 2.24 6.25224 2.18744 5.53065 2.80447C5.05981 3.20707 4.60017 3.63125 4.19409 4.0939C2.96514 5.4936 2.32632 7.11149 2.31804 8.9593C2.31171 10.4134 2.64913 11.7939 3.28503 13.0946C5.17618 16.9619 8.1356 19.8303 12.1307 21.6856C13.4896 22.3167 14.9357 22.6701 16.4593 22.6621H16.4597Z" fill="currentcolor"></path><path d="M25.2792 6.23305C25.2301 6.53356 25.1934 6.83683 25.1295 7.13457C24.6388 9.42017 22.8097 11.108 20.4398 11.4684C17.3471 11.939 14.4427 9.88245 13.9601 6.90504C13.4866 3.98203 15.4788 1.19912 18.5277 0.652039C21.744 0.074994 24.6942 2.19651 25.1729 5.1882C25.2091 5.41358 25.2439 5.63942 25.2797 5.8648V6.23259L25.2792 6.23305ZM19.5758 2.35045C17.4863 2.30205 15.744 4.0295 15.7316 6.02381C15.7187 8.05683 17.4768 9.7474 19.5482 9.75708C21.6462 9.76676 23.3972 8.07112 23.4043 6.06206C23.4119 4.04241 21.661 2.30943 19.5758 2.35045Z" fill="currentcolor"></path><path d="M19.8239 5.51722C19.9952 5.51722 20.1313 5.50581 20.2656 5.51929C20.7575 5.56751 21.1247 5.96002 21.138 6.49356C21.1499 6.97784 20.8653 7.47094 20.3725 7.50931C19.8532 7.54923 19.3256 7.56168 18.809 7.50464C18.3299 7.45176 18.0504 7.03903 18.0408 6.48993C18.0298 5.86151 18.0289 5.23256 18.0408 4.60414C18.0522 4.00786 18.466 3.53757 18.9415 3.55157C19.4215 3.56557 19.8034 4.01512 19.8221 4.60258C19.8317 4.89346 19.8239 5.18486 19.8239 5.51826V5.51722Z" fill="currentcolor"></path></g><defs><clipPath id="clip0_154_287"><rect width="24.8489" height="23.9528" fill="currentcolor" transform="translate(0.430664 0.557129)"></rect></clipPath></defs></svg>