<svg xmlns="http://www.w3.org/2000/svg" xmlns:xlink="http://www.w3.org/1999/xlink" x="0px" y="0px" viewBox="0 0 50 50" style="enable-background:new 0 0 50 50;" xml:space="preserve"><g>	<path d="M12.9,46.6L12.2,46C11.8,45.5,2,36.1,2.1,29.1C2.2,23.2,7,18.4,12.9,18.4s10.8,4.8,10.8,10.8c0,7.4-9.7,16.4-10.1,16.8  L12.9,46.6L12.9,46.6z M12.9,21c-4.5,0-8.3,3.8-8.3,8.3c0,2.4,1.5,5.5,4.4,9.3c1.5,2,3.1,3.7,3.9,4.5c2.1-2,8.3-8.7,8.3-13.9  C21.2,24.7,17.4,21,12.9,21L12.9,21z M12.9,35c-3.2,0-5.8-2.6-5.8-5.8s2.6-5.8,5.8-5.8s5.8,2.6,5.8,5.8S16.1,35,12.9,35z   M12.9,25.8c-1.8,0-3.4,1.5-3.4,3.4s1.5,3.4,3.4,3.4c1.8,0,3.4-1.5,3.4-3.4S14.7,25.8,12.9,25.8z"></path>	<path d="M41,47.9H19V46h22c1.7,0,3.1-1.4,3.1-3.1s-1.4-3.1-3.1-3.1H30v-1.9h11c2.8,0,5,2.3,5,5S43.7,47.9,41,47.9z"></path>	<path d="M30.1,39.8c-2.8,0-5-2.3-5-5c0-2.8,2.3-5,5-5h2.5v1.9h-2.5c-1.7,0-3.1,1.4-3.1,3.1s1.4,3.1,3.1,3.1  C30.1,37.9,30.1,39.8,30.1,39.8z"></path>	<path d="M36.4,30.3l-0.7-0.6c-0.4-0.4-10.2-9.8-10.1-16.8C25.7,7,30.5,2.2,36.4,2.2S47.2,7,47.2,13c0,7.4-9.7,16.4-10.1,16.8  L36.4,30.3L36.4,30.3z M36.4,4.7c-4.5,0-8.3,3.8-8.3,8.3c0,2.3,1.5,5.5,4.4,9.3c1.5,2,3.1,3.7,3.9,4.5c2.1-2,8.3-8.6,8.3-13.9  C44.7,8.5,40.9,4.7,36.4,4.7L36.4,4.7z M36.4,18.7c-3.2,0-5.8-2.6-5.8-5.8s2.6-5.8,5.8-5.8s5.8,2.6,5.8,5.8S39.6,18.7,36.4,18.7z   M36.4,9.7c-1.8,0-3.3,1.5-3.3,3.3c0,1.8,1.5,3.3,3.3,3.3c1.8,0,3.3-1.5,3.3-3.3C39.7,11.1,38.2,9.7,36.4,9.7z"></path></g></svg>