<svg xmlns="http://www.w3.org/2000/svg" xmlns:xlink="http://www.w3.org/1999/xlink" x="0px" y="0px" viewBox="0 0 50 50" style="enable-background:new 0 0 50 50;" xml:space="preserve"><g>	<path d="M12.9,46.6l-0.7-0.6C11.8,45.5,2,36.1,2.1,29.1C2.2,23.2,7,18.4,12.9,18.4c5.9,0,10.8,4.8,10.8,10.8  c0,7.4-9.7,16.4-10.1,16.8L12.9,46.6L12.9,46.6z M12.9,20.3c-4.8,0-8.8,4-8.8,8.8c0,2.5,1.6,5.9,4.7,9.9c1.6,2.1,3.3,3.9,4.2,4.8  c2.2-2.1,8.8-9.2,8.8-14.8C21.7,24.2,17.7,20.3,12.9,20.3L12.9,20.3z M12.9,35c-3.2,0-5.8-2.6-5.8-5.8s2.6-5.8,5.8-5.8  c3.2,0,5.8,2.6,5.8,5.8S16.1,35,12.9,35z M12.9,25.3c-2.1,0-3.9,1.7-3.9,3.9s1.7,3.9,3.9,3.9c2.1,0,3.9-1.7,3.9-3.9  S15,25.3,12.9,25.3z"></path>	<path d="M41,47.9H19V46h22c1.7,0,3.1-1.4,3.1-3.1s-1.4-3.1-3.1-3.1H30v-1.9h11c2.8,0,5,2.3,5,5S43.7,47.9,41,47.9z"></path>	<path d="M30.1,39.8c-2.8,0-5-2.3-5-5c0-2.8,2.3-5,5-5h2.5v1.9h-2.5c-1.7,0-3.1,1.4-3.1,3.1c0,1.7,1.4,3.1,3.1,3.1V39.8z"></path>	<path d="M36.4,30.3l-0.7-0.6c-0.4-0.4-10.2-9.8-10.1-16.8c0.1-5.9,4.9-10.7,10.8-10.7s10.8,4.8,10.8,10.8c0,7.4-9.7,16.4-10.1,16.8  L36.4,30.3L36.4,30.3z M36.4,4c-4.8,0-8.8,4-8.8,8.8c0,2.5,1.6,5.9,4.7,9.9c1.6,2.1,3.3,3.9,4.2,4.8c2.2-2.1,8.8-9.2,8.8-14.8  C45.2,8,41.2,4,36.4,4L36.4,4z M36.4,18.7c-3.2,0-5.8-2.6-5.8-5.8c0-3.2,2.6-5.8,5.8-5.8c3.2,0,5.8,2.6,5.8,5.8  C42.2,16.1,39.6,18.7,36.4,18.7z M36.4,9.1c-2.1,0-3.9,1.7-3.9,3.9c0,2.1,1.7,3.9,3.9,3.9c2.1,0,3.9-1.7,3.9-3.9  C40.2,10.8,38.5,9.1,36.4,9.1z"></path></g></svg>