<svg xmlns="http://www.w3.org/2000/svg" width="26" height="25" viewBox="0 0 26 25" fill="none"><g clip-path="url(#clip0_154_297)"><path d="M25.2796 16.99C25.2295 17.2971 25.192 17.6075 25.1263 17.9117C24.6252 20.2449 22.7555 21.9753 20.339 22.3389C20.0126 22.3879 19.6803 22.4218 19.3504 22.4223C15.0127 22.4279 10.6749 22.4293 6.33665 22.4246C3.56303 22.4218 1.24965 20.6763 0.608912 18.0883C0.497014 17.6362 0.443984 17.16 0.441065 16.6947C0.42501 14.1952 0.431821 11.6953 0.433767 9.19581C0.436199 6.41092 2.33896 4.1427 5.15782 3.5813C5.54266 3.50453 5.94403 3.47156 6.33762 3.47109C10.6754 3.46355 15.0131 3.46355 19.3514 3.46732C22.2272 3.46967 24.5697 5.32344 25.1468 8.04804C25.2066 8.32968 25.2358 8.61698 25.2796 8.90192V16.99ZM12.8394 20.5826C15.0487 20.5826 17.2579 20.584 19.4672 20.5807C19.6842 20.5807 19.9031 20.5633 20.1177 20.5327C21.9051 20.2788 23.352 18.6667 23.3544 16.9194C23.3588 14.2711 23.3564 11.6223 23.3535 8.97398C23.3535 8.81102 23.3345 8.64618 23.3077 8.48463C23.0032 6.64453 21.3909 5.31025 19.4686 5.30978C15.0501 5.30837 10.6316 5.30931 6.21259 5.30978C6.0749 5.30978 5.93625 5.30413 5.80002 5.31873C3.84472 5.52596 2.33798 7.15083 2.33652 9.05452C2.33458 11.6482 2.33458 14.2419 2.33652 16.8355C2.33798 18.9026 4.0729 20.5803 6.21015 20.5826C8.41941 20.585 10.6287 20.5831 12.8379 20.5831L12.8394 20.5826Z" fill="currentcolor"></path><path d="M13.2924 14.44C12.161 14.4801 10.8488 14.1344 9.69851 13.3433C8.13982 12.271 6.59255 11.1854 5.04132 10.1038C4.5027 9.72783 4.41973 9.18012 4.83511 8.77791C5.18988 8.43487 5.72104 8.40328 6.1727 8.71428C7.10235 9.35453 8.02603 10.0019 8.95221 10.6466C9.55243 11.0644 10.1532 11.4808 10.7519 11.9C12.3071 12.9878 14.2514 12.9945 15.8289 11.9155C17.3847 10.8517 18.9399 9.78745 20.4946 8.72185C20.7564 8.5421 21.0262 8.40462 21.379 8.47269C21.7735 8.54877 22.0269 8.75522 22.1338 9.09826C22.2456 9.45731 22.1179 9.76209 21.8014 9.98633C21.1604 10.4406 20.5065 10.8806 19.8566 11.3251C18.9051 11.9765 17.9541 12.6283 17.0001 13.277C15.9129 14.0165 14.9708 14.3319 13.2919 14.4396L13.2924 14.44Z" fill="currentcolor"></path></g><defs><clipPath id="clip0_154_297"><rect width="24.8489" height="23.9528" fill="currentcolor" transform="translate(0.430664 0.470703)"></rect></clipPath></defs></svg>