<svg xmlns="http://www.w3.org/2000/svg" xmlns:xlink="http://www.w3.org/1999/xlink" x="0px" y="0px" viewBox="0 0 50 50" style="enable-background:new 0 0 50 50;" xml:space="preserve"><style type="text/css">	.wdt-hear-dollar-01{fill:#FFC10E;}	.wdt-hear-dollar-02{fill:#231F20;}</style><g>	<g>		<path class="wdt-hear-dollar-01" d="M35.5,17.9c-3,0-5.6,1.3-7.5,3.4c-1.8-2.1-4.5-3.4-7.5-3.4c-5.5,0-10,4.5-10,10c0,10.6,17.4,19.9,17.4,19.9   s17.4-9.4,17.4-19.9C45.5,22.4,41,17.9,35.5,17.9z"></path>		<path class="wdt-hear-dollar-02" d="M31.4,10.6c-0.6,0-1.1-0.4-1.2-1c-0.1-0.6,0.3-1.3,1-1.4c5.1-0.9,9.9-2.9,14.2-5.9C45.9,2,46.6,2.1,47,2.7   c0.4,0.5,0.2,1.3-0.3,1.6c-4.6,3.2-9.6,5.3-15.1,6.3C31.5,10.6,31.5,10.6,31.4,10.6L31.4,10.6z"></path>		<path class="wdt-hear-dollar-02" d="M18,10.6c-0.1,0-0.1,0-0.2,0c-5.4-1-10.5-3.1-15.1-6.3C2.2,4,2.1,3.2,2.4,2.7C2.8,2.1,3.5,2,4.1,2.4   c4.3,3,9.1,5,14.2,5.9c0.6,0.1,1.1,0.7,1,1.4C19.1,10.2,18.6,10.6,18,10.6z"></path>		<path class="wdt-hear-dollar-02" d="M33.9,27.3H15.5c-0.7,0-1.2-0.5-1.2-1.2c0-0.7,0.5-1.2,1.2-1.2h18.4c0.7,0,1.2,0.5,1.2,1.2   C35.1,26.8,34.6,27.3,33.9,27.3z"></path>		<path class="wdt-hear-dollar-02" d="M30.8,32.9H18.7c-0.7,0-1.2-0.5-1.2-1.2c0-0.7,0.5-1.2,1.2-1.2h12.1c0.7,0,1.2,0.5,1.2,1.2   C32,32.4,31.4,32.9,30.8,32.9z"></path>		<path class="wdt-hear-dollar-02" d="M32.2,13.4c-1.4,0-2.8,0.3-4.1,0.8v-4.1c0-1.9-1.5-3.4-3.4-3.4s-3.4,1.5-3.4,3.4v3.5c0,0.7,0.5,1.2,1.2,1.2   s1.2-0.5,1.2-1.2v-3.5c0-0.6,0.5-1,1-1c0.6,0,1,0.5,1,1v4.9c0,0.6-0.5,1-1,1c-0.7,0-1.2,0.5-1.2,1.2c0,0.7,0.5,1.2,1.2,1.2   c0.8,0,1.4-0.3,2-0.7c0,0,0.1,0,0.1-0.1c1.5-1.2,3.4-1.8,5.4-1.8c4.8,0,8.8,3.9,8.8,8.8c0,8.7-13.3,16.9-16.2,18.6   c-2.9-1.7-16.2-9.9-16.2-18.6c0-4.8,3.9-8.8,8.8-8.8c0.2,0,0.5,0,0.7,0c0.6,0,1.2-0.4,1.3-1.1c0.1-0.7-0.4-1.2-1.1-1.3   c-0.3,0-0.6,0-0.9,0c-6.1,0-11.1,5-11.1,11.1c0,11.2,17.3,20.6,18,21c0.2,0.1,0.4,0.1,0.6,0.1c0.2,0,0.4,0,0.6-0.1   c0.7-0.4,18-9.8,18-21C43.3,18.4,38.3,13.4,32.2,13.4L32.2,13.4z"></path>	</g></g></svg>