<svg xmlns="http://www.w3.org/2000/svg" width="26" height="25" viewBox="0 0 26 25" fill="none"><g clip-path="url(#clip0_154_304)"><path d="M13.5707 0.694824C13.8772 0.729126 14.1842 0.760182 14.4907 0.797729C16.6362 1.06009 18.4384 1.95239 19.8922 3.4547C21.1335 4.7373 21.8788 6.2461 22.1012 7.97323C22.4043 10.3257 21.7538 12.4236 20.1849 14.2722C18.6676 16.06 17.1582 17.8534 15.6296 19.633C14.4592 20.9957 12.2944 20.9971 11.1201 19.632C9.51818 17.7696 7.9207 15.9038 6.3552 14.0145C5.26595 12.6999 4.70312 11.186 4.58996 9.51541C4.31789 5.48544 7.21175 1.89167 11.2972 0.964601C11.7936 0.851962 12.3112 0.820905 12.8189 0.750912C12.9389 0.734225 13.058 0.713366 13.1781 0.694824C13.3089 0.694824 13.4398 0.694824 13.5707 0.694824ZM20.3148 9.02545C20.2484 8.55404 20.2198 8.07521 20.1101 7.61306C19.3052 4.22324 15.8112 1.94451 12.0327 2.64167C8.54306 3.28551 6.07231 6.37497 6.52641 9.81948C6.68336 11.0103 7.14582 12.0797 7.93644 13.0174C9.45766 14.8219 10.9892 16.6186 12.5158 18.419C13.0177 19.0109 13.7335 19.0095 14.2368 18.4157C15.6562 16.7419 17.0588 15.0546 18.5033 13.3998C19.6186 12.1219 20.274 10.7007 20.3153 9.02545H20.3148Z" fill="currentcolor"></path><path d="M13.3664 22.9092C14.9848 22.8871 16.5579 22.671 18.0597 22.0907C18.6754 21.853 19.2532 21.5529 19.7302 21.1068C20.4138 20.4672 20.4565 19.8722 19.8251 19.1916C19.4239 18.7593 19.502 18.1049 19.9608 17.8182C20.3498 17.5754 20.8608 17.6187 21.1912 17.9473C22.459 19.2077 22.514 20.8621 21.2728 22.1672C20.4379 23.0452 19.3604 23.5645 18.1994 23.9489C17.1328 24.3019 16.0332 24.5309 14.9042 24.5885C14.017 24.6337 13.1225 24.6752 12.2379 24.624C10.3387 24.5148 8.50595 24.1318 6.8453 23.2097C5.97933 22.729 5.24415 22.1193 4.82961 21.2313C4.27098 20.0354 4.66094 18.7736 5.62182 17.8897C5.95769 17.5809 6.52173 17.5915 6.87628 17.8841C7.22051 18.168 7.29476 18.6773 7.04004 19.0353C6.9766 19.1243 6.89841 19.2035 6.82662 19.287C6.35257 19.8386 6.33142 20.41 6.85465 20.923C7.19396 21.2552 7.59719 21.552 8.02305 21.7806C9.12999 22.3742 10.3525 22.647 11.6104 22.7806C12.1936 22.8424 12.7813 22.8673 13.3669 22.9092H13.3664Z" fill="currentcolor"></path><path d="M8.71387 9.18142C8.76503 6.65486 10.7735 4.68553 13.3815 4.68689C16.0016 4.68825 18.0374 6.66619 18.0322 9.18595C18.027 11.6953 16.0063 13.6628 13.3885 13.6692C10.7834 13.6755 8.77019 11.7125 8.71387 9.18142ZM13.3726 11.9096C14.9535 11.91 16.1866 10.7127 16.2147 9.20181C16.2424 7.70001 14.9206 6.44737 13.3974 6.43831C11.8522 6.42925 10.5459 7.68913 10.5398 9.16647C10.5337 10.6615 11.8447 11.9485 13.3726 11.91V11.9096Z" fill="currentcolor"></path></g><defs><clipPath id="clip0_154_304"><rect width="24.8489" height="23.9528" fill="currentcolor" transform="translate(0.430664 0.694824)"></rect></clipPath></defs></svg>