<svg xmlns="http://www.w3.org/2000/svg" xmlns:xlink="http://www.w3.org/1999/xlink" x="0px" y="0px" viewBox="0 0 83 82" style="enable-background:new 0 0 83 82;" xml:space="preserve"><g>	<g>		<path d="M65.3,77.8H17.7C10.1,77.8,4,71.6,4,64.1V30.2c0-7.5,6.1-13.7,13.7-13.7h47.7c7.5,0,13.7,6.1,13.7,13.7v33.9   C79,71.6,72.9,77.8,65.3,77.8z M17.7,21.5c-4.8,0-8.7,3.9-8.7,8.7v33.9c0,4.8,3.9,8.7,8.7,8.7h47.7c4.8,0,8.7-3.9,8.7-8.7V30.2   c0-4.8-3.9-8.7-8.7-8.7H17.7z"></path>	</g>	<g>		<path d="M44.1,65.1h-5.3c-0.1,0-0.1,0-0.2,0c-1.3-0.1-2.4-0.7-3.2-1.6c-0.8-0.9-1.2-2.1-1.2-3.3V55h-4.2c-0.1,0-0.1,0-0.2,0   c-1.3-0.1-2.4-0.7-3.2-1.6c-0.8-0.9-1.2-2.1-1.2-3.3v-5.9c-0.1-1.2,0.4-2.4,1.2-3.3c0.8-0.9,2-1.5,3.2-1.6c0.1,0,0.1,0,0.2,0h4.2   v-5.1c-0.1-1.2,0.4-2.4,1.2-3.3c0.8-0.9,2-1.5,3.2-1.6c0.1,0,0.1,0,0.2,0h5.3c0.1,0,0.1,0,0.2,0c1.3,0.1,2.4,0.7,3.2,1.6   c0.8,0.9,1.2,2.1,1.2,3.3v5.1h4.2c0.1,0,0.1,0,0.2,0c1.3,0.1,2.4,0.7,3.2,1.6c0.8,0.9,1.2,2.1,1.2,3.3v5.9   c0.1,1.2-0.4,2.4-1.2,3.3c-0.8,0.9-2,1.5-3.2,1.6c-0.1,0-0.1,0-0.2,0h-4.2v5.1c0.1,1.2-0.4,2.4-1.2,3.3c-0.8,0.9-2,1.5-3.2,1.6   C44.3,65.1,44.2,65.1,44.1,65.1z M39.3,60.1h4.5v-7.6c0-1.4,1.1-2.5,2.5-2.5h6.3v-5.8h-6.3c-1.4,0-2.5-1.1-2.5-2.5v-7.6h-4.5v7.6   c0,1.4-1.1,2.5-2.5,2.5h-6.3V50h6.3c1.4,0,2.5,1.1,2.5,2.5V60.1z M28,50.2L28,50.2L28,50.2z"></path>	</g>	<g>		<path d="M30.9,21.4c-1.4,0-2.5-1.1-2.5-2.5v-7.6c-0.1-1.7,0.5-3.4,1.6-4.7c1.2-1.3,2.8-2.1,4.5-2.3c0.1,0,0.1,0,0.2,0h13.5   c3.5,0,6.3,3.1,6.3,6.9v7.7c0,1.4-1.1,2.5-2.5,2.5s-2.5-1.1-2.5-2.5v-7.7c0-1.1-0.7-1.9-1.3-1.9H34.8c-0.4,0-0.8,0.2-1.1,0.6   c-0.3,0.3-0.4,0.8-0.4,1.2c0,0.1,0,0.1,0,0.2v7.7C33.4,20.2,32.3,21.4,30.9,21.4z"></path>	</g></g></svg>