<svg xmlns="http://www.w3.org/2000/svg" xmlns:xlink="http://www.w3.org/1999/xlink" x="0px" y="0px" viewBox="0 0 30 30" style="enable-background:new 0 0 30 30;" xml:space="preserve"><g>	<path class="line line-1" d="M27.9,8.4H2.1C1,8.4,0,7.9,0,7.3s1-1.1,2.1-1.1h25.7C29,6.2,30,6.7,30,7.3S29,8.4,27.9,8.4z"></path>	<path class="line line-2" d="M27.9,16.1H2.1C1,16.1,0,15.6,0,15c0-0.6,1-1.1,2.1-1.1h25.7c1.2,0,2.1,0.5,2.1,1.1C30,15.6,29,16.1,27.9,16.1z"></path>	<path class="line line-3" d="M27.9,23.8H2.1C1,23.8,0,23.3,0,22.7c0-0.6,1-1.1,2.1-1.1h25.7c1.2,0,2.1,0.5,2.1,1.1C30,23.3,29,23.8,27.9,23.8z"></path></g></svg>