<svg xmlns="http://www.w3.org/2000/svg" xmlns:xlink="http://www.w3.org/1999/xlink" x="0px" y="0px" viewBox="0 0 50 50" style="enable-background:new 0 0 50 50;" xml:space="preserve"><style type="text/css">	.wdt-pet-food01{fill:#FFC10E;}	.wdt-pet-food02{fill:#FFFFFF;}	.wdt-pet-food03{fill:#231F20;}</style><g>	<g>		<g>			<path class="wdt-pet-food01" d="M40.7,16.2V6.5l-2.8,2.1L35,6.5l-2.8,2.1l-2.8-2.1l-2.8,2.1l-2.8-2.1l-2.8,2.1l-2.8-2.1l-2.8,2.1l-2.8-2.1    v9.6c0,0-1.4,8.6-1.4,16.5s1.4,16.5,1.4,16.5h28.4c0,0,1.4-8.6,1.4-16.5C42.1,24.7,40.7,16.2,40.7,16.2L40.7,16.2z"></path>			<path class="wdt-pet-food02" d="M22.1,33.7c-1-0.7-2.4-0.6-3.3,0.3c-1,1-1,2.6,0,3.6c0.5,0.5,1.2,0.8,1.8,0.8c0,0.7,0.2,1.3,0.8,1.8    c1,1,2.6,1,3.6,0c0.9-0.9,1-2.2,0.3-3.2l5.4-5.4c1,0.7,2.4,0.6,3.2-0.3c1-1,1-2.6,0-3.6c-0.5-0.5-1.2-0.8-1.8-0.8    c0-0.7-0.2-1.3-0.8-1.8c-1-1-2.6-1-3.6,0c-0.9,0.9-1,2.2-0.3,3.2L22.1,33.7L22.1,33.7z"></path>			<path class="wdt-pet-food03" d="M20.5,39.2c-0.9,0-1.8-0.4-2.5-1c-0.5-0.5-0.8-1-0.9-1.7c-0.6-0.2-1.2-0.5-1.7-0.9c-1.4-1.4-1.4-3.6,0-5    c1-1,2.5-1.3,3.7-0.8l2.5-2.5c0.4-0.4,1-0.4,1.4,0c0.4,0.4,0.4,1,0,1.4l-3,3c-0.3,0.3-0.9,0.4-1.2,0.1c-0.6-0.4-1.5-0.3-2,0.2    c-0.6,0.6-0.6,1.6,0,2.2c0.3,0.3,0.7,0.5,1.1,0.5c0,0,0,0,0,0c0.3,0,0.5,0.1,0.7,0.3c0.2,0.2,0.3,0.4,0.3,0.7    c0,0.4,0.2,0.8,0.5,1.1c0.6,0.6,1.6,0.6,2.2,0c0.5-0.5,0.6-1.4,0.2-2c-0.3-0.4-0.2-0.9,0.1-1.2l5.4-5.4c0.3-0.3,0.9-0.4,1.2-0.1    c0.6,0.4,1.5,0.3,2-0.2c0.3-0.3,0.5-0.7,0.5-1.1c0-0.4-0.2-0.8-0.5-1.1c-0.3-0.3-0.7-0.5-1.1-0.5h0c-0.3,0-0.5-0.1-0.7-0.3    c-0.2-0.2-0.3-0.4-0.3-0.7c0-0.4-0.2-0.8-0.5-1.1c-0.6-0.6-1.6-0.6-2.2,0c-0.5,0.5-0.6,1.4-0.2,2c0.3,0.5,0.2,1.1-0.3,1.4    c-0.5,0.3-1.1,0.2-1.4-0.3c-0.9-1.4-0.8-3.3,0.4-4.5c0.7-0.7,1.6-1,2.5-1c1,0,1.8,0.4,2.5,1c0.5,0.5,0.8,1,0.9,1.7    c0.6,0.2,1.2,0.5,1.7,0.9c0.7,0.7,1,1.6,1,2.5c0,1-0.4,1.8-1,2.5c-1,1-2.5,1.3-3.7,0.8l-4.4,4.4c0.5,1.3,0.2,2.8-0.8,3.7    C22.3,38.9,21.4,39.2,20.5,39.2L20.5,39.2z"></path>			<path class="wdt-pet-food03" d="M37.9,47.4H9.4c-0.5,0-0.9-0.3-1-0.8c0-0.1-1.4-8.7-1.4-16.7c0-4.7,0.5-9.6,0.9-12.9C8,16.4,8.5,16,9,16.1    c0.5,0.1,0.9,0.6,0.9,1.1C9.5,20.5,9,25.3,9,29.9c0,6.4,0.9,13.2,1.3,15.6H37c0.3-2.3,1.3-9.2,1.3-15.6S37.4,16.7,37,14.4H9.4    c-0.5,0-1-0.4-1-1V3.7C8.5,3.4,8.7,3,9,2.9c0.3-0.2,0.7-0.1,1,0.1l2.3,1.7l2.3-1.7c0.3-0.3,0.8-0.3,1.2,0L18,4.6l2.3-1.7    c0.3-0.3,0.8-0.3,1.2,0l2.3,1.7l2.3-1.7c0.3-0.3,0.8-0.3,1.2,0l2.3,1.7l2.3-1.7c0.3-0.3,0.8-0.3,1.2,0L35,4.6l2.3-1.7    c0.3-0.2,0.7-0.3,1-0.1c0.3,0.2,0.5,0.5,0.5,0.9v5.9c0,0.5-0.4,1-1,1c-0.5,0-1-0.4-1-1v-4l-1.3,0.9c-0.3,0.3-0.8,0.3-1.2,0    L32.2,5l-2.3,1.7c-0.3,0.3-0.8,0.3-1.2,0L26.5,5l-2.3,1.7c-0.3,0.3-0.8,0.3-1.2,0L20.8,5l-2.3,1.7c-0.3,0.3-0.8,0.3-1.2,0L15.1,5    l-2.3,1.7c-0.3,0.3-0.8,0.3-1.2,0l-1.3-0.9v6.7h27.5c0.5,0,0.9,0.3,1,0.8c0,0.1,1.4,8.7,1.4,16.7c0,8-1.4,16.6-1.4,16.7    C38.8,47.1,38.4,47.4,37.9,47.4z"></path>		</g>	</g></g></svg>