<svg xmlns="http://www.w3.org/2000/svg" xmlns:xlink="http://www.w3.org/1999/xlink" x="0px" y="0px" viewBox="0 0 50 50" style="enable-background:new 0 0 50 50;" xml:space="preserve"><g>	<g>		<path d="M13.6,40.3c-0.1,0-0.2,0-0.3-0.1c-0.3-0.2-0.3-0.5-0.2-0.8L16,35c0.9-1.4,1.6-3,1.9-4.6l0.8-3.3c0.4-1.5,0.6-3.1,0.8-4.6   l0.2-1.8c0.2-2.3,1.5-4.4,3.5-5.7c0.4-0.3,1-0.5,1.6-0.7c0.8-0.3,1.6-0.4,2.4-0.4h2.1c1.9,0,3.8,0.6,5.4,1.6   c1.7,1.2,3,2.8,3.7,4.7l0.8,2.1c0.2,0.5,0.7,0.9,1.2,0.9h2.7c2.3,0,4.2,1.8,4.2,4.1c0,2.3-0.9,4.5-2.5,6.2   c-1.6,1.7-3.8,2.6-6.2,2.6h-3.7c-0.3,0-0.6-0.2-0.6-0.6c0-0.3,0.2-0.6,0.6-0.6h3.7c2,0,3.9-0.8,5.4-2.2c1.4-1.4,2.2-3.4,2.2-5.4   c0-1.7-1.4-3-3.1-3h-2.7c-1,0-1.9-0.6-2.3-1.6l-0.8-2.1c-0.6-1.7-1.8-3.2-3.3-4.2c-1.4-1-3.1-1.5-4.8-1.5h-2.1   c-0.7,0-1.4,0.1-2,0.3c-0.6,0.2-1,0.4-1.4,0.6c-1.7,1.1-2.8,2.9-3,4.9l-0.2,1.8c-0.2,1.6-0.4,3.2-0.8,4.8L19,30.6   c-0.4,1.8-1.1,3.4-2.1,4.9L14,40C13.9,40.2,13.7,40.3,13.6,40.3L13.6,40.3z"></path>		<path d="M28.8,42.8c-0.4,0-0.9,0-1.3-0.2c-1.7-0.4-3.2-1.6-3.9-3.2c-0.8-1.8-1.1-3.7-0.9-5.7l1.2-13c0-0.3,0.3-0.5,0.6-0.5   c0.3,0,0.5,0.3,0.5,0.6l-1.2,13c-0.2,1.7,0.1,3.5,0.9,5.1c0.6,1.3,1.8,2.3,3.1,2.6c1.3,0.3,2.7,0,3.8-0.8c1.8-1.3,2.8-3.5,2.8-5.7   c0-0.9-0.3-1.7-0.8-2.4c-1.8-2.4-3.4-5.1-4.6-7.9c-0.4-1-0.6-2-0.6-3.1v-1.5c0-0.3,0.2-0.6,0.6-0.6c0.3,0,0.6,0.2,0.6,0.6v1.5   c0,0.9,0.2,1.8,0.6,2.7c1.2,2.7,2.7,5.3,4.5,7.6c0.7,0.9,1,2,1,3.1c0,2.6-1.2,5-3.3,6.6C31.2,42.4,30,42.8,28.8,42.8L28.8,42.8z"></path>		<path d="M33.1,44.9c-0.3,0-0.5-0.2-0.6-0.5c0-1-0.2-2.1-0.6-3.1L31.8,41c-0.1-0.3,0.1-0.6,0.3-0.7c0.3-0.1,0.6,0.1,0.7,0.3   l0.1,0.3c0.4,1.1,0.6,2.2,0.6,3.4C33.6,44.6,33.4,44.9,33.1,44.9C33.1,44.9,33.1,44.9,33.1,44.9L33.1,44.9z"></path>		<path d="M45.4,28c-1.7,0-3.1-1.5-3.1-3.4c0-0.4,0-0.7,0.1-1c0.1-0.3,0.4-0.5,0.7-0.4c0.3,0.1,0.5,0.4,0.4,0.7   c-0.1,0.2-0.1,0.4-0.1,0.7c0,1.2,0.9,2.3,2,2.3c0.4,0,0.7-0.1,1-0.3c0.3-0.2,0.6-0.1,0.8,0.1c0.2,0.2,0.1,0.6-0.1,0.8   C46.5,27.9,46,28,45.4,28L45.4,28z"></path>		<path d="M13,34.7c-0.1,0-0.2,0-0.3-0.1C9,31.7,2.9,25.8,2.3,19c-0.3-3.5,1-6.9,3.8-9.9c5.2-5.2,13.5-5.2,18.8-0.2   c5.3-5,13.6-4.9,18.8,0.3c3.4,3.7,4.4,7.9,3.1,12.4c-0.1,0.3-0.4,0.5-0.7,0.4c-0.3-0.1-0.5-0.4-0.4-0.7c1.2-4.1,0.2-7.9-2.9-11.3   C38,5.1,30.2,5,25.4,9.8L25.3,10c-0.1,0.1-0.2,0.2-0.4,0.2c-0.1,0-0.3-0.1-0.4-0.2l-0.1-0.1C19.5,5,11.7,5,6.9,9.8   c-2.5,2.8-3.7,5.9-3.5,9.1c0.5,6.4,6.4,12,9.9,14.8c0.2,0.2,0.3,0.5,0.1,0.8C13.3,34.6,13.2,34.7,13,34.7L13,34.7z"></path>	</g></g></svg>