<svg xmlns="http://www.w3.org/2000/svg" xmlns:xlink="http://www.w3.org/1999/xlink" x="0px" y="0px" viewBox="0 0 42 22" style="enable-background:new 0 0 42 22;" xml:space="preserve"><g>	<path d="M33.5,17.4c-0.2,0-0.4-0.1-0.5-0.3c-0.2-0.3-0.1-0.7,0.1-1L39,11l-5.9-5.1c-0.2-0.3-0.4-0.7-0.1-1c0.2-0.3,0.6-0.4,0.9-0.1  l6.5,5.7c0.1,0.1,0.2,0.3,0.2,0.6c0,0.3-0.1,0.4-0.2,0.6l-6.5,5.7C33.8,17.3,33.6,17.4,33.5,17.4z"></path>	<path d="M33.5,18c-0.5,0-0.8-0.3-1-0.5c-0.4-0.5-0.4-1.2,0.1-1.8l5.4-4.7l-5.4-4.7c-0.6-0.6-0.6-1.4-0.2-1.9  c0.5-0.6,1.3-0.7,1.8-0.1l6.4,5.7c0.2,0.2,0.5,0.5,0.5,1c0,0.5-0.2,0.8-0.4,1l-6.7,5.9H34C33.9,18,33.7,18,33.5,18z M33.5,5.2  C33.5,5.2,33.5,5.2,33.5,5.2c0,0,0,0.1,0.1,0.2L40,11l-6.4,5.6c0,0,0,0.1,0,0.2c0,0,0.1,0,0.1,0l6.4-5.6c0-0.1,0-0.1,0-0.1  s0-0.1-0.1-0.2L33.5,5.2z"></path></g><g>	<g>		<path d="M39.5,11.7H1.8c-0.4,0-0.6-0.3-0.6-0.7c0-0.4,0.2-0.7,0.6-0.7h37.7c0.4,0,0.6,0.3,0.6,0.7C40.2,11.4,39.9,11.7,39.5,11.7z   "></path>		<path d="M39.5,12.3H1.8c-0.7,0-1.2-0.6-1.2-1.3c0-0.8,0.5-1.3,1.2-1.3h37.7c0.7,0,1.2,0.6,1.2,1.3C40.8,11.8,40.2,12.3,39.5,12.3z    M39.5,10.9l-37.7,0l0,0.2l37.7,0L39.5,10.9z"></path>	</g></g></svg>