<svg xmlns="http://www.w3.org/2000/svg" xmlns:xlink="http://www.w3.org/1999/xlink" x="0px" y="0px" viewBox="0 0 55 55" style="enable-background:new 0 0 55 55;" xml:space="preserve"><style type="text/css">	.cart{stroke:currentcolor;stroke-width:2;stroke-miterlimit:10;}</style><path class="cart" d="M44.4,41.8l7.1,7.1c0.7,0.7,0.7,1.9,0,2.6c-0.7,0.7-1.8,0.7-2.5,0l-7.1-7.1c-9.9,8.5-24.7,7.3-33.2-2.6 S1.4,17,11.2,8.6s24.7-7.3,33.2,2.6C52,19.9,52,32.9,44.4,41.8L44.4,41.8z M26.5,46.4c11,0,20-9,20-20s-9-19.9-20-19.9 S6.6,15.4,6.6,26.4S15.5,46.4,26.5,46.4z"></path></svg>