<svg xmlns="http://www.w3.org/2000/svg" width="30" height="44" viewBox="0 0 30 44" fill="none"><g clip-path="url(#clip0_173_3007)"><path d="M26.0903 19.0249C25.3031 19.0249 24.5873 19.3341 24.0546 19.8358C23.9238 18.4494 22.7538 17.3602 21.334 17.3602C20.5825 17.3602 19.9 17.6646 19.4054 18.1593C19.0106 16.9274 17.8548 16.0308 16.4945 16.0308C15.6788 16.0308 14.9369 16.3543 14.3899 16.8775V10.0237C14.3899 8.29958 12.9868 6.89648 11.2627 6.89648C9.53854 6.89648 8.13545 8.29958 8.13545 10.0237V27.4553C7.37207 26.252 6.14258 24.5992 4.49692 23.2698C3.49335 22.4589 2.07837 22.4518 1.06054 23.2508C0.470761 23.7146 0.0997741 24.3804 0.018918 25.1248C-0.0619381 25.8644 0.152093 26.5897 0.625339 27.1652C1.61464 28.3709 3.1081 30.5659 4.61107 34.1997C4.78943 34.604 8.99157 44.0023 15.7264 44.0023C15.812 44.0023 15.9 44.0023 15.9856 43.9976H17.0914C23.6931 43.9976 29.0653 38.6254 29.0653 32.0237V21.9999C29.0653 20.3614 27.7312 19.0273 26.0926 19.0273L26.0903 19.0249ZM28.1117 32.0213C28.1117 38.0998 23.1675 43.0439 17.0891 43.0439H15.9666C9.71452 43.2627 5.52189 33.9096 5.48384 33.8263C3.94044 30.0951 2.3899 27.8168 1.36018 26.5612C1.0534 26.1854 0.910713 25.7122 0.96541 25.227C1.01773 24.7372 1.26268 24.302 1.64793 23.9976C2.31618 23.472 3.24365 23.4767 3.90001 24.0071C6.25673 25.9096 7.70976 28.5303 8.09977 29.2865C8.21155 29.5005 8.45174 29.6123 8.68717 29.5552C8.9226 29.4981 9.08669 29.2889 9.08669 29.0463V10.0237C9.08669 8.82514 10.0617 7.84773 11.2627 7.84773C12.4636 7.84773 13.4387 8.82276 13.4387 10.0237V25.6836C13.4387 25.9452 13.6527 26.1593 13.9143 26.1593C14.1759 26.1593 14.3899 25.9452 14.3899 25.6836V19.0867C14.3899 17.9262 15.334 16.9821 16.4945 16.9821C17.6551 16.9821 18.5992 17.9262 18.5992 19.0867V25.403C18.5992 25.6646 18.8132 25.8786 19.0748 25.8786C19.3364 25.8786 19.5504 25.6646 19.5504 25.403V20.0951C19.5504 19.1105 20.3495 18.3115 21.334 18.3115C22.3186 18.3115 23.1176 19.1105 23.1176 20.0951V25.403C23.1176 25.6646 23.3316 25.8786 23.5932 25.8786C23.8548 25.8786 24.0689 25.6646 24.0689 25.403V21.9976C24.0689 20.8822 24.9749 19.9762 26.0903 19.9762C27.2056 19.9762 28.1117 20.8822 28.1117 21.9976V32.0213Z" fill="currentcolor"></path><path d="M5.31036 17.3151C5.39359 17.3722 5.48872 17.4007 5.58146 17.4007C5.73128 17.4007 5.87873 17.3294 5.97147 17.1986C6.1213 16.9822 6.06898 16.6873 5.85495 16.5351C3.56006 14.9322 2.19026 12.3068 2.19026 9.51011C2.19026 4.79192 6.03093 0.951249 10.7515 0.951249C15.4721 0.951249 19.3127 4.79191 19.3127 9.51249C19.3127 10.7515 19.0535 11.9477 18.5422 13.0654C18.4328 13.3032 18.5375 13.5862 18.7777 13.6956C19.0155 13.805 19.2985 13.7004 19.4079 13.4602C19.9762 12.2164 20.264 10.8894 20.264 9.51249C20.264 4.26635 15.9953 0 10.7515 0C5.50774 0 1.23901 4.26635 1.23901 9.51249C1.23901 12.6183 2.76101 15.5363 5.31036 17.3151Z" fill="currentcolor"></path></g><defs><clipPath id="clip0_173_3007"><rect width="29.063" height="44" fill="white"></rect></clipPath></defs></svg>