<svg xmlns="http://www.w3.org/2000/svg" width="66" height="65" viewBox="0 0 66 65" fill="none"><path d="M57.4824 38.6522V57.1747L33.1074 63.9844V35.0975L57.4824 28.2141" stroke="currentcolor" stroke-width="2" stroke-linecap="round" stroke-linejoin="round"></path><path d="M33.1074 35.0974L40.3768 43.2326L64.5918 36.3492L57.4824 28.214L51.3861 26.49" stroke="currentcolor" stroke-width="2" stroke-linecap="round" stroke-linejoin="round"></path><path d="M33.1074 35.0975L8.73242 28.2141" stroke="currentcolor" stroke-width="2" stroke-linecap="round" stroke-linejoin="round"></path><path d="M8.73242 38.6521V57.1746L33.1074 63.9843" stroke="currentcolor" stroke-width="2" stroke-linecap="round" stroke-linejoin="round"></path><path d="M33.1074 35.0974L25.8432 43.2326L1.62305 36.3492L8.73242 28.214L14.8287 26.49" stroke="currentcolor" stroke-width="2" stroke-linecap="round" stroke-linejoin="round"></path><path d="M33.0898 19.2993C33.0898 20.9827 31.2719 22.3462 29.0273 22.3462C26.7828 22.3462 24.9648 20.9827 24.9648 19.2993" stroke="currentcolor" stroke-width="2" stroke-linecap="round" stroke-linejoin="round"></path><path d="M41.2148 19.2993C41.2148 20.9827 39.3969 22.3462 37.1523 22.3462C34.9078 22.3462 33.0898 20.9827 33.0898 19.2993" stroke="currentcolor" stroke-width="2" stroke-linecap="round" stroke-linejoin="round"></path><path d="M25.9805 11.1743C25.9805 11.1743 26.6584 10.1587 28.0117 10.1587C29.365 10.1587 30.043 11.1743 30.043 11.1743" stroke="currentcolor" stroke-width="2" stroke-linecap="round" stroke-linejoin="round"></path><path d="M36.1367 11.1743C36.1367 11.1743 36.8146 10.1587 38.168 10.1587C39.5213 10.1587 40.1992 11.1743 40.1992 11.1743" stroke="currentcolor" stroke-width="2" stroke-linecap="round" stroke-linejoin="round"></path><path d="M30.043 22.3462V24.3774C30.043 26.0608 31.4064 27.4243 33.0898 27.4243C34.7732 27.4243 36.1367 26.0608 36.1367 24.3774V22.3462" stroke="currentcolor" stroke-width="2" stroke-linecap="round" stroke-linejoin="round"></path><path d="M33.0898 19.2993L30.043 17.2681C30.043 16.1458 30.952 15.2368 32.0742 15.2368H34.1055C35.2277 15.2368 36.1367 16.1458 36.1367 17.2681L33.0898 19.2993Z" stroke="currentcolor" stroke-width="2" stroke-linecap="round" stroke-linejoin="round"></path><path d="M20.9023 11.1744V15.2369H18.1017C17.2943 15.2369 16.5198 14.917 15.946 14.3457L15.6515 14.0511C14.6105 13.0101 14.5698 11.3343 15.5601 10.2451L23.0503 2.15055C23.84 1.29743 24.9013 1.0486 25.9753 1.02067C27.0722 0.990203 28.1818 1.19587 29.0247 2.0363" stroke="currentcolor" stroke-width="2" stroke-linecap="round" stroke-linejoin="round"></path><path d="M45.3129 11.1744V15.2369H48.1135C48.9209 15.2369 49.6953 14.917 50.2691 14.3457L50.5637 14.0511C51.6047 13.0101 51.6453 11.3343 50.6551 10.2451L43.1648 2.15055C42.3752 1.29743 41.3139 1.0486 40.2398 1.02067C39.143 0.990203 38.0334 1.19587 37.1904 2.0363" stroke="currentcolor" stroke-width="2" stroke-linecap="round" stroke-linejoin="round"></path><path d="M29.0273 2.03379C31.6934 1.36602 34.4838 1.36602 37.1523 2.03379" stroke="currentcolor" stroke-width="2" stroke-linecap="round" stroke-linejoin="round"></path><path d="M20.9199 19.2969C20.9199 19.2969 20.9199 26.4062 16.8574 30.4688" stroke="currentcolor" stroke-width="2" stroke-linecap="round" stroke-linejoin="round"></path><path d="M45.2949 19.2969C45.2949 19.2969 45.2949 26.4062 49.3574 30.4688" stroke="currentcolor" stroke-width="2" stroke-linecap="round" stroke-linejoin="round"></path></svg>