<svg xmlns="http://www.w3.org/2000/svg" width="30" height="42" viewBox="0 0 30 42" fill="none"><g clip-path="url(#clip0_173_2999)"><path d="M25.5111 4.34197C22.6552 1.50844 18.8689 -0.0274239 14.8444 -0.000130693C10.9836 0.0321249 7.3189 1.54814 4.52755 4.2725C1.73619 6.99686 0.130856 10.6219 0.00679556 14.4802C-0.0428285 16.0061 0.138299 17.5172 0.540254 18.9711C0.684164 19.4922 0.852886 19.9959 1.0489 20.4847L1.48807 21.4821L11.3856 39.7736C12.1101 41.1109 13.4475 41.9074 14.9685 41.9074C16.4894 41.9074 17.8268 41.1084 18.5513 39.7736L28.4488 21.4821L28.8682 20.5318C29.0691 20.0306 29.2478 19.5046 29.3966 18.9687C29.7564 17.671 29.9375 16.3237 29.9375 14.9665C29.9375 10.9469 28.3645 7.17303 25.5111 4.33949V4.34197ZM28.4414 18.7057C28.3024 19.2069 28.1362 19.6981 27.9551 20.1497L27.5655 21.0281L17.6779 39.3021C17.1296 40.3145 16.1172 40.9174 14.9685 40.9174C13.8197 40.9174 12.8048 40.3145 12.259 39.3021L2.38875 21.0653L1.96446 20.1051C1.79078 19.6659 1.63198 19.1945 1.498 18.7106C1.12334 17.3534 0.954615 15.9416 0.999277 14.5149C1.23499 7.11844 7.45041 1.0519 14.8518 0.992351C18.6133 0.955132 22.1466 2.40167 24.8114 5.04664C27.4762 7.6916 28.9451 11.2149 28.9451 14.969C28.9451 16.2369 28.7763 17.4948 28.4414 18.7057Z" fill="currentcolor"></path><path d="M14.9344 7.63721C10.761 7.63721 7.3667 11.0315 7.3667 15.2049C7.3667 19.3783 10.761 22.7725 14.9344 22.7725C19.1078 22.7725 22.502 19.3783 22.502 15.2049C22.502 11.0315 19.1078 7.63721 14.9344 7.63721ZM14.9344 21.7801C11.3093 21.7801 8.35918 18.8299 8.35918 15.2049C8.35918 11.5798 11.3093 8.62969 14.9344 8.62969C18.5594 8.62969 21.5096 11.5798 21.5096 15.2049C21.5096 18.8299 18.5594 21.7801 14.9344 21.7801Z" fill="currentcolor"></path></g><defs><clipPath id="clip0_173_2999"><rect width="29.9407" height="41.91" fill="white"></rect></clipPath></defs></svg>