<svg xmlns="http://www.w3.org/2000/svg" xmlns:xlink="http://www.w3.org/1999/xlink" x="0px" y="0px" viewBox="0 0 100 100" style="enable-background:new 0 0 100 100;" xml:space="preserve"><g>	<g>		<path d="M59.3,39.4c-1.5,0-2.7-1.2-2.7-2.7V13.8c0-1.5,1.2-2.7,2.7-2.7c1.5,0,2.7,1.2,2.7,2.7v22.9C62,38.2,60.8,39.4,59.3,39.4z"></path>	</g>	<g>		<path d="M66.9,39.4c-1.5,0-2.7-1.2-2.7-2.7V13.8c0-1.5,1.2-2.7,2.7-2.7s2.7,1.2,2.7,2.7v22.9C69.6,38.2,68.4,39.4,66.9,39.4z"></path>	</g>	<g>		<path d="M74.5,86.8c-1.5,0-2.7-1.2-2.7-2.7V13.8c0-1.5,1.2-2.7,2.7-2.7c1.5,0,2.7,1.2,2.7,2.7v70.3C77.2,85.6,76,86.8,74.5,86.8z"></path>	</g>	<g>		<path d="M82.1,39.4c-1.5,0-2.7-1.2-2.7-2.7V13.8c0-1.5,1.2-2.7,2.7-2.7c1.5,0,2.7,1.2,2.7,2.7v22.9C84.9,38.2,83.6,39.4,82.1,39.4   z"></path>	</g>	<g>		<path d="M89.8,39.4c-1.5,0-2.7-1.2-2.7-2.7V13.8c0-1.5,1.2-2.7,2.7-2.7c1.5,0,2.7,1.2,2.7,2.7v22.9C92.5,38.2,91.3,39.4,89.8,39.4   z"></path>	</g>	<g>		<path d="M89.8,39.4H59.2c-1.5,0-2.7-1.2-2.7-2.7c0-1.5,1.2-2.7,2.7-2.7h30.5c1.5,0,2.7,1.2,2.7,2.7C92.5,38.2,91.3,39.4,89.8,39.4   z"></path>	</g>	<g>		<path d="M17.3,88.9c-1.2,0-2.4-0.3-3.5-0.8c-5.1-2.4-7.6-9.6-5.6-16.5c1.1-4,3.5-7.1,6.6-8.5c2.3-1,4.8-1.1,7,0   c5.1,2.4,7.6,9.6,5.6,16.5c-1.1,4-3.5,7.1-6.6,8.5C19.6,88.7,18.4,88.9,17.3,88.9z M18.3,67.9c-0.4,0-0.8,0.1-1.3,0.3   c-1.6,0.7-2.9,2.6-3.6,5v0c-1.3,4.6,0.4,9,2.7,10.1c0.8,0.4,1.6,0.4,2.4,0c1.6-0.7,2.9-2.6,3.6-5c1.3-4.6-0.4-9-2.7-10.1   C19.1,67.9,18.7,67.9,18.3,67.9z M10.8,72.4L10.8,72.4L10.8,72.4z"></path>	</g>	<g>		<path d="M24.7,71.2c-0.4,0-0.8-0.1-1.1-0.2c-1.4-0.6-2-2.2-1.4-3.6l24.4-54.6c0.6-1.4,2.2-2,3.6-1.4c1.4,0.6,2,2.2,1.4,3.6   L27.2,69.6C26.7,70.6,25.7,71.2,24.7,71.2z"></path>	</g>	<g>		<path d="M46.3,88.9c-1.2,0-2.4-0.3-3.5-0.8c-3.1-1.4-5.5-4.5-6.6-8.5c-1.9-6.9,0.5-14.1,5.6-16.5c2.2-1,4.7-1,7,0   c3.1,1.4,5.5,4.5,6.6,8.5l0,0c1.9,6.9-0.5,14.1-5.6,16.5C48.6,88.7,47.5,88.9,46.3,88.9z M45.2,67.9c-0.4,0-0.8,0.1-1.2,0.3   c-2.3,1.1-4,5.5-2.7,10.1c0.7,2.4,2,4.3,3.6,5c0.8,0.4,1.7,0.4,2.4,0c2.3-1.1,4-5.5,2.7-10.1c0,0,0,0,0,0c-0.7-2.4-2-4.3-3.6-5   C46.1,68,45.7,67.9,45.2,67.9z"></path>	</g>	<g>		<path d="M38.9,71.2c-1,0-2-0.6-2.5-1.6L11.9,14.9c-0.6-1.4,0-3,1.4-3.6c1.4-0.6,3,0,3.6,1.4l24.4,54.6c0.6,1.4,0,3-1.4,3.6   C39.6,71.1,39.2,71.2,38.9,71.2z"></path>	</g></g></svg>