<svg xmlns="http://www.w3.org/2000/svg" xmlns:xlink="http://www.w3.org/1999/xlink" x="0px" y="0px" viewBox="0 0 1920 58" style="enable-background:new 0 0 1920 58;" xml:space="preserve"><g>	<path d="M1907.8,57.3l-189.2-43.5c-25.4-5.8-51.7-5.8-77,0.2l-150.9,35.5c-29.7,7-60.6,7.7-90.6,2.1l-211.3-39.3  c-26.4-4.9-53.6-3.5-79.4,4.2l-88.8,26.3c-38,11.3-78.3,12.1-116.7,2.3l-118-29.9c-26.8-6.8-54.9-7-81.8-0.5L567.4,47.9  c-33.1,8-67.7,8.2-100.9,0.6L312,13.1c-23.4-5.4-47.7-5.7-71.3-1L12,57.7C5.8,59,0,54.2,0,47.9V58h1920V47.6  C1920,54,1914,58.8,1907.8,57.3z"></path>	<rect y="-672" width="1920" height="0.1"></rect></g></svg>