<svg xmlns="http://www.w3.org/2000/svg" xmlns:xlink="http://www.w3.org/1999/xlink" x="0px" y="0px" viewBox="0 0 100 100" style="enable-background:new 0 0 100 100;" xml:space="preserve"><style type="text/css">	.wdt-cus-tel-icon{fill:#FFA028;}	.st1{fill:currentcolor;}</style><g>	<g>		<path class="wdt-cus-tel-icon" d="M31.7,32.3c0,0,0.7-1.2,0.3-3.7c-0.5-2.5-4.8-16.5-4.8-16.5s-0.8-2.4-2.8-2.6c-2-0.2-6.3-0.4-6.3-0.4   l8.5,27.6L31.7,32.3z M58.3,73.3C59.1,74.2,83,83.7,83,83.7s1.1-1.3,0.6-4.7c-0.4-3.4-1.7-3.9-1.7-3.9l-17.5-7c0,0-1.3,0.4-2.7,1   C60.3,69.7,57.5,72.4,58.3,73.3z M82.1,86L56.7,75.3c-6.2,6.1-12.5-0.2-12.5-0.2S25.1,54,21.5,48.3C17.9,42.5,24,37.8,24,37.8   L16,11C9.4,15.8,4.4,23.5,4.4,23.5c-8.9,16.2,8,39.9,14.4,49.1s20.5,18.8,38,25.8C74.3,105.5,82.1,86,82.1,86z"></path>	</g>	<path class="st1" d="M79,40.2"></path>	<g>		<g>			<path class="wdt-cus-tel-icon" d="M43.6,38.1V35l2.4-2.4c3.4-3.2,5.3-5.2,5.3-7.2c0-1.4-0.9-2.3-2.6-2.3c-1.4,0-2.7,0.7-3.6,1.3l-1.2-3.6    c1.3-0.9,3.5-1.7,5.8-1.7c4.4,0,6.6,2.5,6.6,5.9c0,3.2-2.1,5.6-4.3,7.5l-1.6,1.4v0.1h6.1v4.1L43.6,38.1L43.6,38.1z"></path>			<path class="wdt-cus-tel-icon" d="M66.1,38.1v-4.2h-7.6v-3.2l6.4-11.2h5.8v10.7h2v3.7h-2v4.2H66.1z M66.1,30.2V27c0-1.1,0.1-2.3,0.2-3.4h-0.1    c-0.5,1.1-1,2.2-1.6,3.4l-1.6,3.2v0.1L66.1,30.2L66.1,30.2z"></path>			<path class="wdt-cus-tel-icon" d="M65.2,46.9v3.1l-7,15.5h-5.2L60,51.1v-0.1h-7.7v-4.1L65.2,46.9L65.2,46.9z"></path>		</g>		<rect x="36.9" y="41.6" class="wdt-cus-tel-icon" width="42.4" height="2.2"></rect>	</g>	<g>		<path class="st1" d="M34.1,22.9c0-0.1,0-0.2-0.1-0.3C34,22.7,34,22.8,34.1,22.9z"></path>		<path class="st1" d="M86.7,70.9c7.1-7.5,11.5-17.7,11.5-28.9c0-23.2-18.8-42-42-42c-8.6,0-16.6,2.6-23.3,7   c-0.1,1.1-0.1,2.1-0.1,3.2c0,1.8,0.1,3.6,0.2,5.4c0.7-0.6,1.4-1.2,2.1-1.7l3.3,4.2c0.1,0.1,0.2,0.2,0.3,0.2c0.1,0,0.2,0,0.2-0.1   c0.2-0.1,0.2-0.4,0.1-0.5l-3.3-4.2c1.8-1.3,3.8-2.5,5.9-3.4l2.3,4.4c0.1,0.1,0.2,0.2,0.3,0.2c0.1,0,0.1,0,0.2,0   c0.2-0.1,0.2-0.3,0.2-0.5l-2.3-4.4c2.2-1,4.6-1.7,7.1-2.2l0.9,4.9c0,0.2,0.2,0.3,0.4,0.3c0,0,0.1,0,0.1,0c0.2,0,0.3-0.2,0.3-0.4   l-0.9-4.9C51.5,7.2,52.9,7,54.3,7c0,0,0,0.1,0,0.1v6.5c0,1,0.8,1.8,1.8,1.8c1,0,1.8-0.8,1.8-1.8V7c0,0,0,0,0-0.1   c2,0.1,3.9,0.4,5.8,0.8l-1,5.6c0,0.2,0.1,0.4,0.3,0.4H63c0.2,0,0.3-0.1,0.4-0.3l1-5.6c2.5,0.6,4.9,1.5,7.1,2.6L69,15.1   c-0.1,0.2,0,0.4,0.2,0.5c0.1,0,0.1,0,0.2,0c0.1,0,0.3-0.1,0.3-0.2l2.4-4.6c2.1,1.1,4,2.3,5.8,3.7l-3.2,4.1   c-0.1,0.2-0.1,0.4,0.1,0.5c0.1,0,0.2,0.1,0.2,0.1c0.1,0,0.2-0.1,0.3-0.1l3.3-4.1c1.9,1.6,3.6,3.3,5.1,5.3l-4,3.3   c-0.2,0.1-0.2,0.4,0,0.5c0.1,0.1,0.2,0.1,0.3,0.1c0.1,0,0.2,0,0.2-0.1l4-3.3c1.5,1.9,2.7,4,3.8,6.2l-4.4,2.3   c-0.2,0.1-0.2,0.3-0.2,0.5c0.1,0.1,0.2,0.2,0.3,0.2c0.1,0,0.1,0,0.2,0l4.4-2.3c1.1,2.4,1.8,4.9,2.4,7.5L85.8,36   c-0.2,0-0.3,0.2-0.3,0.4c0,0.2,0.2,0.3,0.4,0.3c0,0,0,0,0.1,0l4.7-0.9c0.3,1.5,0.5,2.9,0.5,4.4h-6c-1,0-1.8,0.8-1.8,1.8   c0,1,0.8,1.8,1.8,1.8h6c-0.1,1.6-0.3,3.2-0.6,4.7l-4.6-0.9c-0.2,0-0.4,0.1-0.4,0.3c0,0.2,0.1,0.4,0.3,0.4l4.6,0.9   c-0.5,2.6-1.4,5.1-2.4,7.4l-4.2-2.2c-0.2-0.1-0.4,0-0.5,0.2c-0.1,0.2,0,0.4,0.2,0.5l4.3,2.2c-1.1,2.2-2.3,4.2-3.8,6.1l-3.8-3.1   c-0.2-0.1-0.4-0.1-0.5,0.1c-0.1,0.2-0.1,0.4,0,0.5l3.8,3.1c-1.5,1.9-3.3,3.7-5.1,5.2"></path>	</g></g></svg>