<svg xmlns="http://www.w3.org/2000/svg" xmlns:xlink="http://www.w3.org/1999/xlink" x="0px" y="0px" viewBox="0 0 100 100" style="enable-background:new 0 0 100 100;" xml:space="preserve"><g>	<path d="M90.9,62.6c-2-3-6-3.8-9-1.8L74,66.1c-0.7,0.5-0.9,1.5-0.4,2.2c0.5,0.7,1.5,0.9,2.2,0.4l7.9-5.3c1.5-1,3.6-0.6,4.6,0.9  c1,1.5,0.6,3.6-0.9,4.6L63.6,84.8c-0.3,0.2-0.5,0.3-0.8,0.4c-0.4,0.1-0.9,0.2-1.4,0.1l-22.8-6.5c-0.1,0-0.1,0-0.2,0  c-1.7-0.3-3.4,0-4.8,1l-1.4,0.9l-8.8-13.2L34,60.4c1.5-1,3.4-1.4,5.2-1.1l24.6,7.9c0,0,0,0,0,0c0,0,0,0,0,0c1.7,0.5,2.7,2.3,2.2,4  c-0.2,0.8-0.8,1.5-1.6,1.9c-0.8,0.4-1.7,0.5-2.5,0.2c0,0,0,0,0,0c0,0,0,0,0,0l-12-3.2c-0.9-0.2-1.7,0.3-2,1.1  c-0.1,0.5,0,0.9,0.2,1.3c0.2,0.3,0.5,0.6,0.9,0.7l12,3.2c0,0,0,0,0,0c1.6,0.5,3.4,0.3,4.9-0.5c1.5-0.8,2.7-2.2,3.2-3.8  c1-3.4-0.9-7-4.3-8c0,0,0,0,0,0l-24.5-7.9c-0.1,0-0.2-0.1-0.3-0.1c-2.7-0.5-5.4,0-7.7,1.5l-10.5,7.1l-0.9-1.4  c-0.5-0.7-1.5-0.9-2.2-0.4L7.7,70.1c-0.7,0.5-0.9,1.5-0.4,2.2l8.8,13.2c0.5,0.7,1.5,0.9,2.2,0.4c0.7-0.5,0.9-1.5,0.4-2.2l-7.9-11.9  l8.1-5.4l12.5,18.7l-8.1,5.4L22.9,90c-0.5-0.7-1.5-0.9-2.2-0.4c-0.7,0.5-0.9,1.5-0.4,2.2l1.3,1.9c0.5,0.7,1.5,0.9,2.2,0.4L34.6,87  c0.7-0.5,0.9-1.5,0.4-2.2l-1-1.4l1.4-0.9c0.7-0.5,1.5-0.6,2.4-0.5l22.9,6.5c0,0,0,0,0,0c0,0,0.1,0,0.1,0c0,0,0.1,0,0.1,0  c0,0,0,0,0,0c1,0.2,2,0.1,2.9-0.2c0.6-0.2,1.2-0.5,1.7-0.8l23.7-15.8C92.1,69.7,92.9,65.6,90.9,62.6L90.9,62.6z"></path>	<path d="M69.1,29.7c-0.3-0.1-1.6-0.9-3.8-1.3l-0.1,0v-8.2l0.1,0c0.8,0.2,1.6,0.6,2.2,1.1c0.9,0.8,1.5,1.8,1.5,2.8  c0,0.9,0.8,1.6,1.6,1.6h0c0.9,0,1.6-0.8,1.6-1.7c0-2-1-3.9-2.7-5.3c-1.2-1-2.6-1.6-4.2-1.9l-0.1,0l0-2c0-0.9-0.8-1.6-1.6-1.6h0  c-0.9,0-1.6,0.8-1.6,1.7l0,2L62,17c-1.6,0.3-3,1-4.2,2c-1.6,1.4-2.5,3.4-2.5,5.4c0,2,0.9,3.9,2.6,5.2l0,0c1,0.8,2.3,1.3,4.1,1.6  l0.1,0v10l-0.1,0c-1.1-0.3-2.1-0.9-2.8-1.7c-0.7-0.8-1.1-1.8-1.1-2.8c0-0.9-0.8-1.6-1.6-1.6h0c-0.4,0-0.8,0.2-1.2,0.5  c-0.3,0.3-0.5,0.7-0.5,1.2c0,1.1,0.3,2.2,0.8,3.3c0.5,1,1.2,1.8,2.1,2.6c1.2,1,2.7,1.7,4.2,2l0.1,0l0,2.1c0,0.9,0.8,1.6,1.6,1.6h0  c0.4,0,0.8-0.2,1.2-0.5c0.3-0.3,0.5-0.7,0.5-1.2l0-1.9l0.1,0c2-0.2,3.9-1.1,5.3-2.3c0.9-0.8,1.5-1.6,2-2.6c0.5-1,0.7-2.1,0.7-3.3  C73.3,33.7,71.7,31.2,69.1,29.7L69.1,29.7z M65.4,41.4l-0.1,0v-9.6l0.1,0c1.3,0.3,2.1,0.7,2.1,0.8c1.6,0.9,2.6,2.4,2.6,3.9  C70.2,38.8,68.2,40.9,65.4,41.4L65.4,41.4z M62.1,20.3V28l-0.1,0c-0.9-0.2-1.5-0.4-1.9-0.8l0,0c-0.9-0.8-1.4-1.7-1.4-2.8  c0-1.1,0.5-2.1,1.4-2.9c0.6-0.5,1.2-0.8,2-1.1L62.1,20.3z"></path>	<path d="M87.4,20.9c-1.3-3-3.1-5.7-5.4-8.1c-2.3-2.3-5-4.2-8.1-5.4c-3.1-1.3-6.4-2-9.9-2c-3.4,0-6.7,0.7-9.9,2  c-3,1.3-5.7,3.1-8.1,5.4c-2.3,2.3-4.2,5-5.4,8.1c-1.3,3.1-2,6.4-2,9.9c0,3.4,0.7,6.7,2,9.9c1.3,3,3.1,5.7,5.4,8.1  c2.3,2.3,5,4.2,8.1,5.4c3.1,1.3,6.4,2,9.9,2s6.7-0.7,9.9-2c3-1.3,5.7-3.1,8.1-5.4c2.3-2.3,4.2-5,5.4-8.1c1.3-3.1,2-6.4,2-9.9  S88.7,24.1,87.4,20.9L87.4,20.9z M86.2,30.8C86.2,43,76.3,53,64,53c-12.2,0-22.2-10-22.2-22.2c0-12.2,10-22.2,22.2-22.2  C76.3,8.6,86.2,18.6,86.2,30.8z"></path></g></svg>