<svg xmlns="http://www.w3.org/2000/svg" xmlns:xlink="http://www.w3.org/1999/xlink" x="0px" y="0px" viewBox="0 0 65 71" style="enable-background:new 0 0 65 71;" xml:space="preserve"><style type="text/css">	.st0{fill:none;stroke:#1D256B;stroke-width:2;stroke-linecap:round;stroke-linejoin:round;}</style><path class="st0" d="M62.4,42.7c1.6,1.2,1.6,3.5,0,4.7L34.3,68c-1,0.8-2.4,0.8-3.4,0L2.7,47.4c-1.6-1.2-1.6-3.5,0-4.7"></path><path class="st0" d="M2.7,32.7c-1.6,1.2-1.6,3.5,0,4.7l2.7,2L30.8,58c1,0.8,2.4,0.8,3.4,0l25.4-18.6l2.7-2c1.6-1.2,1.6-3.5,0-4.7"></path><path class="st0" d="M62.4,22.7L34.2,2c-1-0.8-2.4-0.8-3.4,0L2.7,22.7c-1.6,1.2-1.6,3.5,0,4.7l2.7,2l6,4.4L30.8,48 c1,0.8,2.4,0.8,3.4,0l19.4-14.3l6-4.4l2.7-2C63.9,26.2,63.9,23.8,62.4,22.7L62.4,22.7z"></path></svg>