<svg xmlns="http://www.w3.org/2000/svg" xmlns:xlink="http://www.w3.org/1999/xlink" x="0px" y="0px" viewBox="0 0 100 100" style="enable-background:new 0 0 100 100;" xml:space="preserve"><g>	<path d="M82.3,72.1c-2-0.4-2.9-2.5-3.3-3.9c4.1-4.1,6.6-10.7,6.6-15.6c0-8-6.5-14.5-14.5-14.5c-2.5,0-4.9,0.6-7.1,1.8  c-0.9-0.4-1.9-0.7-2.9-0.8c-2-0.4-2.9-2.5-3.3-3.9c4.1-4.1,6.6-10.7,6.6-15.6C64.6,11.5,58.1,5,50,5c-8,0-14.5,6.5-14.5,14.5  c0,4.9,2.6,11.6,6.7,15.7C41.8,36.6,41,38.6,39,39c-1,0.2-2,0.5-3,0.9c-7-3.9-15.8-1.4-19.8,5.6c-1.2,2.2-1.9,4.6-1.9,7.1  c0,4.9,2.6,11.6,6.7,15.7c-0.4,1.4-1.3,3.4-3.2,3.8c-4.1,0.8-12,4.3-12.6,12.6c-0.1,0.6-0.6,3.7-0.1,9.1C5.3,94.5,5.9,95,6.6,95  h0.1C7.5,95,8.1,94.3,8,93.5c-0.5-5.5,0.1-8.4,0.1-8.4c0-0.1,0-0.2,0-0.2c0.5-8.1,9.8-10,10.3-10.1c2.8-0.6,4.3-2.7,5-4.7  c1.6,1.1,3.5,1.7,5.5,1.8c2,0,3.9-0.7,5.6-1.8c0.7,1.9,2.2,4.2,5.1,4.7c0.1,0,6.2,1.2,9,5.7c-0.6,1.3-0.9,2.7-1,4  c-0.1,0.6-0.6,3.7-0.1,9.1c0.1,0.7,0.7,1.3,1.4,1.3H49c0.8-0.1,1.3-0.8,1.3-1.5c-0.5-5.5,0.1-8.4,0.1-8.4c0-0.1,0-0.2,0-0.2  c0.5-8.1,9.8-10,10.3-10.1c2.8-0.6,4.3-2.8,5-4.7c3.3,2.4,7.8,2.4,11-0.1c0.7,1.9,2.2,4.2,5.1,4.7c0.1,0,9.8,1.9,10.3,10.1  c0,0,0,0.1,0,0.1c0.3,2.8,0.3,5.7,0,8.5c-0.1,0.8,0.5,1.5,1.3,1.5c0.8,0.1,1.5-0.5,1.5-1.3c0.3-3,0.3-6,0-9.1  C94.3,76.4,86.4,72.8,82.3,72.1z M38.3,19.5C38.3,13,43.6,7.8,50,7.8S61.7,13,61.7,19.5c0,6.4-5.4,16.6-11.7,16.6  S38.3,25.9,38.3,19.5z M28.9,69.1c-6.3,0-11.7-10.2-11.7-16.6c0-6.5,5.2-11.7,11.7-11.7c6.5,0,11.7,5.2,11.7,11.7  C40.6,58.9,35.3,69.1,28.9,69.1z M60.1,72.1c-2.8,0.5-7.2,2.3-10,5.9c-3.6-4.6-9.8-5.8-10-5.9c-2-0.4-2.9-2.5-3.3-3.9  c4.1-4.1,6.6-10.7,6.6-15.6c0-4-1.7-7.9-4.7-10.6c0.4-0.1,0.7-0.2,0.7-0.2c2.8-0.6,4.3-2.8,5-4.7c3.3,2.4,7.8,2.3,11-0.1  c0.8,1.9,2.2,4.2,5.1,4.7c0,0,0.2,0,0.6,0.1c-3,2.7-4.7,6.6-4.7,10.6c0,4.9,2.6,11.6,6.7,15.7C62.9,69.7,62.1,71.7,60.1,72.1z   M71.1,69.1c-6.3,0-11.7-10.2-11.7-16.6c0-6.5,5.2-11.7,11.7-11.7c6.5,0,11.7,5.2,11.7,11.7C82.9,58.9,77.5,69.1,71.1,69.1z"></path>	<path d="M75,61.1c-2.6,3.1-5.1,3.1-7.7,0c-0.6-0.5-1.5-0.5-2,0.1c-0.4,0.5-0.5,1.2-0.1,1.7c1.9,2.2,3.9,3.3,6,3.3  c2.1,0,4.1-1.1,6-3.3c0.4-0.6,0.3-1.5-0.4-2C76.2,60.6,75.5,60.6,75,61.1L75,61.1z"></path>	<path d="M32.8,61.1c-2.6,3.1-5.1,3.1-7.7,0c-0.6-0.5-1.5-0.5-2,0.1c-0.4,0.5-0.5,1.2-0.1,1.7c1.9,2.2,3.9,3.3,6,3.3s4.1-1.1,6-3.3  c0.4-0.6,0.3-1.5-0.4-2C34,60.6,33.3,60.6,32.8,61.1L32.8,61.1z"></path>	<path d="M50,33.1c2.1,0,4.1-1.1,6-3.3c0.4-0.6,0.3-1.5-0.4-2c-0.5-0.4-1.2-0.3-1.7,0.1c-2.6,3.1-5.1,3.1-7.7,0  c-0.6-0.5-1.5-0.5-2,0.1c-0.4,0.5-0.5,1.2-0.1,1.7C45.9,32,47.9,33.1,50,33.1z"></path></g></svg>