<svg xmlns="http://www.w3.org/2000/svg" width="166" height="184" viewBox="0 0 166 184" fill="none"><g clip-path="url(#clip0_30_2727)"><mask id="mask0_30_2727" style="mask-type:luminance" maskUnits="userSpaceOnUse" x="3" y="4" width="166" height="184"><path d="M168.736 4H3V187.565H168.736V4Z" fill="white"></path></mask><g mask="url(#mask0_30_2727)"><path d="M119.828 174.614C69.9544 192.782 28.9004 171.606 14.1704 149.148C8.11143 139.91 4.05543 128.861 4.00043 117.728C3.91043 99.0689 18.0714 83.4299 34.3914 76.4399C46.9694 71.0529 59.1004 63.5269 66.9194 52.0179C75.9844 38.6769 75.3074 21.3419 87.1194 9.35189C96.8854 -0.561107 110.632 0.139893 121.487 7.92989C151.1 29.1779 175.93 70.9999 157.038 129.961C152.604 143.799 144.16 165.75 119.828 174.614Z" fill="#0197F9"></path><path d="M94.9351 16.044C111.503 21.7617 125.787 32.6676 135.668 47.144C140.192 53.5632 144.238 60.3056 147.775 67.317C184.602 126.123 145.042 159.338 138.955 163.672C120.688 176.678 99.0881 183.753 76.5371 181.778C65.5228 180.784 54.7871 177.763 44.8711 172.867C34.8281 167.921 27.5881 160.756 18.9391 153.99C6.93906 144.598 0.687056 131.329 7.71006 121.725C10.0011 118.035 11.9041 114.025 14.6361 110.701C29.5661 92.517 34.1551 72.389 30.9041 48.824C27.8481 26.669 38.0881 16.103 60.4231 12.891C72.0124 11.1242 83.8577 12.2064 94.9351 16.044Z" stroke="#1D256B" stroke-width="4"></path></g></g><defs><clipPath id="clip0_30_2727"><rect width="165.736" height="183.565" fill="white"></rect></clipPath></defs></svg>