<svg xmlns="http://www.w3.org/2000/svg" width="109" height="77" viewBox="0 0 109 77" fill="none"><g clip-path="url(#next_icon)"><path d="M103.574 44.0007C105.663 38.1967 106.388 32.9636 106.103 31.0398C105.964 30.1107 105.37 29.3109 104.519 28.9104C100.963 27.2334 88.1762 31.6269 78.0731 35.6068C76.6272 36.1767 75.9179 37.8117 76.4861 39.257C77.056 40.7028 78.6904 41.4138 80.1363 40.8439C90.7879 36.6464 96.6107 35.0778 99.6205 34.5C99.8732 34.4507 100.106 34.4103 100.323 34.374C99.6893 38.3132 97.657 45.7247 93.3848 51.62C92.4732 52.8775 92.7536 54.6374 94.0128 55.5496C95.2702 56.4612 97.0302 56.1808 97.9423 54.9216C100.414 51.5092 102.264 47.6429 103.575 44.0012L103.574 44.0007Z" fill="currentcolor"></path><path d="M100.881 36.7961C101.258 35.5983 100.795 34.2532 99.6792 33.5618C98.3591 32.7425 96.6386 33.1586 95.8051 34.4705C84.9746 51.514 57.8759 60.2704 32.5983 52.3072C22.9576 49.2701 13.9964 44.74 7.00303 38.1907C5.86986 37.1277 4.43416 36.9836 3.53079 37.8887C2.62965 38.7927 2.71664 40.2004 3.85203 41.2622C11.4566 48.3851 20.6164 53.9154 31.0557 57.204C58.7494 65.9284 87.9057 57.8855 100.588 37.436C100.716 37.2316 100.811 37.017 100.881 36.7961Z" fill="currentcolor"></path></g><defs><clipPath id="next_icon"><rect width="49.0853" height="97.54" fill="white" transform="matrix(-0.300472 0.953791 0.953791 0.300472 15 0.682617)"></rect></clipPath></defs></svg>