<svg xmlns="http://www.w3.org/2000/svg" xmlns:xlink="http://www.w3.org/1999/xlink" x="0px" y="0px" viewBox="0 0 50 50" style="enable-background:new 0 0 50 50;" xml:space="preserve"><g>	<g>		<path d="M25,46.1c-12.8,0-21.9-4.6-22.8-11.4c-0.1-0.6,0-1.3,0.1-1.9l3.5-14.1c0.3-1.2,1-2.3,2-3C8.4,15.4,9,15.5,9.3,16   c0.3,0.4,0.2,1.1-0.2,1.4c-0.6,0.4-1.1,1.1-1.2,1.8L4.3,33.3c-0.1,0.4-0.1,0.8-0.1,1.2c0.7,5.7,9.2,9.6,20.8,9.6   c11.6,0,20.1-4,20.8-9.6c0-0.4,0-0.8-0.1-1.1l-3.5-14.1c-0.2-0.7-0.6-1.4-1.2-1.8c-0.5-0.3-0.6-0.9-0.2-1.4   c0.3-0.4,0.9-0.6,1.4-0.2c1,0.7,1.7,1.8,2,3l3.5,14.1c0.2,0.6,0.2,1.2,0.1,1.9C46.9,41.5,37.8,46.1,25,46.1z"></path>	</g>	<g>		<path d="M25,24.2c-5.9,0-9.7-0.9-13.2-3c-0.5-0.3-0.6-0.9-0.3-1.4c0.3-0.5,0.9-0.6,1.4-0.3c3.2,1.9,6.7,2.7,12.2,2.7   c5.9,0,9.7-0.8,12.9-2.7c0.5-0.3,1.1-0.1,1.4,0.3c0.3,0.5,0.1,1.1-0.3,1.4C35.4,23.4,31.3,24.2,25,24.2z"></path>	</g>	<g>		<path d="M13.7,16.5c-1,0-2-0.4-2.7-1.1c-0.7-0.7-1.1-1.7-1.1-2.7s0.4-2,1.1-2.7s1.7-1.1,2.7-1.1c0.3,0,0.5,0,0.8,0.1   c0.1-0.2,0.2-0.5,0.4-0.7c0.4-0.6,1-1,1.6-1.2c0.6-0.2,1.2-0.3,1.9-0.3c0-0.3,0.1-0.5,0.1-0.8c0.1-0.5,0.4-0.9,0.7-1.3   c0.3-0.4,0.7-0.7,1.2-1c0.4-0.2,0.9-0.4,1.4-0.4c0.5-0.1,1,0,1.5,0.1c0.5,0.1,0.9,0.4,1.3,0.7c0.4,0.3,0.7,0.7,0.9,1.2   c0.3,0.5,0.1,1.1-0.4,1.3c-0.5,0.3-1.1,0.1-1.3-0.4c-0.1-0.2-0.3-0.4-0.4-0.6c-0.2-0.2-0.4-0.3-0.6-0.3c-0.2-0.1-0.5-0.1-0.7-0.1   c-0.2,0-0.5,0.1-0.7,0.2s-0.4,0.3-0.5,0.5c-0.1,0.2-0.3,0.4-0.3,0.6c-0.1,0.2-0.1,0.5-0.1,0.7c0,0.2,0.1,0.5,0.2,0.7   c0.2,0.4,0.1,0.9-0.2,1.3c-0.4,0.3-0.9,0.3-1.3,0c-0.3-0.2-0.6-0.3-0.9-0.4c-0.3,0-0.6,0-0.9,0.1C17,9,16.7,9.2,16.5,9.5   c-0.2,0.3-0.3,0.6-0.3,0.9c0,0.3-0.2,0.6-0.5,0.8c-0.3,0.2-0.7,0.1-1,0c-0.3-0.2-0.6-0.3-0.9-0.3c-0.5,0-0.9,0.2-1.3,0.5   c-0.3,0.3-0.5,0.8-0.5,1.3s0.2,0.9,0.5,1.3c0.3,0.3,0.8,0.5,1.3,0.5c0.6,0,1,0.4,1,1S14.3,16.5,13.7,16.5z"></path>	</g>	<g>		<path d="M35.6,12.3C35.6,12.3,35.6,12.3,35.6,12.3c-0.6,0-1-0.5-1-1c0-0.4-0.1-0.7-0.3-1c-0.2-0.3-0.5-0.5-0.9-0.7   c-0.4-0.1-0.7-0.1-1.1,0c-0.4,0.1-0.7,0.3-0.9,0.6c-0.3,0.3-0.7,0.4-1,0.3c-0.4-0.1-0.7-0.4-0.7-0.8c-0.1-0.4-0.2-0.7-0.5-1   c-0.3-0.3-0.6-0.5-1-0.5c-0.4-0.1-0.8,0-1.1,0.2c-0.3,0.2-0.6,0.4-0.8,0.8c-0.3,0.5-0.9,0.7-1.4,0.4c-0.5-0.3-0.7-0.9-0.4-1.4   c0.4-0.7,1-1.3,1.7-1.6c0.7-0.4,1.5-0.5,2.3-0.3c0.8,0.1,1.5,0.5,2.1,1.1c0.2,0.2,0.4,0.4,0.5,0.6c0.2-0.1,0.5-0.2,0.7-0.3   c0.8-0.2,1.6-0.2,2.3,0.1c0.7,0.3,1.4,0.8,1.8,1.4c0.5,0.6,0.7,1.4,0.7,2.2C36.6,11.8,36.1,12.3,35.6,12.3z"></path>	</g>	<g>		<path d="M36.3,17.9C36.3,17.9,36.3,17.9,36.3,17.9c-0.7,0-1.4-0.2-1.9-0.5c-0.5-0.3-0.6-0.9-0.3-1.4s0.9-0.6,1.4-0.3   c0.3,0.2,0.6,0.2,0.9,0.3c0.3,0,0.6-0.1,0.8-0.2c0.3-0.1,0.5-0.3,0.6-0.5c0.2-0.2,0.3-0.5,0.3-0.8c0.1-0.3,0-0.6,0-0.8   c-0.1-0.3-0.2-0.5-0.4-0.7c-0.2-0.2-0.4-0.4-0.7-0.5c-0.3-0.1-0.5-0.2-0.8-0.1c-0.3,0-0.6,0.1-0.8,0.2c-0.5,0.3-1.1,0.1-1.4-0.4   c-0.3-0.5-0.1-1.1,0.4-1.4c0.5-0.3,1.1-0.5,1.7-0.5c0.6,0,1.2,0.1,1.7,0.3c0.5,0.2,1,0.6,1.4,1c0.4,0.4,0.7,1,0.8,1.5   c0.2,0.6,0.2,1.2,0.1,1.7c-0.1,0.6-0.4,1.1-0.7,1.6c-0.4,0.5-0.8,0.8-1.3,1.1C37.4,17.8,36.9,17.9,36.3,17.9z"></path>	</g>	<g>		<path d="M29.2,18.6C29.2,18.6,29.2,18.6,29.2,18.6c-0.6,0-1-0.5-1-1c0-0.4-0.1-0.7-0.3-1c-0.2-0.3-0.5-0.5-0.9-0.7   c-0.4-0.1-0.7-0.1-1.1,0c-0.4,0.1-0.7,0.3-0.9,0.6c-0.3,0.3-0.7,0.4-1,0.3c-0.4-0.1-0.7-0.4-0.7-0.8c-0.1-0.4-0.2-0.7-0.5-1   c-0.3-0.3-0.6-0.5-1-0.5c-0.4-0.1-0.8,0-1.1,0.2c-0.3,0.2-0.6,0.4-0.8,0.8c-0.3,0.5-0.9,0.7-1.4,0.4c-0.5-0.3-0.7-0.9-0.4-1.4   c0.4-0.7,1-1.3,1.7-1.6s1.5-0.5,2.3-0.3c0.8,0.1,1.5,0.5,2.1,1.1c0.2,0.2,0.4,0.4,0.5,0.6c0.2-0.1,0.5-0.2,0.7-0.3   c0.8-0.2,1.6-0.2,2.3,0.1s1.4,0.8,1.8,1.4s0.7,1.4,0.7,2.2C30.2,18.2,29.8,18.6,29.2,18.6z"></path>	</g>	<g>		<path d="M22.3,41.4c-0.5,0-1-0.1-1.5-0.4c-0.5-0.3-1-0.8-1.3-1.3c-0.3-0.6-0.4-1.2-0.3-1.8s0.3-1.2,0.7-1.7l1.4-1.6l0.6-1.1   c0,0,0,0,0,0c0.3-0.5,0.7-1,1.3-1.3c1-0.6,2.4-0.6,3.5,0c0.5,0.3,1,0.8,1.3,1.3l0.6,1.1l1.4,1.6c0.4,0.5,0.7,1,0.7,1.7   c0.1,0.6,0,1.2-0.3,1.8c-0.3,0.6-0.7,1-1.3,1.3c-0.5,0.3-1.2,0.4-1.8,0.4L25,41.1l-2.4,0.2C22.5,41.4,22.4,41.4,22.3,41.4z    M23.7,34.5l-0.7,1.2c0,0.1-0.1,0.1-0.1,0.2l-1.5,1.7c-0.1,0.2-0.2,0.4-0.3,0.6c0,0.2,0,0.4,0.1,0.6s0.3,0.4,0.5,0.5   c0.2,0.1,0.4,0.2,0.6,0.1l2.5-0.2c0.1,0,0.1,0,0.2,0l2.5,0.2c0.2,0,0.4,0,0.6-0.1c0.2-0.1,0.4-0.3,0.5-0.5   c0.1-0.2,0.1-0.4,0.1-0.6c0-0.2-0.1-0.4-0.3-0.6l-1.5-1.7c0,0-0.1-0.1-0.1-0.2l-0.7-1.2c-0.1-0.2-0.3-0.4-0.5-0.5   c-0.4-0.3-1-0.3-1.5,0C24,34.1,23.9,34.3,23.7,34.5L23.7,34.5z M22.2,35.2L22.2,35.2L22.2,35.2z"></path>	</g>	<g>		<path d="M29.2,29.3c0,0.2-0.1,0.5-0.2,0.7c-0.1,0.2-0.2,0.4-0.4,0.5c-0.2,0.2-0.4,0.3-0.6,0.3c-0.2,0.1-0.5,0.1-0.7,0.1   c-0.5-0.1-0.8-0.5-1.1-0.9c-0.2-0.4-0.3-0.9-0.2-1.4c0-0.2,0.1-0.5,0.2-0.7c0.1-0.2,0.2-0.4,0.4-0.5c0.2-0.2,0.4-0.3,0.6-0.3   c0.2-0.1,0.5-0.1,0.7-0.1c0.5,0.1,0.8,0.5,1.1,0.9C29.3,28.3,29.3,28.8,29.2,29.3z"></path>	</g>	<g>		<path d="M32.6,33.3c0,0.2-0.1,0.4-0.2,0.6c-0.1,0.2-0.3,0.3-0.4,0.4c-0.2,0.1-0.4,0.2-0.6,0.2c-0.2,0-0.4,0-0.6,0   c-0.4-0.2-0.7-0.6-0.8-1c-0.1-0.4-0.1-0.8,0-1.2c0-0.2,0.1-0.4,0.2-0.6c0.1-0.2,0.3-0.3,0.4-0.4c0.2-0.1,0.4-0.2,0.6-0.2   c0.2,0,0.4,0,0.6,0c0.4,0.2,0.7,0.6,0.8,1C32.8,32.4,32.8,32.9,32.6,33.3z"></path>	</g>	<g>		<path d="M20,32.2c0-0.2-0.1-0.4-0.2-0.6c-0.1-0.2-0.3-0.3-0.4-0.4c-0.2-0.1-0.4-0.2-0.6-0.2c-0.2,0-0.4,0-0.6,0   c-0.4,0.2-0.7,0.6-0.8,1c-0.1,0.4-0.1,0.8,0,1.2c0,0.2,0.1,0.4,0.2,0.6c0.1,0.2,0.3,0.3,0.4,0.4c0.2,0.1,0.4,0.2,0.6,0.2   c0.2,0,0.4,0,0.6,0c0.4-0.2,0.7-0.6,0.8-1C20.1,33.1,20.1,32.6,20,32.2z"></path>	</g>	<g>		<path d="M23.9,28.7c0-0.2-0.1-0.5-0.2-0.7c-0.1-0.2-0.2-0.4-0.4-0.5s-0.4-0.3-0.6-0.3c-0.2-0.1-0.5-0.1-0.7-0.1   c-0.5,0.1-0.8,0.5-1.1,0.9c-0.2,0.4-0.3,0.9-0.2,1.4c0,0.2,0.1,0.5,0.2,0.7c0.1,0.2,0.2,0.4,0.4,0.5c0.2,0.2,0.4,0.3,0.6,0.3   c0.2,0.1,0.5,0.1,0.7,0.1c0.5-0.1,0.8-0.5,1.1-0.9C23.9,29.6,24,29.2,23.9,28.7z"></path>	</g></g></svg>