<svg xmlns="http://www.w3.org/2000/svg" xmlns:xlink="http://www.w3.org/1999/xlink" x="0px" y="0px" viewBox="0 0 50 50" style="enable-background:new 0 0 50 50;" xml:space="preserve"><g>	<g>		<path d="M20.4,25.3H9.9c-1.5,0-2.9-0.5-4.1-1.4c-1.2-0.9-2-2.2-2.4-3.6l-1.4-5.1C1.9,14.7,2,14,2.3,13.5c0.3-0.6,0.8-1,1.4-1.1   l6.6-1.9c0.5-0.1,0.9-0.4,1.3-0.7C12,9.4,12.3,9,12.4,8.5L13.9,5c0.3-0.6,0.7-1.2,1.2-1.6c0.6-0.4,1.2-0.7,1.9-0.8l1.1-0.1   C20,2.3,22,2.1,23.2,2.1c4.6,0,8.4,1.4,11.1,4.3c5.1,5.3,4.8,13.4,4.8,13.7c0,0.6-0.5,1-1,1c-0.6,0-1-0.5-1-1   c0-0.1,0.2-7.6-4.2-12.3c-2.3-2.4-5.6-3.7-9.7-3.7c-1.1,0-3.1,0.2-4.8,0.4l-1.1,0.1c-0.3,0-0.6,0.2-0.9,0.4   c-0.3,0.2-0.5,0.5-0.6,0.8l-1.4,3.6c-0.3,0.7-0.8,1.4-1.4,1.9c-0.6,0.5-1.3,0.9-2.1,1.2l-6.6,1.9c-0.1,0-0.2,0.1-0.2,0.2   C4,14.5,4,14.7,4,14.8l1.4,5.1c0.3,1,0.9,1.9,1.7,2.5c0.8,0.6,1.8,1,2.8,1h10.5c0.6,0,1,0.4,1,1S20.9,25.3,20.4,25.3z"></path>	</g>	<g>		<path d="M4.1,18.2c-0.6,0-1-0.4-1-1s0.4-1,1-1c0.3,0,0.7-0.1,1-0.2c0.3-0.1,0.6-0.3,0.8-0.6c0.2-0.2,0.4-0.5,0.6-0.8   c0.1-0.3,0.2-0.6,0.2-1v-1.4c0-0.6,0.4-1,1-1s1,0.4,1,1v1.4c0,0.6-0.1,1.2-0.3,1.7c-0.2,0.6-0.6,1-1,1.5c-0.4,0.4-0.9,0.8-1.5,1   C5.3,18.1,4.7,18.2,4.1,18.2z"></path>	</g>	<g>		<path d="M20.4,13.3c-0.6,0-1-0.4-1-1c0-0.3-0.1-0.6-0.3-0.8c-0.4-0.4-1.2-0.4-1.6,0c-0.2,0.2-0.3,0.5-0.3,0.8c0,0.6-0.4,1-1,1   s-1-0.4-1-1c0-0.8,0.3-1.6,0.9-2.2c1.2-1.2,3.2-1.2,4.4,0c0.6,0.6,0.9,1.4,0.9,2.2C21.4,12.8,20.9,13.3,20.4,13.3z"></path>	</g>	<g>		<path d="M26,33.8c-2.4,0-4.2-0.7-5.4-2.2c-2-2.4-1.3-6-1.3-6.1c0.7-2.4,1.7-4.6,3-6.7c2-3.3,2.7-8.1,2.7-8.1   c0.1-0.5,0.6-0.9,1.1-0.8c0.5,0.1,0.9,0.6,0.8,1.1c0,0.2-0.8,5.2-3,8.9c-1.2,1.9-2.1,4-2.7,6.1c0,0,0,0,0,0c0,0-0.5,2.7,0.9,4.4   c0.8,0.9,2.1,1.4,3.8,1.4c0.6,0,1,0.4,1,1S26.6,33.8,26,33.8z"></path>	</g>	<g>		<path d="M36,38.7c-0.1,0-0.3,0-0.4-0.1c-0.5-0.2-0.7-0.8-0.5-1.3l9.2-19.8c0.2-0.5,0.8-0.7,1.3-0.5c0.5,0.2,0.7,0.8,0.5,1.3   l-9.2,19.8C36.7,38.5,36.3,38.7,36,38.7z"></path>	</g>	<g>		<path d="M40.2,38.7c-0.4,0-0.7-0.2-0.9-0.6l-9.2-19.8c-0.2-0.5,0-1.1,0.5-1.3c0.5-0.2,1.1,0,1.3,0.5l9.2,19.8   c0.2,0.5,0,1.1-0.5,1.3C40.5,38.7,40.3,38.7,40.2,38.7z"></path>	</g>	<g>		<path d="M26,47.9c-0.6,0-1-0.4-1-1s0.4-1,1-1c0.7,0,1.3-0.3,1.8-0.7c0.5-0.5,0.7-1.1,0.7-1.8v-2.1c0-0.6,0.4-1,1-1s1,0.4,1,1v2.1   c0,1.2-0.5,2.4-1.3,3.2C28.4,47.5,27.3,47.9,26,47.9z"></path>	</g>	<g>		<path d="M33.1,47.2c-2.5,0-4.5-2.6-4.5-6s2-6,4.5-6s4.5,2.6,4.5,6S35.7,47.2,33.1,47.2z M33.1,37.3c-1.4,0-2.5,1.8-2.5,4   s1.2,4,2.5,4s2.5-1.8,2.5-4S34.5,37.3,33.1,37.3z"></path>	</g>	<g>		<path d="M43,47.2c-2.5,0-4.5-2.6-4.5-6s2-6,4.5-6c2.5,0,4.5,2.6,4.5,6S45.6,47.2,43,47.2z M43,37.3c-1.4,0-2.5,1.8-2.5,4   s1.2,4,2.5,4c1.4,0,2.5-1.8,2.5-4S44.4,37.3,43,37.3z"></path>	</g></g></svg>