<svg xmlns="http://www.w3.org/2000/svg" xmlns:xlink="http://www.w3.org/1999/xlink" x="0px" y="0px" viewBox="0 0 50 50" style="enable-background:new 0 0 50 50;" xml:space="preserve"><g>	<g>		<path d="M25,45c-6.4,0-11.5-5.2-11.5-11.5S18.6,21.9,25,21.9c6.4,0,11.5,5.2,11.5,11.5S31.4,45,25,45z M25,23.9   c-5.3,0-9.5,4.3-9.5,9.5c0,5.3,4.3,9.5,9.5,9.5c5.3,0,9.5-4.3,9.5-9.5C34.5,28.2,30.3,23.9,25,23.9z"></path>	</g>	<g>		<path d="M25,47.8c-7.9,0-14.4-6.4-14.4-14.4c0-7.9,6.4-14.4,14.4-14.4s14.4,6.4,14.4,14.4C39.4,41.4,32.9,47.8,25,47.8z M25,21.1   c-6.8,0-12.4,5.5-12.4,12.4c0,6.8,5.5,12.4,12.4,12.4c6.8,0,12.4-5.5,12.4-12.4C37.4,26.6,31.8,21.1,25,21.1z"></path>	</g>	<g>		<path d="M13.2,28.1c-0.3,0-0.6-0.1-0.8-0.4L3.1,15c-1.2-1.6-1.1-3.6,0.1-4.8l6.7-6.8c0.4-0.4,1-0.4,1.4,0c0.4,0.4,0.4,1,0,1.4   l-6.7,6.8c-0.6,0.6-0.4,1.6,0.1,2.2L14,26.5c0.3,0.4,0.2,1.1-0.2,1.4C13.6,28,13.4,28.1,13.2,28.1z"></path>	</g>	<g>		<path d="M36.8,28.1c-0.2,0-0.4-0.1-0.6-0.2c-0.4-0.3-0.5-1-0.2-1.4l9.4-12.7c0.5-0.6,0.7-1.6,0.1-2.2l-6.7-6.8   c-0.4-0.4-0.4-1,0-1.4c0.4-0.4,1-0.4,1.4,0l6.7,6.8c1.2,1.2,1.3,3.2,0.1,4.8l-9.4,12.7C37.4,28,37.1,28.1,36.8,28.1z"></path>	</g>	<g>		<path d="M33,23.8c-0.1,0-0.3,0-0.4-0.1c-0.5-0.2-0.7-0.8-0.5-1.3L39,6.6c0.1-0.2,0.1-0.5,0.1-0.8S38.9,5.2,38.8,5   c-0.2-0.2-0.4-0.4-0.7-0.6s-0.6-0.2-0.8-0.2H12.8c-0.3,0-0.6,0.1-0.8,0.2S11.4,4.8,11.3,5S11,5.5,11,5.8c0,0.3,0,0.6,0.1,0.9   l6.8,15.7c0.2,0.5,0,1.1-0.5,1.3c-0.5,0.2-1.1,0-1.3-0.5L9.2,7.4C9,6.8,8.9,6.2,9,5.6C9,5,9.3,4.4,9.6,3.9C10,3.4,10.4,2.9,11,2.6   c0.5-0.3,1.2-0.4,1.8-0.4h24.5c0.6,0,1.2,0.2,1.8,0.4c0.5,0.3,1,0.7,1.4,1.2C40.8,4.4,41,5,41.1,5.6c0.1,0.6,0,1.2-0.2,1.8   l-6.9,15.7C33.8,23.5,33.4,23.8,33,23.8z"></path>	</g>	<g>		<path d="M34.9,11.9H15.2c-0.6,0-1-0.4-1-1s0.4-1,1-1h19.7c0.6,0,1,0.4,1,1S35.4,11.9,34.9,11.9z"></path>	</g>	<g>		<path d="M19.5,38c-0.4,0-0.8-0.1-1.2-0.2c-0.4-0.2-0.8-0.4-1.1-0.7c-0.3-0.3-0.5-0.7-0.7-1.1c-0.2-0.4-0.2-0.8-0.2-1.2   c0,0,0-0.1,0-0.1c0.1-0.5,0.2-0.9,0.4-1.3c-0.2-0.4-0.4-0.8-0.4-1.2c0,0,0-0.1,0-0.1c0-0.4,0.1-0.8,0.2-1.2c0.2-0.4,0.4-0.7,0.7-1   c0.3-0.3,0.6-0.5,1-0.7c0.4-0.2,0.8-0.2,1.2-0.2c2.1,0,3,1.4,3.5,2.1c0,0,0,0,0,0h4.4c0,0,0,0,0,0c0.5-0.7,1.4-2.1,3.5-2.1   c0.8,0,1.6,0.3,2.1,0.9c0.6,0.6,0.9,1.3,0.9,2.1c0,0,0,0.1,0,0.1c-0.1,0.4-0.2,0.9-0.4,1.2c0.2,0.4,0.4,0.8,0.4,1.3   c0,0,0,0.1,0,0.1c0,0.9-0.3,1.7-1,2.3s-1.4,1-2.3,1c-1.9,0-2.8-1.3-3.2-2.1c0,0,0,0,0-0.1l-4.4,0c0,0,0,0,0,0.1   C22.3,36.6,21.4,38,19.5,38z M18.3,34.8c0,0.1,0,0.3,0.1,0.4c0.1,0.2,0.2,0.3,0.3,0.4c0.1,0.1,0.3,0.2,0.4,0.3   c0.2,0.1,0.3,0.1,0.5,0.1c0.7,0,1.1-0.4,1.5-1.1c0.2-0.2,0.3-0.5,0.5-0.7c0.2-0.2,0.4-0.3,0.7-0.3l5.4,0h0c0.3,0,0.5,0.1,0.7,0.3   c0.2,0.2,0.3,0.4,0.5,0.7c0.5,0.7,0.8,1.1,1.6,1.1c0.3,0,0.7-0.1,0.9-0.4c0.2-0.2,0.4-0.5,0.4-0.8c-0.1-0.3-0.2-0.6-0.4-0.8   c-0.2-0.2-0.3-0.5-0.3-0.7c0-0.3,0.1-0.5,0.3-0.7c0.2-0.2,0.3-0.4,0.4-0.7c0-0.2-0.1-0.5-0.3-0.6c-0.2-0.2-0.4-0.3-0.7-0.3   c-1,0-1.4,0.6-1.8,1.2c-0.2,0.2-0.3,0.4-0.5,0.6C28.2,32.9,28,33,27.7,33h-5.4c-0.3,0-0.5-0.1-0.7-0.3c-0.2-0.2-0.3-0.4-0.5-0.6   c-0.4-0.6-0.8-1.2-1.8-1.2c-0.1,0-0.3,0-0.4,0.1c-0.1,0.1-0.2,0.1-0.3,0.2c-0.1,0.1-0.2,0.2-0.2,0.3c0,0.1-0.1,0.2-0.1,0.3   c0,0.3,0.2,0.5,0.4,0.7c0.2,0.2,0.3,0.4,0.3,0.7c0,0.3-0.1,0.5-0.3,0.7C18.5,34.2,18.3,34.5,18.3,34.8z"></path>	</g></g></svg>