<svg xmlns="http://www.w3.org/2000/svg" xmlns:xlink="http://www.w3.org/1999/xlink" x="0px" y="0px" viewBox="0 0 50 50" style="enable-background:new 0 0 50 50;" xml:space="preserve"><g>	<g>		<path d="M30.2,28.8h-6c-1.6,0-3.1-0.6-4.2-1.7l-0.6-0.6c-0.6-0.6-1-1.2-1.3-1.9c-0.3-0.7-0.5-1.5-0.5-2.3v-7.9   c0-0.8,0.2-1.5,0.5-2.3s0.7-1.4,1.3-1.9l0.2-0.2c0.7-0.7,1.5-1.2,2.4-1.6c0.9-0.4,1.8-0.6,2.8-0.6h5.4c0.9,0,1.8,0.2,2.7,0.5   c0.9,0.4,1.6,0.9,2.3,1.5l1.8,1.8c0.4,0.4,0.4,1,0,1.4s-1,0.4-1.4,0l-1.8-1.8c-0.5-0.5-1-0.8-1.6-1.1c-0.6-0.3-1.3-0.4-1.9-0.4   h-5.4c-0.7,0-1.4,0.1-2,0.4c-0.7,0.3-1.2,0.7-1.7,1.2l-0.2,0.2c-0.4,0.4-0.7,0.8-0.9,1.3c-0.2,0.5-0.3,1-0.3,1.5v7.9   c0,0.5,0.1,1,0.3,1.5c0.2,0.5,0.5,0.9,0.9,1.3l0.6,0.6c0.7,0.7,1.7,1.1,2.8,1.1h6c0.7,0,1.3-0.1,1.9-0.4s1.2-0.6,1.6-1.1l1.8-1.8   c0.4-0.4,1-0.4,1.4,0c0.4,0.4,0.4,1,0,1.4l-1.8,1.8c-0.7,0.7-1.4,1.2-2.3,1.5S31.2,28.8,30.2,28.8z"></path>	</g>	<g>		<path d="M31.3,19.7h-8.4c-0.6,0-1-0.4-1-1s0.4-1,1-1h8.4c0.6,0,1,0.4,1,1S31.9,19.7,31.3,19.7z"></path>	</g>	<g>		<path d="M27.2,25.3c-0.8,0-1.6-0.2-2.3-0.6c-0.7-0.4-1.3-1.1-1.7-1.9l-0.4-0.8c-0.2-0.5,0-1.1,0.4-1.3c0.5-0.2,1.1,0,1.3,0.4   l0.4,0.8c0.2,0.4,0.5,0.8,1,1s0.9,0.4,1.4,0.4c12-0.3,18.6-2.9,18.6-4.6V8.8c0-1.9-7.9-4.6-20.8-4.6C12.1,4.2,4.2,6.9,4.2,8.8v9.8   c0,1.4,4.6,3.8,14.5,4.6c0.6,0,1,0.5,0.9,1.1c0,0.5-0.5,1-1.1,0.9c-7.9-0.6-16.4-2.7-16.4-6.6V8.8C2.2,4.3,14,2.2,25,2.2   c11,0,22.8,2.1,22.8,6.6v9.8c0,4.5-11.1,6.4-20.5,6.6C27.2,25.3,27.2,25.3,27.2,25.3z"></path>	</g>	<g>		<path d="M23.6,16.9c-0.2,0-0.3,0-0.4-0.1c-0.5-0.2-0.7-0.8-0.4-1.3l0.4-0.9c0.4-0.7,0.9-1.4,1.6-1.8s1.5-0.7,2.3-0.7   c7.2-0.1,12-0.7,15.1-2c0.5-0.2,1.1,0,1.3,0.5c0.2,0.5,0,1.1-0.5,1.3c-3.4,1.4-8.4,2.1-15.8,2.2c-0.5,0-0.9,0.1-1.3,0.4   c-0.4,0.2-0.7,0.6-0.9,1l-0.4,0.9C24.3,16.7,24,16.9,23.6,16.9z"></path>	</g>	<g>		<path d="M18.7,13.8C18.7,13.8,18.6,13.8,18.7,13.8c-3.9-0.2-7.8-0.8-11.5-2c-0.5-0.2-0.8-0.7-0.7-1.2c0.2-0.5,0.7-0.8,1.2-0.7   c3.6,1.1,7.3,1.7,11,1.9c0.6,0,1,0.5,1,1C19.6,13.4,19.2,13.8,18.7,13.8z"></path>	</g>	<g>		<path d="M31.3,21.1c-0.6,0-1-0.4-1-1v-2.8c0-0.6,0.4-1,1-1s1,0.4,1,1v2.8C32.3,20.6,31.9,21.1,31.3,21.1z"></path>	</g>	<g>		<path d="M37,20.4c-0.6,0-1-0.4-1-1v-2.8c0-0.6,0.4-1,1-1s1,0.4,1,1v2.8C38,19.9,37.5,20.4,37,20.4z"></path>	</g>	<g>		<path d="M41.9,19c-0.6,0-1-0.4-1-1v-2.8c0-0.6,0.4-1,1-1s1,0.4,1,1V18C42.9,18.5,42.4,19,41.9,19z"></path>	</g>	<g>		<rect x="24.7" y="30.3" width="2" height="4.8"></rect>	</g>	<g>		<path d="M25.7,47.8c-4,0-7.3-3.3-7.3-7.3s3.3-7.3,7.3-7.3c4,0,7.3,3.3,7.3,7.3S29.7,47.8,25.7,47.8z M25.7,35.1   c-2.9,0-5.3,2.4-5.3,5.3c0,2.9,2.4,5.3,5.3,5.3s5.3-2.4,5.3-5.3C31,37.5,28.6,35.1,25.7,35.1z"></path>	</g>	<g>		<path d="M27.1,37.7c0,0.3-0.1,0.6-0.2,0.8c-0.2,0.2-0.4,0.4-0.6,0.5c-0.3,0.1-0.5,0.1-0.8,0.1c-0.3-0.1-0.5-0.2-0.7-0.4   s-0.3-0.4-0.4-0.7c-0.1-0.3,0-0.6,0.1-0.8c0.1-0.3,0.3-0.5,0.5-0.6c0.2-0.2,0.5-0.2,0.8-0.2c0.2,0,0.4,0,0.5,0.1   c0.2,0.1,0.3,0.2,0.5,0.3c0.1,0.1,0.2,0.3,0.3,0.5C27.1,37.3,27.1,37.5,27.1,37.7z"></path>	</g></g></svg>