<svg xmlns="http://www.w3.org/2000/svg" width="108" height="73" viewBox="0 0 108 73" fill="none"><g clip-path="url(#prev-icon)"><path d="M4.37183 33.9672C2.57457 39.8684 2.11291 45.1311 2.49353 47.0383C2.67855 47.9593 3.3119 48.7284 4.18148 49.0859C7.81727 50.5831 20.3683 45.5562 30.2599 41.0763C31.6755 40.4349 32.3022 38.7666 31.6625 37.3515C31.021 35.9359 29.3531 35.3074 27.9376 35.9489C17.509 40.6734 11.7719 42.5311 8.79473 43.2585C8.54479 43.3203 8.31396 43.3724 8.09916 43.4195C8.53547 39.4536 10.1949 31.9497 14.1671 25.8483C15.0147 24.5469 14.6467 22.8031 13.3436 21.955C12.0422 21.1074 10.2984 21.4754 9.45033 22.7785C7.15187 26.3102 5.49808 30.2641 4.37011 33.9668L4.37183 33.9672Z" fill="currentcolor"></path><path d="M7.42036 41.0278C7.10333 42.243 7.63339 43.5632 8.78229 44.198C10.1417 44.9504 11.8393 44.4488 12.6062 43.0969C22.5715 25.5335 49.1988 15.4339 74.8427 22.124C84.6231 24.6756 93.7995 28.7523 101.111 34.9439C102.296 35.949 103.737 36.0212 104.594 35.072C105.449 34.1241 105.292 32.7226 104.105 31.7188C96.1539 24.9848 86.7293 19.9191 76.1387 17.1562C48.0437 9.82664 19.3257 19.3164 7.6811 40.3741C7.56359 40.5846 7.47882 40.8037 7.42036 41.0278Z" fill="currentcolor"></path></g><defs><clipPath id="prev-icon"><rect width="49.0853" height="97.54" fill="white" transform="matrix(0.252436 -0.967614 -0.967614 -0.252436 95 72.8047)"></rect></clipPath></defs></svg>