<svg xmlns="http://www.w3.org/2000/svg" xmlns:xlink="http://www.w3.org/1999/xlink" x="0px" y="0px" viewBox="0 0 100 100" style="enable-background:new 0 0 100 100;" xml:space="preserve"><g>	<g>		<g>			<g>				<path d="M42.4,11L42.4,11c0.2-0.2,0.5-0.3,0.8-0.3s0.6,0.1,0.8,0.3l0.1-0.1L44,11l19.8,19.8c1.2,1.2,1.8,2.8,1.8,4.4v51.7     c0,1.3-1.1,2.4-2.4,2.4h-40c-1.3,0-2.4-1.1-2.4-2.4V35.2c0-1.7,0.7-3.3,1.8-4.4l0,0L42.4,11z M23.2,92.2h40.1     c2.9,0,5.3-2.4,5.3-5.3V35.2c0-2.4-1-4.8-2.7-6.5L46.1,8.9c-1.5-1.5-4.2-1.5-5.7,0L20.5,28.7c-1.7,1.7-2.7,4.1-2.7,6.5v51.7     C17.8,89.8,20.2,92.2,23.2,92.2z"></path>				<path d="M63.3,92.7H23.2c-3.3,0-5.9-2.6-5.9-5.8V35.2c0-2.5,1-5,2.8-6.9L40,8.5c1.7-1.7,4.7-1.7,6.4,0l19.8,19.8     c1.8,1.8,2.8,4.3,2.8,6.9v51.7C69.1,90.1,66.5,92.7,63.3,92.7z M43.3,8.3c-1,0-1.9,0.4-2.5,1L20.9,29.1     c-1.6,1.6-2.6,3.9-2.6,6.1v51.7c0,2.6,2.2,4.8,4.9,4.8h40.1c2.6,0,4.8-2.2,4.8-4.8V35.2c0-2.3-1-4.5-2.6-6.1L45.7,9.3     C45.1,8.6,44.2,8.3,43.3,8.3z M63.2,89.8h-40c-1.6,0-2.9-1.3-2.9-2.9V35.2c0-1.8,0.7-3.5,1.9-4.8L42,10.6c0.6-0.6,1.7-0.6,2.3,0     l-0.3,0.3l0.3-0.3l19.8,19.8c1.3,1.3,1.9,2.9,1.9,4.8v51.7C66.1,88.5,64.8,89.8,63.2,89.8z M43.2,11.2c-0.2,0-0.4,0.1-0.4,0.2     L23,31.2c-1.1,1.1-1.7,2.5-1.7,4v51.7c0,1,0.9,1.9,1.9,1.9h40c1,0,1.9-0.9,1.9-1.9V35.2c0-1.5-0.6-3-1.7-4L43.6,11.4     C43.6,11.3,43.4,11.2,43.2,11.2z"></path>			</g>			<g>				<path d="M63.3,92.4H23.2c-3,0-5.5-2.5-5.5-5.5V35.2c0-2.5,1-4.9,2.7-6.6L40.3,8.8c0.8-0.8,1.8-1.2,3-1.2l0,0     c1.1,0,2.2,0.4,3,1.2L66,28.6c1.7,1.7,2.7,4.2,2.7,6.6v51.7C68.8,89.9,66.3,92.4,63.3,92.4z M43.2,7.9L43.2,7.9     c-1.1,0-2.1,0.4-2.8,1.1L20.6,28.8c-1.7,1.7-2.7,4-2.7,6.4v51.7c0,2.9,2.3,5.2,5.2,5.2h40.1c2.9,0,5.2-2.3,5.2-5.2V35.2     c0-2.4-1-4.7-2.7-6.4L46,9C45.3,8.3,44.3,7.9,43.2,7.9z M63.3,89.5H23.2c-1.4,0-2.6-1.1-2.6-2.6V35.2c0-1.7,0.7-3.4,1.9-4.6     l19.8-19.8c0.4-0.4,1.2-0.5,1.7-0.1l0,0l0.2,0.2l0,0L64,30.7c1.2,1.2,1.9,2.9,1.9,4.6V87C65.8,88.3,64.7,89.5,63.3,89.5z      M43.2,10.8c-0.3,0-0.5,0.1-0.7,0.3l0,0L22.7,30.9c-1.1,1.1-1.8,2.7-1.8,4.3v51.7c0,1.2,1,2.3,2.3,2.3h40.1c1.2,0,2.3-1,2.3-2.3     V35.2c0-1.6-0.7-3.2-1.8-4.3L43.9,11.1C43.7,10.9,43.5,10.8,43.2,10.8z"></path>				<path d="M63.3,92.9H23.2c-3.3,0-6-2.7-6-6V35.2c0-2.6,1-5.1,2.8-7L39.9,8.4c0.9-0.9,2-1.3,3.4-1.3c1.3,0,2.5,0.5,3.4,1.3     l19.7,19.8c1.8,1.8,2.8,4.4,2.8,7v51.7c0.1,1.5-0.5,3-1.6,4.2C66.4,92.2,64.9,92.9,63.3,92.9z M43.2,8.4c-1,0-1.8,0.3-2.4,1     L21,29.2c-1.6,1.6-2.6,3.8-2.6,6v51.7c0,2.6,2.1,4.7,4.7,4.7h40.1c2.6,0,4.7-2.1,4.7-4.7V35.2c0-2.2-0.9-4.4-2.6-6L45.6,9.4     C45,8.7,44.2,8.4,43.2,8.4z M63.3,90H23.2c-1.7,0-3.1-1.4-3.1-3.1V35.2c0-1.8,0.7-3.7,2-5l19.8-19.8c0.6-0.6,1.7-0.7,2.4-0.1     l0.2,0.2l19.8,19.8c1.3,1.3,2,3.1,2,5V87C66.3,88.7,64.9,90,63.3,90z M43.2,11.3c-0.1,0-0.2,0-0.3,0.2L23.1,31.3     c-1,1-1.7,2.5-1.7,3.9v51.7c0,1,0.8,1.8,1.8,1.8h40.1c1,0,1.8-0.8,1.8-1.8V35.2c0-1.4-0.6-2.9-1.7-3.9L43.5,11.5     C43.4,11.3,43.3,11.3,43.2,11.3z"></path>			</g>		</g>		<g>			<g>				<path d="M36.2,25.1c0,4,3.2,7.2,7.2,7.2s7.2-3.2,7.2-7.2s-3.2-7.2-7.2-7.2C39.4,17.9,36.2,21.1,36.2,25.1z M39.1,25.1     c0-2.3,1.9-4.2,4.2-4.2s4.3,1.9,4.3,4.2s-1.9,4.3-4.3,4.3C41,29.3,39.1,27.4,39.1,25.1z"></path>				<path d="M43.4,32.8c-4.2,0-7.7-3.5-7.7-7.7c0-4.2,3.5-7.7,7.7-7.7s7.7,3.5,7.7,7.7C51.1,29.3,47.6,32.8,43.4,32.8z M43.4,18.4     c-3.7,0-6.7,3-6.7,6.7s3,6.7,6.7,6.7s6.7-3,6.7-6.7S47.1,18.4,43.4,18.4z M43.3,29.9c-2.6-0.1-4.7-2.3-4.7-4.8     c0-2.6,2.1-4.7,4.7-4.7c2.6,0,4.8,2.2,4.8,4.7C48.1,27.7,45.9,29.9,43.3,29.9z M43.3,21.4c-2,0-3.7,1.7-3.7,3.7     c0,2,1.7,3.7,3.7,3.8c2,0,3.8-1.7,3.8-3.8C47.1,23.1,45.4,21.4,43.3,21.4z"></path>			</g>			<g>				<path d="M43.3,32.4c-4,0-7.3-3.3-7.3-7.3s3.3-7.3,7.3-7.3s7.3,3.3,7.3,7.3C50.7,29.1,47.4,32.4,43.3,32.4z M43.3,18     c-3.9,0-7,3.2-7,7c0,3.9,3.2,7,7,7c3.9,0,7-3.2,7-7C50.4,21.2,47.2,18,43.3,18z M43.3,29.5c-2.4,0-4.4-2-4.4-4.4s2-4.4,4.4-4.4     s4.4,2,4.4,4.4S45.8,29.5,43.3,29.5z M43.3,21c-2.3,0-4.1,1.8-4.1,4.1s1.8,4.1,4.1,4.1s4.1-1.8,4.1-4.1     C47.4,22.8,45.6,21,43.3,21z"></path>				<path d="M43.3,32.9c-4.3,0-7.8-3.5-7.8-7.8c0-4.3,3.5-7.8,7.8-7.8s7.8,3.5,7.8,7.8c0.1,2-0.7,4-2.2,5.4     C47.5,32.1,45.5,32.9,43.3,32.9z M43.3,18.5c-3.6,0-6.5,2.9-6.5,6.5s2.9,6.5,6.5,6.5s6.5-2.9,6.5-6.5c0-1.7-0.6-3.3-1.8-4.5     C46.8,19.2,45.1,18.5,43.3,18.5z M43.3,30c-2.7,0-4.9-2.2-4.9-4.9s2.2-4.9,4.9-4.9s4.9,2.2,4.9,4.9C48.2,27.8,46,30,43.3,30z      M43.3,21.5c-2,0-3.6,1.6-3.6,3.6s1.6,3.6,3.6,3.6s3.6-1.6,3.6-3.6S45.3,21.5,43.3,21.5z"></path>			</g>		</g>		<g>			<g>				<path d="M37.4,72.6L37.4,72.6c1,2.4,3.2,3.9,5.8,3.9c3.5,0,6.3-2.8,6.3-6.3s-2.8-6.3-6.3-6.3c-1.8,0-3.3-1.5-3.3-3.3     s1.5-3.3,3.3-3.3c1.3,0,2.5,0.8,3,2l0,0c0.3,0.7,1.2,1.1,1.9,0.7c0.7-0.3,1.1-1.2,0.7-1.9l0,0c-1-2.3-3.2-3.7-5.7-3.7     c-3.5,0-6.3,2.8-6.3,6.3s2.8,6.3,6.3,6.3c1.8,0,3.3,1.5,3.3,3.3s-1.5,3.3-3.3,3.3c-1.4,0-2.6-0.8-3.1-2.1l0,0     c-0.3-0.8-1.2-1.1-1.9-0.8C37.5,71,37.1,71.8,37.4,72.6z"></path>				<path d="M43.2,77c-2.8,0-5.2-1.6-6.3-4.2l0,0c-0.4-1.1,0.2-2.1,0.9-2.5c0.5-0.2,1.1-0.2,1.6,0c0.5,0.2,0.8,0.6,1,1.1     c0.4,1.1,1.4,1.8,2.6,1.8c1.5,0,2.8-1.3,2.8-2.8s-1.3-2.8-2.8-2.8c-3.7,0-6.8-3.1-6.8-6.8s3.1-6.8,6.8-6.8c2.7,0,5.1,1.5,6.2,4     c0.2,0.4,0.3,0.9,0.1,1.4c-0.2,0.5-0.6,1-1.1,1.2c-0.4,0.2-0.9,0.3-1.4,0.1c-0.5-0.2-1-0.6-1.2-1.1c-0.4-1-1.4-1.7-2.5-1.7     c-1.5,0-2.8,1.3-2.8,2.8c0,1.5,1.3,2.8,2.8,2.8c3.7,0,6.8,3.1,6.8,6.8S46.9,77,43.2,77z M37.9,72.4c0.9,2.2,3,3.6,5.3,3.6     c3.2,0,5.8-2.6,5.8-5.8s-2.6-5.8-5.8-5.8c-2.1,0-3.8-1.7-3.8-3.8c0-2.1,1.7-3.8,3.8-3.8c1.5,0,2.9,0.9,3.5,2.3     c0.1,0.2,0.3,0.4,0.6,0.5c0.1,0,0.4,0.1,0.6,0c0.3-0.1,0.5-0.3,0.6-0.6c0-0.1,0.1-0.4,0-0.6c-0.9-2.1-2.9-3.4-5.3-3.4     c-3.2,0-5.8,2.6-5.8,5.8s2.6,5.8,5.8,5.8c2.1,0,3.8,1.7,3.8,3.8s-1.7,3.8-3.8,3.8c-1.6,0-3-0.9-3.6-2.4     c-0.1-0.3-0.3-0.4-0.5-0.5c-0.2-0.1-0.5-0.1-0.7,0C37.9,71.3,37.7,71.9,37.9,72.4z"></path>			</g>			<g>				<path d="M43.2,76.7c-2.6,0-5-1.6-6-4l0,0c-0.3-0.8,0.1-1.8,0.9-2.1c0.4-0.2,0.8-0.2,1.2,0s0.7,0.5,0.9,0.9c0.5,1.2,1.6,2,3,2     c1.8,0,3.2-1.4,3.2-3.2c0-1.8-1.4-3.2-3.2-3.2c-3.5,0-6.4-2.9-6.4-6.4s2.9-6.4,6.4-6.4c2.5,0,4.8,1.5,5.9,3.8     c0.2,0.4,0.2,0.8,0,1.2s-0.5,0.7-0.9,0.9s-0.8,0.2-1.2,0s-0.7-0.5-0.9-0.9l0,0c-0.5-1.1-1.6-1.9-2.9-1.9c-1.8,0-3.2,1.4-3.2,3.2     s1.4,3.2,3.2,3.2c3.5,0,6.4,2.9,6.4,6.4S46.8,76.7,43.2,76.7z M37.5,72.5c0.9,2.3,3.2,3.8,5.7,3.8c3.4,0,6.1-2.7,6.1-6.1     s-2.7-6.1-6.1-6.1c-1.9,0-3.5-1.6-3.5-3.5s1.6-3.5,3.5-3.5c1.4,0,2.6,0.8,3.2,2.1l0,0c0.1,0.3,0.4,0.5,0.7,0.7     c0.3,0.1,0.7,0.1,1,0s0.6-0.4,0.7-0.7c0.1-0.3,0.1-0.7,0-1c-1-2.2-3.2-3.6-5.6-3.6c-3.4,0-6.1,2.7-6.1,6.1     c0,3.4,2.7,6.1,6.1,6.1c1.9,0,3.5,1.6,3.5,3.5s-1.6,3.5-3.5,3.5c-1.4,0-2.7-0.9-3.2-2.2c-0.1-0.3-0.4-0.6-0.7-0.7s-0.7-0.1-1,0     C37.6,71.1,37.3,71.8,37.5,72.5L37.5,72.5z"></path>				<path d="M43.2,77.2c-2.8,0-5.4-1.7-6.5-4.3c-0.4-1.1,0.1-2.4,1.2-2.8c0.5-0.3,1.1-0.2,1.6,0c0.5,0.2,0.9,0.6,1.1,1.1     c0.5,1.1,1.4,1.7,2.6,1.7c1.5,0,2.7-1.2,2.7-2.7s-1.2-2.7-2.7-2.7c-3.8,0-6.9-3.1-6.9-6.9s3.1-6.9,6.9-6.9     c2.7,0,5.2,1.6,6.4,4.1c0.3,0.5,0.3,1.1,0,1.6c-0.2,0.5-0.6,0.9-1.1,1.1c-0.5,0.3-1.1,0.3-1.6,0c-0.5-0.2-0.9-0.6-1.1-1.1     c-0.5-1-1.4-1.6-2.5-1.6c-1.5,0-2.7,1.2-2.7,2.7s1.2,2.7,2.7,2.7c3.8,0,6.9,3.1,6.9,6.9C50.1,74.1,47,77.2,43.2,77.2z M38,72.3     c0.8,2.1,2.9,3.5,5.2,3.5c3.1,0,5.6-2.5,5.6-5.6c0-3.1-2.5-5.6-5.6-5.6c-2.2,0-4-1.8-4-4s1.8-4,4-4c1.6,0,3,0.9,3.7,2.4     c0.1,0.2,0.3,0.3,0.5,0.5c0.2,0,0.4,0,0.6,0c0.1,0,0.3-0.2,0.4-0.4c0.1-0.2,0.1-0.5,0-0.7c-0.9-2-2.9-3.3-5.1-3.3     c-3.1,0-5.6,2.5-5.6,5.6c0,3.1,2.5,5.6,5.6,5.6c2.2,0,4,1.8,4,4s-1.8,4-4,4c-1.6,0-3.1-1-3.7-2.5c-0.1-0.2-0.2-0.4-0.4-0.4     c-0.2-0.1-0.5-0.1-0.7,0c-0.2,0.1-0.3,0.2-0.4,0.3C37.9,71.9,37.9,72.1,38,72.3z"></path>			</g>		</g>		<g>			<g>				<path d="M41.8,55.9c0,0.8,0.7,1.5,1.5,1.5s1.5-0.7,1.5-1.5v-2.5c0-0.8-0.7-1.5-1.5-1.5s-1.5,0.7-1.5,1.5V55.9z"></path>				<path d="M43.3,57.9c-1.1,0-2-0.9-2-2v-2.5c0-1.1,0.9-2,2-2s2,0.9,2,2v2.5C45.3,57,44.4,57.9,43.3,57.9z M43.3,52.4     c-0.5,0-1,0.5-1,1v2.5c0,0.5,0.5,1,1,1s1-0.5,1-1v-2.5C44.3,52.9,43.8,52.4,43.3,52.4z"></path>			</g>			<g>				<path d="M43.2,57.5c-0.9,0-1.6-0.7-1.6-1.6v-2.5c0-0.9,0.7-1.6,1.6-1.6c0.9,0,1.6,0.7,1.6,1.6v2.5     C44.8,56.7,44.1,57.5,43.2,57.5z M43.2,52c-0.7,0-1.3,0.6-1.3,1.3v2.5c0,0.7,0.6,1.3,1.3,1.3s1.3-0.6,1.3-1.3v-2.5     C44.5,52.6,44,52,43.2,52z"></path>				<path d="M43.2,58c-1.2,0-2.1-0.9-2.1-2.1v-2.5c0-1.2,0.9-2.1,2.1-2.1c1.2,0,2.1,0.9,2.1,2.1v2.5C45.3,57,44.3,58,43.2,58z      M43.2,52.5c-0.4,0-0.8,0.4-0.8,0.8v2.5c0,0.4,0.4,0.8,0.8,0.8s0.8-0.4,0.8-0.8v-2.5C44,52.9,43.8,52.5,43.2,52.5z"></path>			</g>		</g>		<g>			<g>				<path d="M41.8,77.6c0,0.8,0.7,1.5,1.5,1.5s1.5-0.7,1.5-1.5V75c0-0.8-0.7-1.5-1.5-1.5s-1.5,0.7-1.5,1.5V77.6z"></path>				<path d="M43.3,79.6c-1.1,0-2-0.9-2-2V75c0-1.1,0.9-2,2-2s2,0.9,2,2v2.6C45.3,78.7,44.4,79.6,43.3,79.6z M43.3,74     c-0.5,0-1,0.5-1,1v2.6c0,0.5,0.5,1,1,1s1-0.5,1-1V75C44.3,74.5,43.8,74,43.3,74z"></path>			</g>			<g>				<path d="M43.2,79.2c-0.9,0-1.6-0.7-1.6-1.6V75c0-0.9,0.7-1.6,1.6-1.6c0.9,0,1.6,0.7,1.6,1.6v2.5C44.8,78.5,44.1,79.2,43.2,79.2z      M43.2,73.7c-0.7,0-1.3,0.6-1.3,1.3v2.5c0,0.7,0.6,1.3,1.3,1.3s1.3-0.6,1.3-1.3V75C44.5,74.3,44,73.7,43.2,73.7z"></path>				<path d="M43.2,79.7c-1.2,0-2.1-0.9-2.1-2.1V75c0-1.2,0.9-2.1,2.1-2.1c1.2,0,2.1,0.9,2.1,2.1v2.5C45.3,78.8,44.4,79.7,43.2,79.7z      M43.2,74.2c-0.4,0-0.8,0.4-0.8,0.8v2.5c0,0.4,0.4,0.8,0.8,0.8s0.8-0.4,0.8-0.8V75C44,74.6,43.8,74.2,43.2,74.2z"></path>			</g>		</g>	</g>	<g>		<g>			<g>				<path d="M62.4,29.9C59,29.9,42,29.7,42,25.1c0-0.7,0.6-1.3,1.3-1.3c0.6,0,1.2,0.5,1.3,1.1c0.9,0.9,7,2.5,17.9,2.5     c10.1,0,16.1-1.4,17.6-2.3c-1.5-0.9-7.5-2.3-17.6-2.3c-1.9,0-3.8,0.1-5.5,0.2c-0.7,0-1.3-0.5-1.3-1.2s0.5-1.3,1.2-1.3     c1.8-0.1,3.7-0.2,5.7-0.2c3.4,0,20.4,0.2,20.4,4.8C82.8,29.7,65.8,29.9,62.4,29.9z"></path>				<path d="M62.4,30.4c-6.3,0-20.9-0.5-20.9-5.3c0-1,0.8-1.8,1.8-1.8c0.8,0,1.5,0.6,1.7,1.3c1,0.7,6.5,2.3,17.5,2.3     c8.4,0,14-1,16.4-1.8c-2.4-0.8-8-1.8-16.4-1.8c-1.9,0-3.8,0.1-5.5,0.2c0,0,0,0,0,0c-1,0-1.8-0.7-1.8-1.7c0-1,0.7-1.8,1.7-1.8     c1.9-0.1,3.7-0.2,5.7-0.2c6.3,0,20.9,0.5,20.9,5.3C83.3,29.9,68.7,30.4,62.4,30.4z M43.3,24.3c-0.4,0-0.8,0.4-0.8,0.8     c0,3,10,4.3,19.9,4.3c9.9,0,20-1.3,20.1-4.3c0-2.9-10-4.3-19.9-4.3c-1.9,0-3.7,0.1-5.7,0.2c-0.5,0-0.7,0.4-0.7,0.8     c0,0.4,0.4,0.7,0.8,0.7c1.6-0.1,3.5-0.2,5.5-0.2c10.2,0,16.3,1.4,17.9,2.4l0.7,0.4l-0.7,0.4c-1.6,1-7.7,2.4-17.9,2.4     c-10.8,0-17.2-1.5-18.3-2.6l-0.1-0.1l0-0.2C44,24.6,43.7,24.3,43.3,24.3z"></path>			</g>		</g>	</g></g></svg>