<svg xmlns="http://www.w3.org/2000/svg" width="188" height="131" viewBox="0 0 188 131" fill="none"><path d="M99.2864 85.3644C99.4273 78.7444 100.835 71.4201 103.511 63.3916C106.327 55.3631 110.27 47.4755 115.339 39.7287C120.409 31.8411 126.464 24.4464 133.505 17.5447C140.686 10.5022 148.713 4.65688 157.584 0.00880317C157.584 -0.132048 157.654 1.41731 157.795 4.65688C157.936 7.75559 158.077 11.629 158.218 16.2771C158.499 20.9251 158.71 25.9253 158.851 31.2777C159.133 36.4891 159.415 41.1372 159.696 45.2219C168.427 48.4615 175.327 53.8842 180.396 61.4902C185.465 69.0961 188 77.4767 188 86.632C188 92.6886 186.803 98.3931 184.409 103.745C182.156 109.098 178.988 113.816 174.904 117.901C170.961 121.845 166.244 125.014 160.752 127.408C155.401 129.803 149.698 131 143.643 131C137.588 131 131.815 129.803 126.323 127.408C120.972 125.014 116.255 121.845 112.171 117.901C108.228 113.816 105.06 109.098 102.666 103.745C100.272 98.3931 99.1456 92.6886 99.2864 86.632V85.3644ZM0.0117346 85.3644C0.15255 78.7444 1.5607 71.4201 4.23619 63.3916C7.05249 55.3631 10.9953 47.4755 16.0647 39.7287C21.134 31.8411 27.1891 24.4464 34.2298 17.5447C41.4114 10.5022 49.4379 4.65688 58.3092 0.00880317C58.3092 -0.132048 58.3796 1.41731 58.5204 4.65688C58.6613 7.75559 58.8021 11.629 58.9429 16.2771C59.2245 20.9251 59.4357 25.9253 59.5766 31.2777C59.8582 36.4891 60.1398 41.1372 60.4215 45.2219C69.152 48.4615 76.0519 53.8842 81.1213 61.4902C86.1906 69.0961 88.7253 77.4767 88.7253 86.632C88.7253 92.6886 87.5284 98.3931 85.1345 103.745C82.8815 109.098 79.7131 113.816 75.6295 117.901C71.6867 121.845 66.9694 125.014 61.4776 127.408C56.1266 129.803 50.4236 131 44.3685 131C38.3135 131 32.54 129.803 27.0483 127.408C21.6973 125.014 16.98 121.845 12.8963 117.901C8.9535 113.816 5.78516 109.098 3.3913 103.745C0.997441 98.3931 -0.129081 92.6886 0.0117346 86.632V85.3644Z" fill="currentcolor"></path></svg>