<svg xmlns="http://www.w3.org/2000/svg" width="66" height="65" viewBox="0 0 66 65" fill="none"><g clip-path="url(#clip0_173_2367)"><path d="M40.5925 8.99561C40.5925 8.99561 39.2671 20.1903 39.2671 24.9333C39.2671 28.5997 42.2378 31.5755 45.9093 31.5755C49.5808 31.5755 52.5515 28.5997 52.5515 24.9333C52.5515 20.1929 45.9093 17.2958 45.9093 8.99561" stroke="currentcolor" stroke-width="2" stroke-linecap="round" stroke-linejoin="round"></path><path d="M51.4043 11.1791C51.4043 11.1812 51.4041 11.1823 51.404 11.1826L51.4036 11.1841C51.403 11.1854 51.4017 11.1877 51.3992 11.1902C51.3966 11.1928 51.3944 11.194 51.3934 11.1944L51.3928 11.1946L51.3925 11.1947L51.3912 11.1947C51.3894 11.1947 51.3885 11.1945 51.387 11.1939C51.3848 11.193 51.3815 11.191 51.3783 11.1878C51.3751 11.1846 51.3737 11.182 51.3733 11.181C51.3731 11.1807 51.3731 11.1806 51.3731 11.1807C51.3732 11.1808 51.373 11.1804 51.373 11.1791C51.373 11.177 51.3732 11.1761 51.3733 11.176L51.3734 11.1757C51.3735 11.1753 51.3743 11.1737 51.3764 11.1717C51.3785 11.1696 51.3807 11.1682 51.3826 11.1674C51.3839 11.1668 51.3862 11.166 51.3912 11.166C51.3937 11.166 51.395 11.1662 51.3954 11.1663L51.3964 11.1667C51.3971 11.1669 51.3987 11.1678 51.4005 11.1696C51.4023 11.1714 51.4032 11.1731 51.4036 11.174L51.404 11.1753C51.4041 11.1757 51.4043 11.1769 51.4043 11.1791Z" fill="currentcolor" stroke="currentcolor" stroke-width="2"></path><path d="M11.7793 52.8223C11.7793 54.9805 10.8652 55.7828 9.74805 55.8691C8.09766 55.9961 7.1582 55.1049 6.70117 53.8379C6.70117 53.8379 5.68809 51.8066 5.68555 45.7129C5.68555 44.6973 4.77656 43.6816 3.6543 43.6816C2.53203 43.6816 1.62305 44.5906 1.62305 45.7129V53.8785C1.62305 58.916 5.36562 61.9629 8.73242 61.9629H16.1338" stroke="currentcolor" stroke-width="2" stroke-linecap="round" stroke-linejoin="round"></path><path d="M20.4705 47.3353L21.0545 45.8677C23.1086 42.0007 27.9404 41.757 31.4088 44.4839C34.5928 46.9824 34.8619 51.248 32.7977 53.5027C31.1498 55.3029 29.0424 56.8873 29.0424 56.8873L35.1361 57.9029C38.183 58.497 38.183 60.4191 38.183 61.4347C38.183 62.7042 37.1674 63.9966 35.1361 63.9966H15.8418C15.8418 61.9654 16.8574 59.9341 17.873 56.8873" stroke="currentcolor" stroke-width="2" stroke-linecap="round" stroke-linejoin="round"></path><path d="M60.5293 11.311V13.2128C60.5293 14.6144 61.6668 15.7519 63.0684 15.7519H64.5918" stroke="currentcolor" stroke-width="2" stroke-linecap="round" stroke-linejoin="round"></path><path d="M49.3574 30.6055V34.541C49.3574 38.6035 48.3418 40.6348 46.3105 43.6816V56.8848L49.3574 57.9004C52.4043 58.916 52.4043 60.4166 52.4043 61.4322C52.4043 62.7018 51.3887 63.9941 49.3574 63.9941H38.1855V43.6816C38.1855 40.6348 37.1699 38.6035 36.1543 37.5879" stroke="currentcolor" stroke-width="2" stroke-linecap="round" stroke-linejoin="round"></path><path d="M13.1073 57.6947C12.2491 55.9479 11.7769 53.942 11.7769 51.8066C11.7769 40.8887 18.6272 36.9125 22.9513 32.5098C29.0552 26.2941 33.1075 20.2842 35.479 11.6488C36.8247 6.74844 39.3587 1.02539 46.0009 1.02539C52.6431 1.02539 56.6243 6.10606 56.6243 11.1816H57.9497C64.5919 11.1816 64.5919 13.0986 64.5919 15.6377C64.5919 18.1768 61.7761 23.2676 56.4669 23.3691" stroke="currentcolor" stroke-width="2" stroke-linecap="round" stroke-linejoin="round"></path></g><defs><clipPath id="clip0_173_2367"><rect width="65" height="65" fill="white" transform="translate(0.607422 0.00976562)"></rect></clipPath></defs></svg>