<svg xmlns="http://www.w3.org/2000/svg" width="66" height="65" viewBox="0 0 66 65" fill="none"><g clip-path="url(#clip0_173_2384)"><path d="M10.7283 17.2656C10.3703 17.4434 10.0478 17.6262 9.7609 17.8115C7.40719 19.3197 7.21168 20.9955 6.90192 22.2346C5.68317 27.0994 2.66169 43.2275 1.81364 46.6096C1.6359 47.323 1.57751 48.0619 1.66383 48.7906C2.79372 58.2842 16.4234 63.9818 33.072 63.9818C49.7207 63.9818 63.3503 58.2842 64.4802 48.7906C64.5666 48.0594 64.5107 47.323 64.3304 46.6096C63.4824 43.2275 60.4609 27.0994 59.2421 22.2346C58.9375 21.0158 58.7419 19.3781 56.505 17.8902" stroke="currentcolor" stroke-width="2" stroke-linecap="round" stroke-linejoin="round"></path><path d="M17.8379 17.2656C15.5934 17.2656 13.7754 15.4477 13.7754 13.2031C13.7754 10.9586 15.5934 9.14062 17.8379 9.14062C18.5996 9.14062 19.3029 9.36406 19.9123 9.72715C20.1307 7.68828 21.8344 6.09375 23.9316 6.09375C24.899 6.09375 25.775 6.44414 26.4707 7.01035C26.1559 6.43398 25.9629 5.78145 25.9629 5.07812C25.9629 2.83359 27.7809 1.01562 30.0254 1.01562C31.5666 1.01562 32.3842 1.88398 33.0723 3.15098" stroke="currentcolor" stroke-width="2" stroke-linecap="round" stroke-linejoin="round"></path><path d="M37.1348 5.07812C39.1863 5.07812 40.8646 6.6041 41.1414 8.57949C41.8854 7.68828 42.9924 7.10938 44.2441 7.10938C46.4887 7.10938 48.3066 8.92734 48.3066 11.1719" stroke="currentcolor" stroke-width="2" stroke-linecap="round" stroke-linejoin="round"></path><path d="M46.2754 18.7332C46.8746 19.0836 47.5627 19.2969 48.3066 19.2969C50.5512 19.2969 52.3691 17.4789 52.3691 15.2344C52.3691 12.9898 50.5512 11.1719 48.3066 11.1719C47.5627 11.1719 46.8746 11.3852 46.2754 11.7355" stroke="currentcolor" stroke-width="2" stroke-linecap="round" stroke-linejoin="round"></path><path d="M39.166 20.3125C39.166 18.068 37.348 16.25 35.1035 16.25C33.8518 16.25 32.7447 16.8289 32.0008 17.7201C31.724 15.7447 30.0457 14.2188 27.9941 14.2188H25.9629" stroke="currentcolor" stroke-width="2" stroke-linecap="round" stroke-linejoin="round"></path><path d="M30.9468 36.0878C30.5685 34.4247 29.1695 33.2897 27.8187 33.5538C26.4679 33.8153 25.6783 35.3743 26.0566 37.0374C26.4324 38.7005 27.8314 39.8329 29.1822 39.5739C30.5329 39.3124 31.3226 37.7508 30.9468 36.0903V36.0878Z" stroke="currentcolor" stroke-width="2" stroke-linecap="round" stroke-linejoin="round"></path><path d="M22.1513 40.7089C23.1898 40.3179 24.373 41.331 24.797 42.9661C25.2185 44.5988 24.7183 46.2441 23.6798 46.6351C22.6413 47.0236 21.4581 46.013 21.0341 44.3753C20.6126 42.7427 21.1103 41.0974 22.1513 40.7064V40.7089Z" stroke="currentcolor" stroke-width="2" stroke-linecap="round" stroke-linejoin="round"></path><path d="M33.0718 57.0299C33.8208 57.0299 36.5528 57.8906 37.5253 57.8906C39.5565 57.8906 41.1968 56.0549 41.1968 53.7977C41.1968 53.0766 41.1968 51.8553 40.0415 50.507L36.1694 45.3375C35.395 44.2584 34.2372 43.6719 33.0718 43.6719C31.9063 43.6719 30.7485 44.2584 29.9741 45.3375L26.1071 50.507C24.9468 51.8553 24.9468 53.074 24.9468 53.7977C24.9468 56.0549 26.5921 57.8906 28.6208 57.8906C29.5882 57.8906 32.3202 57.0299 33.0718 57.0299Z" stroke="currentcolor" stroke-width="2" stroke-linecap="round" stroke-linejoin="round"></path><path d="M35.1969 36.0878C35.5752 34.4247 36.9743 33.2897 38.325 33.5538C39.6758 33.8153 40.4655 35.3743 40.0872 37.0374C39.7114 38.7005 38.3123 39.8329 36.9616 39.5739C35.6133 39.3124 34.8211 37.7508 35.1969 36.0903V36.0878Z" stroke="currentcolor" stroke-width="2" stroke-linecap="round" stroke-linejoin="round"></path><path d="M43.9922 40.7089C42.9537 40.3179 41.7705 41.331 41.3491 42.9661C40.9276 44.5988 41.4252 46.2441 42.4662 46.6351C43.5047 47.0236 44.6879 46.013 45.1094 44.3753C45.5309 42.7427 45.0332 41.0974 43.9922 40.7064V40.7089Z" stroke="currentcolor" stroke-width="2" stroke-linecap="round" stroke-linejoin="round"></path><path d="M59.0186 21.3281C59.0186 22.9354 57.0025 24.4334 54.4863 25.6953" stroke="currentcolor" stroke-width="2" stroke-linecap="round" stroke-linejoin="round"></path><path d="M18.9318 28.077C12.1475 26.617 7.18359 24.1389 7.18359 21.3281" stroke="currentcolor" stroke-width="2" stroke-linecap="round" stroke-linejoin="round"></path><path d="M11.7441 21.3281C13.8617 22.8566 21.4459 25.3906 33.0723 25.3906C44.6986 25.3906 52.2828 22.8566 54.4004 21.3281" stroke="currentcolor" stroke-width="2" stroke-linecap="round" stroke-linejoin="round"></path></g><defs><clipPath id="clip0_173_2384"><rect width="64.9289" height="65" fill="white" transform="translate(0.607422)"></rect></clipPath></defs></svg>