<svg xmlns="http://www.w3.org/2000/svg" width="66" height="65" viewBox="0 0 66 65" fill="none"><g clip-path="url(#clip0_173_2411)"><path d="M26.3483 52.066C25.4774 50.3369 24.9849 48.3742 24.9849 46.2947C24.9849 37.3369 37.1724 30.9156 37.1724 15.2344" stroke="currentcolor" stroke-width="2" stroke-linecap="round" stroke-linejoin="round"></path><path d="M48.9358 38.5632C49.1923 41.4832 49.3599 44.1949 49.3599 46.2947C49.3599 53.2212 43.906 58.8427 37.1724 58.8427C34.0519 58.8427 31.203 57.6341 29.0474 55.646" stroke="currentcolor" stroke-width="2" stroke-linecap="round" stroke-linejoin="round"></path><path d="M46.313 17.2656C46.313 17.2656 47.4022 24.4385 48.2782 32.1217" stroke="currentcolor" stroke-width="2" stroke-linecap="round" stroke-linejoin="round"></path><path d="M29.0474 20.3124C29.0474 18.6315 27.6788 17.2681 25.9954 17.2681C24.312 17.2681 22.9536 18.6315 22.9536 20.3124" stroke="currentcolor" stroke-width="2" stroke-linecap="round" stroke-linejoin="round"></path><path d="M9.75049 21.3281V24.375C9.75049 27.1807 7.47803 29.4531 4.67236 29.4531H1.62549" stroke="currentcolor" stroke-width="2" stroke-linecap="round" stroke-linejoin="round"></path><path d="M55.9437 20.0916C54.1029 10.8393 48.5906 1.01562 37.0074 1.01562C24.3679 1.01562 16.7863 10.6844 16.7863 20.3455L13.813 20.3125C1.1736 20.3125 1.62555 23.9916 1.62555 28.8234C1.62555 33.6553 6.75699 43.4738 16.8599 43.6719H20.9224" stroke="currentcolor" stroke-width="2" stroke-linecap="round" stroke-linejoin="round"></path><path d="M64.5941 41.6407C62.149 37.2278 58.9676 32.2233 57.2334 26.4749" stroke="currentcolor" stroke-width="2" stroke-linecap="round" stroke-linejoin="round"></path><path d="M52.2595 3.09521C54.0419 3.26279 55.5171 3.86709 56.5988 4.94873C62.1289 10.4788 55.1871 26.3886 41.0927 40.4829C26.9984 54.5773 11.0886 61.519 5.55855 55.989C3.13883 53.5692 3.10582 49.164 5.01519 43.7913" stroke="currentcolor" stroke-width="2" stroke-linecap="round" stroke-linejoin="round"></path><path d="M58.2846 8.11499L64.5941 41.6281C64.6246 46.5665 62.5857 52.6248 57.924 57.2865L57.9088 57.3017C53.2471 61.9634 47.1889 64.015 42.2504 63.9871L8.7373 57.6623" stroke="currentcolor" stroke-width="2" stroke-linecap="round" stroke-linejoin="round"></path></g><defs><clipPath id="clip0_173_2411"><rect width="65.0025" height="65" fill="white" transform="translate(0.607422)"></rect></clipPath></defs></svg>