<svg xmlns="http://www.w3.org/2000/svg" xmlns:xlink="http://www.w3.org/1999/xlink" x="0px" y="0px" viewBox="0 0 78 83" style="enable-background:new 0 0 78 83;" xml:space="preserve"><g>	<path d="M10.7,55.5L10.7,55.5l8.2-18c0,0,0,0,0-0.1l0.8-1.7l-7.6-3.4l-9.5,21l7.6,3.4L10.7,55.5L10.7,55.5z M47.5,37  c0.4-0.6,0.9-1.2,1.3-1.8l0,0c0.5-0.8,0.9-1.6,1.4-2.4c1.3-2.7,2.3-5.7,3-9c0.6-3.1,0.9-6.4,0.8-9.9c-1.4,0-2.9-0.1-4.4-0.3  c-1.6-0.3-3.2-0.7-4.7-1.3c-1.3-0.5-2.5-1.2-3.7-2c-0.9-0.6-1.7-1.4-2.4-2.2c-0.7,0.8-1.6,1.6-2.4,2.2c-1.2,0.8-2.4,1.5-3.7,2  c-1.5,0.6-3.1,1-4.7,1.3c-1.5,0.2-3,0.3-4.4,0.3c0,3.4,0.2,6.7,0.8,9.9c0.6,3.3,1.6,6.3,3,9c0.4,0.9,0.9,1.7,1.4,2.5  c0.4,0.6,0.8,1.3,1.3,1.9l3.3-1l0,0l0,0c0.8-0.2,1.2-0.3,1.7-0.3s1,0.1,1.7,0.4c0,0,0,0,0.1,0l1.9,0.9l0.4-0.2  c0.4-0.1,0.6-0.2,0.7-0.3c2.9-1.1,3-1,6.1-0.1l0.7,0.2C47,36.8,47.3,36.9,47.5,37L47.5,37z M28.8,37.5c-0.4-0.5-0.7-1-1.1-1.6  c-0.5-0.8-1-1.7-1.5-2.6c-1.4-2.8-2.4-6-3.1-9.3c-0.7-3.4-0.9-7.1-0.9-10.8v-0.7h0.7c1.5,0.1,3.1,0,4.8-0.3  c1.5-0.2,2.9-0.6,4.4-1.2c1.2-0.5,2.3-1.1,3.4-1.9c1-0.7,1.9-1.6,2.7-2.6L38.8,6l0.5,0.6c0.8,1,1.7,1.9,2.7,2.6  c1.1,0.8,2.2,1.4,3.4,1.9c1.4,0.6,2.9,1,4.4,1.2c1.7,0.3,3.3,0.3,4.8,0.3h0.7v0.7c0.1,3.8-0.2,7.4-0.9,10.8s-1.7,6.5-3.1,9.3  c-0.4,0.9-0.9,1.7-1.4,2.5l0,0c-0.3,0.5-0.6,1-1,1.5c0.4,0.1,0.9,0.2,1.3,0.3c1,0.2,2,0.4,3.1,0.5s-0.3,0,0.5,0.1  c1.1,0.1,1.6,0.2,2,0.1c0.4-0.1,0.8-0.3,1.5-0.7l0.3-0.2l-0.8-1.8c0,0,0,0,0-0.1c-0.1-0.3,0-0.7,0.3-0.9l8.8-4l0,0  c0.3-0.1,0.7,0,0.9,0.3l10.1,22.2c0,0,0,0,0,0.1c0.1,0.3,0,0.7-0.3,0.9l-8.8,4l0,0c-0.3,0.1-0.7,0-0.9-0.3l-0.5-1.2l-5.5,3  c0.3,0.6,0.4,1.3,0.3,1.9c-0.1,0.9-0.5,1.7-1.1,2.4c-1.1,1.1-2.3,1.3-3.4,1.1c-0.3-0.1-0.6-0.2-0.8-0.3c0,0.1,0,0.2,0,0.3  c0,1-0.4,1.9-1.1,2.7C54,68.6,53,69,52,68.9c-0.3,0-0.6-0.1-0.8-0.1c0,0.2,0,0.4,0,0.6c0,1-0.4,2-1.1,2.8c-0.8,0.8-1.7,1.1-2.7,1.1  c-0.5,0-0.9-0.1-1.4-0.3c0,0.1,0,0.2,0,0.3c0,1-0.4,1.9-1.1,2.6C44,76.7,43,77,42,77s-2-0.4-2.7-1.2l-0.2-0.2l-0.2,0.2  c-0.8,0.8-1.7,1.1-2.7,1.1s-2-0.4-2.7-1.1s-1.1-1.7-1.1-2.7c-0.6,0.4-1.3,0.5-2,0.5c-1,0-2-0.4-2.7-1.1c-0.7-0.8-1.1-1.8-1.1-2.8  c0-0.2,0-0.4,0-0.6c-0.3,0.1-0.6,0.1-0.9,0.1c-1,0-1.9-0.4-2.7-1.1l0,0l0,0c-0.7-0.8-1.1-1.8-1.1-2.8c0-0.1,0-0.2,0-0.3  c-0.4,0.1-0.9,0.2-1.3,0.2l0,0c-1,0-2-0.4-2.7-1.1c-0.7-0.7-1-1.5-1.1-2.4l0,0c-0.1-0.7,0-1.3,0.3-1.9l-5.4-3.1l-0.5,1.1l0,0  c-0.1,0.3-0.5,0.5-0.9,0.3l-8.8-4l0,0l0,0c-0.3-0.2-0.5-0.5-0.3-0.9L11.3,31l0,0c0.1-0.3,0.5-0.5,0.9-0.3l8.8,4l0,0l0,0  c0.3,0.2,0.5,0.5,0.3,0.9l-0.8,1.8l0.9,0.5l0,0c0,0,0.2,0.1,0.3,0.2c0.4,0.2,0.5,0.3,1.3,0.2l3.4-0.4c0.6-0.1,1-0.1,1.5-0.2  C28.1,37.7,28.4,37.6,28.8,37.5L28.8,37.5z M12.2,55.5l5.5,3.2l0.1-0.1l3.8-3.9c0.8-0.8,1.7-1.1,2.7-1.1s2,0.4,2.7,1.1  c0.7,0.8,1.1,1.8,1.1,2.8c0,0.1,0,0.2,0,0.3c0.4-0.2,0.9-0.2,1.3-0.2c1,0,2,0.4,2.7,1.1c0.7,0.8,1.1,1.8,1.1,2.8c0,0.2,0,0.4,0,0.6  c0.3-0.1,0.6-0.1,0.9-0.1c1,0,2,0.4,2.7,1.1c0.7,0.8,1.1,1.8,1.1,2.8c0,0.1,0,0.2,0,0.3c0.4-0.1,0.8-0.2,1.2-0.2c1,0,2,0.4,2.7,1.1  c0.2,0.2,0.4,0.4,0.5,0.7c0.1,0.2,0.2,0.4,0.3,0.6l2,2l0,0l0.1,0.1l0.6,0.6c0.5,0.5,1.1,0.8,1.8,0.8c0.6,0,1.3-0.2,1.8-0.7  s0.7-1.1,0.7-1.8c0-0.7-0.2-1.3-0.7-1.8L45.3,64c-0.3-0.3-0.3-0.7,0-0.9c0.3-0.3,0.7-0.3,0.9,0l3.7,3.6c0.6,0.6,1.3,0.9,1.9,0.9  c0.6,0,1.3-0.2,1.8-0.7s0.7-1.1,0.7-1.8c0-0.6-0.2-1.3-0.6-1.8L50,59.6c-0.3-0.3-0.3-0.7,0-0.9c0.3-0.3,0.7-0.3,0.9,0l3.7,3.7  c0.7,0.7,1.4,1.3,2.2,1.4l0,0c0.7,0.2,1.4,0,2.1-0.7c0.4-0.4,0.7-1,0.7-1.6c0.1-0.6-0.1-1.2-0.4-1.7c-2.5-2.6-5.4-5.1-8.3-7.4  C48,50.2,45,48.2,42,46.6c-0.5-0.3-0.8-0.5-1.1-0.6c-0.2-0.1-0.3-0.2-0.4-0.2c-0.1,0-0.4,0.1-1.1,0.4h-0.1  c-1.5,0.6-1.8,1.2-2.3,2.4c-0.2,0.4-0.4,0.8-0.6,1.4c-0.2,0.4-0.4,0.8-0.7,1.1c-0.8,1-1.8,1.8-2.9,2.2c-1.1,0.4-2.4,0.3-3.5-0.3  c-0.3-0.1-0.5-0.3-0.8-0.5l0,0c-0.5-0.5-0.7-1-0.7-1.7c0-0.6,0.1-1.2,0.3-1.9l0.2-1.1c0.9-3.9,1.3-5.8,2.4-7.1  c1-1.2,2.5-1.7,5.4-2.7l0.7-0.2l-0.7-0.3c-0.5-0.2-0.8-0.3-1.2-0.3s-0.8,0.1-1.4,0.3l-4.2,1.3c-0.6,0.2-1.1,0.3-1.6,0.4  c-0.5,0.1-1,0.2-1.6,0.3l-3.4,0.4c-1.2,0.1-1.4,0-2.1-0.4c0,0-0.1-0.1-0.3-0.2l0,0l-0.9-0.5L12.2,55.5L12.2,55.5z M18.4,59.9  C18.4,60,18.4,60,18.4,59.9c-0.3,0.5-0.5,1.1-0.4,1.7c0.1,0.6,0.3,1.1,0.7,1.6c0.5,0.5,1.1,0.7,1.8,0.7l0,0c0.6,0,1.3-0.3,1.8-0.8  l3.9-4c0.5-0.5,0.7-1.1,0.7-1.8s-0.2-1.3-0.7-1.8s-1.1-0.7-1.8-0.7c-0.6,0-1.3,0.2-1.8,0.7l-3.8,3.9c-0.1,0.1-0.1,0.1-0.2,0.2  C18.5,59.8,18.5,59.9,18.4,59.9L18.4,59.9z M27.7,59.6l-3.9,4c-0.5,0.5-0.7,1.1-0.7,1.8c0,0.7,0.2,1.3,0.7,1.8l0,0  c0.5,0.5,1.1,0.7,1.8,0.7c0.6,0,1.3-0.3,1.8-0.7l0.2-0.2l0,0c1.6-1.6,0.9-0.9,1.8-1.8l1.8-1.8c0.5-0.5,0.7-1.2,0.7-1.8  c0-0.7-0.2-1.3-0.7-1.8s-1.1-0.7-1.8-0.7S28.2,59.1,27.7,59.6L27.7,59.6z M32.2,64.2l-1.8,1.9c-2.1,2.1-1.5,1.5-1.8,1.8l0,0  L28.5,68c-0.4,0.5-0.7,1.1-0.7,1.8c0,0.7,0.2,1.3,0.7,1.8s1.1,0.7,1.8,0.7c0.6,0,1.3-0.2,1.8-0.7l3.9-4c0.4-0.5,0.7-1.1,0.7-1.7  s-0.2-1.3-0.7-1.8s-1.1-0.7-1.8-0.7s-1.3,0.3-1.8,0.7l0,0L32.2,64.2L32.2,64.2z M37.5,68.1l-3.1,3.2c-0.5,0.5-0.7,1.1-0.7,1.8  c0,0.7,0.2,1.3,0.7,1.8s1.1,0.7,1.8,0.7s1.3-0.3,1.8-0.7l3.1-3.1c0.4-0.4,0.6-0.8,0.7-1.3c0.1-0.5,0.1-1-0.1-1.5  c-0.1-0.2-0.1-0.3-0.2-0.5c-0.1-0.1-0.2-0.3-0.3-0.4c-0.5-0.5-1.1-0.7-1.8-0.7C38.6,67.3,38,67.6,37.5,68.1L37.5,68.1z M43.9,71.3  l-0.8-0.8c0,0.1,0,0.1,0,0.2c-0.2,0.7-0.5,1.4-1,1.9l-2,2l0.2,0.2c0.5,0.5,1.2,0.8,1.8,0.8s1.3-0.2,1.8-0.7s0.7-1.1,0.8-1.7  c0-0.6-0.2-1.3-0.6-1.8C44,71.5,43.9,71.4,43.9,71.3C43.9,71.4,43.9,71.4,43.9,71.3z M51.9,51.4c2.9,2.2,5.7,4.7,8.2,7.2l5.7-3.1  l-7.6-16.8L58,38.8c-0.9,0.5-1.3,0.7-1.9,0.9c-0.6,0.1-1.2,0-2.4-0.1c-0.4-0.1,1,0.1-0.5-0.1c-1.1-0.1-2.1-0.3-3.2-0.5  c-1.1-0.2-2.2-0.5-3.5-0.9c-0.5-0.1-0.6-0.2-0.7-0.2c-2.6-0.8-2.8-0.8-5.2,0.1c-0.4,0.2-0.6,0.2-0.8,0.3L39,38.5  c-0.9,0.3-1.6,0.6-2.2,0.8c-2.6,0.9-4,1.4-4.8,2.3c-0.9,1-1.3,2.8-2.1,6.5l-0.2,1.1c-0.1,0.6-0.2,1.2-0.2,1.6  c0,0.3,0.1,0.5,0.3,0.7c0.2,0.1,0.4,0.3,0.5,0.3c0.8,0.4,1.7,0.5,2.5,0.2l0,0c0.8-0.3,1.6-0.9,2.2-1.7c0.2-0.3,0.4-0.6,0.6-0.9  c0.2-0.5,0.4-0.9,0.6-1.3c0.7-1.5,1-2.3,3-3.1h0.1c0.9-0.4,1.3-0.5,1.8-0.5c0.3,0,0.5,0.2,0.9,0.4c0.2,0.1,0.5,0.3,1,0.6  C45.9,47.1,49,49.1,51.9,51.4L51.9,51.4z M67.3,55.5l0.5,1.2l7.6-3.4l-9.5-21l-7.6,3.4L67.3,55.5L67.3,55.5z M32.4,23.7l4.1,4.1  l8.6-8.8l2.4,2.4l-11,11.2L30,26.1L32.4,23.7L32.4,23.7z"></path>	<path d="M42,77.5c-1.1,0-2.2-0.4-2.9-1.2c-0.8,0.7-1.8,1.1-2.9,1.1c-1.1,0-2.3-0.5-3.1-1.2c-0.6-0.6-1-1.4-1.2-2.3  c-0.6,0.2-1.1,0.2-1.6,0.2c-1.1,0-2.3-0.5-3.1-1.2c-0.8-0.9-1.2-2-1.2-3.2v0c-0.1,0-0.3,0-0.4,0c-1.1,0-2.1-0.4-3-1.2  c-0.8-0.9-1.2-1.9-1.3-2.9c-0.3,0.1-0.6,0.1-0.8,0.1c-1.1,0-2.3-0.5-3.1-1.2c-0.7-0.7-1.1-1.6-1.2-2.7c-0.1-0.6,0-1.2,0.2-1.7  l-4.5-2.6L11.7,58c-0.1,0.2-0.3,0.5-0.6,0.6c-0.3,0.1-0.7,0.1-1,0l-8.8-4c-0.6-0.4-0.8-1-0.5-1.6l10.1-22.2  c0.1-0.2,0.3-0.5,0.6-0.6c0.3-0.1,0.7-0.1,1,0l8.8,4c0.6,0.4,0.8,1,0.5,1.6l-0.6,1.4l0.5,0.3c0,0,0.2,0.1,0.3,0.2l0,0  c0.3,0.1,0.3,0.2,0.9,0.1l3.4-0.4c0.3,0,0.5-0.1,0.8-0.1c0.2,0,0.5,0,0.7-0.1c0,0,0.1,0,0.2,0c-0.1-0.2-0.3-0.4-0.4-0.6l-0.3-0.4  c-0.5-0.8-1-1.7-1.5-2.6c-1.3-2.7-2.4-5.8-3.2-9.4c-0.6-3-0.9-6.5-0.9-10.9V12h1.2c1.5,0.1,3.1,0,4.7-0.3c1.4-0.2,2.8-0.6,4.3-1.2  c1.2-0.5,2.3-1.1,3.3-1.8c0.9-0.6,1.8-1.5,2.6-2.5l0.1-0.1l1-0.8l0.8,1c0.8,1,1.7,1.9,2.6,2.5c1,0.8,2.1,1.3,3.3,1.8  c1.3,0.6,2.8,1,4.3,1.2c1.7,0.3,3.2,0.3,4.7,0.3h1.2v1.2c0.1,3.8-0.2,7.5-0.9,10.9c-0.7,3.6-1.8,6.7-3.1,9.4  c-0.4,0.9-0.9,1.7-1.4,2.5c-0.2,0.3-0.4,0.6-0.6,0.9c0.2,0,0.4,0.1,0.6,0.1c1,0.2,2,0.4,3,0.5c0.2,0,0.5,0,0.6,0.1  c0.2,0,0.4,0,0.6,0.1c0.6,0.1,0.9,0.1,1.1,0c0.3-0.1,0.6-0.2,1.3-0.6l-0.7-1.6c-0.1-0.5,0.1-1.1,0.5-1.4l8.9-4  c0.6-0.2,1.2,0,1.5,0.5l10.2,22.4v0.1c0.2,0.5-0.1,1.1-0.5,1.4l-8.9,4c-0.6,0.2-1.2,0-1.5-0.5l-0.3-0.8l-4.6,2.5  c0.2,0.6,0.3,1.2,0.2,1.8c-0.1,0.9-0.5,1.8-1.2,2.6c-1.1,1.1-2.4,1.5-3.9,1.3c-0.1,0-0.2-0.1-0.2-0.1c-0.1,0.9-0.5,1.8-1.2,2.6  c-0.9,0.9-2.1,1.4-3.2,1.3c-0.1,0-0.2,0-0.3,0v0c0,1.1-0.4,2.2-1.2,3.1c-0.9,0.9-1.9,1.3-3.1,1.3c-0.3,0-0.6,0-0.9-0.1  c-0.1,1-0.5,1.8-1.2,2.6C44.3,77.1,43.2,77.5,42,77.5z M39.1,74.9l0.6,0.6c0.6,0.7,1.4,1.1,2.3,1.1c1,0,1.8-0.3,2.6-1  c0.6-0.6,0.9-1.4,0.9-2.2v-1l0.7,0.3c0.5,0.2,0.8,0.3,1.2,0.3c1,0,1.7-0.3,2.3-1c0.6-0.7,1-1.6,1-2.4v-1.1h0.5c0.1,0,0.3,0,0.4,0.1  c0.1,0,0.3,0,0.4,0c0.9,0.1,1.7-0.3,2.4-1c0.6-0.7,1-1.5,1-2.3V64l0.7,0.4c0.2,0.1,0.5,0.2,0.7,0.3c1.1,0.2,2-0.1,2.9-1  c0.5-0.6,0.9-1.4,1-2.1c0.1-0.5,0-1.1-0.3-1.6l-0.2-0.4l6.4-3.5l0.7,1.7c0,0,0.2,0,0.3,0l8.8-4c0,0,0.1-0.2,0-0.3l0-0.1L66.3,31.2  c0,0-0.2-0.1-0.3,0l-8.8,4c0,0-0.1,0.2,0,0.3l0,0.2l0.9,2.1l-0.7,0.4c-0.7,0.4-1.2,0.7-1.7,0.8c-0.4,0.1-0.8,0.1-1.5,0  c-0.2,0-0.4,0-0.7-0.1c-0.1,0-0.3,0-0.4-0.1c0,0-0.1,0-0.1,0c-1.1-0.1-2.1-0.3-3.1-0.5c-0.2-0.1-0.5-0.1-0.7-0.2  c-0.2-0.1-0.5-0.1-0.7-0.2L48,37.7l0.5-0.6c0.4-0.5,0.7-0.9,1-1.4c0.5-0.8,1-1.6,1.4-2.5c1.3-2.7,2.3-5.7,3.1-9.2  c0.7-3.4,1-6.9,0.9-10.7v-0.2h-0.2c-1.5,0-3.1,0-4.9-0.3c-1.6-0.2-3.1-0.6-4.5-1.2c-1.3-0.5-2.4-1.2-3.5-2c-1-0.7-1.9-1.6-2.8-2.7  l-0.2-0.2l-0.2,0.1c-0.9,1.1-1.8,2-2.8,2.7c-1.1,0.8-2.2,1.4-3.5,2c-1.6,0.6-3.1,1-4.5,1.2c-1.7,0.3-3.4,0.4-4.9,0.3h-0.2v0.2  c0,4.4,0.3,7.8,0.9,10.7c0.7,3.5,1.8,6.6,3.1,9.2c0.5,0.9,1,1.8,1.5,2.6l0.3,0.4c0.3,0.4,0.5,0.8,0.8,1.1l0.5,0.6l-1,0.3  c-0.3,0.1-0.5,0.1-0.7,0.1c-0.2,0-0.4,0.1-0.7,0.1c-0.2,0-0.4,0-0.7,0.1l-3.4,0.4c-0.8,0.1-1.1,0-1.5-0.2l-0.2-0.1  c0,0-0.1-0.1-0.2-0.1l-1.3-0.7l1-2.2c0-0.1,0.1-0.2-0.1-0.3l-8.7-4c-0.1-0.1-0.2,0-0.2,0L1.7,53.4c0,0.1-0.1,0.1,0.1,0.3l8.7,4  c0.1,0.1,0.2,0,0.2,0l0.7-1.6l6.3,3.6L17.5,60c-0.3,0.5-0.3,1-0.3,1.6c0.1,0.9,0.4,1.6,1,2.1c0.6,0.6,1.5,1,2.3,1  c0.3,0,0.7-0.1,1.2-0.2l0.6-0.2v0.9c0,0.9,0.3,1.8,1,2.5c0.7,0.6,1.5,0.9,2.3,0.9c0.3,0,0.5,0,0.7-0.1l0.7-0.2v1.3  c0,0.9,0.3,1.8,1,2.5c0.6,0.6,1.5,0.9,2.3,0.9c0.8,0,1.3-0.1,1.7-0.4l0.8-0.5v0.9c0,0.9,0.4,1.7,1,2.3c0.6,0.6,1.5,1,2.3,1  c0.9,0,1.7-0.3,2.3-1L39.1,74.9z M42.1,76.1c-0.7,0-1.6-0.4-2.2-0.9l-0.6-0.6l2.4-2.4c0.4-0.4,0.6-0.9,0.9-1.6v-1.3l1.5,1.4  l0.1-0.1l0.3,0.4c0.4,0.6,0.7,1.3,0.7,2.1c-0.1,0.6-0.3,1.4-0.9,2.1C43.7,75.8,42.9,76.1,42.1,76.1z M40.8,74.6  c0.4,0.3,0.9,0.5,1.3,0.5c0.6,0,1.1-0.2,1.4-0.6c0.3-0.3,0.6-0.8,0.7-1.4c0-0.4-0.1-0.8-0.4-1.2c0,0,0,0-0.1,0  c-0.2-0.1-0.3-0.2-0.3-0.3l-0.1-0.1c-0.2,0.6-0.5,1.1-0.9,1.5L40.8,74.6z M36.2,76.1c-0.9,0-1.6-0.3-2.2-0.8  c-0.6-0.6-0.8-1.3-0.8-2.2s0.3-1.6,0.8-2.2l3.1-3.2c0.7-0.7,1.4-0.9,2.3-0.8c0,0,0,0,0,0c0.8,0,1.5,0.3,2.1,0.8  c0.1,0.1,0.1,0.2,0.2,0.3c0,0,0.1,0.1,0.1,0.1l0.1,0.1c0.1,0.1,0.1,0.2,0.1,0.3c0,0.1,0,0.1,0.1,0.2c0.2,0.6,0.3,1.2,0.1,1.8  c-0.1,0.6-0.4,1.1-0.8,1.6l-3.1,3.1C37.6,75.8,36.9,76.1,36.2,76.1z M37.9,68.5l-3.1,3.2c-0.4,0.4-0.6,0.8-0.6,1.5  c0,0.6,0.2,1.1,0.6,1.4c0.4,0.4,0.8,0.6,1.4,0.6c0.5,0,1-0.2,1.5-0.6l3.1-3.1c0.3-0.3,0.5-0.6,0.6-1c0.1-0.5,0.1-0.9-0.1-1.2  c0-0.1-0.1-0.2-0.1-0.3c0,0,0-0.1,0-0.1c0-0.1-0.1-0.1-0.1-0.2c0,0-0.1-0.1-0.1-0.1c-0.4-0.4-0.8-0.6-1.4-0.6  C38.8,67.8,38.3,68,37.9,68.5z M30.3,72.8c-0.9,0-1.6-0.3-2.2-0.8s-0.8-1.3-0.8-2.2c0-0.7,0.3-1.4,0.8-2.1l3.9-3.9l0.2-0.1  c0.7-0.5,1.4-0.8,2.1-0.8c0.9,0,1.6,0.3,2.2,0.8c0.5,0.5,0.8,1.3,0.8,2.2c0,0.8-0.4,1.5-0.8,2l-3.9,4  C31.9,72.5,31.1,72.8,30.3,72.8z M32.5,64.6l-3.7,3.7c-0.4,0.5-0.6,0.9-0.6,1.4c0,0.6,0.2,1.1,0.6,1.4s0.8,0.6,1.4,0.6  c0.6,0,1.1-0.2,1.4-0.6l3.9-4c0.3-0.4,0.6-0.9,0.6-1.4c0-0.6-0.2-1.1-0.6-1.4c-0.4-0.4-0.8-0.6-1.4-0.6c-0.5,0-1,0.2-1.5,0.6  L32.5,64.6z M47.1,72.4c-0.8,0-1.5-0.3-2.2-0.9l-2.8-2.8L41.9,68c-0.1-0.3-0.2-0.4-0.4-0.6c-0.6-0.6-1.5-1-2.3-1  c-0.3,0-0.7,0.1-1.1,0.2l-0.6,0.2v-0.9c0-0.9-0.3-1.8-1-2.5c-0.6-0.6-1.5-0.9-2.3-0.9c-0.3,0-0.5,0-0.7,0.1l-0.7,0.2v-1.3  c0-0.9-0.3-1.8-1-2.5c-0.6-0.6-1.5-0.9-2.3-0.9c-0.3,0-0.8,0-1.1,0.1l-0.7,0.4v-1.1c0-0.9-0.3-1.8-1-2.5c-0.6-0.6-1.5-0.9-2.3-0.9  c-0.9,0-1.7,0.3-2.3,1l-3.1,3.1v0.4l3.3-3.4c0.5-0.5,1.3-0.9,2.2-0.9c0.9,0,1.6,0.3,2.2,0.8c0.6,0.6,0.8,1.3,0.8,2.2  s-0.3,1.6-0.8,2.2l-3.9,4c-0.6,0.6-1.4,1-2.2,1c-0.9,0-1.6-0.3-2.2-0.8c-0.5-0.6-0.7-1.1-0.8-1.9c-0.1-0.6,0-1.3,0.4-1.9v-0.3  l0.2,0l0.7-1.1l-1,1l-6.2-3.6l7.3-16.8l-8.4,18.5l-8.5-3.8l9.9-21.9l8.5,3.8l-1.2,2.7l1.4,0.8c0.2,0.1,0.3,0.2,0.4,0.2  c0.6,0.3,0.7,0.4,1.8,0.3L26,39c0.6-0.1,1-0.2,1.5-0.3c0.5-0.1,1-0.2,1.6-0.4l4.2-1.3c0.6-0.2,1.1-0.3,1.5-0.3  c0.5,0,0.9,0.1,1.4,0.3l2,0.9l-2.2,0.6c-2.7,0.9-4.1,1.4-5,2.5c-1,1.2-1.4,2.9-2.2,6.4l-0.1,0.5L28.6,49c-0.2,0.7-0.3,1.3-0.3,1.8  c0,0.6,0.1,0.9,0.6,1.3c0,0,0.1,0.1,0.2,0.1c0.2,0.1,0.3,0.2,0.4,0.3c1,0.6,2.2,0.7,3.2,0.3c1-0.4,1.9-1.1,2.7-2  c0.3-0.3,0.5-0.6,0.6-1c0,0,0,0,0,0l-0.5,0.8c-0.7,0.9-1.5,1.5-2.4,1.9c-0.9,0.3-1.9,0.3-2.8-0.2c-0.1,0-0.3-0.1-0.4-0.2  c-0.1,0-0.1-0.1-0.2-0.1l-0.1-0.1c-0.3-0.3-0.4-0.6-0.4-1.1c0-0.4,0.1-1.1,0.2-1.7l0.2-1.1c0.8-3.8,1.2-5.6,2.2-6.7  c0.9-1,2.4-1.6,5-2.4c0.3-0.1,0.6-0.2,0.9-0.3c0.4-0.2,0.8-0.3,1.3-0.5l0.8-0.2c0.1,0,0.2-0.1,0.3-0.1c0.1,0,0.3-0.1,0.5-0.2  c2.5-1,2.9-1,5.5-0.1c0.1,0,0.2,0,0.2,0.1c0.1,0,0.2,0.1,0.5,0.1c1.5,0.5,2.5,0.7,3.5,0.9l0.4,0.1c0.9,0.2,1.8,0.3,2.7,0.4l1.2,0.2  c0.7,0.1,1.2,0.1,1.6,0c0.5-0.2,0.9-0.4,1.7-0.8l0.7-0.3l8,17.7L60,59.2L59.7,59c-2.6-2.6-5.5-5.1-8.1-7.2l0,0  c-2.7-2.1-5.7-4.1-8.8-5.9l-0.5-0.3c-0.2-0.1-0.4-0.2-0.5-0.3c-0.1-0.1-0.3-0.1-0.4-0.2c-0.2-0.1-0.3-0.1-0.3-0.1  c-0.4,0-0.7,0.1-1.6,0.5l-0.2,0c-1,0.4-1.5,0.8-1.8,1.3c0.4-0.4,0.9-0.7,1.7-1l0.2,0c0.9-0.4,1.1-0.4,1.2-0.4  c0.2,0,0.4,0.1,0.5,0.2c0,0,0.1,0.1,0.2,0.1c0.2,0.1,0.5,0.2,0.9,0.5l0.2,0.2c2.8,1.5,5.8,3.5,8.9,5.8c3.4,2.7,6.1,5.1,8.4,7.5  l0.1,0.1c0.4,0.7,0.6,1.4,0.5,2c0,0.6-0.3,1.3-0.8,1.9c-0.8,0.8-1.7,1.1-2.6,0.8c-0.9-0.1-1.7-0.8-2.4-1.5l-3.7-3.7l0.3-0.5  L50.5,59c0,0-0.1,0-0.1,0.1l-0.5-0.3l0.4,0.3l0,0c0,0,0,0.1,0.1,0.1l3.7,3.7c0.5,0.6,0.7,1.4,0.7,2.2c0,0.9-0.3,1.6-0.8,2.2  c-0.5,0.5-1.3,0.8-2.2,0.8c-0.8,0-1.6-0.4-2.3-1l-3.8-3.7c0,0-0.1,0-0.1,0.1l-0.5-0.3l0.4,0.3c0,0,0,0.1,0.1,0.1l3.6,3.6  c0.6,0.6,0.8,1.3,0.8,2.2c0,0.9-0.3,1.6-0.8,2.2C48.7,72.1,47.9,72.4,47.1,72.4z M43,68.1l2.6,2.6c0.4,0.4,0.9,0.7,1.4,0.7  c0.6,0,1.1-0.2,1.4-0.6c0.4-0.4,0.6-0.8,0.6-1.4c0-0.6-0.2-1.1-0.6-1.4l-3.6-3.6c-0.3-0.3-0.4-0.6-0.4-0.9c0-0.3,0.2-0.6,0.4-0.7  c0.2-0.2,0.5-0.3,0.9-0.3c0.3,0,0.5,0.2,0.7,0.4l3.7,3.6c0.5,0.5,1.1,0.8,1.6,0.8c0.6,0,1.1-0.2,1.4-0.6c0.4-0.4,0.6-0.8,0.6-1.4  c0-0.5-0.2-1.1-0.5-1.5L49.6,60c-0.3-0.3-0.4-0.6-0.4-0.9c0-0.3,0.2-0.6,0.4-0.7c0.2-0.2,0.5-0.3,0.9-0.3c0.3,0,0.6,0.2,0.7,0.4  L55,62c0.7,0.7,1.3,1.2,1.9,1.3c0.4,0.1,1,0.2,1.7-0.6c0.3-0.3,0.6-0.8,0.6-1.2c0.1-0.6-0.1-1.1-0.3-1.4c-2.2-2.3-4.9-4.7-8.2-7.3  c-3.1-2.3-6-4.3-8.8-5.8l-0.3-0.2c-0.3-0.2-0.6-0.3-0.7-0.4c-0.2-0.1-0.2-0.1-0.3-0.2c-0.1,0-0.3,0.1-0.9,0.3l-0.2,0  c-1.3,0.5-1.5,1-1.9,2.1c-0.2,0.4-0.4,0.8-0.6,1.4c-0.2,0.5-0.5,0.9-0.8,1.3c-0.9,1.1-1.9,1.9-3.1,2.3c-1.2,0.5-2.7,0.3-3.9-0.3  c-0.2-0.1-0.4-0.2-0.6-0.4c-0.1-0.1-0.1-0.1-0.2-0.2c-0.7-0.6-0.9-1.3-0.9-2.1c0-0.6,0.1-1.3,0.3-2l0.3-1.6  c0.8-3.6,1.3-5.5,2.4-6.8c1-1.2,2.4-1.8,5-2.6c-0.4-0.1-0.8-0.1-1.6,0.2l-4.2,1.3c-0.6,0.2-1.1,0.3-1.6,0.4c-0.5,0.1-1,0.2-1.6,0.3  l-3.4,0.4c-1.3,0.1-1.6,0-2.4-0.5l-0.1-0.1l0,0c0,0-0.1-0.1-0.2-0.1l-0.4-0.2l-6.8,15.8l4.8,2.8l3.6-3.7c0.8-0.8,1.8-1.3,3.1-1.3  c1.1,0,2.3,0.5,3.1,1.2c0.7,0.8,1.1,1.8,1.2,2.8c0.3,0,0.6,0,0.8,0c1.1,0,2.3,0.5,3.1,1.2c0.8,0.9,1.2,2,1.2,3.2v0  c0.1,0,0.3,0,0.4,0c1.1,0,2.3,0.5,3.1,1.2c0.7,0.8,1.2,1.8,1.2,2.8c1.3-0.3,2.8,0.2,3.8,1.2c0.2,0.2,0.5,0.5,0.6,0.9L43,68.1z   M18.8,60.3c-0.2,0.3-0.3,0.8-0.3,1.2c0.1,0.6,0.3,1,0.6,1.4c0.3,0.3,0.8,0.5,1.4,0.5c0.5,0,1-0.3,1.4-0.7l3.9-4  c0.4-0.4,0.6-0.8,0.6-1.5s-0.2-1.1-0.6-1.4c-0.4-0.4-0.8-0.6-1.4-0.6c-0.6,0-1.1,0.2-1.4,0.6l-4,4.1C19,60,18.9,60.2,18.8,60.3z   M52.2,51c2.6,2,5.4,4.4,8,7l5-2.7L58,39.4c-0.7,0.4-1.1,0.6-1.7,0.8c-0.6,0.1-1.1,0.1-1.9,0l-1.3-0.1l0-0.1  c-0.9-0.1-1.8-0.3-2.8-0.4l-0.4-0.1c-1-0.2-2.1-0.5-3.6-0.9c-0.3-0.1-0.5-0.1-0.6-0.2l-0.1,0c-2.5-0.8-2.6-0.8-4.9,0.1  c-0.2,0.1-0.4,0.2-0.6,0.2c-0.1,0-0.1,0-0.2,0.1l-0.1,0L39.1,39c-0.5,0.2-0.9,0.3-1.3,0.5c-0.3,0.1-0.6,0.2-0.9,0.3  c-2.6,0.9-3.9,1.4-4.6,2.2c-0.8,0.9-1.2,2.8-2,6.3l-0.2,1.1c-0.1,0.6-0.2,1.2-0.2,1.5c0,0.1,0,0.2,0.1,0.3c0.1,0,0.2,0.1,0.2,0.2  c0,0,0,0,0.1,0h0l0.1,0.1c0.7,0.4,1.5,0.4,2.1,0.2c0.7-0.3,1.5-0.8,2-1.5l0.6-0.8c0.2-0.5,0.4-0.9,0.6-1.3l0.1-0.2  c0.7-1.4,1.1-2.3,3.2-3.2l0.2,0c0.9-0.4,1.3-0.5,1.9-0.5c0.3,0,0.6,0.1,0.8,0.3c0.1,0.1,0.2,0.1,0.3,0.2c0.1,0.1,0.3,0.2,0.5,0.3  l0.5,0.3C46.4,46.8,49.5,48.9,52.2,51z M3.3,53l6.7,3l0.3-0.7L19,35.9l-6.7-3L3.3,53z M25.6,68.4c-0.9,0-1.6-0.3-2.2-0.8  c-0.6-0.6-0.8-1.3-0.8-2.2s0.3-1.6,0.8-2.2l3.9-4c0.6-0.6,1.3-0.6,2.1-0.6c0.9,0,1.6,0.3,2.2,0.8c0.6,0.6,0.8,1.3,0.8,2.2  c0,0.8-0.3,1.6-0.8,2.2l-3.8,3.8C27.1,68.1,26.3,68.4,25.6,68.4z M28.1,60l-3.9,4c-0.4,0.4-0.6,0.8-0.6,1.5c0,0.6,0.2,1.1,0.6,1.4  c0.4,0.4,0.8,0.6,1.4,0.6c0.4,0,1-0.2,1.5-0.6l3.8-3.8c0.3-0.3,0.6-0.9,0.6-1.4c0-0.6-0.2-1.1-0.6-1.4c-0.4-0.4-0.8-0.6-1.4-0.6  C28.7,59.6,28.4,59.6,28.1,60z M67.5,57.4l-0.7-1.7l-9.2-20.3l8.5-3.8l9.9,21.9L67.5,57.4z M59,36L68.1,56l6.7-3L65.7,33L59,36z   M29.9,37.8l-0.2-0.3c-0.4-0.5-0.7-0.9-1-1.4c-0.1-0.2-0.2-0.4-0.3-0.5c-0.5-0.8-1-1.6-1.4-2.6c-1.4-2.7-2.4-5.8-3-9.1  c-0.6-2.9-0.8-6.1-0.8-10v-0.5h0.5c1.4,0,2.9-0.1,4.3-0.3c1.8-0.3,3.3-0.8,4.6-1.3c1.1-0.4,2.2-1,3.6-2c0.8-0.6,1.7-1.4,2.3-2.1  l0.4-0.4l0.4,0.4c0.8,0.9,1.6,1.6,2.3,2.1c1.4,0.9,2.5,1.5,3.6,1.9c1.3,0.5,2.8,0.9,4.6,1.3c1.4,0.2,2.9,0.3,4.3,0.3h0.5l0,0.5  c0.1,3.4-0.2,6.7-0.8,10c-0.7,3.3-1.7,6.4-3,9.1c-0.3,0.4-0.5,0.8-0.7,1.2c-0.2,0.4-0.5,0.8-0.7,1.2c-0.2,0.3-0.4,0.6-0.7,0.9  c-0.2,0.3-0.4,0.6-0.6,0.9l-0.2,0.4l-0.4-0.2c-0.1-0.1-0.4-0.1-0.6-0.1l-0.1,0l-1-0.3c-2.7-0.8-2.8-0.8-5.4,0.1  c-0.2,0.1-0.4,0.2-0.8,0.3l-0.6,0.3l-2.2-1c-0.6-0.3-1-0.4-1.5-0.4c-0.4,0-0.8,0.1-1.6,0.3L29.9,37.8z M36.9,35.8l0.2,0l1.7,0.8  l0.3-0.1c0.4-0.1,0.5-0.2,0.5-0.2l0.2-0.1c2.9-1.1,3.2-1.1,6.1-0.2l1,0.3c0.2,0,0.4,0,0.5,0.1c0.1-0.2,0.3-0.4,0.4-0.6  c0.2-0.3,0.4-0.6,0.6-0.9c0.2-0.4,0.5-0.8,0.7-1.2c0.2-0.4,0.5-0.8,0.7-1.2c1.3-2.6,2.2-5.6,2.9-8.8c0.6-3,0.9-6.2,0.8-9.3  c-1.3,0-2.6-0.1-4-0.3c-1.9-0.4-3.5-0.8-4.8-1.3c-1.2-0.5-2.3-1.1-3.8-2c-0.7-0.5-1.4-1.1-2.1-1.9c-0.6,0.6-1.4,1.3-2.1,1.9  c-1.5,1-2.6,1.6-3.8,2.1c-1.3,0.5-2.9,1-4.8,1.3c-1.4,0.2-2.7,0.3-4,0.3c0,3.6,0.3,6.6,0.8,9.3c0.6,3.2,1.6,6.2,3,8.9  c0.4,0.9,0.9,1.7,1.4,2.5c0.1,0.2,0.2,0.3,0.3,0.5c0.2,0.4,0.5,0.7,0.7,1.1l3-0.9c0.8-0.2,1.3-0.3,1.8-0.3  C35.7,35.4,36.2,35.5,36.9,35.8z M36.5,33.3l-7.2-7.2l3.1-3.1l4.1,4.1l8.6-8.8l3.1,3.1L36.5,33.3z M30.7,26.1l5.8,5.8l10.3-10.5  l-1.7-1.7l-8.6,8.8l-4.1-4.1L30.7,26.1z"></path></g></svg>