<svg xmlns="http://www.w3.org/2000/svg" viewBox="0 0 100 100"><path d="M90.27,56,83.92,21A8.55,8.55,0,0,0,74,14.14L21.37,23.68a8.53,8.53,0,0,0-6.88,9.92L14.93,36a9.22,9.22,0,0,0-5.31,8.35V77.7a9.23,9.23,0,0,0,9.22,9.22H70a9.23,9.23,0,0,0,9.22-9.22v-11l4.2-.76A8.55,8.55,0,0,0,90.27,56ZM74.58,77.7A4.61,4.61,0,0,1,70,82.31H18.84a4.61,4.61,0,0,1-4.61-4.61V61.36H74.58Zm0-21H14.23V50.67H74.58Zm0-10.69H14.23V44.39a4.6,4.6,0,0,1,4.61-4.61H70a4.62,4.62,0,0,1,4.61,4.61ZM85.09,59.8a3.89,3.89,0,0,1-2.53,1.63L79.19,62V44.39A9.23,9.23,0,0,0,70,35.17H19.45L19,32.78a3.94,3.94,0,0,1,3.17-4.57l52.62-9.54a4.25,4.25,0,0,1,.71-.06,3.93,3.93,0,0,1,3.86,3.23l6.35,35A3.89,3.89,0,0,1,85.09,59.8Z"></path><rect x="19.47" y="72.67" width="15.3" height="4.61" rx="2.3" ry="2.3"></rect></svg>