<svg xmlns="http://www.w3.org/2000/svg" width="96" height="94" viewBox="0 0 96 94" fill="none"><g clip-path="url(#heart_clip_path)"><path d="M37.8352 19.5487C37.8174 13.8146 40.7193 8.03884 46.6064 6.64674C51.18 5.56211 55.5376 7.27529 59.281 9.89459C60.3648 7.40626 62.002 5.21025 64.2173 3.76685C69.7861 0.137238 76.6191 4.83354 80.0095 9.39055C84.4698 15.387 85.5061 22.94 84.0277 30.1517C83.2715 33.8586 81.9224 37.3591 80.0885 40.654C78.181 44.0805 75.716 46.5721 72.9806 49.3163C72.8537 49.4409 72.6258 49.2462 72.7453 49.1056C75.8407 45.3699 78.2119 40.4189 79.8207 35.8551C81.6196 30.7589 82.4937 25.3034 81.4159 19.9361C80.4521 15.1334 78.0166 10.5343 73.9907 7.6395C71.9231 6.15495 69.0657 4.82826 66.5473 5.95674C64.3947 6.92285 62.8845 9.37237 61.9835 11.4687C61.9273 11.6014 61.8768 11.7416 61.8214 11.8784C62.5522 12.5057 63.2563 13.1513 63.9188 13.8049C66.1639 16.0026 68.1729 18.6069 69.1023 21.6559C69.8702 24.1624 70.0502 27.4874 67.6153 29.1343C65.3364 30.6727 62.3964 29.6098 60.7457 27.6486C58.8591 25.4073 57.9561 22.2055 57.7127 19.3318C57.5415 17.2961 57.7145 15.0978 58.233 12.9671C55.2141 10.6764 51.6599 8.96358 47.8748 9.57327C42.6361 10.4134 40.6816 15.7311 40.9104 20.5071C41.5058 32.9229 52.8659 40.1601 63.5158 43.4103C64.6403 43.7524 64.2806 45.6566 63.0907 45.4663C56.6349 44.4435 50.8307 41.8858 45.9759 37.37C41.083 32.8138 37.8496 26.3094 37.8269 19.5504L37.8352 19.5487ZM62.8699 25.3145C63.6903 26.4025 65.7015 27.6416 66.4106 25.6912C66.7984 24.6204 66.3054 22.995 65.9419 22.0137C65.0168 19.5203 63.2193 17.4486 61.3335 15.6332C61.2002 15.5026 61.0627 15.3728 60.921 15.2439C60.3561 18.7354 60.8265 22.5995 62.8749 25.3179L62.8699 25.3145Z" fill="currentcolor"></path><path d="M11.3786 64.2764C13.1777 59.9676 17.6427 57.0966 22.2377 56.715C24.8672 56.5004 27.376 57.1519 29.5553 58.4176C30.5254 56.9481 31.7975 55.6778 33.3408 54.7373C37.3629 52.2962 42.7113 52.4602 46.7592 54.7253C59.2442 61.6995 51.6811 80.3123 43.6303 87.603C43.3956 87.8162 43.0412 87.5025 43.2147 87.241C47.7904 80.4324 53.1979 70.0448 49.4254 61.7812C46.3535 55.0578 36.0727 53.8065 31.9723 60.196C32.8338 60.9871 33.6083 61.8854 34.275 62.8734C36.1262 65.6258 39.2369 73.7257 34.6517 75.6229C29.9107 77.5847 27.423 69.6043 27.3234 66.3611C27.268 64.5665 27.574 62.7661 28.1981 61.0929C26.5206 60.0779 24.5769 59.5358 22.5458 59.6985C19.1085 59.9754 15.6633 62.0765 14.2489 65.2788C12.2734 69.7679 14.7971 74.8698 18.1364 77.9519C21.8062 81.3351 26.8165 82.979 31.2785 85.0434C32.6203 85.6637 31.9656 87.5792 30.5176 87.2116C24.8116 85.7631 18.9563 83.4796 14.9027 79.0318C11.3598 75.1468 9.25646 69.3657 11.3794 64.2805L11.3786 64.2764ZM31.3492 70.466C31.5601 70.885 32.1499 72.2319 32.6714 72.3841C34.3496 72.8703 33.858 70.4297 33.7674 69.7639C33.5068 67.8458 32.7939 65.9769 31.6865 64.3868C31.3818 63.9516 31.0471 63.5396 30.6907 63.1489C30.0486 65.5734 30.2307 68.2418 31.35 70.4702L31.3492 70.466Z" fill="currentcolor"></path></g><defs><clipPath id="heart_clip_path"><rect width="82" height="79" fill="currentcolor" transform="matrix(-0.981627 0.190809 0.190809 0.981627 80.4941 0)"></rect></clipPath></defs></svg>