<svg xmlns="http://www.w3.org/2000/svg" xmlns:xlink="http://www.w3.org/1999/xlink" x="0px" y="0px" viewBox="0 0 1920 200" style="enable-background:new 0 0 1920 200;" xml:space="preserve"><g>	<path d="M893.6,194.7c-61.6-6.9-122.5-18-183.1-31.2c-93.3-20.3-186.7-40.5-282.1-49.4c-35.1-3.3-70.4-6.4-105.7-7  c-61.9-1.1-123,7.1-183.7,18.9C92.1,135,45.7,146.8,0,161.2c0,12.9,0,25.9,0,38.8c315.3,0,630.7,0,946,0c-1.8-0.3-3.6-0.8-5.4-0.9  C924.9,197.6,909.2,196.4,893.6,194.7z"></path>	<path d="M1836,39.1c-63-3.4-126-3.4-189,1.6c-46.6,3.7-92.7,10.3-138.3,20.6c-66.8,15.1-132.1,35.4-197.4,55.6  c-67.2,20.8-134.4,41.8-203.1,57.7c-44,10.2-88.4,18.5-133.4,22.6c-9.6,0.9-19.2,1.9-28.8,2.8c325.1,0,650.2,0,975.3,0  c0-0.3,0-0.7,0-1h-1V44.8C1892.2,42.9,1864.1,40.6,1836,39.1z"></path></g></svg>