<svg xmlns="http://www.w3.org/2000/svg" xmlns:xlink="http://www.w3.org/1999/xlink" x="0px" y="0px" viewBox="0 0 50 50" style="enable-background:new 0 0 50 50;" xml:space="preserve"><g>	<path d="M34.8,47.4c-1,0-2.1-0.1-3.1-0.3c-4-1.3-7.8-3.3-11.2-5.8c-5.8-3.8-10.7-8.8-14.3-14.7C4.6,24,3.5,21.1,2.8,18  c-0.4-2.3-0.4-4.6,0-6.9c0.3-1.7,0.9-3.3,1.8-4.8c0.5-1,1.3-1.8,2.2-2.5c1.7-0.9,3.6-1.4,5.5-1.3c0.3,0,0.7,0.1,1,0.3  c0.3,0.2,0.6,0.4,0.7,0.7l5.4,9.3c0.2,0.4,0.3,0.9,0.3,1.3c-0.1,0.5-0.3,0.9-0.6,1.2l-4.5,4.3c-0.3,0.3-0.5,0.6-0.6,0.9  c-0.1,0.4-0.1,0.7,0,1.1c1.4,3.7,3.8,6.9,7,9.2c2.3,1.8,4.8,3.3,7.5,4.5c0.2,0.1,0.4,0.1,0.5,0.1c0.2,0,0.4-0.1,0.5-0.3  c1.1-1.2,2.1-2.2,2.8-2.9c0.5-0.5,1-0.9,1.3-1.2c0.3-0.3,0.7-0.6,1.1-0.7c0.4-0.1,1-0.1,2.7,0.5c1.3,0.4,2.8,1.1,3.9,1.5  c1.3,0.6,2.7,1.2,3.8,1.6c0.5,0.3,1,0.5,1.3,0.6c0.5,0.3,0.8,0.4,0.9,0.7c0.3,0.9,0.3,1.9,0,2.8c-0.3,1.6-0.9,3.1-1.7,4.5  c-0.8,1.2-1.8,2.1-2.9,2.9c-1.2,0.7-2.5,1.2-3.9,1.4C37.5,47.3,36.1,47.4,34.8,47.4 M12,4.5c-1.4-0.1-2.9,0.3-4.2,0.9  C7.2,5.9,6.6,6.6,6.2,7.3C5.4,8.6,4.9,10,4.6,11.5c-0.4,2-0.4,4.1,0,6.2c0.6,2.8,1.6,5.6,3.1,8.1c3.5,5.6,8.2,10.4,13.8,14.1  c2.1,1.5,4.3,2.8,6.6,3.9c1.2,0.7,2.5,1.2,3.9,1.6c2.1,0.4,4.3,0.3,6.3-0.1c1.1-0.2,2.2-0.5,3.2-1.1c1-0.6,1.8-1.4,2.5-2.3  c0.7-1.2,1.2-2.4,1.5-3.7c0.1-0.5,0.2-1.1,0.2-1.6c-0.6-0.3-2.5-1.2-5-2.3c-1.7-0.8-3.6-1.4-5.4-1.9h0c-1.6,1.3-3,2.8-4.4,4.3  c-0.4,0.4-0.9,0.7-1.5,0.8c-0.6,0.1-1.2,0-1.7-0.2c-2.8-1.3-5.4-2.9-7.8-4.7c-3.5-2.5-6.1-6.1-7.6-10.1c-0.2-0.7-0.3-1.4-0.1-2.1  c0.2-0.7,0.5-1.3,1.1-1.8l4.5-4.3c0,0,0.1-0.1,0.1-0.1c0,0,0-0.1,0-0.1l-5.4-9.3c0,0,0-0.1-0.1-0.1c0,0-0.1,0-0.1,0L12,4.5"></path>	<path d="M26.1,14.4c0.6,0,1.2,0,1.8,0.1l-0.3,0c1,0.1,1.9,0.4,2.8,0.8l-0.3-0.1c0.9,0.4,1.7,0.9,2.5,1.4l-0.2-0.2  c0.8,0.6,1.4,1.3,2,2l-0.2-0.2c0.6,0.8,1.1,1.6,1.4,2.5l-0.1-0.3c0.4,0.9,0.6,1.9,0.8,2.9l0-0.3c0.1,0.4,0.1,0.9,0.1,1.3  c0,0.3,0.1,0.6,0.3,0.8c0.2,0.2,0.4,0.3,0.6,0.3c0.2,0,0.5,0,0.7-0.1c0.2-0.1,0.4-0.2,0.5-0.4c0.1-0.2,0.2-0.4,0.2-0.7  c0-2.5-0.8-5-2.3-7c-0.8-1.1-1.8-2.1-2.9-2.9c-1-0.7-2.2-1.3-3.4-1.7c-1.3-0.4-2.7-0.6-4.1-0.6c-0.3,0-0.6,0.1-0.8,0.3  c-0.2,0.2-0.3,0.4-0.3,0.6c0,0.2,0,0.5,0.1,0.7c0.1,0.2,0.2,0.4,0.4,0.5C25.6,14.3,25.9,14.4,26.1,14.4"></path>	<path d="M24.1,8.7c1.3-0.1,2.7-0.1,4,0.1l-0.3,0C29.4,9,31,9.4,32.5,10l-0.3-0.1c1.5,0.6,2.9,1.4,4.1,2.4l-0.2-0.2  c1.3,1,2.4,2.1,3.4,3.4l-0.2-0.2c1,1.3,1.8,2.6,2.4,4.1l-0.1-0.3c0.6,1.5,1.1,3.1,1.3,4.8l0-0.3c0.1,0.5,0.1,1.1,0.1,1.6  c0,0.3,0.1,0.6,0.3,0.8c0.2,0.2,0.5,0.3,0.8,0.3c0.3,0,0.6-0.1,0.8-0.3c0.2-0.2,0.3-0.5,0.3-0.8c-0.1-2-0.5-4-1.2-5.9  c-0.7-2-1.8-3.8-3.1-5.5c-1.9-2.4-4.4-4.4-7.2-5.7c-2.8-1.3-5.9-1.9-9-1.8c-0.2,0-0.5,0-0.7,0c-0.3,0-0.6,0.1-0.8,0.3  C23.2,6.8,23.1,6.9,23,7c-0.1,0.1-0.1,0.3-0.1,0.5s0,0.3,0.1,0.5c0.1,0.1,0.1,0.3,0.3,0.4c0.1,0.1,0.2,0.2,0.4,0.3  C23.8,8.6,24,8.7,24.1,8.7"></path></g></svg>