<svg xmlns="http://www.w3.org/2000/svg" id="Capa_2" data-name="Capa 2" viewBox="0 0 71.81 71.82"><defs><style> .cls-1 { fill: #fff; } </style></defs><g id="Capa_1-2" data-name="Capa 1"><g><path class="cls-1" d="M0,35.91C0,16.11,16.18-.03,36.02,0c19.78.03,35.84,16.25,35.79,36.14-.05,19.64-16.25,35.68-36.02,35.68C16.14,71.82,0,55.63,0,35.91M35.9,4.95c-17.22,0-30.98,13.79-30.96,31.03.03,17.21,13.83,30.93,31.09,30.89,17.1-.03,30.79-13.76,30.84-30.91.05-17.2-13.75-31.01-30.98-31.01"></path><path class="cls-1" d="M38.24,24.89c0,2.57.07,5.14-.03,7.7-.05,1.29.42,1.93,1.56,2.48,4.49,2.13,8.93,4.36,13.39,6.56.63.31,1.45.51,1.79,1.03.54.81,1.31,2.22.99,2.7-.5.74-1.81,1.04-2.84,1.26-.5.11-1.15-.37-1.71-.65-5.16-2.53-10.29-5.12-15.48-7.59-1.71-.82-2.39-1.97-2.37-3.84.07-5.75.03-11.51.03-17.26,0-.08,0-.16,0-.23.05-1.69.12-3.59,2.37-3.53,2,.05,2.28,1.8,2.28,3.45.01,2.64,0,5.29,0,7.93"></path></g></g></svg>