<svg xmlns="http://www.w3.org/2000/svg" id="Capa_2" data-name="Capa 2" viewBox="0 0 51.97 81.45"><defs><style> .cls-1 { fill: #fff; } </style></defs><g id="Capa_1-2" data-name="Capa 1"><g><path class="cls-1" d="M26.11,74.31c-.35-.58-.59-.94-.8-1.32-6.89-12.35-13.79-24.71-20.68-37.06C-3.81,20.78,6.59,1.4,23.87.08c14.35-1.09,26.1,9.3,26.68,23.69.17,4.14-.72,8.1-2.76,11.76-6.97,12.51-13.95,25.02-20.93,37.53-.19.34-.41.68-.76,1.25M14.37,23.98c-.02,6.49,5.32,11.83,11.77,11.8,6.45-.03,11.69-5.28,11.71-11.72.02-6.48-5.32-11.82-11.78-11.8-6.45.03-11.69,5.27-11.7,11.72"></path><path class="cls-1" d="M16.06,69.11c-2.26.47-4.56.82-6.78,1.44-2.14.6-4.23,1.42-6.28,2.3-.61.26-1.39,1.06-1.36,1.57.03.55.84,1.31,1.46,1.53,2.44.85,4.89,1.81,7.43,2.21,11.5,1.84,23,1.93,34.42-.64,1.64-.37,3.25-1.04,4.73-1.82,1.74-.92,1.73-2.16.11-3.29-.62-.43-1.31-.77-2-1.09-.68-.32-1.4-.57-2.17-.87,1.68-.12,4.62,1.06,5.64,2.23.91,1.05.99,2.28-.15,3.2-1.2.97-2.56,1.82-3.99,2.39-4.58,1.81-9.42,2.5-14.3,2.87-8.57.64-17.1.42-25.47-1.77-1.88-.49-3.76-1.25-5.43-2.23-2.71-1.58-2.55-3.97.25-5.4,3.25-1.67,6.82-2.1,10.38-2.48,1.15-.12,2.32-.17,3.47-.25,0,.04.01.08.02.11"></path></g></g></svg>