<svg xmlns="http://www.w3.org/2000/svg" id="Capa_2" data-name="Capa 2" viewBox="0 0 61.09 49.92"><defs><style> .cls-1 { fill: #fff; } </style></defs><g id="Capa_1-2" data-name="Capa 1"><g><path class="cls-1" d="M9.17,9.69c0-2.47.05-4.69-.01-6.9C9.1.82,9.99,0,11.93,0c12.41.03,24.82.03,37.24,0,1.96,0,2.81.86,2.76,2.8-.06,2.21-.01,4.43-.01,6.88,2.09,0,3.92-.02,5.75,0,2.54.03,3.4.81,3.4,3.26.02,11.26.02,22.51,0,33.77,0,2.33-.9,3.2-3.24,3.2-18.19.02-36.39.01-54.58,0-2.35,0-3.22-.86-3.23-3.2C0,35.45,0,24.2.02,12.94c0-2.45.86-3.22,3.41-3.25,1.83-.02,3.66,0,5.74,0M12,2.99c0,2.02,0,3.93,0,5.83.02,3.47-.93,7.36.35,10.28,1.32,3,4.8,5.06,7.36,7.5,3.56,3.38,7.15,6.72,10.83,10.17,4.64-4.36,8.91-8.83,13.67-12.71,3.81-3.1,5.57-6.52,4.93-11.45-.4-3.15-.08-6.39-.08-9.62H12ZM19.35,30.2c-4.88,5.66-9.52,11.05-14.42,16.73h51.25c-4.96-5.73-9.65-11.16-14.45-16.72-3.06,2.87-5.91,5.55-8.77,8.23-2,1.87-2.85,1.87-4.88-.03-2.86-2.67-5.7-5.36-8.74-8.21M3.04,14.83v29.41c4.84-5.61,9.36-10.85,14-16.23-4.64-4.37-9.17-8.63-14-13.19M44.04,28.02c4.65,5.39,9.18,10.63,14.08,16.3V14.77c-4.87,4.58-9.41,8.86-14.08,13.25M9,16.52v-3.82h-4.04c1.45,1.37,2.58,2.44,4.04,3.82M56.12,12.68h-4.04v3.85c1.45-1.38,2.57-2.45,4.04-3.85"></path><path class="cls-1" d="M36.06,10.18c-.66,3.27-1.24,6.18-1.89,9.44,2.46-.49,3.48-1.97,4.03-3.73.74-2.35.46-4.62-1.44-6.4-2.45-2.3-5.42-2.37-8.46-1.65-3.99.94-6.63,4.88-6.36,9.32.25,3.99,2.84,6.77,7.06,7.28,3.34.4,6.62.27,9.36-2.21.53-.48,1.49-.47,2.64-.79-.98,2.58-2.71,3.66-4.66,4.37-3.54,1.28-7.14,1.18-10.63-.18-4.17-1.62-6.41-5.98-5.68-10.76.8-5.2,4.41-8.76,9.45-9.3,6.13-.66,10.4,2.25,11.04,7.51.53,4.37-2.93,8.91-6.92,8.66-1.81-.11-3.52-.38-5.36-.02-.86.17-2.12-.46-2.86-1.11-1.85-1.62-1.72-5.21.08-7.91,1.7-2.56,3.79-3.12,6.56-2.24,1.09.34,2.45-.14,4.04-.27M32.34,13.83c-.43-.37-1.19-1.56-2.15-1.75-1.71-.33-3.31,2.29-3.26,5.01.03,1.39.36,2.68,2.09,2.74,1.68.06,3.3-2.52,3.32-6"></path></g></g></svg>