<svg xmlns="http://www.w3.org/2000/svg" id="Capa_2" data-name="Capa 2" viewBox="0 0 71.9 84.62"><defs><style> .cls-1 { fill: #fff; } </style></defs><g id="Capa_1-2" data-name="Capa 1"><g><path class="cls-1" d="M49.73,45.59c0,6.31-.07,12.62.05,18.92.03,1.7-.49,1.91-1.98,1.73-10.28-1.18-20.57-2.29-30.86-3.42-.89-.1-1.78-.17-2.67-.26-2.23-.22-3.97.58-5.1,2.53-.33.58-.64.9-1.37.81-.85-.11-.87-.77-.94-1.3-.14-1-.19-2.01-.19-3.02-.01-11.37.03-22.73-.02-34.1-.02-5.4,2.28-9.25,7.23-11.4.9-.39.95-.95.86-1.67-.14-1.13.21-1.52,1.44-1.51,8.03.06,16.07.05,24.1.01,1.05,0,1.59.21,1.4,1.36-.17.99.19,1.52,1.2,1.99,4.47,2.06,6.79,5.63,6.82,10.58.04,6.25,0,12.5,0,18.75h.02ZM28.29,31.29c-4.82,0-9.63,0-14.45,0-2.02,0-2.37.36-2.38,2.4-.01,5.89,0,11.77,0,17.66,0,2.06.32,2.38,2.38,2.38,9.51,0,19.02,0,28.53,0,2.09,0,2.35-.25,2.35-2.38.01-5.89.01-11.77,0-17.66,0-2.11-.29-2.4-2.35-2.4-4.7-.01-9.39,0-14.09,0"></path><path class="cls-1" d="M.35,68.12c.23-1.01.63-1.6,1.89-1.29,1.2.3,2.47.32,3.72.44,1.9.18,3.85.93,4.79-1.9.48-1.46,2.31-1.41,3.79-1.24,5.91.66,11.83,1.3,17.74,1.95,7.75.85,15.5,1.69,23.24,2.58.93.11,1.16-.25,1.19-1.03.01-.42.02-.84.13-1.24.26-.95.83-1.61,1.91-1.48,1.05.13,1.61.83,1.55,1.84-.09,1.6-.28,3.2-.49,4.79-.09.68-.09,1.09.79,1.16,2.08.16,4.15.39,6.21.69,1.09.16,1.31-.32,1.38-1.25.11-1.36-.17-3.18,2.09-2.92,2.26.26,1.52,2.04,1.4,3.34-.25,2.84-.68,5.67-.93,8.52-.12,1.33-.67,2.02-2.01,1.85-1.22-.15-1.68-.87-1.57-2.12.24-2.57.2-2.57-2.48-2.84-1.18-.12-2.41-.09-3.54-.42-1.89-.55-2.2.39-2.24,1.92-.03,1.13-.2,2.25-.35,3.37-.15,1.14-.7,1.91-1.99,1.76-1.19-.14-1.77-1.04-1.49-2.02.65-2.26-.56-2.4-2.3-2.58-13.25-1.4-26.5-2.88-39.74-4.35-2.37-.26-3.3-1.07-3.72-3.35-.15-.79-.39-1.09-1.2-1.15-1.72-.13-3.42-.43-5.14-.56-1.38-.1-2.77-.04-2.97-1.9.12-.19.23-.38.35-.57M24.47,69.72c.1-.6.18-1.29-.6-1.42-.91-.15-.98.59-1.04,1.26-.11,1.05-.24,2.11-.35,3.16-.05.51.05.98.64,1.09.7.13.94-.36,1.01-.93.13-1.05.23-2.11.34-3.16M29.17,72.46s.03,0,.04,0c-.04.41-.13.82-.12,1.23,0,.44.2.81.71.85.49.05.82-.22.88-.67.18-1.34.31-2.68.43-4.03.04-.47-.2-.8-.69-.85-.48-.05-.8.2-.87.67-.14.93-.25,1.86-.37,2.8M17.87,69.12c.04-.83.17-1.51-.69-1.58-.86-.07-.85.65-.92,1.22-.14,1.11-.27,2.22-.37,3.33-.04.52.14.95.74,1,.6.05.83-.35.89-.88.13-1.11.25-2.22.35-3.1M35.73,73.62c.04.6-.39,1.54.7,1.62,1.03.07.88-.91.98-1.56.14-.87.19-1.75.3-2.63.08-.63.06-1.28-.73-1.33-.79-.05-.88.61-.94,1.22-.09.88-.2,1.75-.3,2.68M50.8,73.45s-.03,0-.04,0c.03-.29.06-.58.1-.88.09-.6.18-1.27-.63-1.39-.83-.12-.92.52-.98,1.14-.11,1.11-.25,2.22-.36,3.34-.05.52.08.96.67,1.06.6.09.85-.29.93-.81.12-.82.21-1.63.32-2.45M44.29,71.95c0-.65.2-1.37-.63-1.49-.97-.14-.95.69-1.04,1.3-.15,1.05-.23,2.1-.34,3.15-.05.52.08.97.66,1.05.68.1.92-.35.99-.94.12-1.05.24-2.1.35-3.07"></path><path class="cls-1" d="M28.24.02C32.69.02,37.15.06,41.61,0c1.64-.02,2.24.67,2.21,2.23-.05,2.32-.04,4.64,0,6.95.02,1.4-.57,2.05-2.02,2.05-9.03-.03-18.06-.03-27.1,0-1.47,0-2.02-.64-1.99-2.05.04-2.26,0-4.52.01-6.77,0-2.12.26-2.38,2.34-2.39,4.4,0,8.79,0,13.19,0"></path><path class="cls-1" d="M24.6,43.76c.31-.13.64-.25.94-.41,2.45-1.31,4.41-.74,5.8,1.67.22.39.11,1.03.78,1.11l-.04-.06c.04,1.22.15,2.44.12,3.66-.05,1.63-1.1,2.42-2.45,1.63-1.83-1.07-3.74-1.26-5.76-1.41-2.34-.18-2.99-1.86-1.55-3.74.67-.87,1.46-1.66,2.19-2.48l-.02.03Z"></path><path class="cls-1" d="M30.08,38.26c.64-.82.94-1.89,1.88-2.48.67-.42,1.34-.79,2.16-.39.87.42,1.15,1.23,1.14,2.07-.04,1.55-.64,2.9-1.91,3.85-.63.48-1.34.81-2.15.4-.77-.39-1.07-1.09-1.12-1.9-.03-.52.03-1.05.05-1.58l-.04.03Z"></path><path class="cls-1" d="M30.12,38.24c-.79.22-.53,1.05-.9,1.54-.91,1.2-2,1.3-2.92.16-1.09-1.34-1.15-4.15-.12-5.53.9-1.21,2.12-1.1,3.02.21.77,1.12.46,2.47.88,3.65,0,0,.04-.03.04-.03"></path><path class="cls-1" d="M32.12,46.14c-.15-1.55.13-2.96,1.4-4,.63-.52,1.37-.78,2.15-.43.77.35,1.08,1.07,1.1,1.89.03,1.27-.47,2.33-1.43,3.11-1.29,1.06-2.39.69-3.26-.63,0,0,.04.05.04.05"></path><path class="cls-1" d="M24.62,43.73c-2.71-.2-4.18-2.12-3.53-4.63.18-.72.51-1.36,1.31-1.54.8-.18,1.39.23,1.84.82,1.02,1.33,1.22,2.79.63,4.37-.12.32-.77.53-.26,1.01,0,0,.02-.03.02-.03"></path></g></g></svg>