<svg xmlns="http://www.w3.org/2000/svg" id="Capa_2" data-name="Capa 2" viewBox="0 0 84.18 83.83"><defs><style> .cls-1 { fill: #fff; } </style></defs><g id="Capa_1-2" data-name="Capa 1"><g><path class="cls-1" d="M65.69,19.42c2.65,0,4.93.07,7.2-.03,1.5-.07,2.43.53,3.23,1.76,2.25,3.49,4.64,6.89,6.86,10.41.59.94.91,2.14,1.01,3.26.17,1.72.36,3.54-.04,5.17-.43,1.79-1.26,3.64-2.42,5.04-.8.97-1.33,1.69-1.33,2.97.04,10.74.03,21.48.02,32.22,0,3.15-.48,3.62-3.6,3.62-23,0-46.01,0-69.01,0-3.11,0-3.58-.47-3.59-3.62,0-10.67-.02-21.34.02-32.01,0-1.31-.08-2.38-1.39-3.15-.72-.43-1.46-1.27-1.65-2.06-1.02-4.1-1.86-8.24.71-12.14,2.18-3.29,4.29-6.64,6.61-9.83.58-.8,1.84-1.44,2.84-1.53,2.32-.22,4.68-.07,7.25-.07.05-.86.11-1.59.12-2.32.01-3.6-.05-7.21.03-10.81C18.64,2.5,21.11.04,24.88.03c11.5-.04,23-.04,34.51,0,3.76.01,6.22,2.5,6.28,6.29.07,4.28.02,8.56.02,13.1M50.09,79.65v-2.46c0-8.31,0-16.62,0-24.93,0-2.78.52-3.31,3.24-3.31,5.54,0,11.08,0,16.62,0,2.7,0,3.24.55,3.24,3.31,0,8.38,0,16.76,0,25.14v2.2h2.9v-2.36c0-9-.1-18.01.06-27.01.05-2.64-.33-4.55-3.24-5.19-2.56,1.86-5.25,2.11-8.05.31-.28-.18-.84-.27-1.07-.11-2.91,1.98-5.73,1.61-8.46-.31-3.01,2.28-5.96,2.06-8.84,0-3,2.24-5.94,2.11-8.83-.02-3.01,2.25-5.97,2.13-8.86,0-3.02,2.33-5.97,2.07-8.87.02-2.98,2.27-5.93,2.09-8.51.22-3.36.47-3.35,2.62-3.32,5.07.11,9,.04,18.01.04,27.01v2.43h41.95ZM42.33,4.12c-5.61,0-11.22-.01-16.83,0-2.25,0-2.83.58-2.84,2.82-.02,5.26-.02,10.53,0,15.79,0,2.25.58,2.84,2.83,2.85,11.08.02,22.16.01,33.24,0,2.26,0,2.83-.59,2.84-2.84.02-5.26.02-10.52,0-15.79,0-2.24-.6-2.82-2.84-2.83-5.47-.02-10.94,0-16.41,0M54.34,79.6h14.59v-26.37h-14.59v26.37ZM77.99,31.47c-1.74-2.62-3.31-5.03-4.94-7.4-.19-.28-.68-.5-1.04-.51-2.05-.05-4.11-.02-6.08-.02-1.4,4.5-2.92,6.08-6.27,6.1-11.7.06-23.41.06-35.11,0-3.07-.02-4.97-1.72-5.8-4.71-.12-.45-.29-.88-.46-1.39-1.96,0-3.83-.04-5.69.03-.49.02-1.18.2-1.43.55-1.66,2.35-3.22,4.76-4.95,7.35h71.77ZM13.23,35.8c0,1.54-.09,3.04.03,4.53.11,1.37,1.02,2.07,2.4,2.03,1.39-.04,2.18-.85,2.27-2.2.09-1.42.02-2.85.02-4.37h-4.71ZM39.76,35.81c0,1.65-.1,3.09.03,4.51.12,1.35,1.08,2.29,2.38,1.97.87-.21,1.98-1.13,2.19-1.93.36-1.4.1-2.96.1-4.55h-4.69ZM66.3,35.82c0,1.54-.08,2.97.02,4.39.1,1.35.94,2.13,2.32,2.16,1.38.03,2.26-.71,2.35-2.07.1-1.48.02-2.98.02-4.47h-4.71ZM9.05,35.85h-4.72c0,1.51-.06,2.88.02,4.24.08,1.45.91,2.29,2.4,2.28,1.38,0,2.21-.77,2.29-2.15.08-1.43.02-2.86.02-4.37M75.23,35.76c0,1.71-.26,3.27.1,4.68.2.79,1.44,1.81,2.21,1.8.78,0,2.03-1.03,2.22-1.81.36-1.46.1-3.07.1-4.67h-4.64ZM22.09,35.77c0,1.62-.25,3.1.09,4.45.21.83,1.19,1.82,2.03,2.06,1.24.37,2.34-.44,2.48-1.81.16-1.53.04-3.09.04-4.7h-4.63ZM30.92,35.79c0,1.67-.09,3.11.03,4.53.11,1.37,1.1,2.26,2.37,1.97.85-.2,1.96-1.12,2.14-1.91.35-1.45.1-3.05.1-4.59h-4.64ZM48.66,35.77c0,1.63-.05,3.06.02,4.49.07,1.4.96,2.1,2.3,2.11,1.36.01,2.23-.73,2.32-2.1.09-1.47.02-2.95.02-4.5h-4.66ZM57.49,35.81c0,1.67-.09,3.12.03,4.54.11,1.37,1.11,2.25,2.38,1.94.85-.21,1.94-1.14,2.14-1.94.35-1.4.1-2.95.1-4.54h-4.64Z"></path><path class="cls-1" d="M29.19,73.05c-5.06,0-10.11.01-15.17,0-2.3,0-2.97-.65-2.98-2.97-.02-6.09-.02-12.19,0-18.28.01-2.2.67-2.84,2.87-2.84,10.18-.01,20.36-.02,30.54,0,2.24,0,2.83.58,2.84,2.84.03,6.09.03,12.19,0,18.28-.01,2.36-.62,2.96-2.95,2.97-5.06.02-10.11,0-15.17,0M43.12,53.19H15.29v15.6h27.83v-15.6Z"></path><path class="cls-1" d="M49.88,24.19c-1.42-.97-2.98-1.78-4.22-2.95-1.36-1.29-5.84-1.46-7.02,0-1.98,2.44-4.84,3.16-7.39,1.86-2.64-1.35-3.67-4.14-2.8-7.27.18-.66.14-1.46-.05-2.13-.82-2.94.27-5.76,2.83-7.08,2.54-1.31,5.5-.58,7.41,1.81,1.19,1.49,5.75,1.52,6.94.04,1.95-2.42,4.86-3.16,7.39-1.88,2.63,1.33,3.68,4.17,2.83,7.26-.2.72-.12,1.6.09,2.33,1.09,3.89-1.66,7.58-5.67,7.5-.11.17-.23.33-.34.5M52.27,18.15c-.38-.68-.53-1.18-.86-1.49-1.24-1.21-1.22-2.3-.06-3.6.4-.45.54-1.39.39-2-.1-.41-1.09-1-1.41-.86-.65.27-1.37.89-1.6,1.53-.51,1.42-1.4,1.93-2.82,1.91-2.49-.04-4.99-.06-7.48,0-1.51.03-2.46-.48-2.93-2.03-.18-.59-.9-1.2-1.5-1.4-.38-.13-1.33.39-1.45.8-.18.61-.09,1.57.3,2.01,1.12,1.27,1.26,2.31.07,3.63-.41.45-.55,1.38-.41,2,.09.4,1.07.98,1.4.85.65-.26,1.4-.85,1.63-1.49.52-1.41,1.39-1.92,2.83-1.89,2.22.06,4.43.08,6.65,0,1.88-.07,3.43.11,3.9,2.42.09.44,1.19.98,1.77.92.57-.06,1.06-.82,1.62-1.29"></path></g></g></svg>