<svg xmlns="http://www.w3.org/2000/svg" id="Capa_2" data-name="Capa 2" viewBox="0 0 56.56 79"><defs><style> .cls-1, .cls-2 { fill: #fff; } .cls-2 { fill-rule: evenodd; } </style></defs><g id="Capa_1-2" data-name="Capa 1"><g><path class="cls-2" d="M27.91,29.61c1.01.05,1.9.37,2.65.91.58.41,1.04.91,1.36,1.49.28.52.56,1.04.81,1.57.36.74.62,1.52.82,2.3.16.64.37,1.27.5,1.91.09.45.13.92.12,1.36-.03.58-.34,1.09-.71,1.56-.27.34-.59.63-.96.89-.64.44-1.36.71-2.19.72-.82,0-1.55-.24-2.21-.64-.39-.24-.67-.57-.87-.96-.09-.13-.2-.25-.33-.36-.31-.32-.73-.5-1.19-.61-.31-.07-.64-.17-.95-.24-.06,0-.1,0-.16,0-.39-.04-.79-.08-1.18-.1-.32,0-.63.03-.96.04-.25,0-.5,0-.75,0-.29.01-.6.03-.89.06-.86.08-1.68-.03-2.41-.45-.3-.17-.52-.44-.71-.72-.31-.5-.62-1-.74-1.55-.14-.58-.03-1.14.27-1.68.33-.59.82-1.08,1.36-1.52.55-.44,1.07-.87,1.62-1.29.7-.53,1.45-1.03,2.23-1.47.56-.31,1.14-.61,1.77-.78.36-.12.75-.19,1.12-.25.6-.09,1.18-.16,1.78-.21.26-.03.55,0,.8.02"></path><path class="cls-2" d="M31.28,24.77c-.13,1.23-.58,2.12-1.43,2.87-.72.66-1.61,1.08-2.68,1.15-1.07.08-2.02-.23-2.79-.89-.75-.66-1.1-1.47-1.17-2.37-.08-.85.15-1.66.62-2.43.12-.2.27-.38.43-.58.32-.41.79-.69,1.24-.99.52-.35,1.01-.74,1.54-1.09.44-.31.95-.41,1.52-.3.38.07.67.26.92.5.14.14.2.33.3.49.3.49.6.99.91,1.47.48.75.68,1.54.6,2.19"></path><path class="cls-2" d="M22.57,27.68c-.17,1.19-.68,2.11-1.6,2.86-.7.58-1.53.95-2.5,1.02-1.04.09-1.96-.16-2.73-.78-.74-.6-1.1-1.35-1.18-2.21-.09-1.02.25-1.95.93-2.81.47-.58,1.1-.99,1.81-1.33.37-.2.74-.4,1.08-.63.24-.16.45-.35.74-.45.74-.23,1.65,0,2.04.62.14.22.2.47.31.69.18.29.36.59.54.87.28.44.49.9.53,1.39.03.28.02.57.03.74"></path><path class="cls-2" d="M42.01,35.32c-.05.43-.16.85-.36,1.24-.17.31-.35.62-.58.89-.17.21-.42.39-.65.57-.56.46-1.21.71-1.97.79-.8.08-1.53-.06-2.18-.44-1.12-.66-1.65-1.6-1.76-2.74-.07-.79.12-1.54.56-2.25.22-.36.5-.67.83-.96.57-.52,1.29-.87,1.93-1.33.23-.15.42-.33.64-.5.45-.32.94-.38,1.51-.27.59.1,1.22.72,1.27,1.29.03.36.17.7.26,1.06.15.54.32,1.07.44,1.61.06.35.05.68.08,1.03-.01,0-.01.01-.03.01"></path><path class="cls-2" d="M38.96,27.6c-.12,1.06-.54,1.89-1.29,2.59-.69.64-1.54,1.05-2.58,1.12-.96.06-1.81-.19-2.51-.75-.81-.63-1.2-1.46-1.27-2.39-.07-.92.21-1.76.78-2.54.43-.6,1.05-1.04,1.75-1.4.39-.2.73-.48,1.07-.74.48-.39,1.02-.57,1.68-.41.75.17,1.12.59,1.29,1.24.1.35.28.7.48,1,.32.54.58,1.11.61,1.73,0,.22,0,.44,0,.56"></path><path class="cls-1" d="M28.25,79H4.81c-2.63,0-4.78-2.2-4.8-4.92,0-1.03.03-2.06.03-3.09,0-2.69-.03-5.37-.03-8.06,0-3.7.01-7.39.01-11.09,0-6.43,0-12.85-.01-19.28C0,29.6,0,26.64,0,23.68c0-3.08,0-6.16.01-9.25.01-2.32,1.51-4.24,3.74-4.77.45-.11.93-.14,1.4-.15,2.42-.01,4.85-.01,7.27,0,.28,0,.39-.08.45-.36.6-2.62,2.86-4.44,5.55-4.47,1.15-.01,2.3-.01,3.46,0,.23,0,.32-.07.38-.29C23.09,1.8,25.5.01,28.18,0c2.82-.01,5.25,1.72,6.11,4.38.09.28.24.31.47.31,1.04,0,2.08-.01,3.13-.01,2.93,0,5.15,1.73,5.83,4.58.07.28.22.25.4.25,2.43,0,4.85.01,7.27,0,1.45,0,2.74.41,3.74,1.47.9.95,1.41,2.08,1.42,3.41,0,5.75,0,11.5,0,17.24,0,3.36,0,6.73,0,10.09,0,2.27,0,4.54,0,6.81,0,1.02,0,2.04,0,3.06,0,3.45,0,6.91,0,10.36,0,3.01,0,6.01,0,9.02,0,1.19.03,2.39-.04,3.57-.13,2.4-2.28,4.45-4.68,4.45-4.95.01-9.9,0-14.84,0h-8.75ZM43.86,12.82c0,.13-.02.22-.02.32,0,.82,0,1.65,0,2.47.01,1.23-.65,1.89-1.88,1.89-5.16,0-10.31,0-15.47,0-1.54,0-3.07,0-4.61,0-2.48,0-4.96,0-7.44,0-.75,0-1.32-.33-1.6-1.04-.11-.3-.12-.64-.12-.97-.02-.88,0-1.75,0-2.64-.12-.01-.2-.03-.29-.03-2.48,0-4.96,0-7.44,0-.17,0-.35.01-.52.06-.76.21-1.17.83-1.17,1.73,0,4.07,0,8.14,0,12.21,0,6.14-.01,12.29-.01,18.43,0,3.76.01,7.53.01,11.29,0,5.82,0,11.65,0,17.48,0,1.05.66,1.7,1.71,1.7,2.65,0,5.31,0,7.96,0,6.6,0,13.21,0,19.81,0,6.23,0,12.46,0,18.7,0,1.12,0,1.76-.64,1.76-1.75,0-3.04,0-6.08,0-9.11,0-6.48,0-12.97,0-19.45,0-6.71,0-13.43,0-20.14,0-3.54,0-7.09,0-10.63,0-1.18-.62-1.8-1.81-1.8h-7.59ZM40.54,14.19v-.39c0-1.07,0-2.15,0-3.22,0-1.58-1.01-2.6-2.59-2.6-1.61,0-3.22,0-4.84,0-1.14,0-1.76-.61-1.81-1.76-.07-1.64-1.41-2.92-3.05-2.92s-2.95,1.29-3.01,2.92c-.05,1.16-.67,1.76-1.83,1.76-1.66,0-3.31-.01-4.97.01-1.38.02-2.4,1.05-2.42,2.43-.02,1.18,0,2.37,0,3.55,0,.06.01.13.02.22h24.5Z"></path><path class="cls-1" d="M28.31,52.13c2.48,0,4.96,0,7.44,0,3.59,0,7.17,0,10.76.01.92,0,1.64.72,1.65,1.61,0,.91-.72,1.67-1.64,1.67-4.39,0-8.77,0-13.16,0-.16,0-.33,0-.49,0-6.21,0-12.42,0-18.63,0-1.36,0-2.72,0-4.08,0-.99,0-1.73-.7-1.74-1.63-.01-.93.72-1.66,1.71-1.66,2.02,0,4.04,0,6.06,0h12.14"></path><path class="cls-1" d="M28.28,44.56c4.62,0,9.24,0,13.86,0,1.44,0,2.87,0,4.31,0,.98,0,1.7.7,1.71,1.62,0,.94-.72,1.67-1.71,1.67-1.71,0-3.42-.02-5.13-.02-3.22,0-6.44.02-9.66.02-6.77,0-13.54,0-20.31,0-.43,0-.86.02-1.28,0-.88-.03-1.53-.62-1.64-1.46-.1-.75.39-1.52,1.14-1.75.16-.05.34-.07.52-.07,4.11,0,8.23,0,12.34,0,1.95,0,3.9,0,5.86,0h0Z"></path><path class="cls-1" d="M19.2,63.01c-3.03,0-6.05,0-9.08,0-.86,0-1.49-.51-1.67-1.3-.22-1.02.54-1.99,1.59-1.99,2.99,0,5.99,0,8.98,0s6.12,0,9.18,0c.99,0,1.72.7,1.72,1.64,0,.94-.72,1.65-1.71,1.65-3,0-6.01,0-9.01,0h0Z"></path><path class="cls-1" d="M19.15,70.59c-3,0-6.01,0-9.01,0-1.32,0-2.13-1.26-1.54-2.39.32-.62.87-.9,1.56-.9,2.7,0,5.4,0,8.09,0,3.31,0,6.62,0,9.93,0,1.2,0,2.02,1.05,1.68,2.15-.22.7-.84,1.15-1.62,1.15-1.78,0-3.55,0-5.33,0h-3.75Z"></path><path class="cls-1" d="M40.89,65.64c1.24-1.24,2.45-2.46,3.67-3.67.26-.26.51-.52.77-.77.69-.66,1.7-.66,2.36,0,.63.63.64,1.65-.01,2.31-1.87,1.89-3.75,3.76-5.63,5.63-.63.62-1.54.68-2.2.07-1.1-1.03-2.18-2.1-3.23-3.19-.6-.63-.5-1.66.15-2.25.65-.6,1.64-.58,2.29.05.52.51,1.04,1.04,1.56,1.56.08.08.16.15.27.26"></path></g></g></svg>