<svg xmlns="http://www.w3.org/2000/svg" id="Capa_2" data-name="Capa 2" viewBox="0 0 107.6 75.21"><defs><style> .cls-1, .cls-2 { fill: #fff; } .cls-2 { fill-rule: evenodd; } </style></defs><g id="Capa_1-2" data-name="Capa 1"><g><path class="cls-1" d="M3.12,72.15c0-10.32.13-20.57-.08-30.8-.06-3.18.97-4.06,3.99-3.86,3.64.24,7.32.06,11.47.06,0-3.32.17-6.41-.05-9.46-.19-2.62.9-3.56,3.33-3.84,2.43-.27,4.81-.87,7.59-1.4,0-6.25.16-12.46-.07-18.66-.12-3.19.84-4.32,4.11-4.16,5.22.26,10.47.19,15.71.02,2.55-.08,3.3.86,3.23,3.29-.14,4.99-.04,9.99-.04,15.47,4.59,0,8.89.12,13.17-.04,2.47-.09,3.37.72,3.27,3.23-.17,4.22-.05,8.44-.05,12.79,3.92,1.19,7.59,2.48,11.36,3.38,2.62.62,3.55,1.78,3.49,4.57-.19,9.79-.07,19.59-.07,29.48.71.14,1.34.09,1.74.37.55.39.93,1.02,1.38,1.54-.51.34-.98.82-1.55.98-.62.18-1.33.06-1.99.06-26.52,0-53.03,0-79.55,0-.45,0-.93.11-1.33-.03-.76-.27-1.46-.69-2.18-1.05.58-.53,1.11-1.12,1.74-1.58.32-.23.8-.23,1.38-.37M49.48,2.94h-17.28v19.19c.68-.03,1.23,0,1.76-.09q4.64-.79,4.64,3.82c0,14.14,0,28.27,0,42.41v3.99h10.88V2.94ZM65.86,21.71h-13.36v50.65h13.36V21.71ZM21.38,27.04v45.21h14.45V24.39c-4.87.89-9.55,1.75-14.45,2.65M18.29,40.43H5.97v31.92h12.32v-31.92ZM80.83,72.33c0-10.01.03-19.77-.07-29.54,0-.69-.88-1.75-1.58-1.99-3.34-1.15-6.76-2.08-10.3-3.13v34.66h11.94Z"></path><path class="cls-1" d="M46.1,8.82c-.82,1.1-1.38,1.86-1.93,2.61-.45-.86-1.2-1.69-1.25-2.57-.04-.77.71-1.59,1.11-2.38.61.69,1.22,1.37,2.08,2.34"></path><path class="cls-1" d="M35.55,9.02c.85-1.06,1.44-1.81,2.04-2.55.41.76,1.16,1.53,1.15,2.29-.02.9-.69,1.79-1.08,2.69-.62-.71-1.23-1.42-2.11-2.43"></path><path class="cls-1" d="M46,26.83c-.72.98-1.29,1.76-1.87,2.53-.44-.78-1.25-1.58-1.22-2.34.04-.9.82-1.76,1.28-2.63.52.71,1.05,1.42,1.81,2.44"></path><path class="cls-1" d="M42.25,35.94c.78-1.07,1.3-1.79,1.82-2.5.46.82,1.23,1.62,1.29,2.47.05.76-.68,1.57-1.07,2.36-.62-.71-1.24-1.42-2.04-2.34"></path><path class="cls-1" d="M46.02,44.81c-.75,1.06-1.26,1.78-1.77,2.5-.48-.86-1.28-1.7-1.34-2.59-.05-.75.76-1.55,1.19-2.34.59.75,1.17,1.49,1.92,2.43"></path><path class="cls-1" d="M46.02,17.86c-.76,1.06-1.26,1.75-1.76,2.45-.48-.82-1.29-1.63-1.34-2.48-.05-.74.75-1.54,1.17-2.31.59.71,1.18,1.43,1.93,2.34"></path><path class="cls-1" d="M35.62,17.94c.79-1.04,1.32-1.73,1.85-2.42.45.82,1.2,1.63,1.26,2.48.05.74-.7,1.52-1.09,2.29-.61-.72-1.23-1.43-2.01-2.35"></path><path class="cls-1" d="M64.52,46.49c-.88,1.01-1.5,1.71-2.12,2.42-.38-.9-1.05-1.79-1.06-2.7-.01-.76.73-1.53,1.14-2.3.6.75,1.19,1.5,2.05,2.58"></path><path class="cls-1" d="M57.76,46.32c-.7,1-1.25,1.79-1.8,2.58-.46-.72-1.32-1.47-1.27-2.15.07-.97.82-1.89,1.28-2.82.52.7,1.05,1.4,1.79,2.39"></path><path class="cls-1" d="M57.88,37.66c-.92.96-1.56,1.63-2.21,2.3-.36-.93-1-1.85-.99-2.77,0-.73.79-1.46,1.23-2.19.57.77,1.14,1.53,1.97,2.66"></path><path class="cls-1" d="M57.83,28.53c-.8.95-1.42,1.67-2.03,2.4-.4-.79-1.15-1.59-1.11-2.35.05-.86.82-1.68,1.27-2.52.53.7,1.06,1.41,1.87,2.47"></path><path class="cls-1" d="M64.51,37.56c-.89,1-1.51,1.7-2.14,2.41-.38-.8-1.08-1.61-1.05-2.38.04-.88.74-1.73,1.15-2.59.59.75,1.18,1.49,2.03,2.57"></path><path class="cls-1" d="M60.65,28.49c.77-1.05,1.29-1.74,1.8-2.44.47.85,1.27,1.69,1.32,2.56.04.74-.77,1.53-1.21,2.3-.58-.74-1.16-1.48-1.91-2.43"></path><path class="cls-1" d="M57.98,55.41c-.99,1.04-1.63,1.71-2.27,2.39-.37-.81-1.03-1.61-1.03-2.42,0-.8.67-1.61,1.05-2.41.63.69,1.27,1.37,2.25,2.44"></path><path class="cls-1" d="M33.73,58.94c-.74.99-1.26,1.68-1.78,2.37-.47-.81-1.29-1.62-1.29-2.44,0-.83.81-1.66,1.27-2.49.55.78,1.1,1.56,1.81,2.55"></path><path class="cls-1" d="M30.03,49.96c.74-.94,1.27-1.61,1.8-2.27.45.95,1.2,1.87,1.26,2.84.04.66-.87,1.37-1.36,2.06-.52-.81-1.04-1.61-1.7-2.63"></path><path class="cls-1" d="M33.89,41.35c-.88,1.09-1.47,1.81-2.06,2.54-.43-.74-1.2-1.49-1.19-2.22.02-.9.69-1.79,1.07-2.68.62.68,1.25,1.36,2.17,2.36"></path><path class="cls-1" d="M29.97,32.53c.83-.95,1.39-1.6,1.95-2.24.43.89,1.16,1.76,1.18,2.66.02.72-.82,1.47-1.28,2.2-.55-.78-1.11-1.57-1.85-2.62"></path><path class="cls-1" d="M27.12,32.58c-.76,1.12-1.25,1.86-1.75,2.59-.48-.82-1.28-1.61-1.35-2.46-.06-.78.67-1.61,1.06-2.43.62.7,1.25,1.4,2.04,2.29"></path><path class="cls-1" d="M27.13,50.25c-.78.91-1.4,1.62-2.01,2.33-.4-.79-1.16-1.61-1.11-2.37.06-.87.84-1.69,1.31-2.53.51.73,1.02,1.45,1.8,2.56"></path><path class="cls-1" d="M27.12,41.53c-.77.92-1.38,1.64-1.99,2.36-.4-.79-1.16-1.61-1.11-2.37.06-.87.84-1.69,1.31-2.53.51.72,1.02,1.45,1.8,2.54"></path><path class="cls-1" d="M12.7,56.27c-.74,1.08-1.25,1.82-1.75,2.57-.47-.86-1.26-1.69-1.32-2.57-.05-.78.72-1.6,1.13-2.41.6.75,1.2,1.49,1.95,2.42"></path><path class="cls-1" d="M12.69,45.68c-.73,1.11-1.22,1.86-1.71,2.6-.48-.83-1.29-1.64-1.36-2.5-.06-.77.69-1.61,1.08-2.42.61.72,1.23,1.44,1.98,2.32"></path><path class="cls-1" d="M79.34,57.58c-.7,1.03-1.19,1.76-1.69,2.49-.49-.82-1.36-1.64-1.38-2.47-.01-.83.82-1.68,1.29-2.52.55.78,1.1,1.55,1.78,2.5"></path><path class="cls-1" d="M73.73,47c-.76.99-1.35,1.75-1.95,2.52-.41-.79-1.17-1.59-1.14-2.36.04-.89.78-1.74,1.22-2.61.54.71,1.08,1.42,1.87,2.45"></path><path class="cls-1" d="M79.47,46.98c-.84,1.07-1.42,1.81-2.01,2.54-.43-.88-1.16-1.74-1.2-2.63-.03-.77.73-1.56,1.14-2.35.6.71,1.21,1.42,2.06,2.43"></path><path class="cls-2" d="M89.44,22.64c1.29.07,2.44.47,3.41,1.17.75.53,1.34,1.17,1.74,1.92.36.67.72,1.34,1.05,2.01.47.95.79,1.95,1.06,2.95.21.82.47,1.63.65,2.45.11.58.17,1.18.16,1.75-.04.75-.44,1.4-.92,2.01-.35.43-.75.81-1.24,1.15-.82.56-1.75.91-2.81.93-1.05.01-1.99-.3-2.84-.83-.5-.31-.86-.73-1.11-1.23-.11-.17-.26-.33-.42-.46-.4-.41-.94-.65-1.53-.79-.4-.09-.82-.21-1.22-.31-.08,0-.13-.01-.2-.01-.5-.05-1.02-.1-1.52-.13-.41,0-.82.04-1.24.05-.31-.01-.63,0-.96,0-.38.02-.77.04-1.14.08-1.1.11-2.16-.04-3.09-.58-.39-.22-.67-.56-.91-.92-.39-.64-.79-1.28-.95-1.99-.17-.74-.04-1.46.35-2.15.42-.76,1.05-1.39,1.74-1.96.7-.56,1.38-1.12,2.08-1.66.9-.68,1.87-1.32,2.87-1.89.72-.39,1.47-.78,2.27-1.01.46-.16.96-.24,1.43-.32.77-.12,1.52-.2,2.29-.27.34-.04.7,0,1.02.03"></path><path class="cls-2" d="M93.78,16.42c-.17,1.58-.75,2.72-1.83,3.68-.92.84-2.07,1.39-3.44,1.47-1.38.1-2.59-.29-3.58-1.15-.96-.84-1.41-1.88-1.51-3.05-.11-1.1.19-2.13.8-3.12.16-.26.35-.49.55-.74.41-.53,1.02-.89,1.59-1.28.66-.46,1.3-.96,1.97-1.41.56-.4,1.22-.53,1.95-.39.49.1.87.33,1.18.64.18.18.26.42.39.63.39.63.77,1.27,1.16,1.89.62.96.87,1.98.77,2.81"></path><path class="cls-2" d="M82.59,20.16c-.22,1.53-.87,2.71-2.05,3.67-.9.75-1.97,1.22-3.21,1.31-1.34.12-2.52-.21-3.5-1-.95-.77-1.41-1.73-1.52-2.83-.11-1.32.32-2.5,1.19-3.62.6-.74,1.41-1.27,2.32-1.71.47-.25.94-.52,1.38-.81.3-.21.58-.45.95-.57.95-.3,2.12.01,2.62.8.17.29.26.61.4.89.23.38.46.76.7,1.12.36.57.62,1.16.68,1.79.04.36.03.74.04.95"></path><path class="cls-2" d="M107.56,29.97c-.07.55-.21,1.1-.47,1.59-.22.4-.45.8-.75,1.14-.22.28-.54.5-.83.73-.72.58-1.56.91-2.53,1.02-1.03.11-1.97-.08-2.8-.57-1.45-.84-2.13-2.05-2.26-3.51-.09-1.01.16-1.98.73-2.89.28-.46.64-.86,1.07-1.23.73-.67,1.66-1.11,2.47-1.71.3-.19.54-.43.83-.64.57-.41,1.21-.49,1.94-.35.76.14,1.56.92,1.63,1.65.04.46.21.9.34,1.36.19.69.41,1.38.57,2.07.08.45.07.88.11,1.33-.02,0-.02.02-.04.02"></path><path class="cls-2" d="M103.65,20.05c-.15,1.36-.69,2.42-1.66,3.33-.89.82-1.98,1.35-3.32,1.44-1.24.08-2.32-.25-3.23-.97-1.04-.81-1.54-1.87-1.63-3.08-.09-1.19.27-2.26,1-3.27.55-.77,1.35-1.33,2.25-1.8.5-.26.94-.62,1.37-.95.62-.5,1.31-.74,2.16-.53.97.22,1.44.76,1.66,1.59.12.45.36.89.62,1.29.42.69.74,1.42.79,2.22,0,.28.01.57,0,.72"></path></g></g></svg>