<svg xmlns="http://www.w3.org/2000/svg" id="Capa_2" data-name="Capa 2" viewBox="0 0 261.72 182.79"><defs><style> .cls-1 { fill: #2d2e74; } </style></defs><g id="Capa_1-2" data-name="Capa 1"><g><path class="cls-1" d="M126.27,165.32c-1.12,2.34-1.99,4.84-3.39,6.99-4.14,6.35-10.04,9.87-17.68,10.39-10.62.72-20.16-6.36-23.01-16.28-.31-1.09-.76-1.34-1.78-1.32-3.02.06-6.04.02-9.05.01-6.51-.02-11.66-5.07-11.67-11.57-.02-16.11,0-32.21,0-48.32,0-4.95-.01-9.9-.02-14.85,0-.23,0-.47,0-.77-1.34-.23-2.63-.43-3.92-.67-10.34-1.93-18.97-6.91-25.8-14.87-8.52-9.94-12.1-21.56-10.56-34.52,1.55-13.08,7.92-23.52,18.61-31.27C44.08,3.89,50.89,1.21,58.32.34c12.3-1.43,23.47,1.6,33.28,9.23,6.77,5.27,11.6,12,14.54,20.05.65,1.77,1.12,3.62,1.58,5.45.18.75.48.95,1.22.95,7.12-.03,14.24-.02,21.36-.02,18.01,0,36.01.1,54.02-.05,6.02-.05,12.17,4.71,12.03,12.1-.07,3.59,0,7.19-.03,10.78,0,.79.2,1.02,1.02,1.02,8.34-.04,16.69-.12,25.03.02,4.51.07,8.02,2.22,10.95,5.72,8.43,10.08,17.02,20.03,25.55,30.03,1.87,2.2,2.86,4.69,2.86,7.62-.02,16.72,0,33.43,0,50.15,0,6.81-4.92,11.75-11.71,11.75-.88,0-1.77.06-2.64-.01-.76-.06-1.03.25-1.23.96-1.91,6.52-5.87,11.4-11.97,14.4-9.39,4.61-20.88,2.23-27.67-6.43-1.92-2.45-3.34-5.17-4.06-8.22-.12-.5-.36-.77-.91-.7-.23.03-.47,0-.71,0-15.83,0-31.67,0-47.5,0-8.68,0-17.36,0-26.04-.01h-1.21c.07.06.15.12.22.19M109.1,45.92c-2.66,24.18-15.69,38.69-39.45,43.74v6.66c0,18.85,0,37.7,0,56.55,0,.27,0,.54.01.81.05.93.54,1.45,1.48,1.45,3.36.01,6.71.02,10.07-.02.26,0,.67-.33.74-.58,1.11-4.16,3.17-7.77,6.34-10.68,6.8-6.25,14.68-7.99,23.35-4.89,7.3,2.61,11.94,7.96,14.12,15.41.17.58.42.8,1.04.79,2.27-.04,4.54-.02,6.81-.02,16.65,0,33.29,0,49.94,0,.34,0,.68,0,1.02,0,1.33-.04,1.69-.4,1.72-1.7.02-1.05.04-2.1.04-3.15-.01-12.65-.03-25.29-.03-37.94,0-3.93.04-7.86.04-11.8,0-10.51-.03-21.02-.03-31.53,0-7.05,0-14.1,0-21.16,0-1.51-.37-1.88-1.84-1.92-.27,0-.54,0-.81,0-19.46,0-38.92,0-58.38,0-4.3,0-8.61-.02-12.92-.03-1.14,0-2.29,0-3.23,0M196.32,155.14c1.82,0,3.68.02,5.53-.03.2,0,.48-.42.56-.69,2.35-8.06,7.52-13.45,15.51-15.95,11.12-3.47,23.38,2.66,27.5,13.6.39,1.03.53,2.45,1.28,2.94.79.52,2.16.14,3.28.14,1.42-.01,1.75-.33,1.75-1.73,0-16.68,0-33.36-.02-50.05,0-.43-.19-.94-.46-1.26-2.81-3.34-5.66-6.66-8.49-9.98-6.11-7.16-12.24-14.31-18.32-21.5-.5-.59-.99-.82-1.72-.82-1.86,0-3.73-.05-5.59-.05-6.64,0-13.29.03-19.93.05-.26,0-.52.04-.87.07v85.26ZM98.8,44.91c-.04-19.57-15.42-34.95-35.11-34.92-18.92.03-34.53,15.2-34.63,34.6-.11,20.03,15.61,35.03,34.65,35.14,19.54.12,35.14-15.46,35.1-34.83M224.29,169.62c5.28.06,9.45-4.08,9.5-9.42.05-5.25-4.15-9.51-9.43-9.54-5.31-.03-9.47,4.08-9.52,9.41-.05,5.39,4,9.48,9.46,9.55M103.7,169.61c5.33.09,9.58-3.92,9.68-9.13.1-5.46-3.93-9.7-9.33-9.82-5.21-.11-9.54,4.03-9.63,9.23-.1,5.42,3.93,9.64,9.28,9.73"></path><path class="cls-1" d="M25.97,99.31c6.67,0,13.35,0,20.03,0,4.1,0,6.57,3.62,5.09,7.41-.74,1.91-2.72,3.19-5,3.19-9.05,0-18.1,0-27.15,0-4.47,0-8.95.01-13.42,0-2.53,0-4.64-1.64-5.25-4-.61-2.35.47-4.89,2.73-5.99.84-.41,1.88-.58,2.84-.59,6.71-.05,13.42-.02,20.13-.03"></path><path class="cls-1" d="M25.57,146.13c-6.75,0-13.49.02-20.23,0-3.13-.01-5.37-2.34-5.34-5.44.03-2.72,2.31-5.1,5.05-5.11,7.73-.02,15.45.02,23.18.02,5.93,0,11.86-.05,17.79-.04,3.81,0,6.27,3.48,5.08,7.09-.69,2.09-2.69,3.48-5.09,3.48-6.81,0-13.62,0-20.44,0"></path><path class="cls-1" d="M70.03,33.04c0,4.1-.03,8.2.01,12.31.02,2.18-.93,3.6-2.9,4.55-5.21,2.51-10.38,5.13-15.57,7.68-4.02,1.98-8.31-.88-7.98-5.34.15-2.07,1.3-3.51,3.14-4.41,3.86-1.89,7.71-3.79,11.58-5.64.7-.33.89-.72.89-1.46-.03-6.71.05-13.42-.05-20.13-.04-3.04,2.38-5.65,5.42-5.66,3.09,0,5.42,2.38,5.44,5.61.03,4.17,0,8.34,0,12.51"></path></g></g></svg>