<svg xmlns="http://www.w3.org/2000/svg" id="Capa_2" data-name="Capa 2" viewBox="0 0 184.52 241"><defs><style> .cls-1 { fill: #2d2e74; } </style></defs><g id="Capa_1-2" data-name="Capa 1"><g><path class="cls-1" d="M94.14,0c3.93,1.47,6.38,4.7,8.91,7.74,1.06,1.28,2.02,1.41,3.41.99,2.25-.68,4.5-1.34,6.77-1.93,5.62-1.46,10.2,1.37,11.46,7.03.44,1.98,1,3.95,1.36,5.95.25,1.41.85,2.18,2.35,2.47,2.38.46,4.71,1.14,7.06,1.77,5.12,1.38,7.72,5.98,6.28,11.09-.66,2.33-1.31,4.68-2.08,6.97-.36,1.06-.15,1.76.63,2.49,1.83,1.72,3.61,3.49,5.38,5.27,3.99,4.02,4.29,9.66-.19,12.97-5.32,3.93-6.32,8-3.96,14.1,2.34,6.05-.81,10.58-7.17,11.99-2.93.65-2.95.65-2.16,3.63,3.03,11.42,6.08,22.84,9.1,34.27.77,2.93.18,4.94-1.79,6.27-2.27,1.54-4.4,1.12-6.54-.36-2.32-1.6-4.73-3.07-7.05-4.67-1.06-.73-1.59-.5-2.11.62-1.13,2.41-2.35,4.78-3.55,7.16-1.58,3.11-3.35,4.31-5.97,3.93-2.85-.41-3.94-2.44-4.61-4.97-2.34-8.93-4.75-17.83-7.14-26.74-.1-.37-.32-.7-.61-1.31-2.83,2.83-5.28,6.13-9.71,6.07-4.45-.06-6.82-3.37-9.68-6.58-1.69,6.26-3.28,12.11-4.85,17.97-.99,3.7-1.93,7.42-2.94,11.12-.77,2.81-2.37,4.27-4.79,4.48-2.64.23-4.27-1.14-5.38-3.35-1.3-2.59-2.64-5.16-3.86-7.79-.55-1.18-1.11-1.25-2.12-.56-2.26,1.55-4.61,2.98-6.86,4.55-2.19,1.52-4.39,2.08-6.75.47-2.02-1.38-2.57-3.43-1.75-6.51,3.05-11.5,6.07-23.01,9.25-34.48.56-2.02-.04-2.58-1.83-3.04-7.51-1.9-10.07-5.99-7.26-13.18,2-5.14,1.08-8.52-3.21-11.7-3.59-2.66-5.41-6.28-3.7-10.92.92-2.48,3.02-3.95,4.8-5.7.73-.71,1.45-1.44,2.26-2.05,1.24-.93,1.52-2.04,1.06-3.5-.73-2.31-1.42-4.64-2.01-7-1.32-5.23,1.56-9.86,6.77-11.04,1.75-.4,3.48-1.04,5.25-1.2,2.5-.22,3.47-1.52,3.83-3.84.32-2.08.94-4.12,1.54-6.15,1.44-4.8,5.76-7.3,10.62-6.11,1.89.46,3.71,1.21,5.56,1.84,1.85.63,3.43.79,5.03-.92,2.63-2.83,5.09-5.94,8.73-7.64h4.24ZM132.25,122.88c.08.07.15.14.22.21l-.19-.25c0-2.15-.89-4.11-1.42-6.14-1.7-6.51-3.48-12.99-5.4-20.11-.39,1.34-.58,2.01-.77,2.68-1.61,5.61-5.95,8.09-11.52,6.56-.75-.21-1.49-.46-2.24-.71-1.16-.38-1.42.08-1.13,1.15.44,1.58.85,3.17,1.27,4.76,1.47,5.47,2.94,10.94,4.6,17.1,1.18-2.32,2.04-4.04,2.91-5.74,2.05-4,4.86-4.75,8.65-2.42,1.64,1.01,3.02,2.48,5,2.91M52.56,43.55c-.11,2.26-.77,4.38-2.49,6.07-1.68,1.65-3.3,3.37-5.12,4.85-1.85,1.5-1.66,2.62.05,4.06,1.73,1.46,3.29,3.14,4.89,4.75,2.46,2.48,3.38,5.4,2.36,8.82-.58,1.95-1.18,3.9-1.78,5.84-.96,3.12-.91,3.22,2.17,3.98,2.05.51,4.11.98,6.15,1.52,3.55.95,5.87,3.16,6.72,6.8.53,2.29,1.21,4.55,1.58,6.86.28,1.74,1.06,2,2.56,1.54,2.39-.74,4.81-1.39,7.22-2.08,3.6-1.04,6.65-.09,9.2,2.56,1.47,1.52,2.94,3.05,4.3,4.67,1.3,1.54,2.39,1.71,3.81.1,1.66-1.88,3.45-3.64,5.26-5.38,2.32-2.22,5.07-3.04,8.22-2.14,2.41.69,4.85,1.3,7.2,2.15,1.64.59,2.35.02,2.72-1.47.62-2.51,1.23-5.02,1.9-7.51.91-3.41,3.12-5.53,6.54-6.36,1.98-.48,3.97-.9,5.94-1.38,3-.72,3.08-.87,2.25-3.78-.56-1.96-1.06-3.93-1.65-5.88-1.17-3.84-.28-7.09,2.67-9.8,1.62-1.48,3.19-3.02,4.85-4.45,1.25-1.07,1.26-2,.08-3.1-1.84-1.7-3.67-3.43-5.44-5.2-2.59-2.61-3.48-5.68-2.35-9.26.71-2.24,1.32-4.51,2.07-6.73.5-1.49-.05-2.19-1.49-2.52-2.44-.57-4.86-1.22-7.29-1.82-3.53-.87-5.73-3.07-6.61-6.58-.55-2.2-1.1-4.41-1.54-6.63-.35-1.79-1.23-2.36-2.98-1.8-2.24.71-4.5,1.35-6.77,1.93-3.5.9-6.65.42-9.21-2.42-1.47-1.63-3.11-3.12-4.51-4.79-1.31-1.56-2.36-1.74-3.75-.09-1.46,1.74-3.11,3.32-4.69,4.95-2.64,2.73-5.8,3.57-9.44,2.49-1.95-.57-3.93-1.06-5.81-1.8-2.12-.83-3.17-.38-3.58,1.96-.4,2.3-1.12,4.56-1.72,6.82-.92,3.43-3.17,5.51-6.57,6.35-2.2.55-4.42,1.06-6.64,1.51-1.78.36-2.26,1.19-1.72,3,.91,3.07,1.99,6.11,2.44,9.4M68.49,127.42l.55-.03c1.96-7.39,3.93-14.78,5.97-22.47-3.81,1.05-7.07,2.38-10.51.58-3.51-1.83-4.48-5.2-5.36-9.29-2.47,9.27-4.77,17.87-7.06,26.47,2.18-.77,3.79-1.85,5.43-2.88,3.4-2.13,6.38-1.34,8.24,2.18.95,1.79,1.82,3.62,2.73,5.43"></path><path class="cls-1" d="M0,108.26c.77-.75.74-1.84,1.16-2.74,1.56-3.33,3.9-5.79,7.71-6.13,3.68-.33,6.39,1.56,8.44,4.49,1.18,1.69,1.89,3.6,2.47,5.56,2.52,8.56,5.05,17.11,7.52,25.69.4,1.39.95,2.23,2.52,2.57,2.11.45,3.72,1.92,5.29,3.38,7.87,7.3,16.22,14.11,23.17,22.36,9.07,10.76,13.86,23.1,13.75,37.25-.03,4.08.03,8.16-.03,12.23-.02,1.21.23,1.71,1.6,1.92,3.69.56,5.35,2.67,5.39,6.5.04,4-.11,8,.05,12,.13,3.47-1.01,6.08-4.18,7.66h-42.83c-3.26-1.67-4.26-4.44-4.13-7.94.14-3.91-.02-7.84.05-11.76.07-3.84,1.67-5.82,5.43-6.48,1.29-.23,1.43-.76,1.45-1.83.03-2.89-.84-5.31-3.01-7.35-5.08-4.78-10.12-9.61-15.07-14.52-5.99-5.95-9.6-13.2-10.54-21.54-1.76-15.63-3.19-31.31-4.88-46.95-.35-3.22-.21-6.53-1.32-9.66v-4.71ZM53.43,214.73c3.06,0,6.12-.06,9.18.02,1.37.04,1.94-.3,1.91-1.81-.1-5.1.12-10.2-.12-15.29-.43-9.44-3.46-18.05-9-25.73-5.88-8.16-13.6-14.5-20.93-21.23-1.9-1.75-3.84-3.47-5.8-5.16-.75-.64-1.71-1.04-2.57-.31-.86.73-.62,1.78-.14,2.6.59,1,1.33,1.93,2.11,2.8,6.15,6.81,12.34,13.58,18.48,20.39,1.76,1.95,1.73,4.13.05,5.63-1.55,1.38-3.89,1.27-5.47-.45-6.82-7.47-13.68-14.91-20.36-22.5-3.65-4.16-3.75-8.54-.65-13.13.6-.88.43-1.55.18-2.39-1.4-4.73-2.76-9.47-4.17-14.19-1.45-4.87-2.89-9.74-4.47-14.57-.33-1.01-.84-2.54-2.23-2.32-1.31.21-1.43,1.71-1.69,2.84-.07.3-.07.62-.04.93.45,4.6.9,9.2,1.38,13.8,1.37,13.32,2.85,26.63,4.09,39.97.78,8.41,3.37,15.89,9.6,21.85,4.54,4.33,8.96,8.78,13.59,13.02,3.99,3.67,6.23,8.01,5.95,13.48-.08,1.55.61,1.81,1.95,1.78,3.06-.07,6.12-.02,9.18-.02M53.43,233.47c5.4,0,10.81-.04,16.21.03,1.44.02,1.92-.41,1.86-1.86-.1-2.58-.07-5.17-.01-7.75.03-1.21-.38-1.65-1.61-1.64-10.89.04-21.77.04-32.66,0-1.34,0-1.8.48-1.77,1.78.06,2.5.1,5.02-.02,7.52-.07,1.58.51,1.98,2.02,1.95,5.32-.08,10.65-.03,15.98-.03"></path><path class="cls-1" d="M109.67,241c-3.25-1.64-4.39-4.3-4.2-7.89.21-3.83.03-7.68.05-11.52.02-4.21,1.43-5.86,5.64-6.46,1.34-.19,1.34-1.06,1.34-2.04,0-3.76.07-7.53-.01-11.29-.37-16.33,5.62-30.09,16.77-41.78,6.82-7.16,14.35-13.55,21.65-20.19.94-.85,2.02-1.68,3.23-1.85,2.3-.33,2.88-1.88,3.42-3.77,2.35-8.2,4.78-16.37,7.18-24.56.6-2.04,1.28-4.04,2.54-5.78,2.04-2.82,4.61-4.79,8.28-4.42,3.82.39,6.12,2.81,7.71,6.13.49,1.03.28,2.32,1.23,3.16v4.24c-.77.35-.5,1.07-.57,1.65-.53,5.06-1.03,10.11-1.55,15.17-1.2,11.67-2.6,23.32-3.56,35.01-.89,10.91-4.6,20.35-12.71,27.92-4.58,4.28-9,8.72-13.58,13.01-2.11,1.97-2.95,4.29-2.93,7.12.01,1.37.4,1.83,1.76,2.1,3.51.69,4.92,2.5,4.95,6.06.04,4-.17,8,.07,11.99.21,3.52-.66,6.28-3.9,8.01h-42.83ZM131.07,214.75h0c2.9.01,5.81-.11,8.71.05,1.97.11,2.54-.52,2.49-2.48-.12-4.78,1.63-8.79,5.21-12.09,4.72-4.36,9.28-8.91,13.94-13.34,5.05-4.81,8.37-10.59,9.37-17.49.89-6.16,1.36-12.39,2.01-18.59.9-8.64,1.8-17.29,2.7-25.93.49-4.67,1.03-9.34,1.41-14.02.12-1.48-.16-3.4-1.71-3.8-1.68-.42-2.05,1.53-2.65,2.74-.21.42-.34.88-.47,1.33-2.64,9.01-5.26,18.04-7.95,27.04-.33,1.09-.22,1.83.48,2.77,1.99,2.7,2.35,5.71,1.24,8.91-.87,2.51-2.49,4.44-4.28,6.36-6.09,6.55-12.04,13.22-18.08,19.81-1.67,1.82-4.07,1.99-5.63.53-1.57-1.47-1.59-3.58.07-5.45,3.02-3.4,6.1-6.74,9.15-10.12,3.63-4.01,7.27-8.01,10.85-12.06.95-1.07,1.4-2.6.42-3.66-1.13-1.23-2.36-.04-3.24.77-7.52,6.99-15.49,13.51-22.33,21.22-5.77,6.51-9.88,13.9-11.7,22.47-1.67,7.83-.89,15.78-1.08,23.68-.03,1.28.7,1.34,1.65,1.34,3.14-.02,6.28,0,9.41,0M131.12,233.48v.02c5.4,0,10.81-.03,16.21.02,1.26.01,1.86-.29,1.81-1.69-.09-2.58-.08-5.17,0-7.75.04-1.44-.54-1.89-1.94-1.89-10.81.05-21.61.06-32.42.03-1.3,0-1.83.36-1.78,1.73.09,2.5.13,5.02-.01,7.51-.1,1.72.59,2.08,2.16,2.05,5.32-.08,10.65-.03,15.97-.03"></path><path class="cls-1" d="M132.28,122.84l.19.25c-.08-.07-.15-.14-.23-.21l.04-.04"></path><path class="cls-1" d="M92.25,25.88c16.82,0,30.55,13.72,30.55,30.52,0,16.73-13.85,30.59-30.57,30.58-16.73,0-30.54-13.84-30.54-30.58,0-16.8,13.74-30.52,30.55-30.51M92.23,33.4c-13.12,0-22.89,10.55-22.98,22.96-.1,12.68,10.62,23.26,23.26,23.1,12.47-.15,22.8-10.61,22.79-23.1,0-12.65-10.37-22.97-23.07-22.96"></path><path class="cls-1" d="M64.46,224.43c2.32,0,3.89,1.54,3.85,3.76-.04,2.09-1.61,3.64-3.75,3.7-2.23.06-3.93-1.54-3.95-3.73-.03-2.27,1.48-3.73,3.86-3.72"></path><path class="cls-1" d="M123.88,228.17c-.03,2.2-1.76,3.8-4,3.69-2.16-.1-3.68-1.68-3.66-3.81.02-2.2,1.67-3.67,4.02-3.6,2.27.07,3.67,1.51,3.64,3.71"></path><path class="cls-1" d="M77.69,48.1c1.35.15,2.38.8,3.29,1.72,2.7,2.72,5.47,5.39,8.11,8.16,1.01,1.06,1.64.99,2.63-.03,3.88-3.98,7.83-7.87,11.76-11.8,1.08-1.08,2.27-1.99,3.92-1.7,2.99.53,4.22,4.1,2.04,6.34-5.4,5.56-10.91,11.02-16.43,16.45-1.58,1.55-3.64,1.54-5.27-.05-4.27-4.15-8.45-8.38-12.64-12.61-1.12-1.14-1.54-2.53-.86-4.09.66-1.51,1.89-2.22,3.45-2.4"></path></g></g></svg>