<svg xmlns="http://www.w3.org/2000/svg" id="Capa_2" data-name="Capa 2" viewBox="0 0 247 247"><defs><style> .cls-1 { fill: #2d2e74; } </style></defs><g id="Capa_1-2" data-name="Capa 1"><g><path class="cls-1" d="M246.98,125.78c-.69,67.24-57.05,122.02-124.9,121.21C54.89,246.2-1.24,191.33.02,121.02,1.23,53.92,56.7-.85,125.11,0c68.07.86,123.12,57.1,121.87,125.77M123.48,172.33c30.44,0,60.88-.04,91.32.07,2.55.01,3.66-.89,4.66-3.04,9.81-21.09,12.73-43.07,8.41-65.92-8.88-47.02-49.26-82.96-96.89-85.95-31.55-1.98-58.91,8.13-81.71,30.05-32.7,31.43-41.41,81.41-21.58,122.22.96,1.98,2.05,2.63,4.24,2.63,30.51-.08,61.03-.05,91.54-.05M59.98,192.97l.5-.13c2.43,2.96,4.98,5.84,7.25,8.92,1.37,1.87,2.91,1.99,4.8,1.55v-18.28h-4.09v11.05c-2.84-3.47-5.4-6.42-7.74-9.54-1.4-1.86-2.97-1.9-4.85-1.35v18.18h4.14v-10.4ZM150.04,197.55c.43-.29.72-.48,1.01-.69,2.31-1.58,2.92-3.84,2.54-6.47-.38-2.58-1.95-4.46-4.36-4.84-3.72-.6-7.54-.6-11.33-.86v18.72h4.08v-4.91q3.74-.45,5.82,2.53c1.98,2.83,2.3,2.94,6.02,2.11-1.25-1.84-2.45-3.62-3.79-5.59M99.46,222.03c.03.44.04,1.09.12,1.74.52,4.4,3.55,7.44,7.53,7.57,3.97.13,7.23-2.48,7.89-6.84.33-2.15.25-4.52-.28-6.62-1.21-4.82-6.5-7.12-10.84-4.84-3.49,1.83-4.42,5.12-4.43,9M134.48,221.99c-.1-.06-.21-.12-.31-.17-.19-1.21-.29-2.44-.59-3.61-.9-3.56-3.63-5.84-7.06-6-3.46-.17-6.44,1.78-7.64,5.24-1.08,3.1-1.06,6.28.29,9.31,1.2,2.71,3.35,4.34,6.35,4.56,2.88.21,5.4-.79,6.82-3.34,1.02-1.83,1.45-3.98,2.15-5.99M175.89,203.32c0-.21.07-.45-.01-.62-2.5-5.61-4.93-11.24-7.6-16.77-.32-.66-1.9-.94-2.9-.95-.73,0-1.83.54-2.13,1.15-1.82,3.77-3.46,7.62-5.16,11.45-.84,1.89-1.66,3.78-2.58,5.9,1.23,0,2.12.13,2.94-.04.66-.14,1.68-.56,1.78-1.02.6-2.76,2.38-3.2,4.8-2.91,1.28.15,2.61-.07,3.89.08.57.07,1.32.52,1.58,1.02,1.69,3.14,1.66,3.16,5.38,2.73M96.23,203.49c-2.76-6.15-5.33-11.94-7.97-17.7-.19-.41-.83-.77-1.31-.85-2.07-.33-3.77-.08-4.41,2.46-.38,1.52-1.26,2.91-1.9,4.36-1.68,3.81-3.36,7.62-5.03,11.44.11.22.22.44.34.66,1.43-.44,3.86-.58,4.1-1.38.91-2.97,2.81-3.23,5.28-2.96.79.09,1.6.1,2.38,0,1.76-.24,2.91.32,3.29,2.17.29,1.4,1.11,2.09,2.63,1.83.7-.12,1.43-.02,2.59-.02M128.37,185.04c0,3.6.05,7.06-.02,10.51-.06,3.11-1.4,4.54-4.04,4.53-2.66-.02-3.94-1.39-4.05-4.54-.09-2.39-.04-4.78-.04-7.17q0-3.7-3.69-3.38c-.13.01-.24.14-.55.33,0,3.64-.15,7.39.04,11.14.22,4.44,3.07,7.02,7.63,7.28,4.83.27,8.32-2.04,8.77-6.48.4-3.99.09-8.05.09-12.2h-4.14ZM102.81,188.41v14.97h4.26v-15.01h5.97c-.06-1.31-.11-2.33-.16-3.29h-15.88v3.33h5.81ZM183.25,185.13q-4.25-.54-4.25,3.2c0,4.26,0,8.53,0,12.79,0,.76.09,1.51.14,2.24h13.25v-3.47h-9.14v-14.76ZM87.59,212.62v3.23c1.23.07,2.29.14,3.58.21v14.8h4.04v-18.24h-7.62ZM155.16,212.82c-1.97-.66-3.09-.2-4.1,1.34-3.42,5.19-6.98,10.28-10.48,15.42-.25.36-.38.81-.56,1.22.11.16.22.32.33.48.99-.37,2.38-.45,2.89-1.17,4.03-5.63,7.88-11.39,11.92-17.29M149.19,226.08c-.02,2.95,1.82,5.09,4.44,5.15,2.76.07,4.71-2.03,4.72-5.07.01-3.05-1.91-5.19-4.65-5.17-2.6.02-4.5,2.15-4.52,5.09M145.76,217.3c-.02-2.94-1.9-5.02-4.55-5.03-2.66-.01-4.64,2.23-4.6,5.23.04,2.9,1.97,5.02,4.59,5.03,2.74,0,4.59-2.1,4.56-5.22"></path><path class="cls-1" d="M181.92,76.92c-.56,3.92-1.09,7.12-1.47,10.34-1.05,8.92-1.52,17.94-3.15,26.75-3.03,16.41-10.94,29.84-26,38.16-8.53,4.71-17.78,6.26-27.66,5.63,2.91-12.24,8.18-23.2,14.85-33.55,6.62-10.26,14.65-19.3,23.58-27.6-9.21,6.57-17.39,14.23-24.53,23-7.11,8.76-13.16,18.17-17.65,28.66-6.58-13.26-5.77-26.29,3.05-37.44,9.62-12.17,22.04-20.43,36.31-26,7.27-2.84,14.73-5.18,22.68-7.95"></path><path class="cls-1" d="M84.05,84.05c8.07,6.21,15.61,12.86,22.06,20.67,2.72,3.29,5.21,6.77,7.73,10.22.4.55.73,1.55.5,2.09-2.58,5.91-3.48,12.05-2.59,18.95-2.77-.52-5.33-.81-7.78-1.5-15-4.26-24.48-14.52-29.88-28.63-2.31-6.03-3.34-12.56-4.87-18.88-1.28-5.28-2.44-10.58-3.65-15.87-.12-.53-.22-1.07-.38-1.85,11.04,1.83,21.64,4.24,31.79,8.45,8.96,3.72,16.86,9,23.56,15.98,2.13,2.22,3.86,4.82,5.67,7.13-3.29,3.91-6.3,7.49-9.43,11.21-8.34-10.29-18.23-18.89-29.43-26-1.08-.68-2.2-1.3-3.3-1.95"></path><path class="cls-1" d="M163.43,41.27c-.44,3.76-.83,7.4-1.31,11.04-.67,5.09-.89,10.31-2.22,15.23-3.28,12.15-10.54,20.85-23.25,23.91-3.18.77-6.54.8-10.29,1.22,3.9-15.04,11.84-26.88,22.48-37.23-2.37.6-9.32,6.92-14.21,13.55-3.93,5.33-7.32,11.05-10.93,16.57-2.81-6.33-3.73-13.07.12-19.73,4.34-7.48,10.72-13.01,18.42-16.68,6.44-3.06,13.31-5.22,19.99-7.76.31-.12.69-.08,1.19-.13"></path><path class="cls-1" d="M100.99,53.12c6.33,7.19,11.48,15,13.9,24.68-6.73.38-12.48-1.37-17.21-5.96-3.98-3.85-6.37-8.63-7.18-14.08-.8-5.36-1.28-10.76-1.94-16.41,5.71,1.44,11.2,3.1,15.98,6.2,3.72,2.42,7.24,5.33,10.26,8.57,4.65,4.99,4.8,10.91,1.89,17.33-3.84-8.03-8.82-14.93-15.7-20.34"></path><path class="cls-1" d="M142.12,194.85v-6.49c1.74.11,3.37.11,4.98.34,1.63.23,2.28,1.48,2.29,2.99,0,1.55-.81,2.7-2.38,2.92-1.61.23-3.25.18-4.88.25"></path><path class="cls-1" d="M111.15,221.78c-.29,1.38-.29,2.8-.92,3.84-.55.92-1.78,1.93-2.73,1.97-.96.03-2.42-.87-2.86-1.76-1.33-2.7-1.28-5.65.08-8.34.42-.82,1.83-1.61,2.76-1.58.93.03,2.19.91,2.66,1.77.66,1.21.71,2.74,1.02,4.1"></path><path class="cls-1" d="M129.89,221.69c-.31,1.41-.37,2.94-1.02,4.15-.46.85-1.72,1.73-2.64,1.75-.93.02-2.32-.76-2.76-1.59-1.45-2.76-1.39-5.76.02-8.51.42-.82,1.83-1.6,2.76-1.57.93.03,2.17.91,2.65,1.77.64,1.13.68,2.6.99,4"></path><path class="cls-1" d="M165.82,189.21c1.03,2.49,1.88,4.55,2.82,6.82h-5.67c.93-2.22,1.81-4.33,2.85-6.82"></path><path class="cls-1" d="M85.79,189.22c1.04,2.5,1.89,4.54,2.83,6.81h-5.68c.93-2.21,1.81-4.32,2.85-6.81"></path><path class="cls-1" d="M156.16,226.55c-.79.83-1.5,2.27-2.38,2.38-1.67.2-1.92-1.42-1.93-2.77-.01-1.34.19-2.86,1.89-2.89,1.73-.03,1.87,1.48,2.42,3.28"></path><path class="cls-1" d="M143.56,217.75c-.76.86-1.44,2.31-2.31,2.44-1.68.25-1.94-1.36-1.94-2.71,0-1.32.13-2.86,1.83-2.94,1.76-.08,1.86,1.45,2.43,3.21"></path></g></g></svg>