<svg xmlns="http://www.w3.org/2000/svg" id="Capa_2" data-name="Capa 2" viewBox="0 0 57.58 89"><defs><style> .cls-1 { fill: #fff; } </style></defs><g id="Capa_1-2" data-name="Capa 1"><g><path class="cls-1" d="M35.03,55.54v27.53c0,3.48-2.48,5.94-5.97,5.93-7.72,0-15.44,0-23.16,0-3.4,0-5.89-2.5-5.89-5.91C0,64.76,0,46.42,0,28.09c0-3.57,2.45-6.02,6.01-6.02,7.72,0,15.44,0,23.16,0,3.34,0,5.85,2.49,5.86,5.82,0,9.21,0,18.43,0,27.64M2.09,53.1v24.17c0,1.39.49,1.89,1.88,1.89,6.73,0,13.46,0,20.19,0,2.39,0,4.77,0,7.16,0,1,0,1.56-.53,1.62-1.53.01-.17.01-.34.01-.5,0-15.87,0-31.74,0-47.61,0-.26,0-.52,0-.78-.03-1.09-.59-1.63-1.69-1.63-9.16,0-18.31,0-27.47,0-1.16,0-1.71.57-1.71,1.72,0,8.09,0,16.19,0,24.28M14.63,83.72c0,1.59,1.24,2.85,2.81,2.86,1.6.01,2.9-1.26,2.9-2.84,0-1.58-1.31-2.89-2.88-2.87-1.57.02-2.83,1.28-2.83,2.85M17.51,25.66c1.08,0,2.16,0,3.24,0,.45,0,.82-.13.81-.63,0-.5-.39-.61-.83-.61-2.14,0-4.28,0-6.42,0-.44,0-.81.12-.8.63,0,.51.39.61.82.61,1.06,0,2.12,0,3.18,0"></path><path class="cls-1" d="M30.66,0c7.46.76,13.9,3.67,19.06,9.18,4.63,4.95,7.15,10.88,7.85,17.61.09.87-.37,1.5-1.13,1.57-.77.07-1.31-.45-1.39-1.33-1.15-12.83-10.92-22.88-23.73-24.4-.3-.04-.59-.05-.89-.09-.9-.11-1.41-.63-1.34-1.39.07-.75.66-1.18,1.58-1.14"></path><path class="cls-1" d="M50.04,26.21c.05.77-.4,1.35-1.1,1.44-.71.09-1.3-.4-1.41-1.2-.38-2.93-1.31-5.67-2.93-8.14-3.22-4.89-7.8-7.63-13.56-8.43-.92-.13-1.45-.67-1.37-1.43.08-.77.74-1.21,1.65-1.09,9.8,1.23,17.24,8.52,18.66,18.29.03.18.04.37.06.56"></path><path class="cls-1" d="M42.41,26c.02.79-.46,1.36-1.17,1.42-.67.05-1.25-.41-1.34-1.15-.24-1.94-.91-3.69-2.15-5.2-1.68-2.05-3.88-3.15-6.49-3.48-.84-.1-1.35-.68-1.26-1.41.09-.74.72-1.19,1.54-1.11,5.62.57,10.12,4.97,10.83,10.57.02.13.02.26.03.35"></path></g></g></svg>