
<svg xmlns="http://www.w3.org/2000/svg" xmlns:xlink="http://www.w3.org/1999/xlink" x="0px" y="0px" viewBox="0 0 212.5 87.5" style="enable-background:new 0 0 212.5 87.5;" xml:space="preserve">
<style type="text/css">
.logo-icon0{fill:#FFFFFF;}
.logo-icon1{fill:none;stroke:#35C3CE;stroke-width:1.49;stroke-linecap:round;stroke-linejoin:round;}
.logo-icon2{fill:none;stroke:#171717;stroke-width:3;stroke-linecap:round;stroke-linejoin:round;}
.logo-icon3{fill:#FFFFFF;stroke:#000000;stroke-width:1.49;stroke-linecap:round;stroke-linejoin:round;}
.logo-icon4{stroke:#000000;stroke-width:1.49;stroke-linecap:round;stroke-linejoin:round;}
.logo-icon5{fill:#35C3CE;}
.logo-icon6{fill:none;stroke:#000000;stroke-width:1.49;stroke-linecap:round;stroke-linejoin:round;}
</style>
<path class="logo-icon0" d="M48.9,1.5L9.5,20.4v24.8c1.1-0.8,2.5-1.3,4-1.3c1.2,0,2.3,0.5,3,1.4c0,0,0,0,0,0c0.1,0.2,0.3,0.4,0.3,0.6c0.1,0.1,0.1,0.2,0.1,0.3c0,0.1,0.1,0.2,0.1,0.2c0,0,0,0.1,0,0.2c0,0.1,0,0.2,0,0.3c0,0.1,0,0.2,0,0.2c0,0.1,0,0.1,0,0.2c0,0.1,0,0.2,0,0.3c0,0,0,0.1,0,0.2c0,0.1,0,0.3-0.1,0.4c0,0.2-0.1,0.3-0.1,0.4c0,0.1-0.1,0.2-0.1,0.2c0,0.1-0.1,0.2-0.1,0.3c0,0-0.1,0.1-0.1,0.2c-0.1,0.3-0.3,0.4-0.5,0.6c-0.1,0.1-0.2,0.2-0.3,0.2c-0.1,0.1-0.3,0.2-0.4,0.3c0,0-0.1,0.1-0.1,0.1c0,0,0,0-0.1,0c-0.1,0-0.2,0.1-0.3,0.1c0,0,0,0-0.1,0c0,0-0.1,0-0.1,0c-0.1,0-0.2,0-0.3,0.1c-0.1,0-0.2,0-0.3,0c0,0-0.1,0-0.1,0c-0.1,0-0.3,0-0.4,0H6.4v1c0,3.3,1.1,6.4,3.1,8.8v19.6c0,2.8,2.2,5,5,5h68.9c2.8,0,5-2.2,5-5V63.7c-1.1,1.8-2.6,3.3-4.2,4.5c-1.2,0.9-2.5,1.7-4,2.2c-2.1,0.8-4.3,1.3-6.6,1.3c-9.8,0-17.7-8-17.7-17.7c0-0.2,0-0.4,0-0.6c0-0.3,0-0.6,0-0.9v-3c0,0.3,0,0.6-0.1,0.9c-0.4,2.8-2.5,5.1-5.1,5.8c-0.1,0-0.2,0-0.3,0.1c-0.1,0-0.3,0.1-0.4,0.1c-0.1,0-0.1,0-0.2,0c-0.1,0-0.2,0-0.2,0c-0.1,0-0.3,0-0.4,0h-0.4c-0.6,0-1.3-0.1-1.8-0.3c-0.2,0-0.4-0.1-0.6-0.2c-0.4-0.2-0.9-0.4-1.3-0.6c-0.2-0.1-0.4-0.3-0.6-0.4c-0.2-0.1-0.4-0.3-0.5-0.4c-1.4-1.3-2.3-3.2-2.3-5.3V15.7h0.1c0.7,0,1.3,0,1.9,0.2c6.9,0.9,12.2,6.8,12.2,14v3l9,5.6l2.8,1.7h11.8l2.7-1.7l6.2-3.9V20.5L48.9,1.5z"/>
<path class="logo-icon1" d="M88.4,20.5v19.8"/>
<path class="logo-icon1" d="M88.4,55.5v24.9c0,2.8-2.2,5-5,5H14.5c-2.8,0-5-2.2-5-5V60.8"/>
<path class="logo-icon1" d="M9.5,50.1V20.4"/>
<path class="logo-icon2" d="M1.5,24.2L48.9,1.5l47.4,22.8"/>
<path class="logo-icon3" d="M91.3,32.8V54c0,5.8-2.8,11-7.1,14.2c-1.2,0.9-2.6,1.7-4,2.2c-2.1,0.8-4.3,1.3-6.7,1.3c-9.8,0-17.7-8-17.7-17.7c0-0.2,0-0.4,0-0.6c0-0.3,0-0.6,0-0.9c0,0,0-0.1,0-0.1V32.8l9,5.6l2.8,1.7h11.8l2.7-1.7L91.3,32.8L91.3,32.8z"/>
<path d="M68.6,54.1c0,1.2-1,2.2-2.2,2.2c-1.2,0-2.2-1-2.2-2.2c0-1.2,1-2.2,2.2-2.2C67.6,51.9,68.6,52.9,68.6,54.1z"/>
<path d="M83,54.1c0,1.2-1,2.2-2.2,2.2c-1.2,0-2.2-1-2.2-2.2c0-1.2,1-2.2,2.2-2.2C82,51.9,83,52.9,83,54.1z"/>
<path class="logo-icon4" d="M55.9,29.8v19.5c0,0,0,0.1,0,0.1c0,0.3,0,0.6-0.1,0.9c-0.4,2.8-2.5,5.1-5.1,5.8c-0.1,0-0.2,0.1-0.3,0.1c-0.1,0-0.3,0-0.4,0.1c-0.1,0-0.1,0-0.2,0c-0.1,0-0.2,0-0.2,0c-0.1,0-0.3,0-0.4,0c-0.1,0-0.2,0-0.4,0c-0.6,0-1.3-0.1-1.8-0.3c-0.2,0-0.4-0.1-0.6-0.2c-0.4-0.2-0.8-0.4-1.3-0.6c-0.2-0.1-0.4-0.3-0.6-0.4c-0.2-0.1-0.4-0.3-0.5-0.4c-1.4-1.3-2.3-3.2-2.3-5.3V15.7h0.1C49.6,15.7,55.9,22,55.9,29.8L55.9,29.8z"/>
<path class="logo-icon4" d="M17.2,47.4c0.1,2-1.5,3.6-3.5,3.6H6.4c0-3.9,3.2-7.1,7.1-7.1C15.4,44,17.1,45.5,17.2,47.4z"/>
<path class="logo-icon5" d="M48.8,80.1c0,0,7.2-4.2,7.2-8.2v-0.2c0-2-1.6-3.6-3.5-3.6c0,0,0,0-0.1,0c-2,0.1-3.6,1.7-3.6,3.7c0-2-1.6-3.6-3.6-3.7c0,0,0,0-0.1,0c-2,0-3.5,1.6-3.5,3.6v0.2C41.6,75.9,48.8,80.1,48.8,80.1L48.8,80.1z"/>
<path d="M72.5,55.5c-0.9,0-1.4,1.1-0.8,1.8c0.5,0.5,1.2,0.8,2,0.8c0.8,0,1.5-0.3,2-0.8c0.6-0.7,0.1-1.8-0.8-1.8H72.5L72.5,55.5z"/>
<path class="logo-icon6" d="M56,31.3c0-8.7-7.1-15.9-15.9-15.9c-8.8,0-15.9,7.1-15.9,15.9v5.6c0,3.9-3.2,7.1-7.1,7.1h-3.5c1.5,0,2.9,1,3.3,2.4c0,0.1,0,0.2,0.1,0.3c0.1,0.2,0.1,0.5,0.1,0.7c0,0.1,0,0.1,0,0.2c0,0.1,0,0.2,0,0.3c0,0.1,0,0.1,0,0.2c0,0.3-0.1,0.5-0.2,0.8c0,0.1-0.1,0.2-0.1,0.3c0,0.1-0.1,0.2-0.1,0.3c0,0.1-0.1,0.1-0.1,0.2c-0.3,0.5-0.8,0.9-1.3,1.2c-0.1,0-0.1,0.1-0.2,0.1c-0.1,0-0.2,0.1-0.3,0.1c0,0-0.1,0-0.1,0c-0.1,0-0.2,0-0.3,0.1c0,0,0,0,0,0c-0.1,0-0.2,0-0.3,0c-0.1,0-0.2,0-0.4,0H6.3v1c0,7.8,6.3,14.1,14.1,14.1h0.1c4.6,0,9,1.6,12.4,4.6l1.7,1.5"/>
<path d="M28.8,34.6c0.9,0,1.6,0.7,1.6,1.6c0,0.9-0.7,1.6-1.6,1.6c-0.9,0-1.6-0.7-1.6-1.6C27.2,35.3,27.9,34.6,28.8,34.6z"/>
<path d="M35,34.6c0.9,0,1.6,0.7,1.6,1.6c0,0.9-0.7,1.6-1.6,1.6s-1.6-0.7-1.6-1.6C33.3,35.3,34.1,34.6,35,34.6z"/>
<path class="logo-icon0" d="M121,47.1V18.2h13.2c3.2,0,5.7,0.8,7.5,2.5c1.7,1.6,2.6,3.9,2.6,6.8s-0.9,5.2-2.6,6.8c-1.7,1.6-4.2,2.5-7.5,2.5h-6.8v10.4H121z M127.3,31.7h5.8c3.4,0,5-1.4,5-4.3c0-2.8-1.7-4.3-5-4.3h-5.8V31.7z M157,47.5c-2.4,0-4.4-0.4-6.2-1.3c-1.7-0.9-3-2.1-3.9-3.6c-0.9-1.6-1.4-3.4-1.4-5.6c0-2.1,0.4-3.9,1.3-5.5c0.9-1.6,2.1-2.8,3.6-3.7c1.6-0.9,3.3-1.4,5.4-1.4c2.9,0,5.2,0.9,7,2.8c1.7,1.8,2.6,4.3,2.6,7.5v1.6h-14c0.2,1.6,0.8,2.7,1.7,3.5c1,0.7,2.3,1.1,3.9,1.1c1.1,0,2.2-0.2,3.3-0.5c1.1-0.3,2.1-0.8,3-1.5l1.6,4.1c-1,0.8-2.3,1.4-3.7,1.8C160,47.3,158.5,47.5,157,47.5z M156.2,30.6c-1.3,0-2.4,0.4-3.2,1.2c-0.8,0.8-1.3,1.9-1.5,3.3h8.9C160.2,32.1,158.8,30.6,156.2,30.6z M178.8,47.5c-5.7,0-8.5-2.7-8.5-8.2v-7.7h-3.8V27h3.8V21h6.2V27h5.9v4.6h-5.9V39c0,1.1,0.3,2,0.8,2.6c0.5,0.6,1.4,0.9,2.6,0.9c0.4,0,0.7,0,1.1-0.1c0.4-0.1,0.8-0.2,1.3-0.3l0.9,4.5c-0.6,0.3-1.3,0.5-2.1,0.7C180.4,47.4,179.6,47.5,178.8,47.5z M120,87.1v-4.7l14.4-18.9H120v-5.3h21.9v4.7l-14.5,18.9h15.1v5.3H120zM154.8,87.5c-2.2,0-4-0.4-5.7-1.3c-1.6-0.9-2.8-2.1-3.7-3.6c-0.9-1.6-1.3-3.5-1.3-5.6c0-2.1,0.4-4,1.3-5.5c0.9-1.6,2.1-2.8,3.7-3.6c1.6-0.8,3.5-1.3,5.7-1.3c2.2,0,4,0.4,5.6,1.3c1.6,0.8,2.9,2.1,3.7,3.6c0.9,1.6,1.4,3.4,1.4,5.5c0,2.2-0.5,4-1.4,5.6c-0.9,1.6-2.1,2.8-3.7,3.6C158.8,87.1,156.9,87.5,154.8,87.5z M154.8,82.9c1.3,0,2.4-0.5,3.2-1.4c0.8-1,1.3-2.4,1.3-4.5c0-2-0.4-3.5-1.3-4.4c-0.8-1-1.9-1.4-3.2-1.4c-1.3,0-2.4,0.5-3.2,1.4c-0.8,0.9-1.2,2.4-1.2,4.4c0,2,0.4,3.5,1.2,4.5C152.4,82.4,153.4,82.9,154.8,82.9z M169.2,87.1V67h6.1v3c0.7-1.1,1.6-1.9,2.7-2.5s2.4-0.9,3.9-0.9c2.4,0,4.2,0.7,5.3,2.1c1.2,1.4,1.8,3.5,1.8,6.4v12.1h-6.2V75.3c0-1.4-0.3-2.4-0.8-3c-0.5-0.6-1.3-0.9-2.3-0.9c-1.3,0-2.4,0.4-3.2,1.2c-0.8,0.8-1.1,1.9-1.1,3.3v11.2H169.2z M204.1,87.5c-2.4,0-4.4-0.4-6.1-1.3c-1.7-0.9-3-2.1-3.9-3.6c-0.9-1.6-1.4-3.4-1.4-5.6c0-2.1,0.4-3.9,1.3-5.5c0.9-1.6,2.1-2.8,3.6-3.7c1.6-0.9,3.3-1.4,5.4-1.4c2.9,0,5.2,0.9,7,2.8c1.7,1.8,2.6,4.3,2.6,7.5v1.6h-14c0.2,1.6,0.8,2.7,1.7,3.5c1,0.7,2.3,1.1,3.9,1.1c1.1,0,2.2-0.2,3.3-0.5c1.1-0.3,2.1-0.8,3-1.5l1.6,4.1c-1,0.8-2.3,1.4-3.7,1.8C207,87.3,205.5,87.5,204.1,87.5z M203.2,70.6c-1.3,0-2.4,0.4-3.2,1.2c-0.8,0.8-1.3,1.9-1.5,3.3h8.9C207.2,72.1,205.8,70.6,203.2,70.6z"/>
</svg>
