<svg width="119" height="50" viewBox="0 0 119 50" fill="none" xmlns="http://www.w3.org/2000/svg">
<path d="M28.0254 1.8833L6.2654 12.3175V25.9913C6.89322 25.5518 7.65915 25.3007 8.4753 25.3007C9.12823 25.3007 9.73093 25.602 10.1202 26.0917C10.1327 26.0917 10.1327 26.0917 10.1327 26.1168C10.2081 26.2173 10.2708 26.3303 10.3211 26.4433C10.3587 26.4935 10.3713 26.5563 10.3964 26.6191C10.4215 26.6568 10.4341 26.707 10.4466 26.7446C10.4466 26.7698 10.4592 26.8074 10.4592 26.8325C10.4717 26.8828 10.4843 26.9455 10.4843 26.9958C10.4843 27.0334 10.4843 27.0837 10.4843 27.1213C10.4969 27.159 10.4969 27.1967 10.4969 27.2469C10.4969 27.2971 10.4969 27.3473 10.4843 27.4101C10.4843 27.4352 10.4843 27.4729 10.4843 27.498C10.4843 27.5734 10.4717 27.6487 10.4466 27.7115C10.4341 27.7994 10.409 27.8747 10.3839 27.95C10.3587 28.0003 10.3462 28.0379 10.3211 28.0756C10.296 28.1258 10.2708 28.1635 10.2457 28.2137C10.2457 28.2137 10.2081 28.2891 10.183 28.3142C10.1076 28.4523 10.0072 28.5527 9.89416 28.6532C9.85649 28.7034 9.80626 28.7411 9.75604 28.7788C9.6807 28.8541 9.60536 28.9043 9.51747 28.942C9.49236 28.9671 9.46725 28.9797 9.44213 28.9922C9.44213 28.9922 9.41702 29.0048 9.39191 29.0173C9.34168 29.0424 9.26635 29.0676 9.20356 29.0927C9.19101 29.0927 9.17845 29.1052 9.1659 29.1052C9.15334 29.1052 9.12823 29.1178 9.11567 29.1178C9.06545 29.1178 9.01522 29.1429 8.97755 29.1554C8.92733 29.168 8.8771 29.1806 8.82688 29.1806C8.80176 29.1806 8.78921 29.1931 8.7641 29.1931C8.68876 29.1931 8.62598 29.2057 8.5632 29.2057H4.57031V29.7707C4.57031 31.6039 5.19812 33.2864 6.2654 34.6049V45.4158C6.2654 46.9351 7.49592 48.1781 9.02778 48.1781H47.023C48.5423 48.1781 49.7853 46.9476 49.7853 45.4158V36.1744C49.1575 37.1412 48.3665 37.9825 47.4499 38.6605C46.7844 39.1502 46.0561 39.5771 45.2651 39.8785C44.135 40.3431 42.9045 40.5942 41.6112 40.5942C36.212 40.5942 31.8801 36.2121 31.8801 30.8129C31.8801 30.6999 31.8801 30.5869 31.8801 30.4739C31.9052 30.3106 31.8801 30.1474 31.8801 29.9716V28.3016C31.8801 28.4774 31.8801 28.6406 31.8425 28.8039C31.6165 30.3483 30.4864 31.6039 29.0048 32.0183C28.942 32.0308 28.8792 32.0434 28.8164 32.0559C28.7536 32.0811 28.6783 32.0936 28.603 32.1062C28.5653 32.1062 28.5276 32.1187 28.4899 32.1187C28.4523 32.1313 28.4021 32.1313 28.3644 32.1438C28.3016 32.1438 28.2263 32.1438 28.1509 32.1564H27.95C27.5985 32.1564 27.2594 32.1062 26.933 32.0183C26.82 31.9932 26.707 31.9555 26.6065 31.9178C26.3679 31.8299 26.1294 31.7169 25.9159 31.5914C25.8155 31.5286 25.7025 31.4532 25.602 31.3779C25.5016 31.3026 25.4011 31.2272 25.3132 31.1393C24.5222 30.4236 24.0325 29.3815 24.0325 28.2263V9.69328H24.0827C24.4468 9.69328 24.7984 9.71839 25.15 9.78117C28.9545 10.296 31.8801 13.548 31.8801 17.4907V19.1607L36.865 22.2746L38.3843 23.2289H44.8884L46.3826 22.2997L49.7853 20.1652V12.3803L28.0254 1.8833Z" fill="white"/>
<path d="M49.7852 12.3677V23.2916" stroke="#35C3CE" stroke-width="1.49" stroke-linecap="round" stroke-linejoin="round"/>
<path d="M49.7856 31.6665V45.4156C49.7856 46.9349 48.555 48.178 47.0232 48.178H9.028C7.50869 48.178 6.26562 46.9474 6.26562 45.4156V34.5921" stroke="#35C3CE" stroke-width="1.49" stroke-linecap="round" stroke-linejoin="round"/>
<path d="M6.26562 28.6782V12.3174" stroke="#35C3CE" stroke-width="1.49" stroke-linecap="round" stroke-linejoin="round"/>
<path d="M1.88281 14.4144L28.0249 1.8833L54.167 14.4772" stroke="#1D256B" stroke-width="3" stroke-linecap="round" stroke-linejoin="round"/>
<path d="M51.3796 19.1606V30.8254C51.3796 34.0398 49.8352 36.8775 47.4495 38.6605C46.784 39.1627 46.0432 39.5771 45.2647 39.891C44.1346 40.3556 42.9041 40.6067 41.5983 40.6067C36.1991 40.6067 31.8672 36.2246 31.8672 30.8254C31.8672 30.7124 31.8672 30.5994 31.8672 30.4864C31.8923 30.3231 31.8672 30.1474 31.8672 29.9841C31.8672 29.959 31.8672 29.9339 31.8672 29.9088V19.1606L36.852 22.2746L38.3713 23.2289H44.8755L46.3696 22.2871L51.367 19.1606H51.3796Z" fill="white" stroke="#1D256B" stroke-width="1.49" stroke-linecap="round" stroke-linejoin="round"/>
<path d="M38.8734 30.8635C38.8734 31.5415 38.3209 32.0814 37.6555 32.0814C36.99 32.0814 36.4375 31.5289 36.4375 30.8635C36.4375 30.198 36.99 29.6455 37.6555 29.6455C38.3209 29.6455 38.8734 30.198 38.8734 30.8635Z" fill="#1D256B"/>
<path d="M46.8226 30.8635C46.8226 31.5415 46.2702 32.0814 45.6047 32.0814C44.9392 32.0814 44.3867 31.5289 44.3867 30.8635C44.3867 30.198 44.9392 29.6455 45.6047 29.6455C46.2702 29.6455 46.8226 30.198 46.8226 30.8635Z" fill="#1D256B"/>
<path d="M31.8797 17.4908V28.2389C31.8797 28.2389 31.8797 28.2891 31.8797 28.3143C31.8797 28.49 31.8672 28.6533 31.8421 28.8165C31.6161 30.3609 30.486 31.6166 29.0044 32.0183C28.9416 32.0309 28.8788 32.056 28.816 32.0686C28.7532 32.0811 28.6779 32.0937 28.6026 32.1062C28.5649 32.1062 28.5272 32.1062 28.4896 32.1188C28.4519 32.1188 28.4017 32.1188 28.364 32.1314C28.2887 32.1314 28.2133 32.1314 28.1505 32.1439C28.0878 32.1439 28.025 32.1439 27.9496 32.1439C27.5981 32.1439 27.259 32.0937 26.9326 32.0058C26.8196 31.9807 26.7191 31.943 26.6061 31.9053C26.3675 31.8174 26.1415 31.7044 25.9155 31.5789C25.8025 31.5161 25.7021 31.4408 25.6016 31.3654C25.5012 31.2901 25.4007 31.2148 25.3128 31.1269C24.5218 30.4112 24.0195 29.369 24.0195 28.2138V9.69336H24.0698C28.3765 9.69336 31.8672 13.184 31.8672 17.4908H31.8797Z" fill="#1D256B" stroke="#1D256B" stroke-width="1.49" stroke-linecap="round" stroke-linejoin="round"/>
<path d="M10.5094 27.1841C10.5471 28.289 9.65559 29.1931 8.5632 29.1931H4.57031C4.57031 27.0334 6.31563 25.2881 8.4753 25.2881C9.54258 25.2881 10.4717 26.1168 10.5094 27.1841Z" fill="#1D256B" stroke="#1D256B" stroke-width="1.49" stroke-linecap="round" stroke-linejoin="round"/>
<path d="M27.9505 45.2027C27.9505 45.2027 31.8931 42.8797 31.8931 40.695V40.6071C31.8931 39.5272 31.0267 38.6483 29.9595 38.6357C29.9595 38.6357 29.9344 38.6357 29.9218 38.6357C28.8294 38.6734 27.9505 39.5775 27.9505 40.6824C27.9505 39.5775 27.0715 38.686 25.9791 38.6483C25.9791 38.6483 25.954 38.6483 25.9415 38.6483C24.8616 38.6609 24.0078 39.5398 24.0078 40.6196V40.7075C24.0078 42.8923 27.9505 45.2152 27.9505 45.2152V45.2027Z" fill="#35C3CE"/>
<path d="M40.9955 31.667C40.4807 31.667 40.2044 32.2822 40.556 32.6715C40.8197 32.9603 41.2089 33.1361 41.6358 33.1361C42.0627 33.1361 42.452 32.9603 42.7157 32.6715C43.0672 32.2948 42.791 31.667 42.2762 31.667H41.008H40.9955Z" fill="#1D256B"/>
<path d="M31.905 18.2821C31.905 13.4605 28 9.54297 23.1658 9.54297C18.3317 9.54297 14.4141 13.448 14.4141 18.2821V21.3961C14.4141 23.5557 12.6563 25.301 10.4966 25.301H8.55036C9.40419 25.301 10.1324 25.8535 10.3961 26.6195C10.4087 26.6571 10.4212 26.7073 10.4338 26.7576C10.4715 26.8831 10.4966 27.0087 10.4966 27.1343C10.4966 27.1719 10.4966 27.2096 10.4966 27.2473C10.4966 27.31 10.4966 27.3603 10.4966 27.4105C10.4966 27.4482 10.4966 27.4733 10.484 27.4984C10.4715 27.6491 10.4338 27.7997 10.371 27.9504C10.3585 28.0006 10.3333 28.0383 10.3082 28.0885C10.2831 28.1388 10.258 28.189 10.2329 28.2266C10.2203 28.2643 10.1952 28.302 10.1701 28.3397C9.98177 28.6159 9.73065 28.8419 9.4293 28.9926C9.39163 29.0177 9.35396 29.0302 9.30374 29.0554C9.25351 29.0805 9.20329 29.093 9.15306 29.1181C9.12795 29.1181 9.11539 29.1307 9.09028 29.1307C9.04005 29.1433 9.00239 29.1558 8.95216 29.1684C8.95216 29.1684 8.93961 29.1684 8.92705 29.1684C8.86427 29.1809 8.80149 29.1935 8.73871 29.1935C8.67592 29.1935 8.61314 29.1935 8.53781 29.1935H4.54492V29.7711C4.54492 34.0653 8.023 37.5434 12.3172 37.5434H12.3549C14.8661 37.5434 17.3021 38.4474 19.2106 40.0923L20.1523 40.9085" stroke="#1D256B" stroke-width="1.49" stroke-linecap="round" stroke-linejoin="round"/>
<path d="M16.9266 20.1025C17.4163 20.1025 17.8181 20.4918 17.8181 20.994C17.8181 21.4963 17.4163 21.8855 16.9266 21.8855C16.437 21.8855 16.0352 21.4963 16.0352 20.994C16.0352 20.4918 16.437 20.1025 16.9266 20.1025Z" fill="#1D256B"/>
<path d="M20.329 20.1025C20.8187 20.1025 21.2205 20.4918 21.2205 20.994C21.2205 21.4963 20.8187 21.8855 20.329 21.8855C19.8393 21.8855 19.4375 21.4963 19.4375 20.994C19.4375 20.4918 19.8393 20.1025 20.329 20.1025Z" fill="#1D256B"/>
<path d="M71.4918 25.9998V11.1948H78.2538C79.3598 11.1948 80.2978 11.3838 81.0678 11.7618C81.8378 12.1398 82.4188 12.6788 82.8108 13.3788C83.2168 14.0788 83.4198 14.9258 83.4198 15.9198C83.4198 16.9138 83.2168 17.7678 82.8108 18.4818C82.4188 19.1818 81.8378 19.7208 81.0678 20.0988C80.2978 20.4768 79.3598 20.6658 78.2538 20.6658H74.7468V25.9998H71.4918ZM74.7468 18.1458H77.7078C78.5478 18.1458 79.1848 17.9568 79.6188 17.5788C80.0668 17.2008 80.2908 16.6478 80.2908 15.9198C80.2908 15.1918 80.0668 14.6458 79.6188 14.2818C79.1848 13.9178 78.5478 13.7358 77.7078 13.7358H74.7468V18.1458Z" fill="#1D256B"/>
<path d="M89.9654 26.2308C88.7474 26.2308 87.6974 26.0138 86.8154 25.5798C85.9474 25.1318 85.2754 24.5088 84.7994 23.7108C84.3374 22.8988 84.1064 21.9468 84.1064 20.8548C84.1064 19.7908 84.3304 18.8598 84.7784 18.0618C85.2264 17.2498 85.8494 16.6198 86.6474 16.1718C87.4594 15.7098 88.3764 15.4788 89.3984 15.4788C90.4064 15.4788 91.2744 15.6958 92.0024 16.1298C92.7304 16.5498 93.2904 17.1518 93.6824 17.9358C94.0884 18.7198 94.2914 19.6508 94.2914 20.7288V21.5268H86.7104V19.8888H92.0024L91.6664 20.1828C91.6664 19.3288 91.4774 18.6848 91.0994 18.2508C90.7354 17.8028 90.2104 17.5788 89.5244 17.5788C89.0064 17.5788 88.5654 17.6978 88.2014 17.9358C87.8374 18.1738 87.5574 18.5168 87.3614 18.9648C87.1654 19.4128 87.0674 19.9518 87.0674 20.5818V20.7498C87.0674 21.4638 87.1724 22.0518 87.3824 22.5138C87.6064 22.9618 87.9354 23.2978 88.3694 23.5218C88.8174 23.7458 89.3704 23.8578 90.0284 23.8578C90.5884 23.8578 91.1554 23.7738 91.7294 23.6058C92.3034 23.4378 92.8214 23.1788 93.2834 22.8288L94.1234 24.9498C93.6054 25.3418 92.9684 25.6568 92.2124 25.8948C91.4704 26.1188 90.7214 26.2308 89.9654 26.2308Z" fill="#1D256B"/>
<path d="M101.135 26.2308C99.6653 26.2308 98.5733 25.8738 97.8593 25.1598C97.1453 24.4458 96.7883 23.3958 96.7883 22.0098V18.0618H94.8353V15.6888H96.7883V12.6648H99.9593V15.6888H103.004V18.0618H99.9593V21.8838C99.9593 22.4718 100.092 22.9128 100.358 23.2068C100.638 23.5008 101.079 23.6478 101.681 23.6478C101.863 23.6478 102.052 23.6268 102.248 23.5848C102.458 23.5428 102.682 23.4868 102.92 23.4168L103.382 25.7268C103.088 25.8808 102.738 25.9998 102.332 26.0838C101.926 26.1818 101.527 26.2308 101.135 26.2308Z" fill="#1D256B"/>
<path d="M70.9668 45.9998V43.6058L79.0938 32.9168V33.9038H70.9668V31.1948H82.1598V33.5888L74.0118 44.2568V43.2908H82.4748V45.9998H70.9668Z" fill="#1D256B"/>
<path d="M88.7871 46.2308C87.6811 46.2308 86.7151 46.0138 85.8891 45.5798C85.0771 45.1458 84.4471 44.5228 83.9991 43.7108C83.5511 42.8988 83.3271 41.9398 83.3271 40.8338C83.3271 39.7278 83.5511 38.7758 83.9991 37.9778C84.4471 37.1798 85.0771 36.5638 85.8891 36.1298C86.7151 35.6958 87.6811 35.4788 88.7871 35.4788C89.8931 35.4788 90.8521 35.6958 91.6641 36.1298C92.4901 36.5638 93.1271 37.1868 93.5751 37.9988C94.0371 38.7968 94.2681 39.7418 94.2681 40.8338C94.2681 41.9398 94.0371 42.8988 93.5751 43.7108C93.1271 44.5228 92.4901 45.1458 91.6641 45.5798C90.8521 46.0138 89.8931 46.2308 88.7871 46.2308ZM88.7871 43.8578C89.4731 43.8578 90.0261 43.6128 90.4461 43.1228C90.8661 42.6188 91.0761 41.8558 91.0761 40.8338C91.0761 39.8118 90.8661 39.0628 90.4461 38.5868C90.0261 38.0968 89.4731 37.8518 88.7871 37.8518C88.1151 37.8518 87.5691 38.0968 87.1491 38.5868C86.7291 39.0628 86.5191 39.8118 86.5191 40.8338C86.5191 41.8558 86.7291 42.6188 87.1491 43.1228C87.5691 43.6128 88.1151 43.8578 88.7871 43.8578Z" fill="#1D256B"/>
<path d="M96.1973 45.9998V35.6888H99.3053V37.6208H99.0743C99.3963 36.9348 99.8723 36.4098 100.502 36.0458C101.146 35.6678 101.874 35.4788 102.686 35.4788C103.512 35.4788 104.191 35.6398 104.723 35.9618C105.255 36.2698 105.654 36.7458 105.92 37.3898C106.186 38.0198 106.319 38.8248 106.319 39.8048V45.9998H103.148V39.9518C103.148 39.4758 103.085 39.0908 102.959 38.7968C102.847 38.4888 102.672 38.2718 102.434 38.1458C102.21 38.0058 101.923 37.9358 101.573 37.9358C101.125 37.9358 100.733 38.0338 100.397 38.2298C100.075 38.4118 99.8233 38.6778 99.6413 39.0278C99.4593 39.3778 99.3683 39.7838 99.3683 40.2458V45.9998H96.1973Z" fill="#1D256B"/>
<path d="M114.042 46.2308C112.824 46.2308 111.774 46.0138 110.892 45.5798C110.024 45.1318 109.352 44.5088 108.876 43.7108C108.414 42.8988 108.183 41.9468 108.183 40.8548C108.183 39.7908 108.407 38.8598 108.855 38.0618C109.303 37.2498 109.926 36.6198 110.724 36.1718C111.536 35.7098 112.453 35.4788 113.475 35.4788C114.483 35.4788 115.351 35.6958 116.079 36.1298C116.807 36.5498 117.367 37.1518 117.759 37.9358C118.165 38.7198 118.368 39.6508 118.368 40.7288V41.5268H110.787V39.8888H116.079L115.743 40.1828C115.743 39.3288 115.554 38.6848 115.176 38.2508C114.812 37.8028 114.287 37.5788 113.601 37.5788C113.083 37.5788 112.642 37.6978 112.278 37.9358C111.914 38.1738 111.634 38.5168 111.438 38.9648C111.242 39.4128 111.144 39.9518 111.144 40.5818V40.7498C111.144 41.4638 111.249 42.0518 111.459 42.5138C111.683 42.9618 112.012 43.2978 112.446 43.5218C112.894 43.7458 113.447 43.8578 114.105 43.8578C114.665 43.8578 115.232 43.7738 115.806 43.6058C116.38 43.4378 116.898 43.1788 117.36 42.8288L118.2 44.9498C117.682 45.3418 117.045 45.6568 116.289 45.8948C115.547 46.1188 114.798 46.2308 114.042 46.2308Z" fill="#1D256B"/>
</svg>